<svg xmlns="http://www.w3.org/2000/svg" id="Component_108_57" width="492" height="208" viewBox="0 0 492 208">
    <defs>
        <style>
            .cls-2{fill:#fff}.cls-5,.cls-6{font-family:Helvetica-Bold,Helvetica;font-weight:700;fill:#f36d41}.cls-5{font-size:18px}.cls-6{font-size:12px}
        </style>
    </defs>
    <g id="Group_17357" opacity="0.1" transform="translate(36.002 18.5)">
        <path id="Rectangle_5774" d="M0 0H492V208H0z" class="cls-2" transform="translate(-36.002 -18.5)"/>
        <g id="Group_16817" transform="translate(26.553)">
            <g id="Group_16815" font-family="Helvetica-Bold, Helvetica" font-weight="700">
                <text id="_622" fill="#032c6c" font-size="54px" transform="rotate(30 59.879 494.955)">
                    <tspan x="0" y="0">622</tspan>
                </text>
                <text id="_622-2" fill="#f36d41" font-size="83px" transform="rotate(-22.03 311.993 -3.265)">
                    <tspan x="0" y="0">622</tspan>
                </text>
            </g>
        </g>
        <g id="Group_16818" transform="translate(0 15.338)">
            <text id="_9" class="cls-5" transform="rotate(17 -333.32 194.036)">
                <tspan x="0" y="0">9</tspan>
            </text>
            <text id="_622-3" class="cls-6" transform="rotate(-22.03 191.907 -490.237)">
                <tspan x="0" y="0">622</tspan>
            </text>
            <text id="_5" class="cls-5" transform="rotate(20 -36.625 10.456)">
                <tspan x="0" y="0">5</tspan>
            </text>
            <text id="_5-2" class="cls-5" transform="rotate(20 -67.652 658.424)">
                <tspan x="0" y="0">6</tspan>
            </text>
            <text id="_5-3" class="cls-5" transform="rotate(20 -67.568 1201.416)">
                <tspan x="0" y="0">5</tspan>
            </text>
            <text id="_622-4" class="cls-6" transform="rotate(56 5.99 181.262)">
                <tspan x="0" y="0">622</tspan>
            </text>
            <text id="_622-5" class="cls-6" transform="rotate(-53.98 245.654 -261.924)">
                <tspan x="0" y="0">2</tspan>
            </text>
        </g>
    </g>
    <g id="Component_147_1" transform="translate(167 24)">
        <path id="Path_46363" fill="#b5a810" d="M80 0A80 80 0 1 1 0 80 80 80 0 0 1 80 0z"/>
        <g id="Path_47117" fill="#b5a810" stroke="none">
            <path d="M68 133.5c-8.844 0-17.421-1.731-25.495-5.146-3.88-1.642-7.623-3.673-11.125-6.039-3.469-2.343-6.73-5.035-9.696-8-2.964-2.964-5.656-6.226-8-9.695-2.365-3.502-4.396-7.245-6.038-11.125C4.231 85.42 2.5 76.844 2.5 68c0-8.844 1.731-17.421 5.146-25.495 1.642-3.88 3.673-7.623 6.039-11.125 2.343-3.469 5.035-6.73 8-9.696 2.964-2.964 6.226-5.656 9.695-8 3.502-2.365 7.245-4.396 11.125-6.038C50.58 4.231 59.156 2.5 68 2.5c8.844 0 17.421 1.731 25.495 5.146 3.88 1.642 7.623 3.673 11.125 6.039 3.469 2.343 6.73 5.035 9.695 8 2.965 2.964 5.657 6.226 8 9.695 2.366 3.502 4.397 7.245 6.039 11.125C131.769 50.58 133.5 59.156 133.5 68c0 8.844-1.731 17.421-5.146 25.495-1.642 3.88-3.673 7.623-6.039 11.125-2.343 3.469-5.035 6.73-8 9.695-2.964 2.965-6.226 5.657-9.695 8-3.502 2.366-7.245 4.397-11.125 6.039C85.42 131.769 76.844 133.5 68 133.5z" transform="translate(12 12)"/>
            <path fill="#fff" d="M68 5c-8.507 0-16.757 1.665-24.52 4.949-3.733 1.578-7.333 3.532-10.7 5.807-3.337 2.255-6.476 4.844-9.328 7.696-2.852 2.852-5.441 5.99-7.696 9.328-2.275 3.367-4.229 6.967-5.807 10.7C6.665 51.242 5 59.492 5 68c0 8.507 1.665 16.757 4.949 24.52 1.578 3.733 3.532 7.333 5.807 10.7 2.255 3.337 4.844 6.476 7.696 9.328 2.852 2.852 5.99 5.441 9.328 7.696 3.367 2.275 6.967 4.229 10.7 5.807C51.242 129.335 59.492 131 68 131c8.507 0 16.757-1.665 24.52-4.949 3.733-1.578 7.333-3.532 10.7-5.807 3.337-2.255 6.476-4.844 9.328-7.696 2.852-2.852 5.441-5.99 7.696-9.328 2.275-3.367 4.229-6.967 5.807-10.7C129.335 84.758 131 76.508 131 68c0-8.507-1.665-16.757-4.949-24.52-1.578-3.733-3.532-7.333-5.807-10.7-2.255-3.337-4.844-6.476-7.696-9.328-2.852-2.852-5.99-5.441-9.328-7.696-3.367-2.275-6.967-4.229-10.7-5.807C84.758 6.665 76.508 5 68 5m0-5c37.555 0 68 30.445 68 68s-30.445 68-68 68S0 105.555 0 68 30.445 0 68 0z" transform="translate(12 12)"/>
        </g>
        <g id="wifi-svgrepo-com_1_" transform="translate(36.317 47)">
            <path id="Path_47122" d="M46.233 51.071a26.543 26.543 0 0 1 7.826-18.893 2.31 2.31 0 0 0-3.266-3.266 31.338 31.338 0 0 0 0 44.318 2.31 2.31 0 0 0 3.266-3.266 26.545 26.545 0 0 1-7.826-18.893z" class="cls-2" transform="translate(-28.404 -20.085)"/>
            <path id="Path_47123" d="M6.3 30.986A37.994 37.994 0 0 1 17.5 3.942 2.31 2.31 0 0 0 14.238.676a42.864 42.864 0 0 0 0 60.62A2.309 2.309 0 1 0 17.5 58.03 37.995 37.995 0 0 1 6.3 30.986z" class="cls-2"/>
            <path id="Path_47124" d="M88.327 55.38a2.31 2.31 0 0 0-3.266 0 20.531 20.531 0 0 0 0 29.037 2.309 2.309 0 0 0 3.266-3.266 15.913 15.913 0 0 1 0-22.5 2.309 2.309 0 0 0 0-3.271z" class="cls-2" transform="translate(-55.485 -39.618)"/>
            <path id="Path_47125" d="M216.548 28.912a2.31 2.31 0 0 0-3.266 3.266 26.718 26.718 0 0 1 0 37.786 2.31 2.31 0 0 0 3.266 3.266 31.337 31.337 0 0 0 0-44.318z" class="cls-2" transform="translate(-151.57 -20.085)"/>
            <path id="Path_47126" d="M244.783.676a2.31 2.31 0 0 0-3.266 3.266 38.245 38.245 0 0 1 0 54.088 2.309 2.309 0 1 0 3.266 3.266 42.864 42.864 0 0 0 0-60.62z" class="cls-2" transform="translate(-171.654)"/>
            <path id="Path_47127" d="M190.078 55.38a2.309 2.309 0 1 0-3.266 3.266 15.912 15.912 0 0 1 0 22.5 2.309 2.309 0 1 0 3.266 3.266 20.531 20.531 0 0 0 0-29.037z" class="cls-2" transform="translate(-132.288 -39.618)"/>
            <path id="Path_47128" d="M137.374 85.273a7.081 7.081 0 0 0-10.037 9.99 6.3 6.3 0 0 0 1.482 1.162v45.805a3.464 3.464 0 1 0 6.928 0V96.424a6.818 6.818 0 0 0 1.578-1.162 7.072 7.072 0 0 0 .049-9.989z" class="cls-2" transform="translate(-88.696 -61.694)"/>
        </g>
    </g>
</svg>
