<svg width="146" height="145" viewBox="0 0 146 145" fill="none" xmlns="http://www.w3.org/2000/svg">
<path d="M57.5551 59.9725C59.7457 56.9932 62.4467 55.3541 64.993 55.0191C58.7303 58.5344 59.0035 65.7456 59.0035 65.8126C59.7561 62.4879 62.8487 59.0808 65.127 58.4932C63.2765 59.9416 63.8694 66.8538 65.8281 68.9826C65.225 64.6786 65.9415 60.1065 69.7403 58.1891L70.7815 59.2355L69.73 60.2921L70.7815 61.3488L69.73 62.4054L70.7815 63.4621L69.73 64.5188L70.7815 65.5755L69.73 66.6321L70.7815 67.6888L69.73 68.7455L70.7815 69.8022L69.73 70.8588L70.7815 71.9155L69.73 72.9722L70.7815 74.0288L69.73 75.0855L70.7815 76.1422L69.73 77.1988L70.7815 78.2555L68.931 80.0441L72.8897 78.4462L76.8484 80.0441L74.9979 78.2555L76.0494 77.204L74.9927 76.1473L76.0494 75.0906L74.9927 74.034L76.0494 72.9773L74.9927 71.9207L76.0494 70.864L74.9927 69.8073L76.0494 68.7506L74.9927 67.694L76.0494 66.6373L74.9927 65.5806L76.0494 64.5239L74.9927 63.4673L76.0494 62.4106L74.9927 61.3539L76.0494 60.2973L74.9927 59.2406L76.0391 58.1942C79.8379 60.1066 80.5544 64.6786 79.9513 68.9826C81.9049 66.8538 82.4977 59.9468 80.6524 58.4932C82.9307 59.0808 86.0182 62.4879 86.7759 65.8126C86.7759 65.7456 87.0542 58.5344 80.7864 55.0191C83.178 55.318 86.0337 56.9932 88.2243 59.9725C88.2243 59.9107 86.6728 53.1222 79.6627 51.6377C82.7606 51.3542 84.2605 51.8027 86.647 53.5088C84.4615 48.21 77.0803 48.9574 76.9618 48.9574C78.7864 48.0193 80.9771 46.2307 78.6318 46.4729C74.2402 46.9214 72.8897 42.973 72.8897 42.973C72.8897 42.973 71.5392 46.9214 67.1476 46.4729C64.8023 46.2307 66.9929 48.0244 68.8176 48.9574C68.7042 48.9574 61.323 48.2048 59.1324 53.5088C61.5189 51.8027 63.0188 51.3542 66.1167 51.6326C59.1014 53.1222 57.5551 59.9055 57.5551 59.9674V59.9725Z" fill="#02592E"/>
<path d="M85.6625 93.8581C85.2811 95.8375 83.3378 94.7344 82.977 94.5334C82.8172 94.4458 82.3945 94.1107 81.8275 93.6468L82.9512 92.2345C83.3172 91.7757 83.245 91.1056 82.7863 90.7345C82.3275 90.3686 81.6575 90.4407 81.2915 90.9046L80.1987 92.2809C77.8535 90.2912 74.9102 87.714 74.9102 87.714C74.9102 87.714 86.1161 76.9978 100.09 76.2968C100.074 76.2968 91.4768 71.8485 79.4823 80.4204C77.4359 81.8791 73.0958 85.6625 72.8948 85.8378C72.6938 85.6625 68.3537 81.8791 66.3074 80.4204C54.3077 71.8485 45.7152 76.2916 45.6997 76.2968C59.6735 77.003 70.8742 87.7088 70.8794 87.714C70.8794 87.714 67.9362 90.2912 65.5909 92.2809L64.4981 90.9046C64.1322 90.4459 63.4621 90.3686 63.0033 90.7345C62.5446 91.1005 62.4724 91.7706 62.8384 92.2345L63.9621 93.6468C63.3899 94.1159 62.9724 94.4458 62.8126 94.5334C62.4518 94.7396 60.5086 95.8426 60.1271 93.8581C59.8488 92.4046 57.9674 91.8582 57.2664 93.4922C56.555 95.1571 57.7148 97.09 59.5756 97.6415C61.1941 98.1209 62.7147 97.8374 64.0703 96.8477C64.3074 96.6725 64.8487 96.2344 65.5548 95.6467L66.5496 96.8941C66.596 96.9457 66.5908 97.023 66.5444 97.0694C66.1269 97.4869 66.1269 98.1621 66.5444 98.5745C66.7506 98.7807 67.0239 98.8889 67.297 98.8889C67.5702 98.8889 67.8434 98.7858 68.0496 98.5745C68.8846 97.7343 68.9413 96.4199 68.1991 95.5385L67.1939 94.2757C69.6784 92.1778 72.7196 89.5748 72.9051 89.415C73.0907 89.5748 76.1267 92.1778 78.6163 94.2757L77.6266 95.5179C76.8637 96.4251 76.9204 97.7395 77.7555 98.5745C77.9616 98.7807 78.2349 98.8889 78.5081 98.8889C78.7812 98.8889 79.0493 98.7858 79.2606 98.5745C79.6781 98.157 79.6781 97.4817 79.2606 97.0694C79.2142 97.023 79.2091 96.9457 79.2709 96.8684L80.2451 95.6416C80.9513 96.2292 81.4925 96.6673 81.7296 96.8426C83.0904 97.8322 84.6058 98.1158 86.2243 97.6364C88.0851 97.0849 89.2448 95.1519 88.5335 93.487C87.8377 91.853 85.9563 92.3994 85.6728 93.853L85.6625 93.8581Z" fill="#02592E"/>
<path d="M71.7918 0.5V25.6127L64.6013 32.8032H39.4473L71.7918 0.5Z" fill="#02592E"/>
<path d="M35.6949 36.5454V61.7096L25.9426 71.4619H0.731964L35.6949 36.5454Z" fill="#02592E"/>
<path d="M69.0547 141.269L0.747375 73.6783H26.4632L45.2873 92.5025L69.0547 141.269Z" fill="#02592E"/>
<path d="M48.9058 48.4986L37.9113 59.4932V36.7206L48.9058 48.4986Z" fill="#02592E"/>
<path d="M106.347 32.8032H81.1832L74.0031 25.623V0.5L106.347 32.8032Z" fill="#02592E"/>
<path d="M145.053 71.467H119.842L110.1 61.7199V36.5454L145.053 71.467Z" fill="#02592E"/>
<path d="M107.889 36.7206V59.5086L96.8787 48.4986L107.889 36.7206Z" fill="#02592E"/>
<path d="M62.3848 35.0196L50.478 46.9265L39.3494 35.0196H62.3848Z" fill="#02592E"/>
<path d="M106.44 35.0196L95.3169 46.9368L83.3997 35.0196H106.44Z" fill="#02592E"/>
<path d="M95.7293 97.2756L72.9 144.104L50.0862 97.3013L72.8897 120.1L95.7293 97.2756Z" fill="#02592E"/>
<path d="M145.042 73.6783L76.7555 141.259L76.7401 141.279L100.518 92.4768L119.321 73.6783H145.042Z" fill="#02592E"/>
</svg>
