<svg width="176" height="79" viewBox="0 0 176 79" fill="none" xmlns="http://www.w3.org/2000/svg">
<path d="M15.6177 20.7504H13.3834C13.2688 20.9008 13.147 21.0655 13.0181 21.2445C12.8892 21.4164 12.7639 21.5811 12.6421 21.7386L5.7564 19.7836C5.87098 20.9652 5.98915 22.1791 6.11089 23.4252C6.23264 24.6713 6.3508 25.8851 6.46539 27.0668C6.06434 27.2601 5.67763 27.4499 5.30523 27.6361C4.93999 27.8295 4.56044 28.0264 4.16656 28.2269C4.11643 27.3604 4.0663 26.5046 4.01617 25.6595C3.96604 24.8145 3.91591 23.973 3.86578 23.1351C3.82281 22.3044 3.77626 21.4701 3.72613 20.6322C3.676 19.7871 3.62587 18.9278 3.57574 18.0541C3.71897 17.6745 3.89442 17.3702 4.1021 17.141C4.30979 16.9118 4.5855 16.7972 4.92925 16.7972C5.09397 16.7972 5.29091 16.833 5.52007 16.9047C5.7564 16.9691 6.0357 17.0801 6.35796 17.2377C6.49403 16.7722 6.69455 16.3138 6.95953 15.8627C7.2245 15.4043 7.52886 14.9997 7.87261 14.6488C8.22352 14.2907 8.60308 14.0078 9.01128 13.8002C9.36936 13.6283 9.73459 13.5424 10.107 13.5424H10.2574C10.9234 13.5925 11.4748 13.7608 11.9117 14.0472C12.3485 14.3265 12.6923 14.6846 12.9429 15.1215C13.2007 15.5511 13.3798 16.0381 13.48 16.5824C13.5803 17.1267 13.6304 17.6888 13.6304 18.2689H15.6177V20.7504ZM11.6753 18.9134C11.6753 18.8705 11.6789 18.8132 11.6861 18.7416C11.6933 18.6628 11.6968 18.5769 11.6968 18.4838C11.704 18.3907 11.7076 18.2976 11.7076 18.2045C11.7147 18.1114 11.7183 18.029 11.7183 17.9574C11.7183 17.7282 11.6968 17.4919 11.6539 17.2484C11.6181 16.9978 11.5429 16.7686 11.4283 16.5609C11.3209 16.3532 11.1633 16.1814 10.9556 16.0453C10.7479 15.9021 10.4758 15.8269 10.1392 15.8197C9.93869 15.8197 9.73459 15.8877 9.52691 16.0238C9.31923 16.1599 9.12945 16.3317 8.95757 16.5394C8.7857 16.7471 8.64247 16.9834 8.52789 17.2484C8.4133 17.5062 8.34885 17.7569 8.33453 18.0004L11.6753 18.9134ZM15.0806 18.2689H19.3882C19.4312 18.097 19.4634 17.9252 19.4849 17.7533C19.5136 17.5743 19.5279 17.4024 19.5279 17.2377C19.5279 16.8509 19.4778 16.4284 19.3775 15.9701C19.2772 15.5046 19.1018 15.0463 18.8511 14.5951C19.2164 14.3659 19.553 14.1439 19.8609 13.9291C20.176 13.7071 20.5054 13.4779 20.8492 13.2416C21.15 13.9291 21.3612 14.6524 21.483 15.4115C21.6047 16.1634 21.6656 16.919 21.6656 17.6781C21.6656 18.2152 21.6441 18.738 21.6011 19.2465C21.5582 19.7549 21.4973 20.2562 21.4185 20.7504H15.0806V18.2689ZM16.7134 12.5648C16.785 12.4574 16.8602 12.3715 16.939 12.307C17.0178 12.2425 17.1002 12.1853 17.1861 12.1351C17.272 12.085 17.3615 12.0349 17.4546 11.9847C17.5477 11.9346 17.648 11.8702 17.7554 11.7914C17.6552 11.7842 17.5477 11.7556 17.4332 11.7054C17.3257 11.6481 17.2219 11.5801 17.1216 11.5013C17.0214 11.4226 16.939 11.333 16.8746 11.2328C16.8101 11.1325 16.7779 11.0287 16.7779 10.9213C16.7779 10.6849 16.8244 10.4092 16.9175 10.0941C17.0178 9.77184 17.1539 9.4639 17.3257 9.17028C17.5048 8.87666 17.7125 8.62959 17.9488 8.42907C18.1923 8.22139 18.4572 8.11755 18.7437 8.11755C18.9514 8.13187 19.1412 8.182 19.313 8.26794C19.4849 8.34671 19.5995 8.45772 19.6568 8.60095L19.2378 9.57849C19.1376 9.56416 19.0337 9.54268 18.9263 9.51403C18.8189 9.47823 18.7151 9.45674 18.6148 9.44958H18.5933C18.5002 9.44958 18.4143 9.47464 18.3355 9.52477C18.2424 9.5749 18.1672 9.668 18.1099 9.80407C18.0598 9.90433 18.0347 9.99385 18.0347 10.0726C18.0347 10.1228 18.049 10.1657 18.0777 10.2015C18.1278 10.2946 18.2173 10.3627 18.3462 10.4056C18.4823 10.4486 18.6434 10.4701 18.8296 10.4701C19.0158 10.4701 19.2056 10.4629 19.399 10.4486C19.5995 10.4343 19.7929 10.42 19.9791 10.4056H20.1939C20.2798 10.4056 20.3586 10.4092 20.4302 10.4164L19.8931 12.0707C19.6496 12.128 19.3882 12.196 19.1089 12.2748C18.8368 12.3464 18.5647 12.4323 18.2925 12.5326C18.0276 12.6328 17.7733 12.751 17.5298 12.8871C17.2863 13.016 17.0751 13.1628 16.896 13.3275L16.7134 12.5648ZM24.0611 18.0863C24.0181 16.5251 23.9752 14.9675 23.9322 13.4134C23.8892 11.8594 23.8498 10.3018 23.814 8.74059C24.2222 8.56872 24.6197 8.40401 25.0064 8.24645C25.4003 8.08174 25.7977 7.91703 26.1988 7.75231C26.1845 8.63317 26.1701 9.49971 26.1558 10.3519C26.1415 11.2041 26.1236 12.0528 26.1021 12.8978C26.0878 13.7429 26.0735 14.5915 26.0591 15.4437C26.0448 16.2888 26.0305 17.1517 26.0162 18.0326C25.7584 18.4909 25.5077 18.9421 25.2642 19.3861C25.0207 19.8301 24.7701 20.2849 24.5123 20.7504H24.0503L24.0611 18.0863ZM32.15 13.0375C32.8231 13.0375 33.3996 13.1879 33.8794 13.4886C34.3593 13.7823 34.7496 14.1761 35.0503 14.6703C35.3583 15.1644 35.5803 15.7338 35.7164 16.3783C35.8596 17.0157 35.9312 17.6781 35.9312 18.3656C35.9312 18.8741 35.8954 19.3789 35.8238 19.8802C35.7593 20.3815 35.6591 20.8649 35.523 21.3304C35.3941 21.7888 35.233 22.2149 35.0396 22.6088C34.8534 23.0098 34.6386 23.3571 34.3951 23.6508C33.8365 24.3597 33.2922 24.8682 32.7623 25.1761C32.2395 25.4841 31.7131 25.6381 31.1832 25.6381C30.7177 25.6381 30.2522 25.5342 29.7867 25.3265C29.3212 25.1189 28.8414 24.8252 28.3472 24.4457C28.3544 24.4242 28.358 24.3955 28.358 24.3597C28.3651 24.3239 28.3687 24.2845 28.3687 24.2416C28.3759 24.1986 28.3794 24.1592 28.3794 24.1234C28.3866 24.0948 28.3902 24.0769 28.3902 24.0697C29.0132 24.0554 29.5969 23.9659 30.1412 23.8011C30.6854 23.6364 31.1796 23.4073 31.6236 23.1136C32.0676 22.8272 32.4507 22.4834 32.773 22.0824C33.1024 21.6814 33.3638 21.2373 33.5572 20.7504H30.5064C30.3632 20.736 30.2343 20.7146 30.1197 20.6859C30.0123 20.6501 29.9227 20.6179 29.8511 20.5892C29.357 20.267 28.9882 19.8516 28.7447 19.3431C28.5084 18.8275 28.3902 18.2904 28.3902 17.7318C28.3902 17.1732 28.4833 16.6146 28.6695 16.056C28.8628 15.4974 29.1278 14.9961 29.4644 14.5521C29.801 14.1009 30.1985 13.7357 30.6568 13.4564C31.1151 13.1771 31.6128 13.0375 32.15 13.0375ZM31.774 15.0355C31.552 15.0355 31.3515 15.0928 31.1724 15.2074C30.9934 15.322 30.8394 15.4688 30.7105 15.6478C30.5888 15.8269 30.4921 16.0274 30.4205 16.2494C30.356 16.4714 30.3238 16.6934 30.3238 16.9154C30.3238 17.2162 30.3882 17.4919 30.5171 17.7425C30.646 17.9932 30.8609 18.1687 31.1617 18.2689H33.6002C33.6288 18.1687 33.6467 18.0684 33.6539 17.9681C33.6682 17.8679 33.6753 17.7712 33.6753 17.6781C33.6753 17.4489 33.6503 17.184 33.6002 16.8832C33.55 16.5824 33.4569 16.2959 33.3209 16.0238C33.1848 15.7445 32.9914 15.5118 32.7408 15.3256C32.4901 15.1322 32.1679 15.0355 31.774 15.0355ZM47.7154 13.0052C47.7154 12.9551 47.7655 12.8942 47.8658 12.8226C47.9732 12.7439 48.1021 12.6651 48.2525 12.5863C48.41 12.5004 48.5783 12.418 48.7574 12.3392C48.9364 12.2533 49.1011 12.1781 49.2515 12.1136C49.4091 12.0492 49.5416 11.9955 49.649 11.9525C49.7349 11.9239 49.785 11.9095 49.7994 11.9095C49.8209 12.153 49.8495 12.4466 49.8853 12.7904C49.9211 13.127 49.9533 13.4743 49.982 13.8324C50.0178 14.1905 50.0536 14.5414 50.0894 14.8851C50.1252 15.2289 50.1539 15.5225 50.1753 15.766C50.2112 16.1169 50.2756 16.4248 50.3687 16.6898C50.4618 16.9476 50.5728 17.1732 50.7017 17.3666C50.8306 17.5528 50.9738 17.7103 51.1314 17.8392C51.2961 17.961 51.468 18.0577 51.647 18.1293C51.8905 18.2367 52.245 18.2904 52.7105 18.2904H52.9791V20.7504H51.8834C51.511 20.7504 51.178 20.7181 50.8843 20.6537C50.5334 20.5749 50.2219 20.4424 49.9498 20.2562C49.6776 20.07 49.4377 19.823 49.23 19.515C49.0295 19.2071 48.8541 18.8311 48.7037 18.3871C48.5819 18.5518 48.4494 18.738 48.3062 18.9457C48.163 19.1462 48.0162 19.3539 47.8658 19.5687C47.7154 19.7764 47.565 19.9841 47.4146 20.1918C47.2642 20.3994 47.1281 20.5892 47.0064 20.7611C46.9491 20.8184 46.8632 20.847 46.7486 20.847C46.6913 20.847 46.6268 20.8399 46.5552 20.8256C46.3404 20.7754 46.1005 20.6859 45.8355 20.557C45.5705 20.4209 45.2948 20.2634 45.0084 20.0843C44.7291 19.9053 44.4784 19.7334 44.2564 19.5687C44.0344 19.3968 43.8589 19.2465 43.73 19.1175C43.6298 19.0244 43.5796 18.9636 43.5796 18.9349C43.5796 18.9206 43.5832 18.9134 43.5904 18.9134C43.6477 18.4551 43.7085 17.9968 43.773 17.5384C43.8375 17.073 43.8983 16.6075 43.9556 16.142V16.1527C43.9699 16.0453 44.0809 15.9056 44.2886 15.7338C44.5035 15.5547 44.7828 15.3649 45.1265 15.1644C45.4774 14.9639 45.8749 14.767 46.3189 14.5736C46.7701 14.3731 47.2391 14.2012 47.7261 14.058C47.7261 13.9147 47.7225 13.7393 47.7154 13.5316C47.7154 13.3239 47.7154 13.1485 47.7154 13.0052ZM49.1978 6.87145C49.4986 7.17224 49.7886 7.46586 50.0679 7.75231C50.3544 8.03877 50.648 8.33239 50.9488 8.63317L49.1978 10.3841L47.5113 8.70837L45.8462 10.3841L44.0845 8.63317C44.3925 8.33239 44.6861 8.03877 44.9654 7.75231C45.2518 7.46586 45.5455 7.17224 45.8462 6.87145L47.5113 8.54724L49.1978 6.87145ZM45.2769 16.9906C45.4058 17.055 45.549 17.1338 45.7066 17.2269C45.8713 17.3129 46.0396 17.406 46.2115 17.5062C46.3834 17.5993 46.5516 17.6924 46.7164 17.7855C46.8811 17.8786 47.0279 17.961 47.1568 18.0326C47.2212 18.0612 47.2893 18.0756 47.3609 18.0756C47.4325 18.0756 47.5077 18.0577 47.5865 18.0218C47.7225 17.9502 47.8443 17.8356 47.9517 17.6781C48.0591 17.5134 48.1451 17.32 48.2095 17.098C48.2811 16.8689 48.3169 16.6289 48.3169 16.3783C48.3169 16.1563 48.2811 15.8806 48.2095 15.5511L45.2769 16.9906ZM70.3814 18.2689V20.7504H52.4419V18.2689H54.4937C54.3648 17.9968 54.2502 17.6709 54.15 17.2914C54.0497 16.9118 53.9709 16.5036 53.9136 16.0668C54.2502 15.9235 54.5617 15.7875 54.8482 15.6586C55.1347 15.5225 55.439 15.3828 55.7613 15.2396C55.8401 15.8125 55.9475 16.3496 56.0835 16.8509C56.2196 17.3451 56.3772 17.8177 56.5562 18.2689H57.4908C57.7844 17.9037 58.1067 17.517 58.4576 17.1088C58.8156 16.7006 59.188 16.2995 59.5748 15.9056C59.9615 15.5118 60.3625 15.1358 60.7779 14.7777C61.1933 14.4196 61.6158 14.1045 62.0455 13.8324C62.4752 13.5603 62.9048 13.3454 63.3345 13.1879C63.7642 13.0231 64.1867 12.9408 64.6021 12.9408C65.0031 12.9408 65.397 13.0339 65.7837 13.2201C66.1776 13.4063 66.5536 13.7106 66.9117 14.1332C67.2769 14.5485 67.6207 15.0964 67.9429 15.7767C68.2724 16.4499 68.5731 17.2806 68.8453 18.2689H70.3814ZM66.6646 18.0326C66.5285 17.5384 66.3746 17.1195 66.2027 16.7758C66.0308 16.432 65.841 16.1527 65.6334 15.9379C65.4328 15.723 65.2144 15.569 64.9781 15.4759C64.7489 15.3757 64.5126 15.3256 64.2691 15.3256C63.9397 15.3256 63.5923 15.4115 63.2271 15.5834C62.869 15.7552 62.5074 15.9808 62.1421 16.2601C61.7769 16.5394 61.4153 16.8545 61.0572 17.2054C60.6991 17.5564 60.3625 17.9108 60.0474 18.2689H66.482L66.6646 18.0326ZM69.8443 18.2689H72.6158C72.6516 18.097 72.6838 17.9252 72.7125 17.7533C72.7411 17.5743 72.7554 17.4024 72.7554 17.2377C72.7554 16.8509 72.7017 16.4284 72.5943 15.9701C72.494 15.5046 72.3222 15.0463 72.0787 14.5951C72.4296 14.3588 72.759 14.1368 73.0669 13.9291C73.3821 13.7142 73.7115 13.4851 74.0552 13.2416C74.356 13.9577 74.5673 14.6989 74.689 15.4652C74.8179 16.2315 74.8824 17.0013 74.8824 17.7748V18.2689H76.8052V20.7504H69.8443V18.2689ZM72.4654 7.84899L74.2271 9.59997L72.4654 11.3617L70.7144 9.59997L72.4654 7.84899ZM79.147 20.7504H76.2681V18.2689H78.1587L78.5777 16.7543C78.6708 16.2816 78.8391 15.8197 79.0826 15.3685C79.3261 14.9102 79.6197 14.5091 79.9634 14.1654C80.3072 13.8145 80.6867 13.5352 81.1021 13.3275C81.453 13.1556 81.8183 13.0697 82.1978 13.0697C82.2694 13.0697 82.3375 13.0733 82.4019 13.0804C83.0536 13.1306 83.5907 13.2774 84.0132 13.5209C84.4358 13.7644 84.7688 14.0759 85.0123 14.4554C85.2629 14.8278 85.4384 15.2539 85.5386 15.7338C85.6389 16.2064 85.689 16.7006 85.689 17.2162C85.689 17.7103 85.6532 18.2116 85.5816 18.7201C85.5171 19.2286 85.4348 19.7119 85.3345 20.1703C85.2271 20.3064 85.1197 20.4424 85.0123 20.5785C84.9048 20.7146 84.7974 20.847 84.69 20.9759L79.7164 19.6009L79.147 20.7504ZM83.7125 18.1615C83.7125 18.1328 83.716 18.0863 83.7232 18.0218C83.7304 17.9574 83.7375 17.8894 83.7447 17.8177C83.7518 17.739 83.7554 17.6638 83.7554 17.5922C83.7626 17.5134 83.7662 17.4489 83.7662 17.3988C83.7662 17.184 83.7447 16.9548 83.7017 16.7113C83.6659 16.4606 83.5871 16.2315 83.4654 16.0238C83.3436 15.8161 83.1718 15.6407 82.9498 15.4974C82.7349 15.3542 82.4449 15.279 82.0796 15.2718C81.8791 15.2718 81.6786 15.3291 81.4781 15.4437C81.2847 15.5511 81.1093 15.698 80.9517 15.8841C80.7942 16.0632 80.6617 16.2744 80.5543 16.5179C80.454 16.7543 80.3967 16.9978 80.3824 17.2484L83.7125 18.1615Z" fill="white"/>
<path d="M85.7833 32.3402H0.979858V33.927H85.7833V32.3402Z" fill="white"/>
<path d="M55.3767 43.7915C55.3389 43.9223 55.2982 44.0676 55.2546 44.2245C55.211 44.3814 55.1732 44.5413 55.1442 44.7011C55.1151 44.8609 55.1035 45.0179 55.1064 45.169C55.1064 45.3201 55.1413 45.4567 55.2023 45.5758C55.2633 45.695 55.3621 45.788 55.5016 45.8548C55.6411 45.9217 55.83 45.9536 56.0654 45.9507H62.7466C62.889 45.4509 62.9268 44.9743 62.8657 44.5238C62.8018 44.0705 62.6594 43.5881 62.4385 43.0708L63.6765 42.2106C63.9178 42.7947 64.0718 43.4021 64.1386 44.0385C64.2055 44.675 64.22 45.3114 64.1909 45.9507H65.4376V47.5288H54.47C54.3479 47.4067 54.2694 47.2527 54.2346 47.0638C54.1968 46.8749 54.1881 46.6685 54.2055 46.4477C54.223 46.2268 54.2636 45.9972 54.3276 45.756C54.3915 45.5177 54.4642 45.2852 54.5484 45.0615C54.6327 44.8377 54.7199 44.6314 54.8129 44.4396C54.9059 44.2478 54.9902 44.085 55.0686 43.9542V43.963L55.3767 43.7886V43.7915ZM59.4191 48.8104L60.5379 49.9321L59.4191 51.0771L58.2828 49.9321L59.4191 48.8104Z" fill="white"/>
<path d="M65.2081 45.9536H67.5591C67.626 45.695 67.6696 45.4509 67.6841 45.2213C67.6986 44.9888 67.6957 44.7592 67.6696 44.5267C67.6434 44.2943 67.594 44.0618 67.5185 43.8235C67.4458 43.5852 67.3528 43.3381 67.2424 43.0737L68.4804 42.2135C68.6896 42.725 68.8378 43.2306 68.925 43.7363C69.0122 44.2419 69.0558 44.7738 69.0558 45.3376L69.0238 45.9536H70.6164V47.5317H65.2023V45.9536H65.2081ZM66.8907 39.0749L67.9311 40.1094L68.9802 39.0749L70.1078 40.2024L68.9802 41.3387L67.9311 40.2896L66.8907 41.3387L65.7631 40.2024L66.8907 39.0749Z" fill="white"/>
<path d="M70.4565 45.9536H75.7021C75.1703 45.3637 74.5425 44.7534 73.816 44.1228C73.0895 43.4922 72.2351 42.8412 71.2528 42.1728L71.8457 40.3419L77.5591 37.927L76.9604 39.6619L72.5984 41.3358C73.1825 41.7194 73.723 42.1147 74.22 42.5244C74.7169 42.9313 75.1732 43.3352 75.5858 43.7363C75.9985 44.1373 76.3734 44.5238 76.7105 44.8987C77.0476 45.2736 77.3469 45.6253 77.6114 45.9507H78.4484V47.5288H70.4624V45.9507L70.4565 45.9536Z" fill="white"/>
<path d="M80.1688 47.5317H78.2362V45.9536H79.634L79.9886 44.6895C80.0583 44.3495 80.1775 44.0153 80.3519 43.6869C80.5262 43.3614 80.7355 43.0708 80.9796 42.8179C81.2237 42.5651 81.4969 42.3646 81.7962 42.2193C82.0955 42.0711 82.4036 42.0071 82.7203 42.0217C83.1999 42.0682 83.598 42.2018 83.9206 42.4169C84.2402 42.632 84.4931 42.9022 84.6791 43.2219C84.8622 43.5416 84.9842 43.899 85.0452 44.2913C85.1063 44.6837 85.1179 45.0818 85.0801 45.4858C85.0423 45.8897 84.9668 46.2849 84.8476 46.6656C84.7285 47.0463 84.5803 47.3864 84.403 47.6799L80.6396 46.6308L80.1746 47.5317H80.1688ZM83.8537 45.9246C83.8915 45.8345 83.9206 45.7153 83.9409 45.5642C83.9612 45.4131 83.9671 45.2533 83.9554 45.0789C83.9438 44.9045 83.9148 44.7273 83.8595 44.5471C83.8072 44.3669 83.723 44.1954 83.6096 44.0385C83.4963 43.8816 83.3481 43.745 83.165 43.6317C82.9819 43.5183 82.7552 43.4428 82.4849 43.3992C82.3106 43.3992 82.142 43.4486 81.9764 43.5445C81.8107 43.6433 81.6596 43.7712 81.5259 43.9368C81.3922 44.0995 81.2818 44.2855 81.1975 44.4977C81.1132 44.7069 81.0639 44.9278 81.0464 45.1516L83.8479 45.9246H83.8537Z" fill="white"/>
<path d="M4.86539 58.2669C5.72851 57.6479 6.15862 57.3398 6.15862 57.3427C6.17896 57.5258 6.19639 57.7409 6.21093 57.9821C6.22255 58.2233 6.23708 58.4732 6.2458 58.7318C6.25742 58.9905 6.26904 59.2404 6.28067 59.4845C6.29229 59.7286 6.30683 59.9437 6.32427 60.1268C6.44632 60.833 6.64394 61.3677 6.92293 61.7368C7.20191 62.1058 7.54193 62.2889 7.94007 62.2889H8.55616V63.8582H7.83834C7.57098 63.8524 7.32396 63.8117 7.09729 63.7362C6.87061 63.6606 6.66427 63.5415 6.47537 63.3787C6.28648 63.216 6.11211 63.0067 5.94937 62.751C5.78953 62.4953 5.63841 62.1901 5.49601 61.8327C5.40011 62.1785 5.28678 62.4778 5.156 62.7248C5.02523 62.9719 4.88282 63.1782 4.73461 63.3409C4.58349 63.5037 4.43239 63.6228 4.27255 63.7013C4.11562 63.7769 3.95868 63.8146 3.80756 63.8146C3.639 63.8146 3.45883 63.7827 3.26703 63.7187C3.07522 63.6548 2.8776 63.5705 2.67998 63.463C2.47946 63.3555 2.27894 63.2334 2.08132 63.0968C1.8808 62.9602 1.68609 62.8149 1.49719 62.6638L1.782 60.6121C1.80816 60.5395 1.91859 60.4261 2.1104 60.2779C2.3022 60.1268 2.5434 59.9669 2.83111 59.7926C3.12172 59.6182 3.4414 59.4497 3.79885 59.284C4.1534 59.1184 4.51085 58.9818 4.8683 58.8772V58.2698L4.86539 58.2669ZM2.97351 54.4802L4.0139 55.5206L5.0543 54.4802L6.19058 55.6078L5.0543 56.7441L4.0139 55.6949L2.97351 56.7441L1.83722 55.6078L2.97351 54.4802ZM5.0543 60.0251C4.83924 60.1093 4.62419 60.1907 4.41495 60.275C4.20571 60.3564 3.99356 60.4494 3.78141 60.5511C3.56927 60.6528 3.3513 60.769 3.13334 60.8969C2.91538 61.0248 2.69161 61.1788 2.46493 61.359C2.7817 61.5653 3.06651 61.7455 3.32515 61.9024C3.5838 62.0594 3.79303 62.1523 3.95577 62.1785C4.1127 62.193 4.26382 62.1494 4.40913 62.0448C4.55443 61.9402 4.6765 61.7891 4.78112 61.5915C4.88283 61.3938 4.9613 61.1614 5.01361 60.894C5.06592 60.6266 5.08045 60.336 5.05139 60.0251H5.0543Z" fill="white"/>
<path d="M11.5815 54.2651C11.6396 54.3552 11.6861 54.4482 11.721 54.5499C11.7559 54.6517 11.7849 54.7505 11.8111 54.8493C11.8431 55.0236 11.8489 55.198 11.8343 55.3782C11.8198 55.5584 11.7791 55.7211 11.7152 55.8664C11.6512 56.0146 11.5641 56.1338 11.4536 56.2268C11.3432 56.3198 11.2095 56.3663 11.0497 56.3663C10.9189 56.3663 10.8201 56.343 10.7533 56.2965C10.6864 56.25 10.6138 56.189 10.5353 56.1163C10.5033 56.1687 10.4655 56.2297 10.4161 56.2965C10.3696 56.3634 10.3115 56.4302 10.2418 56.4941C10.172 56.5581 10.0906 56.6133 9.99765 56.6598C9.90175 56.7063 9.79714 56.7353 9.6809 56.747C9.49781 56.7615 9.34959 56.7353 9.23916 56.6685C9.12873 56.5988 9.04737 56.5087 8.99506 56.3924C8.94275 56.2762 8.91369 56.1454 8.90497 56.0001C8.89625 55.8548 8.90496 55.7153 8.9195 55.5787C8.93693 55.4421 8.96599 55.3172 9.00377 55.2038C9.04155 55.0905 9.07642 55.0091 9.1142 54.9539C9.1142 54.9684 9.12583 54.9655 9.15198 54.9452C9.17814 54.9248 9.2072 54.9016 9.24207 54.8754C9.27694 54.8493 9.306 54.826 9.33216 54.8086C9.35831 54.7912 9.37285 54.7882 9.37285 54.8057C9.33216 54.9103 9.29439 55.0324 9.26532 55.1719C9.23626 55.3113 9.22754 55.4421 9.24207 55.5671C9.2566 55.692 9.29148 55.7938 9.3525 55.878C9.41353 55.9623 9.51235 56.003 9.64893 55.9972C9.80005 55.9972 9.91919 55.9565 10.0006 55.8722C10.0819 55.788 10.143 55.6891 10.1866 55.5758C10.2272 55.4625 10.2621 55.3462 10.2854 55.2242C10.3086 55.1021 10.3406 55.0033 10.3842 54.9248C10.39 54.9394 10.4016 54.9394 10.4249 54.9248C10.4452 54.9103 10.4685 54.89 10.4946 54.8667C10.5208 54.8435 10.5469 54.8231 10.5702 54.8028C10.5934 54.7853 10.608 54.7824 10.6138 54.7999C10.5702 54.951 10.5644 55.0934 10.5934 55.2271C10.6225 55.3608 10.6748 55.4654 10.7474 55.5438C10.8201 55.6223 10.9131 55.6688 11.0264 55.6862C11.1398 55.7008 11.2618 55.6659 11.3926 55.5758C11.4246 55.5293 11.4391 55.4712 11.4362 55.4014C11.4362 55.3346 11.4217 55.2619 11.4013 55.1922C11.381 55.1225 11.3519 55.0498 11.3141 54.9801C11.2764 54.9103 11.2415 54.8464 11.2037 54.7941C11.2734 54.6982 11.3374 54.611 11.3984 54.5267C11.4594 54.4424 11.5176 54.3581 11.5757 54.2739L11.5815 54.2651Z" fill="white"/>
<path d="M8.35274 62.2831H10.7038C10.7706 62.0245 10.8142 61.7804 10.8288 61.5508C10.8433 61.3212 10.8404 61.0887 10.8142 60.8562C10.7881 60.6237 10.7387 60.3912 10.6631 60.1529C10.5905 59.9146 10.4975 59.6676 10.387 59.4032L11.625 58.543C11.8343 59.0544 11.9825 59.5601 12.0697 60.0658C12.1568 60.5714 12.2004 61.1032 12.2004 61.667L12.1685 62.2831H13.761V63.8611H8.34692V62.2831H8.35274ZM9.97727 65.1398L11.0176 66.1744L12.0668 65.1398L13.1943 66.2616L12.0668 67.4066L11.0176 66.3575L9.97727 67.4066L8.84969 66.2616L9.97727 65.1398Z" fill="white"/>
<path d="M13.6012 62.2831H15.9203L15.7401 55.0091L17.2309 54.4017L17.1118 61.9925V63.8611H13.6012V62.2831Z" fill="white"/>
<path d="M18.8933 61.9896L18.7277 55.0149L20.2272 54.3988L20.0935 62.2802H21.782V63.8582H18.8933V61.9896Z" fill="white"/>
<path d="M23.0693 62.2831C23.0954 62.0506 23.1536 61.821 23.2378 61.5886C23.325 61.3561 23.4355 61.1381 23.572 60.9289C23.7086 60.7225 23.8627 60.5278 24.037 60.3535C24.2114 60.1762 24.3945 60.0251 24.5892 59.8972C24.7839 59.7693 24.9844 59.6705 25.1937 59.6008C25.4029 59.531 25.6092 59.502 25.8127 59.5136C26.2224 59.5543 26.5741 59.6589 26.8647 59.8245C27.1553 59.9902 27.3965 60.1994 27.5854 60.4465C27.7743 60.6964 27.9167 60.9783 28.0155 61.295C28.1114 61.6118 28.1695 61.9402 28.1841 62.2802H29.2971V63.8582H28.0184C27.8934 64.3523 27.7162 64.7882 27.4895 65.1689L22.8659 63.8582H21.5726V62.2802H23.0635L23.0693 62.2831ZM26.949 63.4107C26.9867 63.3206 27.0158 63.2015 27.0361 63.0503C27.0565 62.8992 27.0623 62.7394 27.0507 62.565C27.0391 62.3907 27.0071 62.2134 26.9548 62.0332C26.9025 61.853 26.8182 61.6816 26.7048 61.5246C26.5915 61.3677 26.4433 61.2311 26.2602 61.1178C26.0771 61.0044 25.8504 60.926 25.5831 60.8853C25.4087 60.8853 25.2401 60.9347 25.0745 61.0306C24.9089 61.1265 24.7577 61.2573 24.6241 61.42C24.4904 61.5827 24.3799 61.7687 24.2928 61.9809C24.2056 62.1901 24.1533 62.411 24.1387 62.6348L26.949 63.4078V63.4107Z" fill="white"/>
<path d="M29.0967 62.2831H31.4158L31.2356 55.0091L32.7264 54.4017L32.6073 61.9925V63.8611H29.0967V62.2831Z" fill="white"/>
<path d="M34.8159 61.9896L34.6357 55.0149L36.1585 54.3988L36.0074 61.9111L34.9264 63.8611H34.8072L34.8159 61.9925V61.9896Z" fill="white"/>
<path d="M43.9934 58.2669C44.8566 57.6479 45.2867 57.3398 45.2867 57.3427C45.307 57.5258 45.3244 57.7409 45.339 57.9821C45.3506 58.2233 45.3651 58.4732 45.3738 58.7318C45.3855 58.9905 45.3971 59.2404 45.4087 59.4845C45.4203 59.7286 45.4349 59.9437 45.4523 60.1268C45.5744 60.833 45.772 61.3677 46.051 61.7368C46.33 62.1058 46.67 62.2889 47.0681 62.2889H47.6842V63.8582H46.9664C46.699 63.8524 46.452 63.8117 46.2253 63.7362C45.9987 63.6606 45.7923 63.5415 45.6034 63.3787C45.4145 63.216 45.2402 63.0067 45.0774 62.751C44.9176 62.4953 44.7665 62.1901 44.6241 61.8327C44.5282 62.1785 44.4148 62.4778 44.2841 62.7248C44.1533 62.9719 44.0109 63.1782 43.8627 63.3409C43.7115 63.5037 43.5604 63.6228 43.4006 63.7013C43.2407 63.7798 43.0867 63.8146 42.9356 63.8146C42.7671 63.8146 42.5869 63.7827 42.3951 63.7187C42.2033 63.6548 42.0057 63.5705 41.808 63.463C41.6075 63.3555 41.407 63.2334 41.2094 63.0968C41.0089 62.9602 40.8141 62.8149 40.6252 62.6638L40.9101 60.6121C40.9362 60.5395 41.0466 60.4261 41.2384 60.2779C41.4302 60.1268 41.6715 59.9669 41.9592 59.7926C42.2498 59.6182 42.5694 59.4497 42.9269 59.284C43.2814 59.1184 43.6389 58.9818 43.9964 58.8772V58.2698L43.9934 58.2669ZM42.0986 54.4802L43.139 55.5206L44.1794 54.4802L45.3157 55.6078L44.1794 56.7441L43.139 55.6949L42.0986 56.7441L40.9624 55.6078L42.0986 54.4802ZM44.1823 60.0251C43.9673 60.1093 43.7522 60.1907 43.543 60.275C43.3338 60.3564 43.1216 60.4494 42.9094 60.5511C42.6973 60.6528 42.4793 60.769 42.2614 60.8969C42.0434 61.0248 41.8197 61.1788 41.593 61.359C41.9098 61.5653 42.1946 61.7455 42.4532 61.9024C42.7118 62.0594 42.9211 62.1523 43.0838 62.1785C43.2408 62.193 43.3919 62.1494 43.5372 62.0448C43.6825 61.9402 43.8045 61.7891 43.9092 61.5915C44.0138 61.3938 44.0893 61.1614 44.1417 60.894C44.194 60.6266 44.2085 60.336 44.1794 60.0251H44.1823Z" fill="white"/>
<path d="M49.4133 63.8611H47.4807V62.2831H48.8786L49.2331 61.019C49.3028 60.6789 49.422 60.3447 49.5964 60.0163C49.7707 59.6909 49.98 59.4003 50.2241 59.1474C50.4682 58.8946 50.7414 58.6941 51.0407 58.5488C51.34 58.4005 51.6481 58.3366 51.9649 58.3511C52.4444 58.3976 52.8425 58.5313 53.1651 58.7464C53.4848 58.9614 53.7376 59.2317 53.9236 59.5514C54.1067 59.871 54.2287 60.2285 54.2897 60.6208C54.3508 61.0131 54.3624 61.4113 54.3246 61.8152C54.2868 62.2192 54.2113 62.6144 54.0921 62.9951C53.973 63.3758 53.8248 63.7158 53.6475 64.0094L49.8841 62.9602L49.4191 63.8611H49.4133ZM53.0982 62.2512C53.136 62.1611 53.1651 62.0419 53.1854 61.8908C53.2058 61.7397 53.2116 61.5798 53.2 61.4055C53.1883 61.2311 53.1593 61.0538 53.104 60.8737C53.0517 60.6935 52.9675 60.522 52.8541 60.3651C52.7408 60.2082 52.5926 60.0716 52.4095 59.9582C52.2264 59.8449 51.9997 59.7693 51.7295 59.7257C51.5551 59.7257 51.3865 59.7751 51.2209 59.871C51.0552 59.9698 50.9041 60.0977 50.7704 60.2634C50.6368 60.4261 50.5263 60.6121 50.442 60.8242C50.3578 61.0335 50.3084 61.2544 50.2909 61.4781L53.0924 62.2512H53.0982Z" fill="white"/>
<path d="M55.6556 63.8524C55.6614 63.8146 55.6934 63.7769 55.7515 63.7333C55.8096 63.6926 55.8968 63.6432 56.0131 63.588C56.1293 63.5328 56.2746 63.4659 56.4519 63.3904C56.6292 63.3148 56.8384 63.2247 57.0796 63.1172C56.9285 63.0968 56.7861 63.0503 56.6582 62.9777C56.5304 62.905 56.417 62.8237 56.324 62.7278C56.2281 62.6319 56.1555 62.5331 56.1032 62.4284C56.0508 62.3238 56.0247 62.2279 56.0247 62.1436C56.0247 61.9431 56.077 61.7193 56.1816 61.4694C56.2862 61.2195 56.4315 60.9725 56.6117 60.7313C56.7919 60.4901 57.004 60.2663 57.2424 60.0658C57.4807 59.8623 57.7335 59.7083 58.0009 59.6037C58.2653 59.4991 58.5356 59.4555 58.8088 59.4787C59.0819 59.4991 59.3464 59.6124 59.5963 59.8187C59.5643 59.8885 59.5208 59.9699 59.4626 60.0687C59.4045 60.1675 59.3435 60.2663 59.2766 60.368C59.2098 60.4697 59.1488 60.5685 59.0877 60.6586C59.0267 60.7487 58.9831 60.8243 58.957 60.8824C58.8465 60.8417 58.7012 60.8068 58.524 60.7807C58.3438 60.7545 58.1636 60.7516 57.9834 60.7719C57.8032 60.7923 57.6376 60.8446 57.4894 60.926C57.3412 61.0073 57.2482 61.1352 57.2046 61.3096C57.1581 61.4898 57.19 61.6293 57.3005 61.731C57.4109 61.8327 57.5649 61.9111 57.7626 61.9635C57.9602 62.0158 58.1839 62.0448 58.4339 62.0506C58.6838 62.0564 58.9279 62.0506 59.1633 62.0303C59.3987 62.0129 59.6137 61.9867 59.8055 61.9547C59.9974 61.9228 60.1339 61.8908 60.2124 61.8588C60.1659 61.9954 60.1252 62.1146 60.0904 62.2192C60.0555 62.3238 60.0235 62.4226 59.9886 62.5185C59.9538 62.6144 59.9218 62.7161 59.8869 62.8179C59.8521 62.9196 59.8143 63.0358 59.7736 63.1608C59.605 63.1985 59.4016 63.248 59.1662 63.3061C58.9279 63.3671 58.6751 63.4369 58.4048 63.5182C58.1345 63.5996 57.8555 63.6868 57.5707 63.7827C57.2859 63.8786 57.0128 63.9745 56.7512 64.0704C56.4868 64.1692 56.2456 64.268 56.0218 64.3697C55.798 64.4714 55.6149 64.5702 55.4725 64.6661L55.6614 63.8466L55.6556 63.8524Z" fill="white"/>
<path d="M61.8806 61.9896L61.7004 55.0149L63.2232 54.3988L63.0721 61.9111L61.9911 63.8611H61.8719L61.8806 61.9925V61.9896Z" fill="white"/>
<path d="M66.0131 63.8611C65.8068 63.8553 65.6295 63.8117 65.4813 63.7275C65.3302 63.6432 65.2052 63.5269 65.1035 63.3758C65.0018 63.2247 64.9262 63.0474 64.8739 62.844C64.8245 62.6377 64.7983 62.4168 64.7983 62.1814C64.7983 61.7775 64.8652 61.3706 65.0047 60.9637C65.1413 60.5569 65.3302 60.1907 65.5743 59.8652C65.8155 59.5427 66.1003 59.2782 66.4316 59.0777C66.76 58.8743 67.1174 58.7754 67.501 58.7754C67.8323 58.7551 68.1346 58.8278 68.4078 58.9934C68.6809 59.159 68.9163 59.3974 69.111 59.7025C69.3057 60.0105 69.4569 60.3796 69.5615 60.8068C69.6661 61.2369 69.7155 61.7019 69.7126 62.2076V62.286H70.8954V63.8641H69.5382C69.4801 64.1169 69.3987 64.3755 69.2883 64.6458C69.1808 64.9132 69.0413 65.1776 68.8698 65.4363C68.6984 65.6949 68.4978 65.939 68.2625 66.1744C68.0271 66.4098 67.7568 66.6162 67.4487 66.8021C67.1407 66.9852 66.7919 67.1392 66.4025 67.2642C66.0131 67.3892 65.583 67.4647 65.1093 67.4967L62.3311 66.7149C63.014 66.6685 63.6737 66.5871 64.3101 66.4738C64.9466 66.3604 65.5307 66.1948 66.0567 65.9797C66.5856 65.7647 67.039 65.4857 67.4226 65.1427C67.8033 64.7998 68.0794 64.3755 68.2479 63.8641H66.016L66.0131 63.8611ZM65.9666 61.5566C65.9201 61.6293 65.9027 61.7077 65.9143 61.792C65.9259 61.8763 65.9637 61.9547 66.0247 62.0274C66.0858 62.1029 66.1642 62.1611 66.2572 62.2105C66.3531 62.257 66.4548 62.2802 66.5653 62.2802H68.4426C68.463 62.2337 68.4804 62.1553 68.4891 62.0477C68.5007 61.9402 68.4978 61.8152 68.4804 61.6758C68.4659 61.5363 68.4339 61.388 68.3845 61.234C68.338 61.08 68.2683 60.9318 68.1782 60.7923C68.0881 60.6528 67.9747 60.5307 67.8382 60.4203C67.7016 60.3128 67.5359 60.2372 67.3412 60.1965C67.2424 60.1646 67.1087 60.1878 66.9402 60.2692C66.7716 60.3476 66.6118 60.4581 66.4577 60.5976C66.3066 60.7371 66.1788 60.8911 66.0741 61.0626C65.9724 61.234 65.9346 61.3968 65.9608 61.5566H65.9666Z" fill="white"/>
<path d="M72.1769 62.2831C72.2031 62.0506 72.2612 61.821 72.3455 61.5886C72.4327 61.3561 72.5431 61.1381 72.6797 60.9289C72.8163 60.7225 72.9703 60.5278 73.1447 60.3535C73.319 60.1762 73.5021 60.0251 73.6968 59.8972C73.8915 59.7693 74.0921 59.6705 74.3013 59.6008C74.5106 59.531 74.7169 59.502 74.9203 59.5136C75.3301 59.5543 75.6817 59.6589 75.9723 59.8245C76.2629 59.9902 76.5041 60.1994 76.693 60.4465C76.8819 60.6964 77.0243 60.9783 77.1232 61.295C77.2191 61.6118 77.2772 61.9402 77.2917 62.2802H78.4047V63.8582H77.1261C77.0011 64.3523 76.8238 64.7882 76.5971 65.1689L71.9735 63.8582H70.6803V62.2802H72.1711L72.1769 62.2831ZM76.0566 63.4107C76.0944 63.3206 76.1235 63.2015 76.1438 63.0503C76.1641 62.8992 76.1699 62.7394 76.1583 62.565C76.1467 62.3907 76.1147 62.2134 76.0624 62.0332C76.0101 61.853 75.9258 61.6816 75.8125 61.5246C75.6992 61.3677 75.5509 61.2311 75.3678 61.1178C75.1848 61.0044 74.9581 60.926 74.6907 60.8853C74.5164 60.8853 74.3478 60.9347 74.1822 61.0306C74.0165 61.1294 73.8654 61.2573 73.7317 61.42C73.598 61.5827 73.4876 61.7687 73.4004 61.9809C73.3132 62.1901 73.2609 62.411 73.2464 62.6348L76.0566 63.4078V63.4107Z" fill="white"/>
<path d="M78.2042 62.2831H80.5233L80.3431 55.0091L81.834 54.4017L81.7148 61.9925V63.8611H78.2042V62.2831Z" fill="white"/>
<path d="M83.9235 61.9896L83.7433 55.0149L85.2661 54.3988L85.115 61.9111L84.0339 63.8611H83.9148L83.9235 61.9925V61.9896Z" fill="white"/>
<path d="M128.217 32.6614C129.414 31.0234 130.889 30.1257 132.277 29.9392C128.857 31.8687 129.008 35.8297 129.008 35.8675C129.42 34.043 131.106 32.1689 132.353 31.8483C131.341 32.6439 131.666 36.4388 132.735 37.6076C132.408 35.2438 132.799 32.7314 134.874 31.6821L135.442 32.2563L134.868 32.8392L135.442 33.4222L134.868 34.0051L135.442 34.588L134.868 35.168L135.442 35.751L134.868 36.3339L135.442 36.9168L134.868 37.4997L135.442 38.0827L134.868 38.6627L135.442 39.2456L134.868 39.8285L135.442 40.4114L134.868 40.9915L135.442 41.5744L134.868 42.1573L135.442 42.7373L134.431 43.7196L136.593 42.8423L138.755 43.7196L137.743 42.7373L138.317 42.1573L137.741 41.5744L138.317 40.9915L137.741 40.4085L138.317 39.8256L137.741 39.2456L138.317 38.6627L137.741 38.0797L138.317 37.4968L137.741 36.9139L138.317 36.3339L137.741 35.751L138.317 35.168L137.741 34.5851L138.317 34.0022L137.741 33.4222L138.317 32.8392L137.741 32.2563L138.311 31.6821C140.387 32.7343 140.778 35.2438 140.447 37.6076C141.514 36.4388 141.839 32.6439 140.83 31.8483C142.076 32.1689 143.763 34.043 144.175 35.8675C144.175 35.8326 144.325 31.8687 140.905 29.9392C142.212 30.1024 143.769 31.0234 144.966 32.6614C144.966 32.6265 144.119 28.9016 140.288 28.0855C141.981 27.931 142.798 28.1758 144.102 29.1143C142.908 26.2026 138.877 26.6165 138.813 26.6165C139.81 26.1035 141.007 25.1184 139.726 25.2524C137.329 25.5002 136.59 23.3288 136.59 23.3288C136.59 23.3288 135.851 25.4973 133.454 25.2524C132.173 25.1213 133.37 26.1035 134.367 26.6165C134.303 26.6165 130.272 26.2026 129.078 29.1143C130.382 28.1787 131.199 27.931 132.892 28.0855C129.06 28.9016 128.214 32.6294 128.214 32.6644L128.217 32.6614Z" fill="white"/>
<path d="M143.569 51.2744C143.36 52.3615 142.3 51.7582 142.103 51.6445C142.016 51.595 141.787 51.4143 141.474 51.1578L142.088 50.3825C142.288 50.1289 142.248 49.7617 141.998 49.5606C141.749 49.3595 141.384 49.4003 141.184 49.6538L140.587 50.4087C139.306 49.3157 137.7 47.9021 137.7 47.9021C137.7 47.9021 143.821 42.0175 151.452 41.6298C151.444 41.6298 146.748 39.1874 140.196 43.8945C139.08 44.696 136.709 46.7742 136.599 46.8704C136.489 46.7742 134.118 44.696 133.002 43.8945C126.449 39.1874 121.757 41.6269 121.746 41.6298C129.377 42.0175 135.495 47.8992 135.498 47.9021C135.498 47.9021 133.892 49.3157 132.611 50.4087L132.014 49.6538C131.814 49.4003 131.449 49.3595 131.2 49.5606C130.95 49.7617 130.907 50.1318 131.11 50.3825L131.724 51.1578C131.414 51.4143 131.182 51.595 131.095 51.6445C130.898 51.7582 129.837 52.3615 129.629 51.2744C129.475 50.4758 128.449 50.1756 128.067 51.0733C127.678 51.9885 128.313 53.0494 129.327 53.3496C130.211 53.6119 131.04 53.4574 131.782 52.9153C131.913 52.8191 132.208 52.5772 132.594 52.2566L133.136 52.9415C133.159 52.9707 133.159 53.0115 133.133 53.0377C132.907 53.2651 132.907 53.6382 133.133 53.8655C133.246 53.9792 133.394 54.0374 133.544 54.0374C133.692 54.0374 133.84 53.9792 133.956 53.8655C134.411 53.405 134.443 52.6821 134.037 52.1983L133.486 51.5046C134.846 50.3533 136.503 48.9223 136.605 48.8348C136.706 48.9223 138.367 50.3533 139.723 51.5046L139.184 52.1867C138.77 52.6851 138.799 53.405 139.254 53.8655C139.367 53.9792 139.515 54.0374 139.665 54.0374C139.816 54.0374 139.961 53.9792 140.077 53.8655C140.303 53.6382 140.303 53.2651 140.077 53.0377C140.051 53.0115 140.048 52.9707 140.083 52.9299L140.616 52.2566C141.001 52.5772 141.297 52.8191 141.427 52.9153C142.169 53.4574 142.998 53.6148 143.882 53.3496C144.897 53.0465 145.531 51.9855 145.143 51.0733C144.76 50.1756 143.734 50.4758 143.581 51.2744H143.569Z" fill="white"/>
<path d="M135.993 0V13.7921L132.066 17.7414H118.328L135.993 0Z" fill="white"/>
<path d="M116.279 19.7962V33.6174L110.953 38.9745H97.1831L116.279 19.7962Z" fill="white"/>
<path d="M134.495 77.3135L97.1948 40.1928H111.237L121.517 50.5281L134.495 77.3135Z" fill="white"/>
<path d="M123.493 26.3628L117.488 32.399V19.8924L123.493 26.3628Z" fill="white"/>
<path d="M154.863 17.7414H141.12L137.198 13.7979V0L154.863 17.7414Z" fill="white"/>
<path d="M176 38.9745H162.233L156.912 33.6233V19.7962L176 38.9745Z" fill="white"/>
<path d="M155.707 19.8924V32.4107L149.693 26.3628L155.707 19.8924Z" fill="white"/>
<path d="M130.855 18.9568L124.351 25.5001L118.276 18.9568H130.855Z" fill="white"/>
<path d="M154.916 18.9568L148.838 25.503L142.329 18.9568H154.916Z" fill="white"/>
<path d="M149.064 53.1513L136.599 78.87L124.136 53.1658L136.593 65.6871L149.064 53.1513Z" fill="white"/>
<path d="M175.997 40.1928L138.703 77.3077L138.694 77.3164L151.678 50.5135L161.95 40.1928H175.997Z" fill="white"/>
</svg>
