<svg width="176" height="79" viewBox="0 0 176 79" fill="none" xmlns="http://www.w3.org/2000/svg">
<path d="M15.6177 20.7502H13.3834C13.2688 20.9006 13.147 21.0653 13.0181 21.2444C12.8892 21.4163 12.7639 21.581 12.6421 21.7385L5.7564 19.7834C5.87098 20.9651 5.98915 22.179 6.11089 23.425C6.23264 24.6711 6.3508 25.885 6.46539 27.0667C6.06434 27.26 5.67763 27.4498 5.30523 27.636C4.93999 27.8293 4.56044 28.0263 4.16656 28.2268C4.11643 27.3603 4.0663 26.5045 4.01617 25.6594C3.96604 24.8144 3.91591 23.9729 3.86578 23.135C3.82281 22.3043 3.77626 21.47 3.72613 20.6321C3.676 19.787 3.62587 18.9277 3.57574 18.054C3.71897 17.6744 3.89442 17.37 4.1021 17.1409C4.30979 16.9117 4.5855 16.7971 4.92925 16.7971C5.09397 16.7971 5.29091 16.8329 5.52007 16.9045C5.7564 16.969 6.0357 17.08 6.35796 17.2375C6.49403 16.7721 6.69455 16.3137 6.95953 15.8625C7.2245 15.4042 7.52886 14.9996 7.87261 14.6487C8.22352 14.2906 8.60308 14.0077 9.01128 13.8C9.36936 13.6282 9.73459 13.5422 10.107 13.5422H10.2574C10.9234 13.5924 11.4748 13.7607 11.9117 14.0471C12.3485 14.3264 12.6923 14.6845 12.9429 15.1213C13.2007 15.551 13.3798 16.038 13.48 16.5823C13.5803 17.1265 13.6304 17.6887 13.6304 18.2688H15.6177V20.7502ZM11.6753 18.9133C11.6753 18.8704 11.6789 18.8131 11.6861 18.7415C11.6933 18.6627 11.6968 18.5767 11.6968 18.4836C11.704 18.3905 11.7076 18.2974 11.7076 18.2043C11.7147 18.1112 11.7183 18.0289 11.7183 17.9573C11.7183 17.7281 11.6968 17.4918 11.6539 17.2483C11.6181 16.9976 11.5429 16.7685 11.4283 16.5608C11.3209 16.3531 11.1633 16.1812 10.9556 16.0452C10.7479 15.9019 10.4758 15.8267 10.1392 15.8196C9.93869 15.8196 9.73459 15.8876 9.52691 16.0237C9.31923 16.1597 9.12945 16.3316 8.95757 16.5393C8.7857 16.747 8.64247 16.9833 8.52789 17.2483C8.4133 17.5061 8.34885 17.7568 8.33453 18.0002L11.6753 18.9133ZM15.0806 18.2688H19.3882C19.4312 18.0969 19.4634 17.925 19.4849 17.7532C19.5136 17.5741 19.5279 17.4023 19.5279 17.2375C19.5279 16.8508 19.4778 16.4283 19.3775 15.97C19.2772 15.5045 19.1018 15.0461 18.8511 14.595C19.2164 14.3658 19.553 14.1438 19.8609 13.929C20.176 13.7069 20.5054 13.4778 20.8492 13.2415C21.15 13.929 21.3612 14.6523 21.483 15.4114C21.6047 16.1633 21.6656 16.9189 21.6656 17.678C21.6656 18.2151 21.6441 18.7379 21.6011 19.2463C21.5582 19.7548 21.4973 20.2561 21.4185 20.7502H15.0806V18.2688ZM16.7134 12.5647C16.785 12.4573 16.8602 12.3713 16.939 12.3069C17.0178 12.2424 17.1002 12.1851 17.1861 12.135C17.272 12.0849 17.3615 12.0347 17.4546 11.9846C17.5477 11.9345 17.648 11.87 17.7554 11.7913C17.6552 11.7841 17.5477 11.7555 17.4332 11.7053C17.3257 11.648 17.2219 11.58 17.1216 11.5012C17.0214 11.4224 16.939 11.3329 16.8746 11.2327C16.8101 11.1324 16.7779 11.0286 16.7779 10.9211C16.7779 10.6848 16.8244 10.4091 16.9175 10.094C17.0178 9.77173 17.1539 9.46379 17.3257 9.17017C17.5048 8.87655 17.7125 8.62948 17.9488 8.42896C18.1923 8.22127 18.4572 8.11743 18.7437 8.11743C18.9514 8.13175 19.1412 8.18188 19.313 8.26782C19.4849 8.3466 19.5995 8.4576 19.6568 8.60083L19.2378 9.57837C19.1376 9.56405 19.0337 9.54256 18.9263 9.51392C18.8189 9.47811 18.7151 9.45662 18.6148 9.44946H18.5933C18.5002 9.44946 18.4143 9.47453 18.3355 9.52466C18.2424 9.57479 18.1672 9.66789 18.1099 9.80396C18.0598 9.90422 18.0347 9.99373 18.0347 10.0725C18.0347 10.1226 18.049 10.1656 18.0777 10.2014C18.1278 10.2945 18.2173 10.3625 18.3462 10.4055C18.4823 10.4485 18.6434 10.47 18.8296 10.47C19.0158 10.47 19.2056 10.4628 19.399 10.4485C19.5995 10.4342 19.7929 10.4198 19.9791 10.4055H20.1939C20.2798 10.4055 20.3586 10.4091 20.4302 10.4163L19.8931 12.0706C19.6496 12.1278 19.3882 12.1959 19.1089 12.2747C18.8368 12.3463 18.5647 12.4322 18.2925 12.5325C18.0276 12.6327 17.7733 12.7509 17.5298 12.887C17.2863 13.0159 17.0751 13.1627 16.896 13.3274L16.7134 12.5647ZM24.0611 18.0862C24.0181 16.525 23.9752 14.9674 23.9322 13.4133C23.8892 11.8593 23.8498 10.3017 23.814 8.74048C24.2222 8.5686 24.6197 8.40389 25.0064 8.24634C25.4003 8.08162 25.7977 7.91691 26.1988 7.7522C26.1845 8.63306 26.1701 9.49959 26.1558 10.3518C26.1415 11.204 26.1236 12.0527 26.1021 12.8977C26.0878 13.7428 26.0735 14.5914 26.0591 15.4436C26.0448 16.2887 26.0305 17.1516 26.0162 18.0325C25.7584 18.4908 25.5077 18.942 25.2642 19.386C25.0207 19.83 24.7701 20.2847 24.5123 20.7502H24.0503L24.0611 18.0862ZM32.15 13.0374C32.8231 13.0374 33.3996 13.1877 33.8794 13.4885C34.3593 13.7821 34.7496 14.176 35.0503 14.6702C35.3583 15.1643 35.5803 15.7336 35.7164 16.3782C35.8596 17.0155 35.9312 17.678 35.9312 18.3655C35.9312 18.8739 35.8954 19.3788 35.8238 19.8801C35.7593 20.3814 35.6591 20.8648 35.523 21.3303C35.3941 21.7887 35.233 22.2148 35.0396 22.6086C34.8534 23.0097 34.6386 23.357 34.3951 23.6506C33.8365 24.3596 33.2922 24.8681 32.7623 25.176C32.2395 25.484 31.7131 25.6379 31.1832 25.6379C30.7177 25.6379 30.2522 25.5341 29.7867 25.3264C29.3212 25.1187 28.8414 24.8251 28.3472 24.4456C28.3544 24.4241 28.358 24.3954 28.358 24.3596C28.3651 24.3238 28.3687 24.2844 28.3687 24.2415C28.3759 24.1985 28.3794 24.1591 28.3794 24.1233C28.3866 24.0946 28.3902 24.0767 28.3902 24.0696C29.0132 24.0553 29.5969 23.9657 30.1412 23.801C30.6854 23.6363 31.1796 23.4071 31.6236 23.1135C32.0676 22.8271 32.4507 22.4833 32.773 22.0823C33.1024 21.6812 33.3638 21.2372 33.5572 20.7502H30.5064C30.3632 20.7359 30.2343 20.7144 30.1197 20.6858C30.0123 20.65 29.9227 20.6178 29.8511 20.5891C29.357 20.2668 28.9882 19.8515 28.7447 19.343C28.5084 18.8274 28.3902 18.2903 28.3902 17.7317C28.3902 17.1731 28.4833 16.6145 28.6695 16.0559C28.8628 15.4973 29.1278 14.996 29.4644 14.552C29.801 14.1008 30.1985 13.7356 30.6568 13.4563C31.1151 13.177 31.6128 13.0374 32.15 13.0374ZM31.774 15.0354C31.552 15.0354 31.3515 15.0927 31.1724 15.2073C30.9934 15.3219 30.8394 15.4687 30.7105 15.6477C30.5888 15.8267 30.4921 16.0273 30.4205 16.2493C30.356 16.4713 30.3238 16.6933 30.3238 16.9153C30.3238 17.2161 30.3882 17.4918 30.5171 17.7424C30.646 17.9931 30.8609 18.1685 31.1617 18.2688H33.6002C33.6288 18.1685 33.6467 18.0683 33.6539 17.968C33.6682 17.8678 33.6753 17.7711 33.6753 17.678C33.6753 17.4488 33.6503 17.1838 33.6002 16.8831C33.55 16.5823 33.4569 16.2958 33.3209 16.0237C33.1848 15.7444 32.9914 15.5116 32.7408 15.3254C32.4901 15.1321 32.1679 15.0354 31.774 15.0354ZM47.7154 13.0051C47.7154 12.955 47.7655 12.8941 47.8658 12.8225C47.9732 12.7437 48.1021 12.665 48.2525 12.5862C48.41 12.5002 48.5783 12.4179 48.7574 12.3391C48.9364 12.2532 49.1011 12.178 49.2515 12.1135C49.4091 12.0491 49.5416 11.9954 49.649 11.9524C49.7349 11.9237 49.785 11.9094 49.7994 11.9094C49.8209 12.1529 49.8495 12.4465 49.8853 12.7903C49.9211 13.1269 49.9533 13.4742 49.982 13.8323C50.0178 14.1903 50.0536 14.5413 50.0894 14.885C50.1252 15.2288 50.1539 15.5224 50.1753 15.7659C50.2112 16.1168 50.2756 16.4247 50.3687 16.6897C50.4618 16.9475 50.5728 17.1731 50.7017 17.3665C50.8306 17.5527 50.9738 17.7102 51.1314 17.8391C51.2961 17.9609 51.468 18.0575 51.647 18.1292C51.8905 18.2366 52.245 18.2903 52.7105 18.2903H52.9791V20.7502H51.8834C51.511 20.7502 51.178 20.718 50.8843 20.6536C50.5334 20.5748 50.2219 20.4423 49.9498 20.2561C49.6776 20.0699 49.4377 19.8228 49.23 19.5149C49.0295 19.2069 48.8541 18.831 48.7037 18.387C48.5819 18.5517 48.4494 18.7379 48.3062 18.9456C48.163 19.1461 48.0162 19.3538 47.8658 19.5686C47.7154 19.7763 47.565 19.984 47.4146 20.1917C47.2642 20.3993 47.1281 20.5891 47.0064 20.761C46.9491 20.8183 46.8632 20.8469 46.7486 20.8469C46.6913 20.8469 46.6268 20.8398 46.5552 20.8254C46.3404 20.7753 46.1005 20.6858 45.8355 20.5569C45.5705 20.4208 45.2948 20.2633 45.0084 20.0842C44.7291 19.9052 44.4784 19.7333 44.2564 19.5686C44.0344 19.3967 43.8589 19.2463 43.73 19.1174C43.6298 19.0243 43.5796 18.9635 43.5796 18.9348C43.5796 18.9205 43.5832 18.9133 43.5904 18.9133C43.6477 18.455 43.7085 17.9967 43.773 17.5383C43.8375 17.0728 43.8983 16.6073 43.9556 16.1418V16.1526C43.9699 16.0452 44.0809 15.9055 44.2886 15.7336C44.5035 15.5546 44.7828 15.3648 45.1265 15.1643C45.4774 14.9638 45.8749 14.7668 46.3189 14.5735C46.7701 14.373 47.2391 14.2011 47.7261 14.0579C47.7261 13.9146 47.7225 13.7392 47.7154 13.5315C47.7154 13.3238 47.7154 13.1484 47.7154 13.0051ZM49.1978 6.87134C49.4986 7.17212 49.7886 7.46574 50.0679 7.7522C50.3544 8.03866 50.648 8.33228 50.9488 8.63306L49.1978 10.384L47.5113 8.70825L45.8462 10.384L44.0845 8.63306C44.3925 8.33228 44.6861 8.03866 44.9654 7.7522C45.2518 7.46574 45.5455 7.17212 45.8462 6.87134L47.5113 8.54712L49.1978 6.87134ZM45.2769 16.9905C45.4058 17.0549 45.549 17.1337 45.7066 17.2268C45.8713 17.3127 46.0396 17.4058 46.2115 17.5061C46.3834 17.5992 46.5516 17.6923 46.7164 17.7854C46.8811 17.8785 47.0279 17.9609 47.1568 18.0325C47.2212 18.0611 47.2893 18.0754 47.3609 18.0754C47.4325 18.0754 47.5077 18.0575 47.5865 18.0217C47.7225 17.9501 47.8443 17.8355 47.9517 17.678C48.0591 17.5133 48.1451 17.3199 48.2095 17.0979C48.2811 16.8687 48.3169 16.6288 48.3169 16.3782C48.3169 16.1562 48.2811 15.8805 48.2095 15.551L45.2769 16.9905ZM70.3814 18.2688V20.7502H52.4419V18.2688H54.4937C54.3648 17.9967 54.2502 17.6708 54.15 17.2913C54.0497 16.9117 53.9709 16.5035 53.9136 16.0667C54.2502 15.9234 54.5617 15.7874 54.8482 15.6584C55.1347 15.5224 55.439 15.3827 55.7613 15.2395C55.8401 15.8124 55.9475 16.3495 56.0835 16.8508C56.2196 17.345 56.3772 17.8176 56.5562 18.2688H57.4908C57.7844 17.9036 58.1067 17.5168 58.4576 17.1086C58.8156 16.7004 59.188 16.2994 59.5748 15.9055C59.9615 15.5116 60.3625 15.1357 60.7779 14.7776C61.1933 14.4195 61.6158 14.1044 62.0455 13.8323C62.4752 13.5601 62.9048 13.3453 63.3345 13.1877C63.7642 13.023 64.1867 12.9407 64.6021 12.9407C65.0031 12.9407 65.397 13.0338 65.7837 13.22C66.1776 13.4062 66.5536 13.7105 66.9117 14.1331C67.2769 14.5484 67.6207 15.0963 67.9429 15.7766C68.2724 16.4498 68.5731 17.2805 68.8453 18.2688H70.3814ZM66.6646 18.0325C66.5285 17.5383 66.3746 17.1194 66.2027 16.7756C66.0308 16.4319 65.841 16.1526 65.6334 15.9377C65.4328 15.7229 65.2144 15.5689 64.9781 15.4758C64.7489 15.3756 64.5126 15.3254 64.2691 15.3254C63.9397 15.3254 63.5923 15.4114 63.2271 15.5833C62.869 15.7551 62.5074 15.9807 62.1421 16.26C61.7769 16.5393 61.4153 16.8544 61.0572 17.2053C60.6991 17.5562 60.3625 17.9107 60.0474 18.2688H66.482L66.6646 18.0325ZM69.8443 18.2688H72.6158C72.6516 18.0969 72.6838 17.925 72.7125 17.7532C72.7411 17.5741 72.7554 17.4023 72.7554 17.2375C72.7554 16.8508 72.7017 16.4283 72.5943 15.97C72.494 15.5045 72.3222 15.0461 72.0787 14.595C72.4296 14.3586 72.759 14.1366 73.0669 13.929C73.3821 13.7141 73.7115 13.4849 74.0552 13.2415C74.356 13.9576 74.5673 14.6988 74.689 15.4651C74.8179 16.2314 74.8824 17.0012 74.8824 17.7747V18.2688H76.8052V20.7502H69.8443V18.2688ZM72.4654 7.84888L74.2271 9.59985L72.4654 11.3616L70.7144 9.59985L72.4654 7.84888ZM79.147 20.7502H76.2681V18.2688H78.1587L78.5777 16.7542C78.6708 16.2815 78.8391 15.8196 79.0826 15.3684C79.3261 14.9101 79.6197 14.509 79.9634 14.1653C80.3072 13.8144 80.6867 13.5351 81.1021 13.3274C81.453 13.1555 81.8183 13.0696 82.1978 13.0696C82.2694 13.0696 82.3375 13.0732 82.4019 13.0803C83.0536 13.1305 83.5907 13.2773 84.0132 13.5208C84.4358 13.7642 84.7688 14.0758 85.0123 14.4553C85.2629 14.8277 85.4384 15.2538 85.5386 15.7336C85.6389 16.2063 85.689 16.7004 85.689 17.2161C85.689 17.7102 85.6532 18.2115 85.5816 18.72C85.5171 19.2284 85.4348 19.7118 85.3345 20.1702C85.2271 20.3062 85.1197 20.4423 85.0123 20.5784C84.9048 20.7144 84.7974 20.8469 84.69 20.9758L79.7164 19.6008L79.147 20.7502ZM83.7125 18.1614C83.7125 18.1327 83.716 18.0862 83.7232 18.0217C83.7304 17.9573 83.7375 17.8892 83.7447 17.8176C83.7518 17.7389 83.7554 17.6637 83.7554 17.592C83.7626 17.5133 83.7662 17.4488 83.7662 17.3987C83.7662 17.1838 83.7447 16.9547 83.7017 16.7112C83.6659 16.4605 83.5871 16.2314 83.4654 16.0237C83.3436 15.816 83.1718 15.6405 82.9498 15.4973C82.7349 15.3541 82.4449 15.2789 82.0796 15.2717C81.8791 15.2717 81.6786 15.329 81.4781 15.4436C81.2847 15.551 81.1093 15.6978 80.9517 15.884C80.7942 16.0631 80.6617 16.2743 80.5543 16.5178C80.454 16.7542 80.3967 16.9976 80.3824 17.2483L83.7125 18.1614Z" fill="#043049"/>
<path d="M85.7834 32.3401H0.97998V33.9268H85.7834V32.3401Z" fill="#00324B"/>
<path d="M55.3765 43.7914C55.3388 43.9222 55.2981 44.0675 55.2545 44.2244C55.2109 44.3813 55.1731 44.5412 55.1441 44.701C55.115 44.8608 55.1034 45.0178 55.1063 45.1689C55.1063 45.32 55.1412 45.4566 55.2022 45.5757C55.2632 45.6949 55.362 45.7879 55.5015 45.8547C55.641 45.9216 55.8299 45.9535 56.0653 45.9506H62.7465C62.8889 45.4508 62.9266 44.9742 62.8656 44.5237C62.8017 44.0704 62.6593 43.5879 62.4384 43.0707L63.6764 42.2104C63.9176 42.7946 64.0717 43.402 64.1385 44.0384C64.2053 44.6748 64.2199 45.3113 64.1908 45.9506H65.4375V47.5286H54.4698C54.3478 47.4066 54.2693 47.2526 54.2344 47.0637C54.1967 46.8748 54.188 46.6684 54.2054 46.4476C54.2228 46.2267 54.2635 45.9971 54.3274 45.7559C54.3914 45.5176 54.464 45.2851 54.5483 45.0614C54.6326 44.8376 54.7198 44.6312 54.8128 44.4394C54.9058 44.2476 54.99 44.0849 55.0685 43.9541V43.9628L55.3765 43.7885V43.7914ZM59.419 48.8102L60.5378 49.932L59.419 51.077L58.2827 49.932L59.419 48.8102Z" fill="#00324B"/>
<path d="M65.208 45.9535H67.559C67.6258 45.6948 67.6694 45.4507 67.684 45.2211C67.6985 44.9887 67.6956 44.7591 67.6694 44.5266C67.6433 44.2941 67.5939 44.0616 67.5183 43.8233C67.4457 43.585 67.3527 43.338 67.2422 43.0735L68.4803 42.2133C68.6895 42.7248 68.8377 43.2305 68.9249 43.7361C69.0121 44.2418 69.0557 44.7736 69.0557 45.3374L69.0237 45.9535H70.6162V47.5315H65.2021V45.9535H65.208ZM66.8906 39.0747L67.931 40.1093L68.9801 39.0747L70.1077 40.2023L68.9801 41.3386L67.931 40.2895L66.8906 41.3386L65.763 40.2023L66.8906 39.0747Z" fill="#00324B"/>
<path d="M70.4565 45.9535H75.7021C75.1703 45.3635 74.5425 44.7532 73.816 44.1226C73.0895 43.492 72.2351 42.841 71.2528 42.1726L71.8457 40.3417L77.5591 37.9268L76.9604 39.6617L72.5984 41.3356C73.1825 41.7192 73.723 42.1145 74.22 42.5242C74.7169 42.9311 75.1732 43.335 75.5858 43.7361C75.9985 44.1371 76.3734 44.5236 76.7105 44.8985C77.0476 45.2734 77.3469 45.6251 77.6114 45.9505H78.4484V47.5286H70.4624V45.9505L70.4565 45.9535Z" fill="#00324B"/>
<path d="M80.1689 47.5315H78.2363V45.9535H79.6342L79.9887 44.6894C80.0585 44.3493 80.1776 44.0151 80.352 43.6867C80.5263 43.3613 80.7356 43.0707 80.9797 42.8178C81.2238 42.565 81.497 42.3645 81.7963 42.2192C82.0957 42.0709 82.4037 42.007 82.7205 42.0215C83.2 42.068 83.5981 42.2017 83.9207 42.4168C84.2404 42.6318 84.4932 42.9021 84.6792 43.2218C84.8623 43.5414 84.9843 43.8989 85.0454 44.2912C85.1064 44.6835 85.118 45.0817 85.0802 45.4856C85.0425 45.8896 84.9669 46.2848 84.8477 46.6655C84.7286 47.0462 84.5804 47.3862 84.4031 47.6798L80.6397 46.6306L80.1747 47.5315H80.1689ZM83.8538 45.9245C83.8916 45.8344 83.9207 45.7152 83.941 45.5641C83.9614 45.413 83.9672 45.2531 83.9556 45.0788C83.9439 44.9044 83.9149 44.7271 83.8597 44.547C83.8073 44.3668 83.7231 44.1953 83.6097 44.0384C83.4964 43.8815 83.3482 43.7449 83.1651 43.6315C82.982 43.5182 82.7553 43.4426 82.4851 43.399C82.3107 43.399 82.1421 43.4484 81.9765 43.5443C81.8109 43.6432 81.6597 43.771 81.526 43.9367C81.3924 44.0994 81.2819 44.2854 81.1976 44.4976C81.1134 44.7068 81.064 44.9277 81.0465 45.1514L83.848 45.9245H83.8538Z" fill="#00324B"/>
<path d="M4.86527 58.2667C5.72839 57.6476 6.15849 57.3396 6.15849 57.3425C6.17884 57.5256 6.19627 57.7406 6.2108 57.9818C6.22243 58.2231 6.23696 58.473 6.24568 58.7316C6.2573 58.9903 6.26892 59.2402 6.28055 59.4843C6.29217 59.7284 6.30671 59.9435 6.32415 60.1266C6.4462 60.8328 6.64382 61.3675 6.92281 61.7366C7.20179 62.1056 7.54181 62.2887 7.93995 62.2887H8.55604V63.858H7.83822C7.57086 63.8522 7.32384 63.8115 7.09717 63.736C6.87049 63.6604 6.66415 63.5413 6.47525 63.3785C6.28635 63.2158 6.11199 63.0065 5.94925 62.7508C5.78941 62.4951 5.63829 62.1899 5.49589 61.8325C5.39999 62.1783 5.28666 62.4776 5.15588 62.7246C5.02511 62.9717 4.8827 63.178 4.73449 63.3407C4.58337 63.5035 4.43226 63.6226 4.27243 63.7011C4.1155 63.7767 3.95856 63.8144 3.80744 63.8144C3.63888 63.8144 3.45871 63.7825 3.2669 63.7185C3.0751 63.6546 2.87748 63.5703 2.67986 63.4628C2.47934 63.3553 2.27882 63.2332 2.0812 63.0966C1.88068 62.96 1.68597 62.8147 1.49707 62.6636L1.78188 60.6119C1.80804 60.5392 1.91847 60.4259 2.11027 60.2777C2.30208 60.1266 2.54328 59.9667 2.83099 59.7924C3.1216 59.618 3.44128 59.4494 3.79873 59.2838C4.15328 59.1181 4.51073 58.9816 4.86818 58.8769V58.2696L4.86527 58.2667ZM2.97338 54.48L4.01378 55.5204L5.05417 54.48L6.19046 55.6076L5.05417 56.7438L4.01378 55.6947L2.97338 56.7438L1.8371 55.6076L2.97338 54.48ZM5.05417 60.0248C4.83912 60.1091 4.62406 60.1905 4.41482 60.2748C4.20558 60.3562 3.99344 60.4491 3.78129 60.5509C3.56915 60.6526 3.35118 60.7688 3.13322 60.8967C2.91526 61.0246 2.69149 61.1786 2.46481 61.3588C2.78158 61.5651 3.06639 61.7453 3.32503 61.9022C3.58367 62.0591 3.79291 62.1521 3.95565 62.1783C4.11258 62.1928 4.2637 62.1492 4.40901 62.0446C4.55431 61.94 4.67638 61.7889 4.781 61.5913C4.88271 61.3936 4.96117 61.1611 5.01348 60.8938C5.06579 60.6264 5.08033 60.3358 5.05126 60.0248H5.05417Z" fill="#00324B"/>
<path d="M11.5814 54.2649C11.6395 54.355 11.686 54.448 11.7209 54.5497C11.7557 54.6514 11.7848 54.7502 11.811 54.849C11.8429 55.0234 11.8487 55.1978 11.8342 55.3779C11.8197 55.5581 11.779 55.7209 11.7151 55.8662C11.6511 56.0144 11.5639 56.1335 11.4535 56.2265C11.3431 56.3195 11.2094 56.366 11.0496 56.366C10.9188 56.366 10.82 56.3428 10.7531 56.2963C10.6863 56.2498 10.6136 56.1887 10.5352 56.1161C10.5032 56.1684 10.4654 56.2294 10.416 56.2963C10.3695 56.3631 10.3114 56.4299 10.2417 56.4939C10.1719 56.5578 10.0905 56.613 9.99753 56.6595C9.90163 56.706 9.79702 56.7351 9.68077 56.7467C9.49769 56.7612 9.34947 56.7351 9.23904 56.6682C9.12861 56.5985 9.04725 56.5084 8.99494 56.3922C8.94263 56.2759 8.91356 56.1452 8.90485 55.9998C8.89613 55.8545 8.90484 55.715 8.91937 55.5785C8.93681 55.4419 8.96586 55.3169 9.00364 55.2036C9.04142 55.0902 9.0763 55.0089 9.11408 54.9536C9.11408 54.9682 9.1257 54.9653 9.15186 54.9449C9.17801 54.9246 9.20707 54.9013 9.24195 54.8752C9.27682 54.849 9.30588 54.8258 9.33204 54.8083C9.35819 54.7909 9.37273 54.788 9.37273 54.8054C9.33204 54.91 9.29426 55.0321 9.2652 55.1716C9.23614 55.3111 9.22742 55.4419 9.24195 55.5668C9.25648 55.6918 9.29135 55.7935 9.35238 55.8778C9.41341 55.9621 9.51222 56.0027 9.64881 55.9969C9.79993 55.9969 9.91907 55.9563 10.0004 55.872C10.0818 55.7877 10.1428 55.6889 10.1864 55.5755C10.2271 55.4622 10.262 55.346 10.2853 55.2239C10.3085 55.1019 10.3405 55.003 10.3841 54.9246C10.3899 54.9391 10.4015 54.9391 10.4247 54.9246C10.4451 54.91 10.4683 54.8897 10.4945 54.8665C10.5206 54.8432 10.5468 54.8229 10.57 54.8025C10.5933 54.7851 10.6078 54.7822 10.6136 54.7996C10.5701 54.9507 10.5642 55.0931 10.5933 55.2268C10.6224 55.3605 10.6747 55.4651 10.7473 55.5436C10.82 55.622 10.913 55.6685 11.0263 55.686C11.1396 55.7005 11.2617 55.6656 11.3925 55.5755C11.4244 55.529 11.439 55.4709 11.4361 55.4012C11.4361 55.3343 11.4215 55.2617 11.4012 55.1919C11.3808 55.1222 11.3518 55.0495 11.314 54.9798C11.2762 54.91 11.2414 54.8461 11.2036 54.7938C11.2733 54.6979 11.3373 54.6107 11.3983 54.5264C11.4593 54.4422 11.5174 54.3579 11.5756 54.2736L11.5814 54.2649Z" fill="#00324B"/>
<path d="M8.3525 62.2829H10.7036C10.7704 62.0243 10.814 61.7801 10.8285 61.5505C10.843 61.321 10.8401 61.0885 10.814 60.856C10.7878 60.6235 10.7384 60.391 10.6629 60.1527C10.5902 59.9144 10.4972 59.6674 10.3868 59.4029L11.6248 58.5427C11.834 59.0542 11.9822 59.5599 12.0694 60.0655C12.1566 60.5712 12.2002 61.103 12.2002 61.6668L12.1682 62.2829H13.7608V63.8609H8.34668V62.2829H8.3525ZM9.97703 65.1396L11.0174 66.1742L12.0665 65.1396L13.1941 66.2614L12.0665 67.4064L11.0174 66.3573L9.97703 67.4064L8.84945 66.2614L9.97703 65.1396Z" fill="#00324B"/>
<path d="M13.6011 62.283H15.9202L15.74 55.009L17.2308 54.4016L17.1117 61.9924V63.861H13.6011V62.283Z" fill="#00324B"/>
<path d="M18.8932 61.9895L18.7275 55.0148L20.2271 54.3987L20.0934 62.2801H21.7819V63.8581H18.8932V61.9895Z" fill="#00324B"/>
<path d="M23.0694 62.283C23.0956 62.0505 23.1537 61.8209 23.238 61.5884C23.3252 61.356 23.4356 61.138 23.5722 60.9288C23.7088 60.7224 23.8628 60.5277 24.0372 60.3533C24.2115 60.1761 24.3946 60.0249 24.5893 59.8971C24.784 59.7692 24.9845 59.6704 25.1938 59.6007C25.403 59.5309 25.6094 59.5019 25.8128 59.5135C26.2226 59.5542 26.5742 59.6588 26.8648 59.8244C27.1554 59.9901 27.3966 60.1993 27.5855 60.4463C27.7744 60.6963 27.9168 60.9782 28.0156 61.2949C28.1115 61.6117 28.1696 61.9401 28.1842 62.2801H29.2972V63.8581H28.0185C27.8936 64.3522 27.7163 64.7881 27.4896 65.1688L22.866 63.8581H21.5728V62.2801H23.0636L23.0694 62.283ZM26.9491 63.4106C26.9869 63.3205 27.0159 63.2013 27.0363 63.0502C27.0566 62.8991 27.0624 62.7393 27.0508 62.5649C27.0392 62.3905 27.0072 62.2133 26.9549 62.0331C26.9026 61.8529 26.8183 61.6814 26.705 61.5245C26.5916 61.3676 26.4434 61.231 26.2603 61.1177C26.0772 61.0043 25.8506 60.9259 25.5832 60.8852C25.4088 60.8852 25.2403 60.9346 25.0746 61.0305C24.909 61.1264 24.7579 61.2571 24.6242 61.4199C24.4905 61.5826 24.3801 61.7686 24.2929 61.9808C24.2057 62.19 24.1534 62.4109 24.1389 62.6346L26.9491 63.4077V63.4106Z" fill="#00324B"/>
<path d="M29.0967 62.283H31.4158L31.2356 55.009L32.7264 54.4016L32.6073 61.9924V63.861H29.0967V62.283Z" fill="#00324B"/>
<path d="M34.8159 61.9895L34.6357 55.0148L36.1585 54.3987L36.0074 61.911L34.9264 63.861H34.8072L34.8159 61.9924V61.9895Z" fill="#00324B"/>
<path d="M43.9932 58.2667C44.8563 57.6476 45.2864 57.3396 45.2864 57.3425C45.3068 57.5256 45.3242 57.7406 45.3387 57.9818C45.3504 58.2231 45.3649 58.473 45.3736 58.7316C45.3852 58.9903 45.3969 59.2402 45.4085 59.4843C45.4201 59.7284 45.4346 59.9435 45.4521 60.1266C45.5741 60.8328 45.7717 61.3675 46.0507 61.7366C46.3297 62.1056 46.6697 62.2887 47.0679 62.2887H47.684V63.858H46.9662C46.6988 63.8522 46.4518 63.8115 46.2251 63.736C45.9984 63.6604 45.7921 63.5413 45.6032 63.3785C45.4143 63.2158 45.2399 63.0065 45.0772 62.7508C44.9173 62.4951 44.7662 62.1899 44.6238 61.8325C44.5279 62.1783 44.4146 62.4776 44.2838 62.7246C44.153 62.9717 44.0106 63.178 43.8624 63.3407C43.7113 63.5035 43.5602 63.6226 43.4003 63.7011C43.2405 63.7796 43.0865 63.8144 42.9354 63.8144C42.7668 63.8144 42.5866 63.7825 42.3948 63.7185C42.203 63.6546 42.0054 63.5703 41.8078 63.4628C41.6073 63.3553 41.4067 63.2332 41.2091 63.0966C41.0086 62.96 40.8139 62.8147 40.625 62.6636L40.9098 60.6119C40.936 60.5392 41.0464 60.4259 41.2382 60.2777C41.43 60.1266 41.6712 59.9667 41.9589 59.7924C42.2495 59.618 42.5692 59.4494 42.9267 59.2838C43.2812 59.1181 43.6387 58.9816 43.9961 58.8769V58.2696L43.9932 58.2667ZM42.0984 54.48L43.1388 55.5204L44.1792 54.48L45.3155 55.6076L44.1792 56.7438L43.1388 55.6947L42.0984 56.7438L40.9621 55.6076L42.0984 54.48ZM44.1821 60.0248C43.967 60.1091 43.752 60.1905 43.5428 60.2748C43.3335 60.3562 43.1214 60.4491 42.9092 60.5509C42.6971 60.6526 42.4791 60.7688 42.2611 60.8967C42.0432 61.0246 41.8194 61.1786 41.5927 61.3588C41.9095 61.5651 42.1943 61.7453 42.453 61.9022C42.7116 62.0591 42.9208 62.1521 43.0836 62.1783C43.2405 62.1928 43.3916 62.1492 43.5369 62.0446C43.6822 61.94 43.8043 61.7889 43.9089 61.5913C44.0135 61.3936 44.0891 61.1611 44.1414 60.8938C44.1937 60.6264 44.2083 60.3358 44.1792 60.0248H44.1821Z" fill="#00324B"/>
<path d="M49.413 63.8609H47.4805V62.2829H48.8783L49.2328 61.0187C49.3026 60.6787 49.4217 60.3445 49.5961 60.0161C49.7705 59.6906 49.9797 59.4 50.2238 59.1472C50.468 58.8943 50.7411 58.6938 51.0405 58.5485C51.3398 58.4003 51.6478 58.3364 51.9646 58.3509C52.4441 58.3974 52.8423 58.5311 53.1648 58.7461C53.4845 58.9612 53.7373 59.2314 53.9233 59.5511C54.1064 59.8708 54.2285 60.2282 54.2895 60.6206C54.3505 61.0129 54.3622 61.411 54.3244 61.815C54.2866 62.2189 54.211 62.6142 54.0919 62.9949C53.9727 63.3756 53.8245 63.7156 53.6472 64.0091L49.8838 62.96L49.4188 63.8609H49.413ZM53.098 62.2509C53.1358 62.1608 53.1648 62.0417 53.1852 61.8905C53.2055 61.7394 53.2113 61.5796 53.1997 61.4052C53.1881 61.2308 53.159 61.0536 53.1038 60.8734C53.0515 60.6932 52.9672 60.5218 52.8539 60.3648C52.7405 60.2079 52.5923 60.0713 52.4092 59.958C52.2261 59.8446 51.9995 59.7691 51.7292 59.7255C51.5548 59.7255 51.3863 59.7749 51.2206 59.8708C51.055 59.9696 50.9039 60.0975 50.7702 60.2631C50.6365 60.4259 50.5261 60.6118 50.4418 60.824C50.3575 61.0332 50.3081 61.2541 50.2907 61.4779L53.0922 62.2509H53.098Z" fill="#00324B"/>
<path d="M55.6557 63.8522C55.6616 63.8144 55.6935 63.7767 55.7516 63.7331C55.8098 63.6924 55.8969 63.643 56.0132 63.5878C56.1294 63.5325 56.2747 63.4657 56.452 63.3901C56.6293 63.3146 56.8385 63.2245 57.0797 63.117C56.9286 63.0966 56.7862 63.0501 56.6584 62.9775C56.5305 62.9048 56.4171 62.8234 56.3241 62.7275C56.2282 62.6316 56.1556 62.5328 56.1033 62.4282C56.051 62.3236 56.0248 62.2277 56.0248 62.1434C56.0248 61.9429 56.0771 61.7191 56.1817 61.4692C56.2864 61.2193 56.4317 60.9723 56.6118 60.731C56.792 60.4898 57.0042 60.2661 57.2425 60.0655C57.4808 59.8621 57.7336 59.7081 58.001 59.6035C58.2654 59.4988 58.5357 59.4553 58.8089 59.4785C59.082 59.4989 59.3465 59.6122 59.5964 59.8185C59.5645 59.8883 59.5209 59.9696 59.4628 60.0684C59.4046 60.1673 59.3436 60.2661 59.2768 60.3678C59.2099 60.4695 59.1489 60.5683 59.0879 60.6584C59.0268 60.7485 58.9832 60.824 58.9571 60.8822C58.8467 60.8415 58.7014 60.8066 58.5241 60.7804C58.3439 60.7543 58.1637 60.7514 57.9835 60.7717C57.8034 60.7921 57.6377 60.8444 57.4895 60.9257C57.3413 61.0071 57.2483 61.135 57.2047 61.3094C57.1582 61.4895 57.1902 61.629 57.3006 61.7307C57.411 61.8325 57.5651 61.9109 57.7627 61.9632C57.9603 62.0155 58.1841 62.0446 58.434 62.0504C58.6839 62.0562 58.928 62.0504 59.1634 62.0301C59.3988 62.0126 59.6139 61.9865 59.8057 61.9545C59.9975 61.9226 60.1341 61.8906 60.2125 61.8586C60.166 61.9952 60.1254 62.1144 60.0905 62.219C60.0556 62.3236 60.0236 62.4224 59.9888 62.5183C59.9539 62.6142 59.9219 62.7159 59.8871 62.8176C59.8522 62.9193 59.8144 63.0356 59.7737 63.1606C59.6052 63.1983 59.4017 63.2477 59.1663 63.3059C58.928 63.3669 58.6752 63.4366 58.4049 63.518C58.1347 63.5994 57.8557 63.6866 57.5709 63.7825C57.2861 63.8784 57.0129 63.9743 56.7513 64.0702C56.4869 64.169 56.2457 64.2678 56.0219 64.3695C55.7981 64.4712 55.6151 64.57 55.4727 64.6659L55.6615 63.8464L55.6557 63.8522Z" fill="#00324B"/>
<path d="M61.8804 61.9895L61.7002 55.0148L63.223 54.3987L63.0719 61.911L61.9908 63.861H61.8716L61.8804 61.9924V61.9895Z" fill="#00324B"/>
<path d="M66.0131 63.861C65.8068 63.8552 65.6295 63.8116 65.4813 63.7273C65.3302 63.6431 65.2052 63.5268 65.1035 63.3757C65.0018 63.2246 64.9262 63.0473 64.8739 62.8439C64.8245 62.6375 64.7983 62.4167 64.7983 62.1813C64.7983 61.7773 64.8652 61.3705 65.0047 60.9636C65.1413 60.5568 65.3302 60.1906 65.5743 59.8651C65.8155 59.5425 66.1003 59.2781 66.4316 59.0775C66.76 58.8741 67.1174 58.7753 67.501 58.7753C67.8323 58.755 68.1346 58.8276 68.4078 58.9933C68.6809 59.1589 68.9163 59.3972 69.111 59.7024C69.3057 60.0104 69.4569 60.3795 69.5615 60.8067C69.6661 61.2368 69.7155 61.7018 69.7126 62.2074V62.2859H70.8954V63.8639H69.5382C69.4801 64.1168 69.3987 64.3754 69.2883 64.6457C69.1808 64.913 69.0413 65.1775 68.8698 65.4361C68.6984 65.6948 68.4978 65.9389 68.2625 66.1743C68.0271 66.4097 67.7568 66.616 67.4487 66.802C67.1407 66.9851 66.7919 67.1391 66.4025 67.2641C66.0131 67.389 65.583 67.4646 65.1093 67.4966L62.3311 66.7148C63.014 66.6683 63.6737 66.587 64.3101 66.4736C64.9466 66.3603 65.5307 66.1946 66.0567 65.9796C66.5856 65.7645 67.039 65.4855 67.4226 65.1426C67.8033 64.7997 68.0794 64.3754 68.2479 63.8639H66.016L66.0131 63.861ZM65.9666 61.5565C65.9201 61.6291 65.9027 61.7076 65.9143 61.7919C65.9259 61.8761 65.9637 61.9546 66.0247 62.0273C66.0858 62.1028 66.1642 62.1609 66.2572 62.2103C66.3531 62.2568 66.4548 62.2801 66.5653 62.2801H68.4426C68.463 62.2336 68.4804 62.1551 68.4891 62.0476C68.5007 61.9401 68.4978 61.8151 68.4804 61.6756C68.4659 61.5361 68.4339 61.3879 68.3845 61.2339C68.338 61.0799 68.2683 60.9317 68.1782 60.7922C68.0881 60.6527 67.9747 60.5306 67.8382 60.4202C67.7016 60.3126 67.5359 60.2371 67.3412 60.1964C67.2424 60.1644 67.1087 60.1877 66.9402 60.2691C66.7716 60.3475 66.6118 60.4579 66.4577 60.5974C66.3066 60.7369 66.1788 60.891 66.0741 61.0624C65.9724 61.2339 65.9346 61.3966 65.9608 61.5565H65.9666Z" fill="#00324B"/>
<path d="M72.1768 62.283C72.203 62.0505 72.2611 61.8209 72.3454 61.5884C72.4326 61.356 72.543 61.138 72.6796 60.9288C72.8162 60.7224 72.9702 60.5277 73.1446 60.3533C73.3189 60.1761 73.502 60.0249 73.6967 59.8971C73.8914 59.7692 74.0919 59.6704 74.3012 59.6007C74.5104 59.5309 74.7168 59.5019 74.9202 59.5135C75.33 59.5542 75.6816 59.6588 75.9722 59.8244C76.2628 59.9901 76.504 60.1993 76.6929 60.4463C76.8818 60.6963 77.0242 60.9782 77.123 61.2949C77.2189 61.6117 77.2771 61.9401 77.2916 62.2801H78.4046V63.8581H77.1259C77.001 64.3522 76.8237 64.7881 76.597 65.1688L71.9734 63.8581H70.6802V62.2801H72.171L72.1768 62.283ZM76.0565 63.4106C76.0943 63.3205 76.1233 63.2013 76.1437 63.0502C76.164 62.8991 76.1698 62.7393 76.1582 62.5649C76.1466 62.3905 76.1146 62.2133 76.0623 62.0331C76.01 61.8529 75.9257 61.6814 75.8124 61.5245C75.699 61.3676 75.5508 61.231 75.3677 61.1177C75.1846 61.0043 74.958 60.9259 74.6906 60.8852C74.5162 60.8852 74.3477 60.9346 74.182 61.0305C74.0164 61.1293 73.8653 61.2571 73.7316 61.4199C73.5979 61.5826 73.4875 61.7686 73.4003 61.9808C73.3131 62.19 73.2608 62.4109 73.2463 62.6346L76.0565 63.4077V63.4106Z" fill="#00324B"/>
<path d="M78.2041 62.283H80.5232L80.343 55.009L81.8338 54.4016L81.7147 61.9924V63.861H78.2041V62.283Z" fill="#00324B"/>
<path d="M83.9233 61.9895L83.7432 55.0148L85.266 54.3987L85.1149 61.911L84.0338 63.861H83.9146L83.9233 61.9924V61.9895Z" fill="#00324B"/>
<path d="M128.217 32.6615C129.414 31.0235 130.889 30.1258 132.277 29.9392C128.857 31.8687 129.008 35.8297 129.008 35.8676C129.42 34.0431 131.106 32.1689 132.352 31.8483C131.341 32.644 131.666 36.4389 132.735 37.6076C132.408 35.2439 132.799 32.7315 134.874 31.6822L135.442 32.2564L134.868 32.8393L135.442 33.4222L134.868 34.0052L135.442 34.5881L134.868 35.1681L135.442 35.751L134.868 36.334L135.442 36.9169L134.868 37.4998L135.442 38.0827L134.868 38.6627L135.442 39.2457L134.868 39.8286L135.442 40.4115L134.868 40.9915L135.442 41.5745L134.868 42.1574L135.442 42.7374L134.431 43.7196L136.593 42.8423L138.755 43.7196L137.743 42.7374L138.317 42.1574L137.74 41.5745L138.317 40.9915L137.74 40.4086L138.317 39.8257L137.74 39.2457L138.317 38.6627L137.74 38.0798L138.317 37.4969L137.74 36.914L138.317 36.334L137.74 35.751L138.317 35.1681L137.74 34.5852L138.317 34.0022L137.74 33.4222L138.317 32.8393L137.74 32.2564L138.311 31.6822C140.386 32.7344 140.778 35.2439 140.447 37.6076C141.514 36.4389 141.838 32.644 140.83 31.8483C142.076 32.1689 143.763 34.0431 144.174 35.8676C144.174 35.8326 144.325 31.8687 140.905 29.9392C142.212 30.1025 143.769 31.0235 144.965 32.6615C144.965 32.6265 144.119 28.9016 140.288 28.0855C141.98 27.9311 142.798 28.1759 144.102 29.1144C142.908 26.2027 138.876 26.6166 138.813 26.6166C139.81 26.1036 141.007 25.1184 139.726 25.2525C137.329 25.5003 136.59 23.3289 136.59 23.3289C136.59 23.3289 135.851 25.4973 133.454 25.2525C132.173 25.1214 133.37 26.1036 134.367 26.6166C134.303 26.6166 130.272 26.2027 129.078 29.1144C130.382 28.1788 131.199 27.9311 132.892 28.0855C129.06 28.9016 128.214 32.6295 128.214 32.6644L128.217 32.6615Z" fill="#00324B"/>
<path d="M143.569 51.2744C143.36 52.3616 142.3 51.7583 142.103 51.6446C142.016 51.595 141.787 51.4143 141.474 51.1578L142.088 50.3825C142.288 50.129 142.248 49.7617 141.998 49.5606C141.749 49.3595 141.384 49.4003 141.184 49.6539L140.587 50.4088C139.306 49.3158 137.7 47.9022 137.7 47.9022C137.7 47.9022 143.821 42.0175 151.452 41.6299C151.444 41.6299 146.748 39.1874 140.196 43.8946C139.08 44.6961 136.709 46.7742 136.599 46.8704C136.489 46.7742 134.118 44.6961 133.002 43.8946C126.449 39.1874 121.757 41.627 121.746 41.6299C129.377 42.0175 135.495 47.8993 135.498 47.9022C135.498 47.9022 133.892 49.3158 132.611 50.4088L132.014 49.6539C131.814 49.4003 131.449 49.3595 131.2 49.5606C130.95 49.7617 130.907 50.1319 131.11 50.3825L131.724 51.1578C131.414 51.4143 131.182 51.595 131.095 51.6446C130.898 51.7583 129.837 52.3616 129.629 51.2744C129.475 50.4758 128.449 50.1756 128.067 51.0733C127.678 51.9885 128.313 53.0494 129.327 53.3496C130.211 53.612 131.04 53.4575 131.782 52.9154C131.913 52.8192 132.208 52.5773 132.594 52.2567L133.136 52.9416C133.159 52.9707 133.159 53.0115 133.133 53.0378C132.907 53.2651 132.907 53.6382 133.133 53.8655C133.246 53.9792 133.394 54.0375 133.544 54.0375C133.692 54.0375 133.84 53.9792 133.956 53.8655C134.411 53.405 134.443 52.6822 134.037 52.1984L133.486 51.5047C134.846 50.3534 136.503 48.9223 136.605 48.8349C136.706 48.9223 138.367 50.3534 139.723 51.5047L139.184 52.1867C138.77 52.6851 138.799 53.405 139.254 53.8655C139.367 53.9792 139.515 54.0375 139.665 54.0375C139.816 54.0375 139.961 53.9792 140.077 53.8655C140.303 53.6382 140.303 53.2651 140.077 53.0378C140.051 53.0115 140.048 52.9707 140.083 52.9299L140.616 52.2567C141.001 52.5773 141.297 52.8192 141.427 52.9154C142.169 53.4575 142.998 53.6149 143.882 53.3496C144.897 53.0465 145.531 51.9856 145.143 51.0733C144.76 50.1756 143.734 50.4758 143.581 51.2744H143.569Z" fill="#00324B"/>
<path d="M135.993 0V13.7921L132.066 17.7414H118.329L135.993 0Z" fill="#00324B"/>
<path d="M116.279 19.7961V33.6173L110.953 38.9744H97.1831L116.279 19.7961Z" fill="#00324B"/>
<path d="M134.495 77.3137L97.1948 40.1929H111.237L121.517 50.5282L134.495 77.3137Z" fill="#00324B"/>
<path d="M123.493 26.3628L117.488 32.399V19.8923L123.493 26.3628Z" fill="#00324B"/>
<path d="M154.863 17.7414H141.119L137.198 13.7979V0L154.863 17.7414Z" fill="#00324B"/>
<path d="M176 38.9744H162.233L156.912 33.6232V19.7961L176 38.9744Z" fill="#00324B"/>
<path d="M155.707 19.8923V32.4107L149.693 26.3628L155.707 19.8923Z" fill="#00324B"/>
<path d="M130.855 18.9568L124.351 25.5001L118.276 18.9568H130.855Z" fill="#00324B"/>
<path d="M154.916 18.9568L148.838 25.5031L142.329 18.9568H154.916Z" fill="#00324B"/>
<path d="M149.064 53.1514L136.599 78.8701L124.136 53.1659L136.593 65.6872L149.064 53.1514Z" fill="#00324B"/>
<path d="M175.997 40.1929L138.703 77.3078L138.694 77.3166L151.678 50.5136L161.95 40.1929H175.997Z" fill="#00324B"/>
</svg>
