<svg width="184" height="49" viewBox="0 0 184 49" fill="none" xmlns="http://www.w3.org/2000/svg">
<g clip-path="url(#clip0_7403_87922)">
<path d="M12.4261 13.4678H10.388C10.2835 13.6052 10.1725 13.7555 10.0549 13.919C9.93729 14.0759 9.82298 14.2263 9.71193 14.3702L3.43101 12.5851C3.53553 13.664 3.64332 14.7723 3.75437 15.9101C3.86542 17.0478 3.9732 18.1561 4.07772 19.235C3.71191 19.4116 3.35915 19.5848 3.01947 19.7548C2.68632 19.9314 2.3401 20.1112 1.98082 20.2943C1.93509 19.5031 1.88936 18.7217 1.84364 17.9502C1.79791 17.1786 1.75218 16.4102 1.70646 15.6453C1.66726 14.8867 1.6248 14.125 1.57907 13.3599C1.53335 12.5884 1.48762 11.8037 1.44189 11.006C1.57254 10.6594 1.73259 10.3816 1.92203 10.1723C2.11147 9.96304 2.36296 9.8585 2.67652 9.8585C2.82676 9.8585 3.00641 9.89118 3.21544 9.95656C3.43101 10.0154 3.68578 10.1167 3.97973 10.2606C4.10385 9.83558 4.28676 9.41713 4.52845 9.00516C4.77016 8.58668 5.04778 8.21724 5.36134 7.89685C5.68143 7.56991 6.02765 7.31163 6.39999 7.122C6.72662 6.96508 7.05977 6.88661 7.39946 6.88661H7.53664C8.14415 6.93238 8.64714 7.08604 9.04562 7.34759C9.4441 7.6026 9.75765 7.92954 9.98629 8.3284C10.2215 8.72073 10.3848 9.16531 10.4762 9.66228C10.5677 10.1593 10.6134 10.6726 10.6134 11.2021H12.4261V13.4678ZM8.83006 11.7907C8.83006 11.7514 8.83332 11.6991 8.83985 11.6337C8.84638 11.5618 8.84965 11.4833 8.84965 11.3983C8.85618 11.3133 8.85945 11.2283 8.85945 11.1433C8.86598 11.0583 8.86924 10.9831 8.86924 10.9177C8.86924 10.7085 8.84965 10.4927 8.81045 10.2704C8.77779 10.0416 8.7092 9.83229 8.60468 9.64265C8.50669 9.4531 8.36298 9.29615 8.17355 9.17189C7.98411 9.04112 7.73587 8.97247 7.42885 8.96592C7.24594 8.96592 7.05977 9.02805 6.87033 9.15226C6.68089 9.27652 6.50778 9.43347 6.351 9.62311C6.19423 9.81266 6.06358 10.0285 5.95905 10.2704C5.85454 10.5058 5.79575 10.7347 5.78268 10.957L8.83006 11.7907ZM11.9362 11.2021H16.669V13.4678H11.9362V11.2021ZM16.1888 11.2021H20.9216V13.4678H16.1888V11.2021ZM20.4414 11.2021H25.1741V13.4678H20.4414V11.2021ZM24.694 11.2021H29.4267V13.4678H24.694V11.2021ZM28.9466 11.2021H33.6793V13.4678H28.9466V11.2021ZM33.1992 11.2021H37.9319V13.4678H33.1992V11.2021ZM37.4519 11.2021H42.1845V13.4678H37.4519V11.2021ZM41.7044 11.2021H46.4371V13.4678H41.7044V11.2021ZM45.957 11.2021H49.8863C49.9255 11.0453 49.9549 10.8883 49.9745 10.7314C50.0006 10.5679 50.0136 10.411 50.0136 10.2606C50.0136 9.90753 49.9679 9.52167 49.8764 9.10324C49.785 8.67822 49.6249 8.25975 49.3963 7.8478C49.7295 7.63857 50.0365 7.43586 50.3174 7.2397C50.6049 7.037 50.9053 6.82777 51.2188 6.61199C51.4932 7.2397 51.686 7.90012 51.797 8.59322C51.9081 9.27981 51.9635 9.96961 51.9635 10.6627C51.9635 11.1531 51.944 11.6304 51.9048 12.0947C51.8656 12.5589 51.81 13.0166 51.7382 13.4678H45.957V11.2021ZM47.4464 5.99408C47.5117 5.896 47.5803 5.81753 47.6522 5.75868C47.724 5.69984 47.7991 5.64752 47.8775 5.60175C47.9559 5.55598 48.0376 5.51021 48.1225 5.46444C48.2074 5.41867 48.2989 5.35982 48.3969 5.28789C48.3054 5.28135 48.2074 5.2552 48.1029 5.20943C48.0049 5.15712 47.9102 5.095 47.8188 5.02307C47.7273 4.95115 47.6522 4.86942 47.5934 4.77787C47.5346 4.68633 47.5052 4.59152 47.5052 4.49344C47.5052 4.27766 47.5477 4.02592 47.6326 3.73822C47.724 3.44397 47.8481 3.16281 48.0049 2.89472C48.1682 2.62663 48.3577 2.40105 48.5732 2.21796C48.7953 2.02834 49.037 1.93353 49.2984 1.93353C49.4877 1.94661 49.6609 1.99238 49.8177 2.07085C49.9745 2.14277 50.079 2.24412 50.1312 2.37489L49.7491 3.26743C49.6576 3.25435 49.5629 3.23474 49.4649 3.20858C49.367 3.17588 49.2722 3.15627 49.1808 3.14973H49.1612C49.0763 3.14973 48.9978 3.17262 48.926 3.21839C48.8411 3.26416 48.7725 3.34916 48.7202 3.4734C48.6745 3.56494 48.6517 3.64668 48.6517 3.7186C48.6517 3.76437 48.6647 3.8036 48.6908 3.8363C48.7366 3.9213 48.8182 3.98342 48.9358 4.02265C49.0599 4.06188 49.2069 4.0815 49.3767 4.0815C49.5466 4.0815 49.7197 4.07496 49.896 4.06188C50.079 4.04881 50.2553 4.03572 50.4252 4.02265H50.6212C50.6995 4.02265 50.7714 4.02592 50.8367 4.03246L50.3468 5.5429C50.1247 5.59521 49.8863 5.65734 49.6315 5.72926C49.3833 5.79465 49.135 5.87311 48.8868 5.96465C48.6451 6.0562 48.4132 6.16408 48.1911 6.28832C47.969 6.40601 47.7762 6.54006 47.613 6.69045L47.4464 5.99408ZM54.1486 11.0354C54.1095 9.60997 54.0703 8.18782 54.031 6.76891C53.9919 5.35001 53.956 3.92784 53.9233 2.5024C54.2957 2.34547 54.6581 2.19507 55.011 2.05122C55.3702 1.90084 55.7328 1.75044 56.0985 1.60005C56.0855 2.40432 56.0725 3.19551 56.0594 3.97361C56.0463 4.75172 56.0299 5.52656 56.0104 6.29813C55.9973 7.0697 55.9842 7.84453 55.9712 8.62265C55.9582 9.39421 55.945 10.1822 55.932 10.9864C55.6968 11.4048 55.4682 11.8168 55.2461 12.2222C55.024 12.6276 54.7953 13.0428 54.5602 13.4678H54.1389L54.1486 11.0354ZM61.527 6.42563C62.1411 6.42563 62.6669 6.56295 63.1046 6.83757C63.5422 7.10566 63.8983 7.46529 64.1726 7.91646C64.4535 8.36763 64.656 8.88746 64.7801 9.47593C64.9108 10.0579 64.9762 10.6627 64.9762 11.2904C64.9762 11.7547 64.9435 12.2157 64.8781 12.6734C64.8194 13.1311 64.7279 13.5725 64.6038 13.9975C64.4862 14.416 64.3392 14.805 64.1629 15.1646C63.993 15.5308 63.797 15.848 63.5749 16.116C63.0654 16.7634 62.569 17.2276 62.0855 17.5088C61.6086 17.7899 61.1286 17.9305 60.6451 17.9305C60.2205 17.9305 59.7959 17.8357 59.3713 17.6461C58.9467 17.4565 58.509 17.1884 58.0583 16.8418C58.0648 16.8222 58.0681 16.7961 58.0681 16.7634C58.0746 16.7307 58.0779 16.6947 58.0779 16.6555C58.0844 16.6162 58.0877 16.5802 58.0877 16.5475C58.0943 16.5214 58.0975 16.5051 58.0975 16.4985C58.6658 16.4855 59.1982 16.4037 59.6947 16.2534C60.1911 16.103 60.6418 15.8937 61.0468 15.6256C61.4519 15.3641 61.8014 15.0502 62.0954 14.684C62.3958 14.3179 62.6343 13.9125 62.8106 13.4678H60.0279C59.8972 13.4548 59.7796 13.4352 59.675 13.409C59.5771 13.3763 59.4954 13.3469 59.4301 13.3208C58.9793 13.0265 58.6429 12.6472 58.4208 12.183C58.2053 11.7122 58.0975 11.2218 58.0975 10.7117C58.0975 10.2017 58.1824 9.69168 58.3522 9.18175C58.5286 8.67169 58.7704 8.21398 59.0774 7.80858C59.3844 7.39663 59.7469 7.06316 60.165 6.80815C60.5831 6.55314 61.0371 6.42563 61.527 6.42563ZM61.184 8.24993C60.9815 8.24993 60.7986 8.30225 60.6354 8.40687C60.472 8.51148 60.3316 8.64553 60.214 8.809C60.1029 8.97247 60.0147 9.15554 59.9494 9.35824C59.8907 9.56094 59.8612 9.76363 59.8612 9.96633C59.8612 10.241 59.92 10.4927 60.0376 10.7216C60.1552 10.9504 60.3511 11.1106 60.6255 11.2021H62.8498C62.876 11.1106 62.8923 11.0191 62.8988 10.9276C62.9118 10.836 62.9184 10.7477 62.9184 10.6627C62.9184 10.4535 62.8955 10.2116 62.8498 9.93693C62.8041 9.66228 62.7192 9.40079 62.5951 9.15226C62.4709 8.89727 62.2946 8.68476 62.0659 8.51475C61.8373 8.3382 61.5433 8.24993 61.184 8.24993ZM75.7252 6.39621C75.7252 6.35044 75.771 6.29486 75.8624 6.22947C75.9604 6.15755 76.078 6.08562 76.2151 6.0137C76.3588 5.93523 76.5124 5.86003 76.6756 5.78811C76.839 5.70964 76.9892 5.64098 77.1264 5.58214C77.2701 5.52329 77.391 5.47425 77.4889 5.43502C77.5674 5.40886 77.6131 5.39579 77.6261 5.39579C77.6457 5.6181 77.6719 5.88619 77.7046 6.20005C77.7372 6.50737 77.7666 6.8245 77.7927 7.15143C77.8253 7.47836 77.8581 7.79876 77.8907 8.11262C77.9234 8.42648 77.9495 8.69457 77.9691 8.91688C78.0017 9.23726 78.0606 9.51848 78.1455 9.76034C78.2304 9.99582 78.3317 10.2017 78.4492 10.3783C78.5668 10.5483 78.6975 10.6921 78.8412 10.8099C78.9914 10.921 79.1482 11.0093 79.3115 11.0747C79.5336 11.1727 79.857 11.2218 80.2816 11.2218H80.5265V13.4678H79.5271C79.1874 13.4678 78.8836 13.4384 78.6158 13.3796C78.2957 13.3076 78.0115 13.1866 77.7633 13.0166C77.5151 12.8466 77.2963 12.6211 77.1068 12.3399C76.9239 12.0587 76.7638 11.7154 76.6267 11.3101C76.5156 11.4604 76.3948 11.6304 76.2642 11.8201C76.1335 12.0031 75.9995 12.1928 75.8624 12.3889C75.7252 12.5785 75.588 12.7682 75.4509 12.9578C75.3137 13.1475 75.1895 13.3208 75.0785 13.4776C75.0263 13.5299 74.9478 13.5561 74.8433 13.5561C74.7911 13.5561 74.7323 13.5496 74.667 13.5365C74.4709 13.4908 74.2521 13.409 74.0105 13.2913C73.7688 13.1671 73.5173 13.0232 73.256 12.8598C73.0012 12.6962 72.7726 12.5394 72.5701 12.3889C72.3675 12.232 72.2075 12.0947 72.0899 11.977C71.9984 11.892 71.9527 11.8364 71.9527 11.8103C71.9527 11.7972 71.956 11.7907 71.9625 11.7907C72.0148 11.3721 72.0703 10.9537 72.1292 10.5352C72.1879 10.1102 72.2434 9.6852 72.2957 9.26018V9.26995C72.3088 9.17189 72.41 9.04439 72.5995 8.88746C72.7954 8.72399 73.0502 8.55072 73.3638 8.36763C73.6838 8.18455 74.0463 8.00473 74.4514 7.82819C74.8629 7.6451 75.2908 7.48817 75.735 7.3574C75.735 7.22663 75.7317 7.06643 75.7252 6.87681C75.7252 6.68719 75.7252 6.52698 75.7252 6.39621ZM77.0775 0.795792C77.3517 1.07042 77.6164 1.3385 77.8711 1.60005C78.1324 1.8616 78.4003 2.12969 78.6746 2.40432L77.0775 4.00304L75.539 2.47298L74.0202 4.00304L72.4133 2.40432C72.6941 2.12969 72.962 1.8616 73.2167 1.60005C73.4781 1.3385 73.7459 1.07042 74.0202 0.795792L75.539 2.32585L77.0775 0.795792ZM73.501 10.035C73.6185 10.0939 73.7492 10.1658 73.8929 10.2508C74.0431 10.3293 74.1967 10.4143 74.3534 10.5058C74.5102 10.5908 74.6637 10.6758 74.8139 10.7608C74.9641 10.8458 75.0981 10.921 75.2156 10.9864C75.2745 11.0126 75.3365 11.0256 75.4018 11.0256C75.4672 11.0256 75.5358 11.0093 75.6076 10.9766C75.7317 10.9112 75.8427 10.8066 75.9408 10.6627C76.0388 10.5123 76.1171 10.3357 76.176 10.133C76.2413 9.92387 76.2739 9.70483 76.2739 9.47593C76.2739 9.27323 76.2413 9.02151 76.176 8.72072L73.501 10.035ZM80.0366 11.2021H84.7693V13.4678H80.0366V11.2021ZM84.2892 11.2021H89.0219V13.4678H84.2892V11.2021ZM88.5418 11.2021H93.2741V13.4678H88.5418V11.2021ZM92.7943 11.2021H97.5275V13.4678H92.7943V11.2021ZM97.0468 11.2021H101.78V13.4678H97.0468V11.2021ZM101.299 11.2021H106.032V13.4678H101.299V11.2021ZM121.916 11.2021V13.4678H105.552V11.2021H107.424C107.306 10.9537 107.202 10.6562 107.11 10.3096C107.019 9.96304 106.946 9.59033 106.894 9.19152C107.202 9.06074 107.486 8.93651 107.747 8.8188C108.008 8.69457 108.286 8.56707 108.58 8.43629C108.652 8.95938 108.75 9.44982 108.874 9.90753C108.998 10.3587 109.142 10.7903 109.305 11.2021H110.157C110.425 10.8687 110.719 10.5156 111.039 10.1429C111.366 9.7702 111.706 9.40398 112.058 9.04439C112.411 8.68476 112.777 8.34147 113.156 8.01454C113.535 7.68761 113.92 7.3999 114.312 7.15143C114.704 6.90296 115.096 6.7068 115.488 6.56295C115.88 6.41255 116.265 6.33736 116.645 6.33736C117.01 6.33736 117.37 6.42237 117.722 6.59237C118.081 6.76237 118.424 7.04027 118.751 7.42606C119.084 7.80531 119.397 8.30552 119.691 8.9267C119.992 9.5413 120.267 10.2999 120.515 11.2021H121.916ZM118.525 10.9864C118.401 10.5352 118.261 10.1527 118.104 9.83887C117.947 9.52496 117.775 9.26995 117.585 9.07382C117.402 8.87765 117.203 8.73707 116.988 8.65206C116.778 8.56052 116.562 8.51475 116.341 8.51475C116.04 8.51475 115.723 8.59322 115.39 8.75015C115.064 8.90708 114.734 9.11305 114.401 9.3681C114.067 9.62311 113.738 9.91081 113.411 10.2312C113.084 10.5516 112.777 10.8753 112.49 11.2021H118.359L118.525 10.9864ZM121.426 11.2021H123.954C123.987 11.0453 124.016 10.8883 124.042 10.7314C124.069 10.5679 124.081 10.411 124.081 10.2606C124.081 9.90753 124.032 9.52167 123.935 9.10324C123.843 8.67822 123.686 8.25975 123.464 7.8478C123.784 7.63203 124.085 7.42933 124.365 7.2397C124.653 7.04355 124.953 6.8343 125.267 6.61199C125.542 7.26586 125.734 7.94262 125.846 8.64226C125.962 9.3419 126.022 10.0448 126.022 10.751V11.2021H127.776V13.4678H121.426V11.2021ZM123.817 1.68833L125.424 3.28705L123.817 4.89557L122.22 3.28705L123.817 1.68833ZM129.912 13.4678H127.286V11.2021H129.01L129.392 9.81923C129.477 9.38764 129.631 8.96592 129.853 8.55399C130.075 8.13551 130.343 7.76934 130.656 7.45548C130.97 7.13509 131.316 6.88007 131.695 6.69045C132.015 6.53352 132.348 6.45505 132.694 6.45505C132.76 6.45505 132.822 6.45832 132.88 6.46487C133.475 6.51064 133.965 6.64468 134.351 6.867C134.736 7.08932 135.039 7.37375 135.262 7.7203C135.49 8.06031 135.65 8.44937 135.742 8.88746C135.833 9.31898 135.879 9.7702 135.879 10.241C135.879 10.6921 135.847 11.1499 135.781 11.6141C135.722 12.0784 135.647 12.5197 135.556 12.9382C135.458 13.0625 135.359 13.1866 135.262 13.3109C135.163 13.4352 135.066 13.5561 134.968 13.6738L130.431 12.4184L129.912 13.4678ZM134.076 11.1041C134.076 11.078 134.08 11.0354 134.086 10.9766C134.092 10.9177 134.099 10.8556 134.105 10.7903C134.112 10.7183 134.115 10.6496 134.115 10.5843C134.122 10.5123 134.125 10.4535 134.125 10.4077C134.125 10.2116 134.105 10.0023 134.066 9.77997C134.033 9.55117 133.962 9.3419 133.851 9.15226C133.739 8.96265 133.583 8.80246 133.38 8.67168C133.184 8.54091 132.919 8.47225 132.586 8.46571C132.404 8.46571 132.221 8.51802 132.038 8.62265C131.861 8.72072 131.702 8.85477 131.558 9.02478C131.414 9.18823 131.293 9.38116 131.195 9.60348C131.104 9.81923 131.051 10.0416 131.038 10.2704L134.076 11.1041Z" fill="#01794C"/>
</g>
<path d="M137.777 27H0V28.4574H137.777V27Z" fill="#01794C"/>
<path d="M3.5826 38.7259C4.49986 38.065 4.96003 37.7376 4.96003 37.7438C4.98165 37.9384 5.00019 38.1669 5.01564 38.4232C5.02799 38.6796 5.04343 38.9483 5.0527 39.2201C5.06196 39.4919 5.0774 39.7605 5.08976 40.0231C5.10211 40.2825 5.11754 40.511 5.13607 40.7087C5.26579 41.4592 5.47889 42.0305 5.77538 42.4228C6.07187 42.815 6.43322 43.0096 6.85942 43.0096H7.51417V44.6804H6.75134C6.4672 44.6742 6.20159 44.631 5.9607 44.5507C5.7198 44.4704 5.49742 44.3438 5.29668 44.1677C5.09593 43.9948 4.90753 43.7724 4.73767 43.5006C4.56781 43.2289 4.40721 42.9015 4.25587 42.5216C4.15396 42.8922 4.03351 43.2072 3.89453 43.4697C3.75555 43.7323 3.60422 43.9515 3.44671 44.1245C3.28611 44.2974 3.12241 44.4241 2.95564 44.5075C2.78886 44.5909 2.62209 44.6279 2.46149 44.6279C2.28236 44.6279 2.09089 44.5939 1.88705 44.526C1.68321 44.458 1.47319 44.3685 1.26009 44.2542C1.04699 44.1399 0.833881 44.0102 0.620779 43.8651C0.407677 43.7199 0.200748 43.5655 0 43.4018L0.30268 41.2183C0.330475 41.1411 0.447838 41.0206 0.651674 40.86C0.855511 40.6994 1.11185 40.5296 1.42069 40.3443C1.72954 40.1589 2.07236 39.9798 2.44915 39.8038C2.82594 39.6277 3.20581 39.4826 3.58569 39.3714V38.7259H3.5826ZM1.56893 34.6924L2.67769 35.8012L3.78643 34.6924L4.99711 35.8938L3.78643 37.1045L2.67769 35.9865L1.56893 37.1045L0.358269 35.8938L1.56893 34.6924ZM3.78643 40.5975C3.55788 40.6871 3.32933 40.7766 3.10697 40.8631C2.88151 40.9496 2.65607 41.0484 2.43062 41.1565C2.20516 41.2646 1.97352 41.3881 1.74188 41.5271C1.51025 41.663 1.27244 41.8267 1.03155 42.0182C1.36819 42.2375 1.67395 42.429 1.94573 42.5988C2.2206 42.7656 2.44297 42.8644 2.61901 42.8922C2.78578 42.9077 2.94638 42.8613 3.1008 42.7501C3.25522 42.639 3.38493 42.4784 3.49611 42.2684C3.6073 42.0583 3.68761 41.8113 3.7432 41.524C3.79879 41.2399 3.81422 40.9311 3.78643 40.6006V40.5975Z" fill="#01794C"/>
<path d="M7.29517 43.0002H11.1588V44.6803H7.29517V43.0002Z" fill="#01794C"/>
<path d="M14.3923 34.4668C14.4541 34.5625 14.5035 34.6614 14.5406 34.7695C14.5776 34.8745 14.6085 34.9826 14.6363 35.0876C14.6703 35.2729 14.6796 35.4613 14.661 35.6497C14.6456 35.8411 14.6023 36.0141 14.5344 36.1716C14.4665 36.3291 14.3738 36.4557 14.2565 36.5546C14.1391 36.6534 13.997 36.7028 13.8272 36.7028C13.6882 36.7028 13.5832 36.6781 13.5121 36.6256C13.4411 36.5731 13.3639 36.5113 13.2805 36.4341C13.2465 36.4897 13.2064 36.5546 13.1539 36.6256C13.1045 36.6997 13.0427 36.7677 12.9686 36.8356C12.8945 36.9036 12.808 36.9622 12.7091 37.0116C12.6103 37.0611 12.496 37.092 12.3725 37.1043C12.1779 37.1197 12.0204 37.0919 11.9031 37.0209C11.7857 36.9468 11.6992 36.8511 11.6436 36.7275C11.588 36.604 11.5541 36.465 11.5479 36.3106C11.5386 36.1562 11.5479 36.0079 11.5633 35.8597C11.5819 35.7145 11.6128 35.5817 11.6529 35.4613C11.6931 35.3408 11.7301 35.2543 11.7703 35.1957C11.7703 35.2111 11.7826 35.2111 11.8135 35.1864C11.8413 35.1648 11.8753 35.1401 11.9092 35.1123C11.9463 35.0845 11.9772 35.0598 12.005 35.0412C12.0328 35.0227 12.0482 35.0196 12.0482 35.0381C12.0019 35.1493 11.9648 35.279 11.9339 35.4273C11.9031 35.5755 11.8938 35.7145 11.9092 35.8473C11.9216 35.9801 11.9617 36.0913 12.0266 36.1778C12.0914 36.2673 12.1965 36.3106 12.3416 36.3044C12.5053 36.3044 12.6288 36.2612 12.7153 36.1685C12.8018 36.0789 12.8666 35.9739 12.913 35.8535C12.9593 35.733 12.9933 35.6095 13.018 35.4798C13.0427 35.3501 13.0798 35.2451 13.123 35.1617C13.1292 35.1771 13.1415 35.1771 13.1662 35.1617C13.1878 35.1462 13.2126 35.1246 13.2404 35.0999C13.2682 35.0752 13.2959 35.0536 13.3206 35.032C13.3454 35.0134 13.3608 35.0103 13.367 35.0289C13.3207 35.1926 13.3145 35.3439 13.3454 35.4829C13.3762 35.6219 13.4318 35.7361 13.5091 35.8195C13.5863 35.9029 13.6882 35.9523 13.8086 35.9708C13.9291 35.9863 14.0588 35.9492 14.1978 35.8535C14.2317 35.8041 14.2472 35.7423 14.2441 35.6682C14.2441 35.5941 14.2286 35.5199 14.207 35.4458C14.1854 35.3686 14.1545 35.2945 14.1144 35.2204C14.0742 35.1462 14.0372 35.0783 13.997 35.0227C14.0711 34.9208 14.1391 34.8281 14.204 34.7386C14.2688 34.649 14.3306 34.5594 14.3923 34.4699V34.4668Z" fill="#01794C"/>
<path d="M10.9575 43.0001H13.4591C13.5333 42.7252 13.5765 42.4658 13.595 42.2187C13.6105 41.9717 13.6074 41.7277 13.5796 41.4806C13.5518 41.2335 13.4993 40.9864 13.419 40.7332C13.3418 40.4799 13.2429 40.2143 13.1256 39.9364L14.4444 39.0222C14.6698 39.5658 14.8273 40.1062 14.92 40.6436C15.0126 41.181 15.059 41.7493 15.059 42.3484L15.025 43.0032H16.7205V44.6833H10.9575V43.0032V43.0001ZM12.687 46.0391L13.7958 47.1386L14.9138 46.0391L16.1152 47.2313L14.9138 48.4481L13.7958 47.3301L12.687 48.4481L11.4856 47.2313L12.687 46.0391Z" fill="#01794C"/>
<path d="M16.5422 43.0002H20.4059V44.6803H16.5422V43.0002Z" fill="#01794C"/>
<path d="M20.2046 42.9999H22.6753L22.4808 35.2572L24.0682 34.6117L23.9416 42.691V44.6831H20.2046V43.003V42.9999Z" fill="#01794C"/>
<path d="M25.8406 42.6878L25.6646 35.2632L27.2613 34.6085L27.1192 42.9997H28.9167V44.6799H25.8437V42.6878H25.8406Z" fill="#01794C"/>
<path d="M28.6946 43.0002H32.5582V44.6803H28.6946V43.0002Z" fill="#01794C"/>
<path d="M33.9446 42.9999C33.9724 42.7528 34.0342 42.5057 34.1238 42.2617C34.2164 42.0146 34.3338 41.783 34.482 41.5606C34.6272 41.3383 34.7939 41.1344 34.9761 40.9461C35.1584 40.7577 35.356 40.5971 35.563 40.4581C35.7699 40.3191 35.983 40.2172 36.2054 40.1431C36.4277 40.0689 36.647 40.0411 36.8632 40.0504C37.2987 40.0936 37.6724 40.2048 37.9843 40.3809C38.2962 40.5569 38.5526 40.7793 38.7533 41.0449C38.9541 41.3105 39.1085 41.6132 39.2104 41.9467C39.3123 42.2833 39.3741 42.6323 39.3895 42.9968H40.5724V44.6769H39.2104C39.0745 45.2019 38.8892 45.6683 38.6483 46.0698L33.7253 44.6769H32.3479V42.9968H33.9353L33.9446 42.9999ZM38.0769 44.2013C38.1171 44.1055 38.148 43.9789 38.1696 43.8183C38.1912 43.6577 38.1974 43.4878 38.185 43.3025C38.1727 43.1172 38.1418 42.9288 38.0831 42.7373C38.0275 42.5428 37.938 42.3636 37.8175 42.1969C37.6971 42.0301 37.5396 41.8849 37.3419 41.7645C37.1473 41.644 36.9064 41.5607 36.6192 41.5174C36.4339 41.5174 36.2548 41.5699 36.0787 41.6718C35.9027 41.7768 35.7421 41.9127 35.6 42.0888C35.4579 42.2617 35.3406 42.4625 35.2479 42.6848C35.1553 42.9072 35.0997 43.1419 35.0842 43.3828L38.0739 44.2074L38.0769 44.2013Z" fill="#01794C"/>
<path d="M40.3625 42.9999H42.8333L42.6387 35.2572L44.2262 34.6117L44.0996 42.691V44.6831H40.3625V43.003V42.9999Z" fill="#01794C"/>
<path d="M46.4508 42.6878L46.2593 35.2632L47.8807 34.6085L47.7201 42.6044L46.5681 44.6799H46.4415L46.4508 42.6878Z" fill="#01794C"/>
<path d="M56.2186 38.7259C57.1358 38.065 57.596 37.7376 57.596 37.7438C57.6176 37.9384 57.6362 38.1669 57.6516 38.4232C57.664 38.6796 57.6794 38.9483 57.6887 39.2201C57.6979 39.4919 57.7134 39.7605 57.7257 40.0231C57.7381 40.2825 57.7535 40.511 57.772 40.7087C57.9018 41.4592 58.1149 42.0305 58.4113 42.4228C58.7078 42.815 59.0692 43.0096 59.4954 43.0096H60.1501V44.6804H59.3873C59.1032 44.6742 58.8376 44.631 58.5967 44.5507C58.3558 44.4704 58.1334 44.3438 57.9326 44.1677C57.7319 43.9948 57.5435 43.7724 57.3736 43.5006C57.2038 43.2289 57.0432 42.9015 56.8918 42.5216C56.7899 42.8922 56.6695 43.2072 56.5305 43.4697C56.3915 43.7323 56.2402 43.9515 56.0827 44.1245C55.9221 44.2974 55.7584 44.4241 55.5916 44.5075C55.4248 44.5909 55.2581 44.6279 55.0975 44.6279C54.9183 44.6279 54.7269 44.5939 54.523 44.526C54.3192 44.458 54.1092 44.3685 53.8961 44.2542C53.683 44.1399 53.4698 44.0102 53.2567 43.8651C53.0436 43.7199 52.8367 43.5655 52.636 43.4018L52.9386 41.2183C52.9664 41.1411 53.0838 41.0206 53.2876 40.86C53.4915 40.6994 53.7478 40.5296 54.0567 40.3443C54.3655 40.1589 54.7083 39.9798 55.0851 39.8038C55.4619 39.6277 55.8418 39.4826 56.2217 39.3714V38.7259H56.2186ZM54.2018 34.6924L55.3106 35.8012L56.4193 34.6924L57.63 35.8938L56.4193 37.1045L55.3106 35.9865L54.2018 37.1045L52.9911 35.8938L54.2018 34.6924ZM56.4193 40.5975C56.1908 40.6871 55.9622 40.7766 55.7399 40.8631C55.5144 40.9496 55.2889 41.0484 55.0635 41.1565C54.838 41.2646 54.6064 41.3881 54.3748 41.5271C54.1431 41.663 53.9053 41.8267 53.6644 42.0182C54.0011 42.2375 54.3068 42.429 54.5786 42.5988C54.8535 42.7656 55.0758 42.8644 55.2519 42.8922C55.4187 42.9077 55.5793 42.8613 55.7337 42.7501C55.8881 42.639 56.0178 42.4784 56.129 42.2684C56.2402 42.0583 56.3205 41.8113 56.3761 41.524C56.4317 41.2399 56.4471 40.9311 56.4193 40.6006V40.5975Z" fill="#01794C"/>
<path d="M61.988 44.6803H59.9312V43.0002H61.4167L61.7935 41.6567C61.8676 41.2923 61.9942 40.9371 62.1795 40.5912C62.3648 40.2453 62.5872 39.9365 62.8466 39.6678C63.1061 39.3991 63.3964 39.186 63.7145 39.0285C64.0326 38.871 64.36 38.803 64.6966 38.8185C65.2062 38.8679 65.6324 39.0099 65.9721 39.2385C66.3149 39.467 66.5836 39.7543 66.7782 40.094C66.9728 40.4368 67.1056 40.8136 67.1674 41.2305C67.2322 41.6475 67.2446 42.0706 67.2044 42.503C67.1643 42.9353 67.084 43.3523 66.9573 43.7599C66.8307 44.1645 66.6732 44.5259 66.4817 44.8378L62.476 43.7198L61.9819 44.6772L61.988 44.6803ZM65.9104 42.9662C65.9505 42.8705 65.9814 42.7439 66.003 42.5833C66.0246 42.4227 66.0308 42.2528 66.0184 42.0675C66.0061 41.8822 65.9721 41.6938 65.9165 41.4992C65.861 41.3077 65.7714 41.1255 65.6509 40.9587C65.5305 40.792 65.373 40.6468 65.1753 40.5264C64.9777 40.4059 64.7398 40.3225 64.4526 40.2793C64.2673 40.2793 64.0882 40.3318 63.9121 40.4337C63.7361 40.5356 63.5755 40.6746 63.4334 40.8506C63.2914 41.0236 63.174 41.2243 63.0844 41.4467C62.9949 41.6722 62.9424 41.9038 62.9238 42.1447L65.9042 42.9693L65.9104 42.9662Z" fill="#01794C"/>
<path d="M68.6313 44.6709C68.6374 44.6307 68.6714 44.5906 68.7332 44.5442C68.795 44.501 68.8876 44.4485 69.0111 44.3898C69.1347 44.3311 69.2891 44.2601 69.4775 44.1798C69.6659 44.0995 69.8883 44.0007 70.1446 43.8895C69.9809 43.8679 69.8327 43.8184 69.6937 43.7412C69.5547 43.664 69.4373 43.5776 69.3354 43.4756C69.2335 43.3737 69.1563 43.2687 69.1007 43.1575C69.0451 43.0463 69.0173 42.9444 69.0173 42.8549C69.0173 42.6418 69.0729 42.4039 69.1841 42.1353C69.2953 41.8697 69.4497 41.6071 69.6412 41.3508C69.8327 41.0945 70.0581 40.8566 70.3145 40.6404C70.5677 40.4243 70.8364 40.2606 71.1205 40.1494C71.4047 40.0382 71.6888 39.9919 71.9822 40.0135C72.2725 40.0351 72.5536 40.1556 72.8223 40.3748C72.7883 40.449 72.742 40.5354 72.6802 40.6404C72.6184 40.7424 72.5536 40.8505 72.4825 40.9586C72.4115 41.0666 72.3466 41.1717 72.2818 41.2705C72.2169 41.3693 72.1706 41.4496 72.1428 41.5114C72.0254 41.4651 71.871 41.4311 71.6795 41.4033C71.4881 41.3755 71.2966 41.3724 71.1051 41.394C70.9136 41.4156 70.7376 41.4712 70.5801 41.5577C70.4226 41.6442 70.3237 41.7801 70.2774 41.9654C70.228 42.1569 70.2619 42.3051 70.3793 42.4132C70.4967 42.5213 70.6604 42.6047 70.8704 42.6603C71.0804 42.7159 71.3182 42.7468 71.5838 42.7529C71.8494 42.7591 72.1088 42.7529 72.359 42.7313C72.6123 42.7128 72.8377 42.685 73.0446 42.651C73.2485 42.617 73.3936 42.5831 73.477 42.5491C73.4276 42.6943 73.3844 42.8209 73.3473 42.9321C73.3102 43.0433 73.2732 43.1483 73.2392 43.2502C73.2021 43.3552 73.1651 43.4602 73.1311 43.5683C73.0971 43.6764 73.0539 43.7999 73.0107 43.9327C72.8315 43.9729 72.6153 44.0223 72.3652 44.0871C72.1119 44.152 71.8432 44.2261 71.556 44.3126C71.2688 44.3991 70.9723 44.4917 70.6696 44.5936C70.367 44.6956 70.0767 44.7975 69.7956 44.8994C69.5146 45.0013 69.2551 45.1094 69.0173 45.2175C68.7795 45.3256 68.5849 45.4306 68.4336 45.5325L68.6343 44.6585L68.6313 44.6709Z" fill="#01794C"/>
<path d="M75.2591 42.6878L75.0676 35.2632L76.6891 34.6085L76.5285 42.6044L75.3765 44.6799H75.2499L75.2591 42.6878Z" fill="#01794C"/>
<path d="M79.6603 44.6806C79.441 44.6744 79.2526 44.6281 79.0951 44.5385C78.9376 44.4489 78.8017 44.3254 78.6905 44.1648C78.5793 44.0042 78.499 43.8158 78.4465 43.5996C78.394 43.3803 78.3662 43.1456 78.3662 42.8954C78.3662 42.4631 78.4403 42.0307 78.5855 41.5983C78.7307 41.1659 78.9314 40.7737 79.1908 40.4309C79.4472 40.085 79.7529 39.807 80.1019 39.5908C80.4509 39.3746 80.8308 39.2665 81.2416 39.2665C81.5937 39.2449 81.9149 39.3221 82.2083 39.4982C82.4986 39.6742 82.7487 39.9275 82.9557 40.2548C83.1626 40.5822 83.3232 40.9744 83.4344 41.4315C83.5455 41.8886 83.6011 42.3858 83.595 42.9232V43.0066H84.855V44.6867H83.4096C83.3479 44.9554 83.2583 45.2334 83.144 45.5175C83.0298 45.8017 82.8815 46.0827 82.6993 46.3576C82.5171 46.6324 82.3009 46.8949 82.0538 47.142C81.8037 47.3922 81.5164 47.6146 81.1891 47.8091C80.8617 48.0037 80.4911 48.1674 80.0772 48.3002C79.6634 48.433 79.2032 48.5133 78.6998 48.5473L75.7441 47.7165C76.473 47.6671 77.1741 47.5806 77.8535 47.4601C78.533 47.3397 79.1507 47.1636 79.7128 46.9351C80.2749 46.7066 80.7598 46.4101 81.1644 46.0456C81.5689 45.6812 81.8623 45.2272 82.0415 44.6836H79.6634L79.6603 44.6806ZM79.6078 42.2283C79.5584 42.3055 79.5398 42.392 79.5522 42.4816C79.5645 42.5712 79.6047 42.6545 79.6695 42.7348C79.7344 42.8151 79.8178 42.8769 79.9166 42.9263C80.0185 42.9757 80.1266 43.0035 80.244 43.0035H82.2422C82.2638 42.9541 82.2824 42.8707 82.2916 42.7565C82.304 42.6422 82.3009 42.5094 82.2824 42.3611C82.2669 42.2129 82.233 42.0554 82.1804 41.8917C82.131 41.728 82.0569 41.5705 81.9612 41.4223C81.8654 41.274 81.745 41.1412 81.5998 41.0269C81.4547 40.9127 81.2786 40.8324 81.0717 40.786C80.9667 40.7521 80.8215 40.7768 80.6424 40.8632C80.4633 40.9466 80.2934 41.064 80.1297 41.2122C79.966 41.3605 79.8301 41.5273 79.722 41.7064C79.614 41.8886 79.5707 42.0647 79.6016 42.2314L79.6078 42.2283Z" fill="#01794C"/>
<path d="M86.22 42.9999C86.2478 42.7528 86.3096 42.5057 86.3991 42.2617C86.4918 42.0146 86.6092 41.783 86.7574 41.5606C86.9026 41.3383 87.0693 41.1344 87.2516 40.9461C87.4338 40.7577 87.6314 40.5971 87.8384 40.4581C88.0453 40.3191 88.2584 40.2172 88.4808 40.1431C88.7031 40.0689 88.9224 40.0411 89.1386 40.0504C89.5741 40.0936 89.9478 40.2048 90.2597 40.3809C90.5716 40.5569 90.828 40.7793 91.0287 41.0449C91.2295 41.3105 91.3839 41.6132 91.4858 41.9467C91.5877 42.2833 91.6495 42.6323 91.6649 42.9968H92.8478V44.6769H91.4858C91.3499 45.2019 91.1646 45.6683 90.9237 46.0698L86.0007 44.6769H84.6233V42.9968H86.2108L86.22 42.9999ZM90.3493 44.2013C90.3894 44.1055 90.4203 43.9789 90.4419 43.8183C90.4635 43.6577 90.4697 43.4878 90.4574 43.3025C90.445 43.1172 90.4141 42.9288 90.3554 42.7373C90.2998 42.5428 90.2103 42.3636 90.0898 42.1969C89.9694 42.0301 89.8119 41.8849 89.6142 41.7645C89.4196 41.644 89.1787 41.5607 88.8915 41.5174C88.7062 41.5174 88.5271 41.5699 88.351 41.6718C88.175 41.7768 88.0144 41.9127 87.8723 42.0888C87.7303 42.2617 87.6129 42.4625 87.5202 42.6848C87.4276 42.9072 87.372 43.1419 87.3566 43.3828L90.3462 44.2074L90.3493 44.2013Z" fill="#01794C"/>
<path d="M92.635 42.9999H95.1058L94.9112 35.2572L96.4986 34.6117L96.372 42.691V44.6831H92.635V43.003V42.9999Z" fill="#01794C"/>
<path d="M98.7252 42.6878L98.5337 35.2632L100.155 34.6085L99.9945 42.6044L98.8425 44.6799H98.7159L98.7252 42.6878Z" fill="#01794C"/>
<path d="M106.15 40.6992C106.11 40.8382 106.066 40.9926 106.02 41.1625C105.974 41.3323 105.934 41.4991 105.903 41.6721C105.872 41.8419 105.859 42.0087 105.859 42.1724C105.859 42.3361 105.896 42.4781 105.961 42.6048C106.026 42.7314 106.131 42.8302 106.279 42.9044C106.428 42.9785 106.628 43.0094 106.879 43.0063H113.991C114.143 42.4751 114.183 41.9686 114.118 41.4868C114.05 41.005 113.899 40.4892 113.664 39.9425L114.983 39.0284C115.239 39.6491 115.403 40.2977 115.474 40.9741C115.545 41.6504 115.563 42.3268 115.529 43.0094H116.857V44.6895H105.183C105.053 44.5598 104.97 44.3961 104.93 44.1953C104.89 43.9946 104.88 43.7753 104.902 43.5406C104.921 43.3058 104.964 43.0619 105.032 42.8055C105.1 42.5523 105.177 42.3052 105.266 42.0674C105.356 41.8296 105.449 41.6072 105.547 41.4034C105.646 41.1995 105.736 41.0266 105.819 40.8876V40.8969L106.147 40.7116L106.15 40.6992ZM110.449 46.0391L111.641 47.2312L110.449 48.4481L109.238 47.2312L110.449 46.0391Z" fill="#01794C"/>
<path d="M116.613 43.0004H119.115C119.189 42.7255 119.232 42.4661 119.251 42.219C119.266 41.9719 119.263 41.7279 119.235 41.4809C119.208 41.2338 119.155 40.9867 119.075 40.7335C118.998 40.4802 118.899 40.2146 118.781 39.9367L120.1 39.0225C120.326 39.566 120.483 40.1065 120.576 40.6439C120.668 41.1813 120.715 41.7496 120.715 42.3487L120.681 43.0035H122.376V44.6836H116.613V43.0035V43.0004ZM118.401 35.6777L119.51 36.7772L120.628 35.6777L121.83 36.8791L120.628 38.0898L119.51 36.9718L118.401 38.0898L117.2 36.8791L118.401 35.6777Z" fill="#01794C"/>
<path d="M122.197 43H127.781C127.216 42.373 126.546 41.7245 125.774 41.0512C125.002 40.381 124.091 39.6892 123.044 38.9758L123.674 37.027L129.755 34.4574L129.116 36.3043L124.471 38.0832C125.091 38.4909 125.669 38.914 126.197 39.3464C126.725 39.7818 127.21 40.2111 127.649 40.6343C128.087 41.0574 128.485 41.4712 128.847 41.8727C129.205 42.2742 129.523 42.6479 129.804 42.9938H130.694V44.6739H122.194V42.9938L122.197 43Z" fill="#01794C"/>
<path d="M132.538 44.6803H130.481V43.0002H131.966L132.343 41.6567C132.417 41.2923 132.544 40.9371 132.729 40.5912C132.914 40.2453 133.137 39.9365 133.396 39.6678C133.656 39.3991 133.946 39.186 134.264 39.0285C134.582 38.871 134.91 38.803 135.246 38.8185C135.756 38.8679 136.182 39.0099 136.522 39.2385C136.865 39.467 137.133 39.7543 137.328 40.094C137.522 40.4368 137.655 40.8136 137.717 41.2305C137.782 41.6475 137.794 42.0706 137.754 42.503C137.714 42.9353 137.634 43.3523 137.507 43.7599C137.38 44.1645 137.223 44.5259 137.031 44.8378L133.026 43.7198L132.531 44.6772L132.538 44.6803ZM136.46 42.9662C136.5 42.8705 136.531 42.7439 136.553 42.5833C136.574 42.4227 136.58 42.2528 136.568 42.0675C136.556 41.8822 136.522 41.6938 136.466 41.4992C136.411 41.3077 136.321 41.1255 136.2 40.9587C136.08 40.792 135.923 40.6468 135.725 40.5264C135.527 40.4059 135.289 40.3225 135.002 40.2793C134.817 40.2793 134.638 40.3318 134.462 40.4337C134.286 40.5356 134.125 40.6746 133.983 40.8506C133.841 41.0236 133.724 41.2243 133.634 41.4467C133.544 41.6722 133.492 41.9038 133.473 42.1447L136.454 42.9693L136.46 42.9662Z" fill="#01794C"/>
<path d="M151.992 31.3613C160.216 32.9114 165.801 37.7628 169.635 41.5138C169.457 41.8569 169.303 42.2356 169.138 42.6497C169.043 42.8982 168.948 43.123 168.854 43.3242C165.103 39.656 154.536 31.7755 142.431 33.574C142.431 33.5859 146.147 30.2609 151.992 31.3613Z" fill="#01794C"/>
<path d="M177.362 46.7082C177.362 47.288 176.806 47.927 175.8 47.927C174.853 47.927 172.818 47.3235 170.025 44.5547C170.179 44.247 170.321 43.9157 170.451 43.5844C170.582 43.2649 170.712 42.9809 170.83 42.7324C172.889 44.7795 174.356 46.2704 175.433 46.2704C175.433 46.2704 175.468 45.525 176.214 45.525C176.959 45.525 177.362 46.1166 177.362 46.7082Z" fill="#01794C"/>
<path d="M172.51 39.4192C171.268 39.4192 170.309 40.6261 169.469 42.7797C168.333 45.7024 167.316 45.5485 167.079 45.513C166.76 45.4539 166.511 45.0397 166.641 44.9687C166.795 44.8977 166.689 45.3001 167.197 45.4065C167.422 45.4539 168.227 45.2172 167.943 44.4599C167.836 44.1759 167.351 43.9038 166.76 43.9038C166.168 43.9038 165.434 44.2233 165.434 45.1226C165.434 46.0218 165.979 46.6371 167.221 46.6371C168.463 46.6371 169.28 45.513 170.132 43.4423C171.422 40.3303 172.356 40.4841 172.652 40.5551C172.972 40.6261 173.22 41.0285 173.09 41.0994C172.936 41.1704 173.043 40.7681 172.534 40.6616C172.309 40.6143 171.504 40.851 171.788 41.6083C171.895 41.8922 172.38 42.1644 172.972 42.1644C173.563 42.1644 174.297 41.8449 174.297 40.9456C174.297 40.0345 173.753 39.4192 172.51 39.4192Z" fill="#01794C"/>
<path d="M174.439 31.3613C166.215 32.9114 160.63 37.7628 156.796 41.5138C156.974 41.8569 157.128 42.2356 157.293 42.6497C157.388 42.8982 157.483 43.123 157.577 43.3242C161.328 39.656 171.895 31.7755 184 33.574C184 33.5859 180.284 30.2609 174.439 31.3613Z" fill="#01794C"/>
<path d="M149.069 46.7082C149.069 47.288 149.625 47.927 150.631 47.927C151.578 47.927 153.613 47.3235 156.406 44.5547C156.252 44.247 156.11 43.9157 155.98 43.5844C155.849 43.2649 155.719 42.9809 155.601 42.7324C153.542 44.7795 152.075 46.2704 150.998 46.2704C150.998 46.2704 150.963 45.525 150.217 45.525C149.46 45.5131 149.069 46.1166 149.069 46.7082Z" fill="#01794C"/>
<path d="M153.921 39.4192C155.163 39.4192 156.122 40.6261 156.962 42.7797C158.098 45.7024 159.116 45.5485 159.352 45.513C159.672 45.4539 159.92 45.0397 159.79 44.9687C159.636 44.8977 159.743 45.3001 159.234 45.4065C159.009 45.4539 158.204 45.2172 158.488 44.4599C158.595 44.1759 159.08 43.9038 159.672 43.9038C160.263 43.9038 160.997 44.2233 160.997 45.1226C160.997 46.0218 160.453 46.6371 159.21 46.6371C157.968 46.6371 157.151 45.513 156.299 43.4423C155.01 40.3303 154.075 40.4841 153.779 40.5551C153.46 40.6261 153.211 41.0285 153.341 41.0994C153.495 41.1704 153.389 40.7681 153.897 40.6616C154.122 40.6143 154.927 40.851 154.643 41.6083C154.536 41.8922 154.051 42.1644 153.46 42.1644C152.868 42.1644 152.134 41.8449 152.134 40.9456C152.134 40.0345 152.679 39.4192 153.921 39.4192Z" fill="#01794C"/>
<path d="M168.132 10.9971C172.498 11.9792 174.841 16.3692 172.924 21.5401C172.463 15.9787 170.25 14.6653 167.623 13.979C170.913 16.6177 171.043 19.7888 169.221 22.9481C169.126 18.7949 167.659 16.523 165.221 15.6C165.221 15.6 165.576 16.1798 165.387 16.7951C165.115 17.6589 164.405 17.5998 164.345 18.8185H165.316L164.345 21.4336H165.316L164.345 24.0486H165.316L164.345 26.6636H165.316L164.345 29.2786H165.28C165.28 29.2786 164.227 31.1245 164.227 31.6215C164.227 32.1185 164.594 32.083 164.594 32.083L165.907 30.9471L165.363 32.509L166.523 31.9055L166.239 32.7101L167.943 32.3906C166.239 33.1361 164.677 34.0117 163.233 34.9702C161.813 34.0235 160.275 33.1716 158.595 32.4261L160.098 32.7101L159.814 31.9055L160.973 32.509L160.429 30.9471L161.742 32.083C161.742 32.083 162.109 32.1185 162.109 31.6215C162.109 31.1364 161.056 29.2786 161.056 29.2786H161.979L161.009 26.6636H161.979L161.009 24.0486H161.979L161.009 21.4336H161.979L161.009 18.8185H161.979C161.92 17.5998 161.21 17.6589 160.938 16.7951C160.748 16.1798 161.103 15.6 161.103 15.6C158.666 16.523 157.21 18.783 157.104 22.9481C155.282 19.7888 155.412 16.6177 158.701 13.979C156.074 14.6653 153.862 15.9787 153.4 21.5401C151.483 16.3692 153.826 11.9792 158.193 10.9971C154.323 11.2811 151.673 13.5175 150.596 18.3452C149.756 14.192 151.01 9.17489 157.802 8.10995C155.033 7.58931 152.56 8.02712 150.608 10.1452C152.146 7.31716 154.24 5.17544 158.512 5.79074C158.086 4.96246 156.631 4.34715 154.075 3.99217C156.287 3.29404 158.453 3.06922 160.405 4.64297C160.157 3.54253 159.317 2.60775 158.062 1.77946C159.719 1.92145 161.399 2.52492 162.322 4.26433C162.346 3.54253 162.393 2.89173 162.523 2.31193C162.642 1.73213 162.843 1.22332 163.162 0.773682C163.801 1.67297 163.955 2.8089 164.002 4.26433C164.925 2.52492 166.606 1.92145 168.262 1.77946C167.008 2.60775 166.156 3.55436 165.919 4.64297C167.872 3.05739 170.037 3.29404 172.25 3.99217C169.682 4.35899 168.227 4.96246 167.812 5.79074C172.084 5.17544 174.178 7.31716 175.717 10.1452C173.764 8.02712 171.291 7.58931 168.522 8.10995C175.326 9.17489 176.581 14.192 175.729 18.3452C174.652 13.5175 172.001 11.2811 168.132 10.9971Z" fill="#01794C"/>
<defs>
<clipPath id="clip0_7403_87922">
<rect width="135" height="21" fill="white" transform="translate(1.38843)"/>
</clipPath>
</defs>
</svg>
