<svg width="172" height="32" viewBox="0 0 172 32" fill="none" xmlns="http://www.w3.org/2000/svg">
<path d="M129.515 17.1671H127.45V5.53128H129.515V17.1671ZM127.479 3.7174C127.447 3.64664 127.424 3.57267 127.411 3.49549C127.405 3.4183 127.402 3.34111 127.402 3.26393C127.402 3.10312 127.427 2.94875 127.479 2.80081C127.53 2.64644 127.604 2.51136 127.701 2.39558C127.804 2.27337 127.929 2.17689 128.077 2.10613C128.232 2.03538 128.405 2 128.598 2H129.669V2.80081L128.598 2.79116C128.424 2.79116 128.299 2.84262 128.222 2.94553C128.145 3.04202 128.106 3.14815 128.106 3.26393C128.106 3.37327 128.141 3.47297 128.212 3.56302C128.283 3.65307 128.396 3.70453 128.55 3.7174H129.756V4.5182H127.112V3.7174H127.479Z" fill="#37A0A0"/>
<path d="M115.833 15.1117H117.464V12.7576C117.464 12.4617 117.509 12.1594 117.599 11.8506C117.689 11.5419 117.818 11.2428 117.985 10.9533C118.152 10.6639 118.352 10.3937 118.583 10.1429C118.821 9.89201 119.082 9.67653 119.365 9.49643C119.654 9.31633 119.963 9.17804 120.291 9.08156C120.619 8.97864 120.963 8.93362 121.323 8.94648L124.247 8.98507C124.388 8.98507 124.52 9.01402 124.642 9.07191C124.771 9.12337 124.88 9.19734 124.97 9.29382C125.067 9.38387 125.141 9.49 125.192 9.61221C125.25 9.73442 125.279 9.86628 125.279 10.0078V16.0573C125.279 16.2116 125.253 16.3596 125.202 16.5011C125.157 16.6362 125.089 16.7552 124.999 16.8581C124.909 16.9546 124.8 17.035 124.671 17.0993C124.549 17.1572 124.408 17.1861 124.247 17.1861H115.833V15.1117ZM119.538 15.1117H123.205V11.0402C122.722 11.0337 122.353 11.0305 122.095 11.0305C121.844 11.0241 121.658 11.0209 121.536 11.0209C121.42 11.0144 121.349 11.0112 121.323 11.0112C121.304 11.0112 121.288 11.0112 121.275 11.0112C121.056 11.0112 120.841 11.0627 120.629 11.1656C120.423 11.2621 120.236 11.3907 120.069 11.5515C119.908 11.7123 119.78 11.8989 119.683 12.1111C119.587 12.317 119.538 12.5292 119.538 12.7479V15.1117Z" fill="#37A0A0"/>
<path d="M116.104 17.1864H113.171C113.029 17.1864 112.894 17.1607 112.765 17.1092C112.643 17.0513 112.534 16.9773 112.437 16.8873C112.341 16.7908 112.264 16.6815 112.206 16.5592C112.154 16.4306 112.129 16.2955 112.129 16.154C112.129 16.1154 112.132 16.0833 112.138 16.0575V5.53125H114.203V15.112H116.104V17.1864Z" fill="#37A0A0"/>
<path d="M105.481 15.1117H108.192V9.26487H110.257V16.0573C110.263 16.083 110.266 16.1152 110.266 16.1537C110.266 16.2953 110.237 16.4303 110.18 16.559C110.128 16.6812 110.054 16.7905 109.958 16.887C109.868 16.9771 109.758 17.051 109.63 17.1089C109.501 17.1604 109.366 17.1861 109.224 17.1861H105.481V15.1117ZM108.105 6.70807C108.105 6.5537 108.134 6.40897 108.192 6.2739C108.25 6.13239 108.327 6.01339 108.424 5.91691C108.526 5.81399 108.645 5.73359 108.781 5.6757C108.916 5.61781 109.06 5.58887 109.215 5.58887C109.369 5.58887 109.514 5.61781 109.649 5.6757C109.79 5.73359 109.909 5.81399 110.006 5.91691C110.109 6.01339 110.189 6.13239 110.247 6.2739C110.305 6.40897 110.334 6.5537 110.334 6.70807C110.334 6.86244 110.305 7.00717 110.247 7.14224C110.189 7.27732 110.109 7.39631 110.006 7.49923C109.909 7.59571 109.79 7.6729 109.649 7.73079C109.514 7.78868 109.369 7.81762 109.215 7.81762C109.06 7.81762 108.916 7.78868 108.781 7.73079C108.645 7.6729 108.526 7.59571 108.424 7.49923C108.327 7.39631 108.25 7.27732 108.192 7.14224C108.134 7.00717 108.105 6.86244 108.105 6.70807Z" fill="#37A0A0"/>
<path d="M105.712 17.1865H103.03C102.869 17.1865 102.725 17.1575 102.596 17.0996C102.467 17.0353 102.358 16.9549 102.268 16.8584C102.178 16.7555 102.107 16.6365 102.056 16.5014C102.011 16.3664 101.988 16.2216 101.988 16.0673L101.969 11.0212L100.145 11.0116C99.9009 11.0116 99.6661 11.0598 99.441 11.1563C99.2223 11.2528 99.0294 11.3846 98.8621 11.5519C98.7013 11.7191 98.5727 11.9153 98.4762 12.1404C98.3797 12.3591 98.3315 12.5907 98.3315 12.8351L98.3411 15.0638C98.637 15.1217 98.9361 15.1635 99.2384 15.1893C99.5407 15.215 99.8462 15.2279 100.155 15.2279C100.419 15.2279 100.686 15.2182 100.956 15.1989L101.12 17.2637C100.953 17.2765 100.789 17.2862 100.628 17.2926C100.473 17.299 100.313 17.3022 100.145 17.3022C99.6243 17.3022 99.1001 17.2701 98.5727 17.2058C98.0452 17.1414 97.5499 17.0417 97.0868 16.9067C96.8488 16.8552 96.6527 16.7362 96.4983 16.5497C96.3439 16.3631 96.2667 16.1445 96.2667 15.8936V12.8351C96.2667 12.3012 96.3664 11.7995 96.5658 11.33C96.7717 10.854 97.0482 10.4423 97.3956 10.095C97.7493 9.7412 98.161 9.4614 98.6306 9.25557C99.1001 9.04974 99.605 8.94683 100.145 8.94683H102.712C102.885 8.94683 103.049 8.9822 103.204 9.05296C103.365 9.11728 103.503 9.20733 103.619 9.32311C103.741 9.43889 103.837 9.57396 103.908 9.72834C103.985 9.87628 104.024 10.0371 104.024 10.2108L104.053 15.1121H105.712V17.1865ZM100.888 6.73737C100.888 6.58299 100.917 6.43827 100.975 6.30319C101.033 6.16168 101.11 6.04269 101.207 5.94621C101.31 5.84329 101.429 5.76289 101.564 5.705C101.699 5.64711 101.843 5.61816 101.998 5.61816C102.152 5.61816 102.297 5.64711 102.432 5.705C102.573 5.76289 102.692 5.84329 102.789 5.94621C102.892 6.04269 102.972 6.16168 103.03 6.30319C103.088 6.43827 103.117 6.58299 103.117 6.73737C103.117 6.89174 103.088 7.03646 103.03 7.17154C102.972 7.30662 102.892 7.42561 102.789 7.52853C102.692 7.62501 102.573 7.7022 102.432 7.76009C102.297 7.81797 102.152 7.84692 101.998 7.84692C101.843 7.84692 101.699 7.81797 101.564 7.76009C101.429 7.7022 101.31 7.62501 101.207 7.52853C101.11 7.42561 101.033 7.30662 100.975 7.17154C100.917 7.03646 100.888 6.89174 100.888 6.73737ZM98.3025 6.73737C98.3025 6.58299 98.3315 6.43827 98.3893 6.30319C98.4472 6.16168 98.5244 6.04269 98.6209 5.94621C98.7238 5.84329 98.8428 5.76289 98.9779 5.705C99.113 5.64711 99.2577 5.61816 99.4121 5.61816C99.5664 5.61816 99.7112 5.64711 99.8462 5.705C99.9877 5.76289 100.107 5.84329 100.203 5.94621C100.306 6.04269 100.387 6.16168 100.444 6.30319C100.502 6.43827 100.531 6.58299 100.531 6.73737C100.531 6.89174 100.502 7.03646 100.444 7.17154C100.387 7.30662 100.306 7.42561 100.203 7.52853C100.107 7.62501 99.9877 7.7022 99.8462 7.76009C99.7112 7.81797 99.5664 7.84692 99.4121 7.84692C99.2577 7.84692 99.113 7.81797 98.9779 7.76009C98.8428 7.7022 98.7238 7.62501 98.6209 7.52853C98.5244 7.42561 98.4472 7.30662 98.3893 7.17154C98.3315 7.03646 98.3025 6.89174 98.3025 6.73737Z" fill="#37A0A0"/>
<path d="M90.0725 17.1671H88.0078V5.53125H90.0725V17.1671Z" fill="#37A0A0"/>
<path d="M81.8522 15.112H83.7046V5.53125H85.7694V16.0575C85.7758 16.0833 85.779 16.1154 85.779 16.154C85.779 16.2955 85.7501 16.4306 85.6922 16.5592C85.6407 16.6815 85.5668 16.7908 85.4703 16.8873C85.3738 16.9773 85.2612 17.0513 85.1326 17.1092C85.0104 17.1607 84.8785 17.1864 84.737 17.1864H81.8522V15.112Z" fill="#37A0A0"/>
<path d="M76.2852 17.1864V15.112H78.1955V5.53125H80.2603V15.112H82.0259V17.1864H76.2852Z" fill="#37A0A0"/>
<path d="M67.1096 8.98535C67.4505 9.01751 67.8204 9.04003 68.2191 9.05289C68.6179 9.05932 69.0264 9.07862 69.4445 9.11078C69.869 9.14294 70.2935 9.20083 70.7181 9.28445C71.1426 9.36163 71.551 9.48385 71.9434 9.65108C72.3422 9.81832 72.7153 10.0434 73.0626 10.3265C73.4099 10.603 73.7155 10.96 73.9792 11.3974C74.2493 11.8284 74.4648 12.3494 74.6256 12.9604C74.7929 13.5651 74.8893 14.2823 74.9151 15.112H76.4684V17.1864H65.4211V15.112H72.8407C72.8021 14.3466 72.6702 13.7194 72.4451 13.2306C72.22 12.7353 71.937 12.3397 71.5961 12.0439C71.2551 11.748 70.8756 11.5357 70.4576 11.4071C70.0395 11.272 69.6182 11.1819 69.1936 11.1369C68.7755 11.0919 68.3671 11.0726 67.9683 11.079C67.5759 11.079 67.2318 11.0694 66.9359 11.0501L67.1096 8.98535ZM68.7498 19.8204C68.7498 19.666 68.7787 19.5181 68.8366 19.3766C68.8945 19.2415 68.9717 19.1225 69.0682 19.0196C69.1711 18.9231 69.2901 18.8459 69.4252 18.788C69.5603 18.7301 69.705 18.7012 69.8594 18.7012C70.0137 18.7012 70.1585 18.7301 70.2935 18.788C70.435 18.8459 70.554 18.9231 70.6505 19.0196C70.7534 19.1225 70.8338 19.2415 70.8917 19.3766C70.9496 19.5181 70.9786 19.666 70.9786 19.8204C70.9786 19.9748 70.9496 20.1195 70.8917 20.2546C70.8338 20.3896 70.7534 20.5054 70.6505 20.6019C70.554 20.7048 70.435 20.7852 70.2935 20.8431C70.1585 20.901 70.0137 20.9299 69.8594 20.9299C69.705 20.9299 69.5603 20.901 69.4252 20.8431C69.2901 20.7852 69.1711 20.7048 69.0682 20.6019C68.9717 20.5054 68.8945 20.3896 68.8366 20.2546C68.7787 20.1195 68.7498 19.9748 68.7498 19.8204Z" fill="#37A0A0"/>
<path d="M61.8127 15.1117V9.26487H63.8775V15.0731H65.6431V17.1572L59.8638 17.1861V15.1117H61.8127ZM61.7259 6.70807C61.7259 6.5537 61.7548 6.40897 61.8127 6.2739C61.8706 6.13239 61.9478 6.01339 62.0443 5.91691C62.1472 5.81399 62.2662 5.73359 62.4013 5.6757C62.5363 5.61781 62.6811 5.58887 62.8354 5.58887C62.9898 5.58887 63.1345 5.61781 63.2696 5.6757C63.4111 5.73359 63.5301 5.81399 63.6266 5.91691C63.7295 6.01339 63.8099 6.13239 63.8678 6.2739C63.9257 6.40897 63.9546 6.5537 63.9546 6.70807C63.9546 6.86244 63.9257 7.00717 63.8678 7.14224C63.8099 7.27732 63.7295 7.39631 63.6266 7.49923C63.5301 7.59571 63.4111 7.6729 63.2696 7.73079C63.1345 7.78868 62.9898 7.81762 62.8354 7.81762C62.6811 7.81762 62.5363 7.78868 62.4013 7.73079C62.2662 7.6729 62.1472 7.59571 62.0443 7.49923C61.9478 7.39631 61.8706 7.27732 61.8127 7.14224C61.7548 7.00717 61.7259 6.86244 61.7259 6.70807Z" fill="#37A0A0"/>
<path d="M60.0953 17.1865H57.4131C57.2523 17.1865 57.1076 17.1575 56.9789 17.0996C56.8503 17.0353 56.7409 16.9549 56.6509 16.8584C56.5608 16.7555 56.4901 16.6365 56.4386 16.5014C56.3936 16.3664 56.3711 16.2216 56.3711 16.0673L56.3518 11.0212L54.5283 11.0116C54.2838 11.0116 54.0491 11.0598 53.8239 11.1563C53.6053 11.2528 53.4123 11.3846 53.245 11.5519C53.0842 11.7191 52.9556 11.9153 52.8591 12.1404C52.7626 12.3591 52.7144 12.5907 52.7144 12.8351L52.724 15.0638C53.0199 15.1217 53.319 15.1635 53.6213 15.1893C53.9236 15.215 54.2292 15.2279 54.5379 15.2279C54.8016 15.2279 55.0686 15.2182 55.3387 15.1989L55.5027 17.2637C55.3355 17.2765 55.1715 17.2862 55.0107 17.2926C54.8563 17.299 54.6955 17.3022 54.5283 17.3022C54.0073 17.3022 53.483 17.2701 52.9556 17.2058C52.4282 17.1414 51.9329 17.0417 51.4698 16.9067C51.2318 16.8552 51.0356 16.7362 50.8812 16.5497C50.7268 16.3631 50.6497 16.1445 50.6497 15.8936V12.8351C50.6497 12.3012 50.7494 11.7995 50.9488 11.33C51.1546 10.854 51.4312 10.4423 51.7785 10.095C52.1323 9.7412 52.5439 9.4614 53.0135 9.25557C53.483 9.04974 53.988 8.94683 54.5283 8.94683H57.0947C57.2684 8.94683 57.4324 8.9822 57.5868 9.05296C57.7476 9.11728 57.8859 9.20733 58.0017 9.32311C58.1239 9.43889 58.2204 9.57396 58.2911 9.72834C58.3683 9.87628 58.4069 10.0371 58.4069 10.2108L58.4358 15.1121H60.0953V17.1865ZM55.2712 6.73737C55.2712 6.58299 55.3001 6.43827 55.358 6.30319C55.4159 6.16168 55.4931 6.04269 55.5896 5.94621C55.6925 5.84329 55.8115 5.76289 55.9466 5.705C56.0816 5.64711 56.2264 5.61816 56.3807 5.61816C56.5351 5.61816 56.6798 5.64711 56.8149 5.705C56.9564 5.76289 57.0754 5.84329 57.1719 5.94621C57.2748 6.04269 57.3552 6.16168 57.4131 6.30319C57.471 6.43827 57.4999 6.58299 57.4999 6.73737C57.4999 6.89174 57.471 7.03646 57.4131 7.17154C57.3552 7.30662 57.2748 7.42561 57.1719 7.52853C57.0754 7.62501 56.9564 7.7022 56.8149 7.76009C56.6798 7.81797 56.5351 7.84692 56.3807 7.84692C56.2264 7.84692 56.0816 7.81797 55.9466 7.76009C55.8115 7.7022 55.6925 7.62501 55.5896 7.52853C55.4931 7.42561 55.4159 7.30662 55.358 7.17154C55.3001 7.03646 55.2712 6.89174 55.2712 6.73737ZM52.6854 6.73737C52.6854 6.58299 52.7144 6.43827 52.7723 6.30319C52.8302 6.16168 52.9074 6.04269 53.0038 5.94621C53.1068 5.84329 53.2258 5.76289 53.3608 5.705C53.4959 5.64711 53.6406 5.61816 53.795 5.61816C53.9494 5.61816 54.0941 5.64711 54.2292 5.705C54.3707 5.76289 54.4897 5.84329 54.5862 5.94621C54.6891 6.04269 54.7695 6.16168 54.8274 6.30319C54.8853 6.43827 54.9142 6.58299 54.9142 6.73737C54.9142 6.89174 54.8853 7.03646 54.8274 7.17154C54.7695 7.30662 54.6891 7.42561 54.5862 7.52853C54.4897 7.62501 54.3707 7.7022 54.2292 7.76009C54.0941 7.81797 53.9494 7.84692 53.795 7.84692C53.6406 7.84692 53.4959 7.81797 53.3608 7.76009C53.2258 7.7022 53.1068 7.62501 53.0038 7.52853C52.9074 7.42561 52.8302 7.30662 52.7723 7.17154C52.7144 7.03646 52.6854 6.89174 52.6854 6.73737Z" fill="#37A0A0"/>
<path d="M44.4554 17.1671H42.3906V5.53125H44.4554V17.1671Z" fill="#37A0A0"/>
<path d="M36.2351 15.112H38.0876V5.53125H40.1523V16.0575C40.1587 16.0833 40.162 16.1154 40.162 16.154C40.162 16.2955 40.133 16.4306 40.0751 16.5592C40.0237 16.6815 39.9497 16.7908 39.8532 16.8873C39.7567 16.9773 39.6442 17.0513 39.5155 17.1092C39.3933 17.1607 39.2615 17.1864 39.1199 17.1864H36.2351V15.112Z" fill="#37A0A0"/>
<path d="M25.5641 17.1861V15.1117H27.1561V12.7576C27.1561 12.4617 27.2011 12.1594 27.2911 11.8506C27.3812 11.5419 27.5098 11.2428 27.6771 10.9533C27.8443 10.6639 28.0437 10.3937 28.2753 10.1429C28.5132 9.89201 28.7738 9.67653 29.0568 9.49643C29.3462 9.31633 29.655 9.17804 29.983 9.08156C30.311 8.97864 30.6552 8.93362 31.0154 8.94648L33.9388 8.98507C34.0803 8.98507 34.2122 9.01402 34.3344 9.07191C34.463 9.12337 34.5724 9.19734 34.6624 9.29382C34.7589 9.38387 34.8329 9.49 34.8843 9.61221C34.9422 9.73442 34.9712 9.86628 34.9712 10.0078V15.1117H36.4281V17.1861H25.5641ZM29.2304 15.1117H32.8968V11.0402C32.4144 11.0337 32.0445 11.0305 31.7872 11.0305C31.5364 11.0241 31.3498 11.0209 31.2276 11.0209C31.1119 11.0144 31.0411 11.0112 31.0154 11.0112C30.9961 11.0112 30.98 11.0112 30.9671 11.0112C30.7484 11.0112 30.533 11.0627 30.3207 11.1656C30.1149 11.2621 29.9283 11.3907 29.7611 11.5515C29.6003 11.7123 29.4716 11.8989 29.3752 12.1111C29.2787 12.317 29.2304 12.5292 29.2304 12.7479V15.1117Z" fill="#37A0A0"/>
<path d="M25.7957 17.1864H22.8626C22.7211 17.1864 22.586 17.1607 22.4573 17.1092C22.3351 17.0513 22.2258 16.9773 22.1293 16.8873C22.0328 16.7908 21.9556 16.6815 21.8977 16.5592C21.8463 16.4306 21.8206 16.2955 21.8206 16.154C21.8206 16.1154 21.8238 16.0833 21.8302 16.0575V5.53125H23.8949V15.112H25.7957V17.1864Z" fill="#37A0A0"/>
<path d="M16.0895 15.112H17.9419V5.53125H20.0067V16.0575C20.0131 16.0833 20.0163 16.1154 20.0163 16.154C20.0163 16.2955 19.9874 16.4306 19.9295 16.5592C19.878 16.6815 19.8041 16.7908 19.7076 16.8873C19.6111 16.9773 19.4985 17.0513 19.3699 17.1092C19.2477 17.1607 19.1158 17.1864 18.9743 17.1864H16.0895V15.112Z" fill="#37A0A0"/>
<path d="M12.4327 15.1125V9.26562H14.4975V15.1125H16.2631V17.1869H10.4838V15.1125H12.4327ZM13.5423 19.8209C13.5423 19.6665 13.5712 19.5185 13.6291 19.377C13.687 19.242 13.7642 19.123 13.8607 19.02C13.9636 18.9236 14.0826 18.8464 14.2177 18.7885C14.3527 18.7306 14.4975 18.7017 14.6518 18.7017C14.8062 18.7017 14.9509 18.7306 15.086 18.7885C15.2275 18.8464 15.3465 18.9236 15.443 19.02C15.5459 19.123 15.6263 19.242 15.6842 19.377C15.7421 19.5185 15.771 19.6665 15.771 19.8209C15.771 19.9752 15.7421 20.12 15.6842 20.255C15.6263 20.3901 15.5459 20.5059 15.443 20.6024C15.3465 20.7053 15.2275 20.7857 15.086 20.8436C14.9509 20.9015 14.8062 20.9304 14.6518 20.9304C14.4975 20.9304 14.3527 20.9015 14.2177 20.8436C14.0826 20.7857 13.9636 20.7053 13.8607 20.6024C13.7642 20.5059 13.687 20.3901 13.6291 20.255C13.5712 20.12 13.5423 19.9752 13.5423 19.8209ZM10.9565 19.8209C10.9565 19.6665 10.9855 19.5185 11.0434 19.377C11.1013 19.242 11.1784 19.123 11.2749 19.02C11.3778 18.9236 11.4968 18.8464 11.6319 18.7885C11.767 18.7306 11.9117 18.7017 12.0661 18.7017C12.2205 18.7017 12.3652 18.7306 12.5003 18.7885C12.6418 18.8464 12.7608 18.9236 12.8572 19.02C12.9602 19.123 13.0406 19.242 13.0985 19.377C13.1563 19.5185 13.1853 19.6665 13.1853 19.8209C13.1853 19.9752 13.1563 20.12 13.0985 20.255C13.0406 20.3901 12.9602 20.5059 12.8572 20.6024C12.7608 20.7053 12.6418 20.7857 12.5003 20.8436C12.3652 20.9015 12.2205 20.9304 12.0661 20.9304C11.9117 20.9304 11.767 20.9015 11.6319 20.8436C11.4968 20.7857 11.3778 20.7053 11.2749 20.6024C11.1784 20.5059 11.1013 20.3901 11.0434 20.255C10.9855 20.12 10.9565 19.9752 10.9565 19.8209Z" fill="#37A0A0"/>
<path d="M10.7153 17.1865H8.03311C7.8723 17.1865 7.72758 17.1575 7.59893 17.0996C7.47029 17.0353 7.36094 16.9549 7.27089 16.8584C7.18084 16.7555 7.11009 16.6365 7.05863 16.5014C7.0136 16.3664 6.99109 16.2216 6.99109 16.0673L6.9718 11.0212L5.14827 11.0116C4.90384 11.0116 4.66907 11.0598 4.44394 11.1563C4.22525 11.2528 4.03228 11.3846 3.86504 11.5519C3.70424 11.7191 3.5756 11.9153 3.47911 12.1404C3.38263 12.3591 3.33439 12.5907 3.33439 12.8351L3.34404 15.0638C3.63992 15.1217 3.93901 15.1635 4.24133 15.1893C4.54364 15.215 4.84917 15.2279 5.15792 15.2279C5.42164 15.2279 5.68857 15.2182 5.95872 15.1989L6.12275 17.2637C5.95551 17.2765 5.79149 17.2862 5.63068 17.2926C5.47631 17.299 5.3155 17.3022 5.14827 17.3022C4.62726 17.3022 4.10304 17.2701 3.5756 17.2058C3.04816 17.1414 2.55288 17.0417 2.08976 16.9067C1.85177 16.8552 1.65559 16.7362 1.50121 16.5497C1.34684 16.3631 1.26965 16.1445 1.26965 15.8936V12.8351C1.26965 12.3012 1.36935 11.7995 1.56875 11.33C1.77458 10.854 2.05117 10.4423 2.3985 10.095C2.75227 9.7412 3.16394 9.4614 3.63349 9.25557C4.10304 9.04974 4.60796 8.94683 5.14827 8.94683H7.71471C7.88838 8.94683 8.0524 8.9822 8.20678 9.05296C8.36758 9.11728 8.50587 9.20733 8.62165 9.32311C8.74387 9.43889 8.84035 9.57396 8.9111 9.72834C8.98829 9.87628 9.02688 10.0371 9.02688 10.2108L9.05583 15.1121H10.7153V17.1865ZM5.89119 6.73737C5.89119 6.58299 5.92013 6.43827 5.97802 6.30319C6.03591 6.16168 6.1131 6.04269 6.20958 5.94621C6.3125 5.84329 6.43149 5.76289 6.56657 5.705C6.70164 5.64711 6.84637 5.61816 7.00074 5.61816C7.15511 5.61816 7.29984 5.64711 7.43491 5.705C7.57642 5.76289 7.69542 5.84329 7.7919 5.94621C7.89482 6.04269 7.97522 6.16168 8.03311 6.30319C8.091 6.43827 8.11994 6.58299 8.11994 6.73737C8.11994 6.89174 8.091 7.03646 8.03311 7.17154C7.97522 7.30662 7.89482 7.42561 7.7919 7.52853C7.69542 7.62501 7.57642 7.7022 7.43491 7.76009C7.29984 7.81797 7.15511 7.84692 7.00074 7.84692C6.84637 7.84692 6.70164 7.81797 6.56657 7.76009C6.43149 7.7022 6.3125 7.62501 6.20958 7.52853C6.1131 7.42561 6.03591 7.30662 5.97802 7.17154C5.92013 7.03646 5.89119 6.89174 5.89119 6.73737ZM3.30544 6.73737C3.30544 6.58299 3.33439 6.43827 3.39228 6.30319C3.45017 6.16168 3.52735 6.04269 3.62384 5.94621C3.72675 5.84329 3.84575 5.76289 3.98082 5.705C4.1159 5.64711 4.26062 5.61816 4.415 5.61816C4.56937 5.61816 4.71409 5.64711 4.84917 5.705C4.99068 5.76289 5.10967 5.84329 5.20616 5.94621C5.30907 6.04269 5.38947 6.16168 5.44736 6.30319C5.50525 6.43827 5.5342 6.58299 5.5342 6.73737C5.5342 6.89174 5.50525 7.03646 5.44736 7.17154C5.38947 7.30662 5.30907 7.42561 5.20616 7.52853C5.10967 7.62501 4.99068 7.7022 4.84917 7.76009C4.71409 7.81797 4.56937 7.84692 4.415 7.84692C4.26062 7.84692 4.1159 7.81797 3.98082 7.76009C3.84575 7.7022 3.72675 7.62501 3.62384 7.52853C3.52735 7.42561 3.45017 7.30662 3.39228 7.17154C3.33439 7.03646 3.30544 6.89174 3.30544 6.73737Z" fill="#37A0A0"/>
<path d="M129.035 28.3684C128.654 28.3684 128.353 28.2992 128.131 28.1609C127.913 28.0176 127.755 27.8052 127.657 27.5236C127.558 27.2421 127.508 26.8889 127.508 26.464C127.508 25.9997 127.573 25.6242 127.701 25.3377C127.834 25.0512 128.02 24.8413 128.257 24.7079C128.494 24.5745 128.778 24.5078 129.109 24.5078C129.618 24.5078 130 24.6461 130.257 24.9228C130.519 25.1945 130.65 25.6341 130.65 26.2417L130.613 26.7085H128.212C128.217 27.0642 128.284 27.3335 128.412 27.5162C128.541 27.6941 128.773 27.783 129.109 27.783C129.252 27.783 129.408 27.7805 129.576 27.7756C129.749 27.7657 129.919 27.7558 130.087 27.7459C130.255 27.7361 130.398 27.7262 130.517 27.7163L130.532 28.235C130.408 28.2547 130.26 28.2745 130.087 28.2943C129.914 28.319 129.734 28.3363 129.546 28.3461C129.363 28.361 129.193 28.3684 129.035 28.3684ZM128.212 26.1973H129.961C129.961 25.7774 129.892 25.4834 129.754 25.3155C129.62 25.1475 129.405 25.0636 129.109 25.0636C128.916 25.0636 128.753 25.1006 128.62 25.1747C128.486 25.2488 128.385 25.3698 128.316 25.5378C128.247 25.7008 128.212 25.9206 128.212 26.1973Z" fill="#545961"/>
<path d="M125.257 28.3684C124.877 28.3684 124.576 28.2992 124.353 28.1609C124.136 28.0176 123.978 27.8052 123.879 27.5236C123.78 27.2421 123.731 26.8889 123.731 26.464C123.731 25.9997 123.795 25.6242 123.924 25.3377C124.057 25.0512 124.242 24.8413 124.479 24.7079C124.716 24.5745 125.001 24.5078 125.331 24.5078C125.84 24.5078 126.223 24.6461 126.48 24.9228C126.742 25.1945 126.873 25.6341 126.873 26.2417L126.836 26.7085H124.435C124.44 27.0642 124.507 27.3335 124.635 27.5162C124.763 27.6941 124.996 27.783 125.331 27.783C125.475 27.783 125.63 27.7805 125.798 27.7756C125.971 27.7657 126.142 27.7558 126.31 27.7459C126.478 27.7361 126.621 27.7262 126.739 27.7163L126.754 28.235C126.631 28.2547 126.482 28.2745 126.31 28.2943C126.137 28.319 125.956 28.3363 125.769 28.3461C125.586 28.361 125.415 28.3684 125.257 28.3684ZM124.435 26.1973H126.184C126.184 25.7774 126.114 25.4834 125.976 25.3155C125.843 25.1475 125.628 25.0636 125.331 25.0636C125.139 25.0636 124.976 25.1006 124.842 25.1747C124.709 25.2488 124.608 25.3698 124.539 25.5378C124.469 25.7008 124.435 25.9206 124.435 26.1973Z" fill="#545961"/>
<path d="M122.527 28.3763C122.265 28.3763 122.055 28.3368 121.897 28.2577C121.744 28.1787 121.632 28.0428 121.563 27.8502C121.499 27.6526 121.467 27.3759 121.467 27.0203V25.1678H120.963V24.5824H121.467V23.4932H122.149V24.5824H123.253V25.1678H122.149V26.8276C122.149 27.0697 122.159 27.2599 122.178 27.3982C122.203 27.5316 122.25 27.6254 122.319 27.6798C122.388 27.7341 122.497 27.7613 122.645 27.7613C122.695 27.7613 122.756 27.7613 122.83 27.7613C122.905 27.7563 122.981 27.7514 123.06 27.7464C123.139 27.7366 123.208 27.7292 123.268 27.7242L123.305 28.2874C123.231 28.3022 123.144 28.3145 123.045 28.3244C122.951 28.3392 122.858 28.3516 122.764 28.3615C122.67 28.3713 122.591 28.3763 122.527 28.3763Z" fill="#545961"/>
<path d="M119.914 28.3763C119.652 28.3763 119.443 28.3368 119.284 28.2577C119.131 28.1787 119.02 28.0428 118.951 27.8502C118.887 27.6526 118.855 27.3759 118.855 27.0203V25.1678H118.351V24.5824H118.855V23.4932H119.536V24.5824H120.64V25.1678H119.536V26.8276C119.536 27.0697 119.546 27.2599 119.566 27.3982C119.591 27.5316 119.638 27.6254 119.707 27.6798C119.776 27.7341 119.885 27.7613 120.033 27.7613C120.082 27.7613 120.144 27.7613 120.218 27.7613C120.292 27.7563 120.369 27.7514 120.448 27.7464C120.527 27.7366 120.596 27.7292 120.655 27.7242L120.692 28.2874C120.618 28.3022 120.532 28.3145 120.433 28.3244C120.339 28.3392 120.245 28.3516 120.151 28.3615C120.058 28.3713 119.979 28.3763 119.914 28.3763Z" fill="#545961"/>
<path d="M116.991 28.2947V24.5824H117.68V28.2947H116.991ZM116.991 23.834V23.1152H117.68V23.834H116.991Z" fill="#545961"/>
<path d="M110.775 28.2943V24.5819H111.464V24.8413C111.543 24.7919 111.639 24.7425 111.753 24.6931C111.871 24.6437 111.997 24.6017 112.131 24.5671C112.264 24.5276 112.393 24.5078 112.516 24.5078C112.758 24.5078 112.953 24.5375 113.101 24.5967C113.25 24.656 113.371 24.7523 113.465 24.8857C113.558 24.8314 113.675 24.7746 113.813 24.7153C113.956 24.656 114.109 24.6066 114.272 24.5671C114.435 24.5276 114.596 24.5078 114.754 24.5078C115.011 24.5078 115.221 24.5424 115.384 24.6116C115.552 24.6758 115.683 24.782 115.776 24.9302C115.87 25.0734 115.935 25.2612 115.969 25.4933C116.009 25.7206 116.028 26.0021 116.028 26.3381V28.2943H115.347V26.3825C115.347 26.0762 115.329 25.8317 115.295 25.6489C115.26 25.4662 115.191 25.3328 115.087 25.2488C114.989 25.1648 114.835 25.1228 114.628 25.1228C114.509 25.1228 114.388 25.1352 114.265 25.1599C114.146 25.1846 114.035 25.2167 113.931 25.2562C113.828 25.2957 113.744 25.3328 113.679 25.3674C113.714 25.4859 113.736 25.6391 113.746 25.8268C113.761 26.0095 113.768 26.1973 113.768 26.3899V28.2943H113.079V26.4047C113.079 26.0886 113.062 25.8391 113.027 25.6563C112.998 25.4686 112.931 25.3328 112.827 25.2488C112.724 25.1648 112.57 25.1228 112.368 25.1228C112.254 25.1228 112.138 25.1352 112.02 25.1599C111.906 25.1846 111.8 25.2167 111.701 25.2562C111.607 25.2957 111.528 25.3328 111.464 25.3674V28.2943H110.775Z" fill="#545961"/>
<path d="M104.559 28.2943V24.5819H105.248V24.8413C105.327 24.7919 105.423 24.7425 105.537 24.6931C105.655 24.6437 105.781 24.6017 105.915 24.5671C106.048 24.5276 106.177 24.5078 106.3 24.5078C106.542 24.5078 106.737 24.5375 106.886 24.5967C107.034 24.656 107.155 24.7523 107.249 24.8857C107.342 24.8314 107.459 24.7746 107.597 24.7153C107.74 24.656 107.893 24.6066 108.056 24.5671C108.219 24.5276 108.38 24.5078 108.538 24.5078C108.795 24.5078 109.005 24.5424 109.168 24.6116C109.336 24.6758 109.467 24.782 109.561 24.9302C109.654 25.0734 109.719 25.2612 109.753 25.4933C109.793 25.7206 109.812 26.0021 109.812 26.3381V28.2943H109.131V26.3825C109.131 26.0762 109.113 25.8317 109.079 25.6489C109.044 25.4662 108.975 25.3328 108.871 25.2488C108.773 25.1648 108.619 25.1228 108.412 25.1228C108.293 25.1228 108.172 25.1352 108.049 25.1599C107.93 25.1846 107.819 25.2167 107.715 25.2562C107.612 25.2957 107.528 25.3328 107.464 25.3674C107.498 25.4859 107.52 25.6391 107.53 25.8268C107.545 26.0095 107.552 26.1973 107.552 26.3899V28.2943H106.863V26.4047C106.863 26.0886 106.846 25.8391 106.811 25.6563C106.782 25.4686 106.715 25.3328 106.611 25.2488C106.508 25.1648 106.354 25.1228 106.152 25.1228C106.038 25.1228 105.922 25.1352 105.804 25.1599C105.69 25.1846 105.584 25.2167 105.485 25.2562C105.391 25.2957 105.312 25.3328 105.248 25.3674V28.2943H104.559Z" fill="#545961"/>
<path d="M102.082 28.3684C101.667 28.3684 101.341 28.2992 101.104 28.1609C100.867 28.0176 100.699 27.8003 100.6 27.5088C100.502 27.2174 100.452 26.8469 100.452 26.3973C100.452 25.9676 100.504 25.6144 100.608 25.3377C100.717 25.0611 100.889 24.8536 101.127 24.7153C101.369 24.577 101.687 24.5078 102.082 24.5078C102.483 24.5078 102.801 24.577 103.038 24.7153C103.275 24.8536 103.446 25.0611 103.55 25.3377C103.658 25.6144 103.713 25.9676 103.713 26.3973C103.713 26.8469 103.663 27.2174 103.564 27.5088C103.471 27.8003 103.305 28.0176 103.068 28.1609C102.831 28.2992 102.502 28.3684 102.082 28.3684ZM102.082 27.783C102.344 27.783 102.542 27.7361 102.675 27.6422C102.809 27.5483 102.898 27.4001 102.942 27.1976C102.986 26.9901 103.009 26.7234 103.009 26.3973C103.009 26.0762 102.982 25.8218 102.927 25.6341C102.873 25.4415 102.779 25.3031 102.646 25.2192C102.512 25.1352 102.325 25.0932 102.082 25.0932C101.845 25.0932 101.658 25.1352 101.519 25.2192C101.386 25.3031 101.292 25.4415 101.238 25.6341C101.183 25.8218 101.156 26.0762 101.156 26.3973C101.156 26.7234 101.178 26.9901 101.223 27.1976C101.267 27.4001 101.354 27.5483 101.482 27.6422C101.616 27.7361 101.816 27.783 102.082 27.783Z" fill="#545961"/>
<path d="M98.4649 28.3684C98.0796 28.3684 97.7609 28.3141 97.509 28.2054C97.262 28.0967 97.0694 27.9337 96.931 27.7164C96.7927 27.4941 96.6964 27.2199 96.6421 26.8939C96.5877 26.5629 96.5605 26.1825 96.5605 25.7528C96.5605 25.3131 96.5877 24.9278 96.6421 24.5968C96.6964 24.2658 96.7927 23.9917 96.931 23.7743C97.0743 23.552 97.2694 23.3865 97.5164 23.2778C97.7634 23.1642 98.082 23.1074 98.4723 23.1074C98.6452 23.1074 98.8206 23.1173 98.9984 23.1371C99.1762 23.1519 99.3417 23.1741 99.4949 23.2038C99.6529 23.2284 99.7888 23.2531 99.9024 23.2778L99.8728 23.8632C99.769 23.8435 99.6381 23.8262 99.48 23.8114C99.3269 23.7916 99.1688 23.7743 99.0058 23.7595C98.8477 23.7447 98.702 23.7373 98.5686 23.7373C98.3019 23.7373 98.0845 23.7768 97.9166 23.8558C97.7486 23.9349 97.6177 24.0559 97.5238 24.2189C97.4349 24.3819 97.3732 24.5894 97.3386 24.8413C97.3089 25.0933 97.2941 25.3971 97.2941 25.7528C97.2941 26.0985 97.3089 26.3974 97.3386 26.6493C97.3732 26.9013 97.4349 27.1088 97.5238 27.2718C97.6127 27.4299 97.7412 27.5484 97.9091 27.6275C98.082 27.7016 98.3043 27.7386 98.576 27.7386C98.7835 27.7386 99.0083 27.7263 99.2503 27.7016C99.4973 27.6769 99.7073 27.6497 99.8802 27.62L99.9024 28.2128C99.7838 28.2375 99.6431 28.2622 99.48 28.2869C99.322 28.3116 99.154 28.3314 98.9762 28.3462C98.8033 28.361 98.6328 28.3684 98.4649 28.3684Z" fill="#545961"/>
<path d="M93.3148 28.2946V23.0039H93.9965V28.2946H93.3148Z" fill="#545961"/>
<path d="M90.3596 28.3684C90.0089 28.3684 89.7421 28.272 89.5593 28.0794C89.3765 27.8867 89.2852 27.6027 89.2852 27.2272C89.2852 26.9753 89.3296 26.7728 89.4185 26.6196C89.5075 26.4616 89.6384 26.343 89.8113 26.264C89.9891 26.1849 90.2089 26.138 90.4707 26.1232L91.5452 26.0194V25.7304C91.5452 25.4983 91.4933 25.3353 91.3896 25.2414C91.2858 25.1426 91.1302 25.0932 90.9227 25.0932C90.7943 25.0932 90.6436 25.0981 90.4707 25.108C90.2978 25.1179 90.1274 25.1302 89.9595 25.1451C89.7915 25.1599 89.6408 25.1747 89.5075 25.1895L89.4778 24.6857C89.6013 24.656 89.747 24.6288 89.915 24.6041C90.0879 24.5794 90.2682 24.5572 90.4559 24.5375C90.6436 24.5177 90.8165 24.5078 90.9746 24.5078C91.2661 24.5078 91.5057 24.5498 91.6934 24.6338C91.8811 24.7178 92.0194 24.8487 92.1083 25.0265C92.1972 25.2043 92.2417 25.434 92.2417 25.7156V27.5385C92.2516 27.6373 92.2911 27.7114 92.3603 27.7608C92.4344 27.8052 92.5258 27.8349 92.6344 27.8497L92.6122 28.361C92.543 28.361 92.4739 28.3585 92.4047 28.3535C92.3356 28.3535 92.2713 28.3486 92.2121 28.3387C92.1528 28.3288 92.096 28.3165 92.0416 28.3017C91.9626 28.2819 91.891 28.2547 91.8268 28.2202C91.7675 28.1806 91.7107 28.1362 91.6563 28.0868C91.5674 28.1263 91.4513 28.1683 91.3081 28.2128C91.1648 28.2572 91.0117 28.2943 90.8486 28.3239C90.6856 28.3535 90.5226 28.3684 90.3596 28.3684ZM90.5004 27.82C90.6239 27.82 90.7498 27.8077 90.8783 27.783C91.0117 27.7583 91.1376 27.7311 91.2562 27.7015C91.3747 27.6669 91.4711 27.6373 91.5452 27.6126V26.5011L90.5597 26.5974C90.3522 26.6122 90.204 26.6715 90.1151 26.7752C90.0261 26.874 89.9817 27.0173 89.9817 27.205C89.9817 27.3977 90.0237 27.5483 90.1077 27.657C90.1966 27.7657 90.3275 27.82 90.5004 27.82Z" fill="#545961"/>
<path d="M87.8287 28.2947V24.5824H88.5178V28.2947H87.8287ZM87.8287 23.834V23.1152H88.5178V23.834H87.8287Z" fill="#545961"/>
<path d="M85.9877 28.3684C85.5875 28.3684 85.2739 28.3041 85.0466 28.1757C84.8194 28.0423 84.6588 27.8299 84.565 27.5385C84.4711 27.247 84.4242 26.8642 84.4242 26.3899C84.4242 25.9305 84.4761 25.565 84.5798 25.2933C84.6835 25.0166 84.8515 24.8166 85.0837 24.6931C85.3158 24.5696 85.6197 24.5078 85.9951 24.5078C86.084 24.5078 86.1902 24.5152 86.3137 24.53C86.4422 24.5399 86.5706 24.5547 86.699 24.5745C86.8324 24.5943 86.946 24.6116 87.0399 24.6264L87.0177 25.1895C86.9337 25.1796 86.8349 25.1698 86.7213 25.1599C86.6076 25.15 86.499 25.1426 86.3952 25.1377C86.2915 25.1278 86.205 25.1228 86.1359 25.1228C85.8691 25.1228 85.6616 25.1648 85.5134 25.2488C85.3702 25.3328 85.2689 25.4662 85.2096 25.6489C85.1553 25.8317 85.1281 26.0787 85.1281 26.3899C85.1281 26.7258 85.1528 26.9951 85.2022 27.1976C85.2566 27.3952 85.3554 27.5385 85.4986 27.6274C85.6419 27.7114 85.8543 27.7533 86.1359 27.7533C86.205 27.7533 86.2915 27.7509 86.3952 27.7459C86.5039 27.7361 86.615 27.7262 86.7287 27.7163C86.8472 27.7064 86.9485 27.699 87.0325 27.6941L87.0547 28.2572C86.9559 28.272 86.8398 28.2869 86.7064 28.3017C86.578 28.3214 86.4496 28.3363 86.3211 28.3461C86.1927 28.361 86.0815 28.3684 85.9877 28.3684Z" fill="#545961"/>
<path d="M80.5563 28.2943V24.5819H81.2454V24.8413C81.3244 24.7919 81.4257 24.7425 81.5492 24.6931C81.6727 24.6437 81.8036 24.6017 81.9419 24.5671C82.0802 24.5276 82.2136 24.5078 82.3421 24.5078C82.5989 24.5078 82.8089 24.5424 82.9719 24.6116C83.1399 24.6758 83.2708 24.782 83.3646 24.9302C83.4585 25.0734 83.5252 25.2612 83.5647 25.4933C83.6042 25.7255 83.624 26.0071 83.624 26.3381V28.2943H82.9274V26.3751C82.9274 26.0688 82.9101 25.8243 82.8756 25.6415C82.841 25.4587 82.7718 25.3278 82.6681 25.2488C82.5644 25.1648 82.4087 25.1228 82.2013 25.1228C82.0877 25.1228 81.9691 25.1352 81.8456 25.1599C81.727 25.1846 81.6134 25.2167 81.5047 25.2562C81.401 25.2957 81.3145 25.3328 81.2454 25.3674V28.2943H80.5563Z" fill="#545961"/>
<path d="M77.6456 28.3684C77.2949 28.3684 77.0281 28.272 76.8453 28.0794C76.6626 27.8867 76.5712 27.6027 76.5712 27.2272C76.5712 26.9753 76.6156 26.7728 76.7045 26.6196C76.7935 26.4616 76.9244 26.343 77.0973 26.264C77.2751 26.1849 77.4949 26.138 77.7568 26.1232L78.8312 26.0194V25.7304C78.8312 25.4983 78.7793 25.3353 78.6756 25.2414C78.5718 25.1426 78.4162 25.0932 78.2088 25.0932C78.0803 25.0932 77.9297 25.0981 77.7568 25.108C77.5839 25.1179 77.4134 25.1302 77.2455 25.1451C77.0775 25.1599 76.9268 25.1747 76.7935 25.1895L76.7638 24.6857C76.8873 24.656 77.0331 24.6288 77.201 24.6041C77.3739 24.5794 77.5542 24.5572 77.7419 24.5375C77.9297 24.5177 78.1026 24.5078 78.2606 24.5078C78.5521 24.5078 78.7917 24.5498 78.9794 24.6338C79.1671 24.7178 79.3054 24.8487 79.3943 25.0265C79.4833 25.2043 79.5277 25.434 79.5277 25.7156V27.5385C79.5376 27.6373 79.5771 27.7114 79.6463 27.7608C79.7204 27.8052 79.8118 27.8349 79.9204 27.8497L79.8982 28.361C79.829 28.361 79.7599 28.3585 79.6907 28.3535C79.6216 28.3535 79.5574 28.3486 79.4981 28.3387C79.4388 28.3288 79.382 28.3165 79.3276 28.3017C79.2486 28.2819 79.177 28.2547 79.1128 28.2202C79.0535 28.1806 78.9967 28.1362 78.9423 28.0868C78.8534 28.1263 78.7373 28.1683 78.5941 28.2128C78.4508 28.2572 78.2977 28.2943 78.1347 28.3239C77.9716 28.3535 77.8086 28.3684 77.6456 28.3684ZM77.7864 27.82C77.9099 27.82 78.0359 27.8077 78.1643 27.783C78.2977 27.7583 78.4236 27.7311 78.5422 27.7015C78.6608 27.6669 78.7571 27.6373 78.8312 27.6126V26.5011L77.8457 26.5974C77.6382 26.6122 77.49 26.6715 77.4011 26.7752C77.3122 26.874 77.2677 27.0173 77.2677 27.205C77.2677 27.3977 77.3097 27.5483 77.3937 27.657C77.4826 27.7657 77.6135 27.82 77.7864 27.82Z" fill="#545961"/>
<path d="M72.7773 28.2943V24.5819H73.4665V24.8413C73.5455 24.7919 73.6468 24.7425 73.7703 24.6931C73.8938 24.6437 74.0247 24.6017 74.163 24.5671C74.3013 24.5276 74.4347 24.5078 74.5631 24.5078C74.82 24.5078 75.0299 24.5424 75.193 24.6116C75.3609 24.6758 75.4918 24.782 75.5857 24.9302C75.6795 25.0734 75.7462 25.2612 75.7858 25.4933C75.8253 25.7255 75.845 26.0071 75.845 26.3381V28.2943H75.1485V26.3751C75.1485 26.0688 75.1312 25.8243 75.0966 25.6415C75.0621 25.4587 74.9929 25.3278 74.8892 25.2488C74.7854 25.1648 74.6298 25.1228 74.4223 25.1228C74.3087 25.1228 74.1902 25.1352 74.0667 25.1599C73.9481 25.1846 73.8345 25.2167 73.7258 25.2562C73.6221 25.2957 73.5356 25.3328 73.4665 25.3674V28.2943H72.7773Z" fill="#545961"/>
<path d="M71.0986 28.2947V24.5824H71.7877V28.2947H71.0986ZM71.0986 23.834V23.1152H71.7877V23.834H71.0986Z" fill="#545961"/>
<path d="M67.287 28.2949V23.1895H70.414V23.8119H67.9983V25.6569H70.0286V26.272H67.9983V28.2949H67.287Z" fill="#545961"/>
<path d="M63.1707 28.3684C62.7903 28.3684 62.489 28.2992 62.2667 28.1609C62.0494 28.0176 61.8913 27.8052 61.7925 27.5236C61.6937 27.2421 61.6443 26.8889 61.6443 26.464C61.6443 25.9997 61.7085 25.6242 61.8369 25.3377C61.9703 25.0512 62.1556 24.8413 62.3927 24.7079C62.6298 24.5745 62.9138 24.5078 63.2448 24.5078C63.7536 24.5078 64.1365 24.6461 64.3934 24.9228C64.6552 25.1945 64.7861 25.6341 64.7861 26.2417L64.749 26.7085H62.3482C62.3532 27.0642 62.4199 27.3335 62.5483 27.5162C62.6767 27.6941 62.9089 27.783 63.2448 27.783C63.3881 27.783 63.5437 27.7805 63.7116 27.7756C63.8845 27.7657 64.055 27.7558 64.2229 27.7459C64.3909 27.7361 64.5341 27.7262 64.6527 27.7163L64.6675 28.235C64.544 28.2547 64.3958 28.2745 64.2229 28.2943C64.05 28.319 63.8697 28.3363 63.682 28.3461C63.4992 28.361 63.3288 28.3684 63.1707 28.3684ZM62.3482 26.1973H64.097C64.097 25.7774 64.0278 25.4834 63.8895 25.3155C63.7561 25.1475 63.5412 25.0636 63.2448 25.0636C63.0522 25.0636 62.8891 25.1006 62.7558 25.1747C62.6224 25.2488 62.5211 25.3698 62.452 25.5378C62.3828 25.7008 62.3482 25.9206 62.3482 26.1973Z" fill="#545961"/>
<path d="M57.7911 28.2946V23.0039H58.4803V24.7675C58.5692 24.7279 58.6729 24.6909 58.7915 24.6563C58.915 24.6168 59.0459 24.5822 59.1842 24.5526C59.3225 24.5229 59.4534 24.5081 59.5769 24.5081C59.8338 24.5081 60.0437 24.5427 60.2068 24.6119C60.3747 24.6761 60.5056 24.7823 60.5995 24.9305C60.6933 25.0737 60.7576 25.2615 60.7921 25.4936C60.8317 25.7258 60.8514 26.0049 60.8514 26.3309V28.2946H60.1549V26.3754C60.1549 26.0691 60.1376 25.8246 60.103 25.6418C60.0684 25.459 59.9993 25.3281 59.8955 25.2491C59.7967 25.1651 59.6436 25.1231 59.4361 25.1231C59.3225 25.1231 59.204 25.133 59.0805 25.1528C58.9619 25.1725 58.8483 25.1997 58.7396 25.2343C58.6359 25.2639 58.5494 25.2936 58.4803 25.3232V28.2946H57.7911Z" fill="#545961"/>
<path d="M56.4237 28.3763C56.1619 28.3763 55.952 28.3368 55.7939 28.2577C55.6407 28.1787 55.5296 28.0428 55.4604 27.8502C55.3962 27.6526 55.3641 27.3759 55.3641 27.0203V25.1678H54.8602V24.5824H55.3641V23.4932H56.0458V24.5824H57.1499V25.1678H56.0458V26.8276C56.0458 27.0697 56.0557 27.2599 56.0755 27.3982C56.1002 27.5316 56.1471 27.6254 56.2162 27.6798C56.2854 27.7341 56.3941 27.7613 56.5423 27.7613C56.5917 27.7613 56.6534 27.7613 56.7275 27.7613C56.8016 27.7563 56.8782 27.7514 56.9572 27.7464C57.0363 27.7366 57.1054 27.7292 57.1647 27.7242L57.2018 28.2874C57.1277 28.3022 57.0412 28.3145 56.9424 28.3244C56.8485 28.3392 56.7547 28.3516 56.6608 28.3615C56.567 28.3713 56.4879 28.3763 56.4237 28.3763Z" fill="#545961"/>
<path d="M51.2316 28.2944V25.1675H50.7944V24.5821H51.2316V24.2931C51.2316 23.9374 51.2637 23.6608 51.3279 23.4632C51.3922 23.2607 51.5008 23.1223 51.654 23.0482C51.8071 22.9692 52.0097 22.9297 52.2616 22.9297C52.3258 22.9297 52.4098 22.9322 52.5135 22.9371C52.6222 22.942 52.7259 22.9494 52.8247 22.9593C52.9235 22.9643 52.9952 22.9717 53.0396 22.9816L53.0322 23.5373C52.9482 23.5324 52.847 23.5299 52.7284 23.5299C52.6099 23.5299 52.5135 23.5299 52.4394 23.5299C52.3061 23.5299 52.2023 23.5521 52.1282 23.5966C52.0541 23.6361 51.9998 23.7127 51.9652 23.8263C51.9356 23.935 51.9207 24.0906 51.9207 24.2931V24.5821H52.9433V25.1675H51.9207V28.2944H51.2316Z" fill="#545961"/>
<path d="M48.6285 28.3684C48.2135 28.3684 47.8875 28.2992 47.6504 28.1609C47.4132 28.0176 47.2453 27.8003 47.1465 27.5088C47.0477 27.2174 46.9983 26.8469 46.9983 26.3973C46.9983 25.9676 47.0502 25.6144 47.1539 25.3377C47.2626 25.0611 47.4355 24.8536 47.6726 24.7153C47.9146 24.577 48.2333 24.5078 48.6285 24.5078C49.0286 24.5078 49.3472 24.577 49.5843 24.7153C49.8215 24.8536 49.9919 25.0611 50.0956 25.3377C50.2043 25.6144 50.2586 25.9676 50.2586 26.3973C50.2586 26.8469 50.2092 27.2174 50.1104 27.5088C50.0166 27.8003 49.8511 28.0176 49.614 28.1609C49.3769 28.2992 49.0484 28.3684 48.6285 28.3684ZM48.6285 27.783C48.8903 27.783 49.0879 27.7361 49.2213 27.6422C49.3546 27.5483 49.4436 27.4001 49.488 27.1976C49.5325 26.9901 49.5547 26.7234 49.5547 26.3973C49.5547 26.0762 49.5275 25.8218 49.4732 25.6341C49.4189 25.4415 49.325 25.3031 49.1916 25.2192C49.0582 25.1352 48.8705 25.0932 48.6285 25.0932C48.3913 25.0932 48.2036 25.1352 48.0653 25.2192C47.9319 25.3031 47.8381 25.4415 47.7837 25.6341C47.7294 25.8218 47.7022 26.0762 47.7022 26.3973C47.7022 26.7234 47.7245 26.9901 47.7689 27.1976C47.8134 27.4001 47.8998 27.5483 48.0283 27.6422C48.1616 27.7361 48.3617 27.783 48.6285 27.783Z" fill="#545961"/>
<path d="M44.1655 28.3763C43.9037 28.3763 43.6938 28.3368 43.5357 28.2577C43.3826 28.1787 43.2714 28.0428 43.2023 27.8502C43.138 27.6526 43.1059 27.3759 43.1059 27.0203V25.1678H42.6021V24.5824H43.1059V23.4932H43.7876V24.5824H44.8917V25.1678H43.7876V26.8276C43.7876 27.0697 43.7975 27.2599 43.8173 27.3982C43.842 27.5316 43.8889 27.6254 43.9581 27.6798C44.0272 27.7341 44.1359 27.7613 44.2841 27.7613C44.3335 27.7613 44.3952 27.7613 44.4693 27.7613C44.5434 27.7563 44.62 27.7514 44.6991 27.7464C44.7781 27.7366 44.8472 27.7292 44.9065 27.7242L44.9436 28.2874C44.8695 28.3022 44.783 28.3145 44.6842 28.3244C44.5904 28.3392 44.4965 28.3516 44.4027 28.3615C44.3088 28.3713 44.2298 28.3763 44.1655 28.3763Z" fill="#545961"/>
<path d="M40.0534 28.3684C39.7027 28.3684 39.4359 28.272 39.2532 28.0794C39.0704 27.8867 38.979 27.6027 38.979 27.2272C38.979 26.9753 39.0235 26.7728 39.1124 26.6196C39.2013 26.4616 39.3322 26.343 39.5051 26.264C39.6829 26.1849 39.9028 26.138 40.1646 26.1232L41.239 26.0194V25.7304C41.239 25.4983 41.1872 25.3353 41.0834 25.2414C40.9797 25.1426 40.8241 25.0932 40.6166 25.0932C40.4882 25.0932 40.3375 25.0981 40.1646 25.108C39.9917 25.1179 39.8213 25.1302 39.6533 25.1451C39.4853 25.1599 39.3347 25.1747 39.2013 25.1895L39.1717 24.6857C39.2952 24.656 39.4409 24.6288 39.6088 24.6041C39.7817 24.5794 39.9621 24.5572 40.1498 24.5375C40.3375 24.5177 40.5104 24.5078 40.6685 24.5078C40.9599 24.5078 41.1995 24.5498 41.3872 24.6338C41.5749 24.7178 41.7133 24.8487 41.8022 25.0265C41.8911 25.2043 41.9355 25.434 41.9355 25.7156V27.5385C41.9454 27.6373 41.9849 27.7114 42.0541 27.7608C42.1282 27.8052 42.2196 27.8349 42.3283 27.8497L42.306 28.361C42.2369 28.361 42.1677 28.3585 42.0986 28.3535C42.0294 28.3535 41.9652 28.3486 41.9059 28.3387C41.8466 28.3288 41.7898 28.3165 41.7355 28.3017C41.6564 28.2819 41.5848 28.2547 41.5206 28.2202C41.4613 28.1806 41.4045 28.1362 41.3502 28.0868C41.2613 28.1263 41.1452 28.1683 41.0019 28.2128C40.8586 28.2572 40.7055 28.2943 40.5425 28.3239C40.3795 28.3535 40.2165 28.3684 40.0534 28.3684ZM40.1942 27.82C40.3177 27.82 40.4437 27.8077 40.5721 27.783C40.7055 27.7583 40.8315 27.7311 40.95 27.7015C41.0686 27.6669 41.1649 27.6373 41.239 27.6126V26.5011L40.2535 26.5974C40.046 26.6122 39.8978 26.6715 39.8089 26.7752C39.72 26.874 39.6755 27.0173 39.6755 27.205C39.6755 27.3977 39.7175 27.5483 39.8015 27.657C39.8904 27.7657 40.0213 27.82 40.1942 27.82Z" fill="#545961"/>
<path d="M37.5225 28.2947V24.5824H38.2116V28.2947H37.5225ZM37.5225 23.834V23.1152H38.2116V23.834H37.5225Z" fill="#545961"/>
<path d="M34.6118 28.3684C34.2611 28.3684 33.9943 28.272 33.8115 28.0794C33.6287 27.8867 33.5374 27.6027 33.5374 27.2272C33.5374 26.9753 33.5818 26.7728 33.6707 26.6196C33.7596 26.4616 33.8906 26.343 34.0635 26.264C34.2413 26.1849 34.4611 26.138 34.7229 26.1232L35.7974 26.0194V25.7304C35.7974 25.4983 35.7455 25.3353 35.6418 25.2414C35.538 25.1426 35.3824 25.0932 35.1749 25.0932C35.0465 25.0932 34.8958 25.0981 34.7229 25.108C34.55 25.1179 34.3796 25.1302 34.2117 25.1451C34.0437 25.1599 33.893 25.1747 33.7596 25.1895L33.73 24.6857C33.8535 24.656 33.9992 24.6288 34.1672 24.6041C34.3401 24.5794 34.5204 24.5572 34.7081 24.5375C34.8958 24.5177 35.0687 24.5078 35.2268 24.5078C35.5183 24.5078 35.7579 24.5498 35.9456 24.6338C36.1333 24.7178 36.2716 24.8487 36.3605 25.0265C36.4494 25.2043 36.4939 25.434 36.4939 25.7156V27.5385C36.5038 27.6373 36.5433 27.7114 36.6125 27.7608C36.6866 27.8052 36.7779 27.8349 36.8866 27.8497L36.8644 28.361C36.7952 28.361 36.7261 28.3585 36.6569 28.3535C36.5878 28.3535 36.5235 28.3486 36.4643 28.3387C36.405 28.3288 36.3482 28.3165 36.2938 28.3017C36.2148 28.2819 36.1432 28.2547 36.0789 28.2202C36.0197 28.1806 35.9629 28.1362 35.9085 28.0868C35.8196 28.1263 35.7035 28.1683 35.5603 28.2128C35.417 28.2572 35.2639 28.2943 35.1008 28.3239C34.9378 28.3535 34.7748 28.3684 34.6118 28.3684ZM34.7526 27.82C34.8761 27.82 35.002 27.8077 35.1305 27.783C35.2639 27.7583 35.3898 27.7311 35.5084 27.7015C35.6269 27.6669 35.7233 27.6373 35.7974 27.6126V26.5011L34.8119 26.5974C34.6044 26.6122 34.4562 26.6715 34.3673 26.7752C34.2783 26.874 34.2339 27.0173 34.2339 27.205C34.2339 27.3977 34.2759 27.5483 34.3599 27.657C34.4488 27.7657 34.5797 27.82 34.7526 27.82Z" fill="#545961"/>
<path d="M32.3922 28.3763C32.1304 28.3763 31.9205 28.3368 31.7624 28.2577C31.6092 28.1787 31.4981 28.0428 31.4289 27.8502C31.3647 27.6526 31.3326 27.3759 31.3326 27.0203V25.1678H30.8287V24.5824H31.3326V23.4932H32.0143V24.5824H33.1184V25.1678H32.0143V26.8276C32.0143 27.0697 32.0242 27.2599 32.044 27.3982C32.0687 27.5316 32.1156 27.6254 32.1847 27.6798C32.2539 27.7341 32.3626 27.7613 32.5108 27.7613C32.5602 27.7613 32.6219 27.7613 32.696 27.7613C32.7701 27.7563 32.8467 27.7514 32.9257 27.7464C33.0048 27.7366 33.0739 27.7292 33.1332 27.7242L33.1703 28.2874C33.0962 28.3022 33.0097 28.3145 32.9109 28.3244C32.8171 28.3392 32.7232 28.3516 32.6293 28.3615C32.5355 28.3713 32.4564 28.3763 32.3922 28.3763Z" fill="#545961"/>
<path d="M28.7552 28.3684C28.3748 28.3684 28.0735 28.2992 27.8512 28.1609C27.6338 28.0176 27.4758 27.8052 27.377 27.5236C27.2782 27.2421 27.2288 26.8889 27.2288 26.464C27.2288 25.9997 27.293 25.6242 27.4214 25.3377C27.5548 25.0512 27.74 24.8413 27.9772 24.7079C28.2143 24.5745 28.4983 24.5078 28.8293 24.5078C29.3381 24.5078 29.721 24.6461 29.9778 24.9228C30.2396 25.1945 30.3706 25.6341 30.3706 26.2417L30.3335 26.7085H27.9327C27.9376 27.0642 28.0043 27.3335 28.1328 27.5162C28.2612 27.6941 28.4934 27.783 28.8293 27.783C28.9726 27.783 29.1282 27.7805 29.2961 27.7756C29.469 27.7657 29.6394 27.7558 29.8074 27.7459C29.9754 27.7361 30.1186 27.7262 30.2372 27.7163L30.252 28.235C30.1285 28.2547 29.9803 28.2745 29.8074 28.2943C29.6345 28.319 29.4542 28.3363 29.2665 28.3461C29.0837 28.361 28.9133 28.3684 28.7552 28.3684ZM27.9327 26.1973H29.6814C29.6814 25.7774 29.6123 25.4834 29.474 25.3155C29.3406 25.1475 29.1257 25.0636 28.8293 25.0636C28.6366 25.0636 28.4736 25.1006 28.3402 25.1747C28.2069 25.2488 28.1056 25.3698 28.0364 25.5378C27.9673 25.7008 27.9327 25.9206 27.9327 26.1973Z" fill="#545961"/>
<path d="M24.8737 28.2948V24.5825H25.5628V25.0641C25.6517 24.9999 25.7653 24.9307 25.9036 24.8567C26.0419 24.7826 26.1926 24.7134 26.3556 24.6492C26.5236 24.58 26.6891 24.5306 26.8521 24.501V25.1901C26.694 25.2197 26.531 25.2617 26.363 25.3161C26.2 25.3704 26.0469 25.4297 25.9036 25.4939C25.7653 25.5532 25.6517 25.6075 25.5628 25.6569V28.2948H24.8737Z" fill="#545961"/>
<path d="M23.0326 28.3684C22.6325 28.3684 22.3188 28.3041 22.0915 28.1757C21.8643 28.0423 21.7038 27.8299 21.6099 27.5385C21.516 27.247 21.4691 26.8642 21.4691 26.3899C21.4691 25.9305 21.521 25.565 21.6247 25.2933C21.7285 25.0166 21.8964 24.8166 22.1286 24.6931C22.3608 24.5696 22.6646 24.5078 23.04 24.5078C23.1289 24.5078 23.2351 24.5152 23.3586 24.53C23.4871 24.5399 23.6155 24.5547 23.744 24.5745C23.8773 24.5943 23.9909 24.6116 24.0848 24.6264L24.0626 25.1895C23.9786 25.1796 23.8798 25.1698 23.7662 25.1599C23.6526 25.15 23.5439 25.1426 23.4401 25.1377C23.3364 25.1278 23.25 25.1228 23.1808 25.1228C22.914 25.1228 22.7066 25.1648 22.5584 25.2488C22.4151 25.3328 22.3138 25.4662 22.2546 25.6489C22.2002 25.8317 22.1731 26.0787 22.1731 26.3899C22.1731 26.7258 22.1978 26.9951 22.2472 27.1976C22.3015 27.3952 22.4003 27.5385 22.5435 27.6274C22.6868 27.7114 22.8992 27.7533 23.1808 27.7533C23.25 27.7533 23.3364 27.7509 23.4401 27.7459C23.5488 27.7361 23.66 27.7262 23.7736 27.7163C23.8921 27.7064 23.9934 27.699 24.0774 27.6941L24.0996 28.2572C24.0008 28.272 23.8847 28.2869 23.7514 28.3017C23.6229 28.3214 23.4945 28.3363 23.366 28.3461C23.2376 28.361 23.1265 28.3684 23.0326 28.3684Z" fill="#545961"/>
<path d="M19.2034 28.3684C18.8231 28.3684 18.5217 28.2992 18.2994 28.1609C18.0821 28.0176 17.924 27.8052 17.8252 27.5236C17.7264 27.2421 17.677 26.8889 17.677 26.464C17.677 25.9997 17.7412 25.6242 17.8697 25.3377C18.003 25.0512 18.1883 24.8413 18.4254 24.7079C18.6625 24.5745 18.9466 24.5078 19.2775 24.5078C19.7864 24.5078 20.1692 24.6461 20.4261 24.9228C20.6879 25.1945 20.8188 25.6341 20.8188 26.2417L20.7817 26.7085H18.3809C18.3859 27.0642 18.4526 27.3335 18.581 27.5162C18.7094 27.6941 18.9416 27.783 19.2775 27.783C19.4208 27.783 19.5764 27.7805 19.7444 27.7756C19.9173 27.7657 20.0877 27.7558 20.2556 27.7459C20.4236 27.7361 20.5669 27.7262 20.6854 27.7163L20.7002 28.235C20.5767 28.2547 20.4285 28.2745 20.2556 28.2943C20.0827 28.319 19.9024 28.3363 19.7147 28.3461C19.5319 28.361 19.3615 28.3684 19.2034 28.3684ZM18.3809 26.1973H20.1297C20.1297 25.7774 20.0605 25.4834 19.9222 25.3155C19.7888 25.1475 19.5739 25.0636 19.2775 25.0636C19.0849 25.0636 18.9219 25.1006 18.7885 25.1747C18.6551 25.2488 18.5538 25.3698 18.4847 25.5378C18.4155 25.7008 18.3809 25.9206 18.3809 26.1973Z" fill="#545961"/>
<path d="M15.3436 28.369C15.1856 28.369 15.0028 28.3591 14.7953 28.3394C14.5928 28.3196 14.3927 28.2949 14.1951 28.2653C13.9975 28.2356 13.8246 28.2109 13.6764 28.1912L13.7357 27.6132C13.879 27.628 14.0469 27.6478 14.2396 27.6725C14.4372 27.6922 14.6298 27.7095 14.8175 27.7244C15.0053 27.7392 15.1658 27.7466 15.2992 27.7466C15.5264 27.7466 15.7141 27.7145 15.8623 27.6503C16.0105 27.5811 16.1217 27.4798 16.1958 27.3465C16.2699 27.2131 16.3069 27.0402 16.3069 26.8278C16.3069 26.6549 16.2723 26.519 16.2032 26.4202C16.139 26.3165 16.0278 26.235 15.8697 26.1757C15.7117 26.1115 15.4993 26.0547 15.2325 26.0053C14.9608 25.9509 14.7237 25.8892 14.5211 25.82C14.3186 25.7459 14.1507 25.6545 14.0173 25.5458C13.8839 25.4372 13.7851 25.3013 13.7209 25.1383C13.6616 24.9703 13.632 24.7653 13.632 24.5233C13.632 24.1775 13.6986 23.9009 13.832 23.6934C13.9703 23.4859 14.1655 23.3352 14.4174 23.2414C14.6743 23.1475 14.9731 23.1006 15.314 23.1006C15.4671 23.1006 15.64 23.1105 15.8327 23.1302C16.0303 23.145 16.2229 23.1648 16.4107 23.1895C16.6033 23.2142 16.7688 23.2389 16.9071 23.2636L16.8553 23.849C16.712 23.8292 16.544 23.8119 16.3514 23.7971C16.1637 23.7774 15.9809 23.7601 15.8031 23.7452C15.6252 23.7304 15.482 23.723 15.3733 23.723C15.146 23.723 14.9559 23.7502 14.8027 23.8045C14.6545 23.8589 14.5409 23.9404 14.4619 24.0491C14.3878 24.1577 14.3507 24.2985 14.3507 24.4714C14.3507 24.669 14.3878 24.8197 14.4619 24.9234C14.536 25.0272 14.6595 25.1087 14.8324 25.1679C15.0053 25.2272 15.2325 25.2914 15.5141 25.3606C15.7808 25.4199 16.0081 25.4841 16.1958 25.5533C16.3884 25.6224 16.5465 25.7089 16.67 25.8126C16.7935 25.9163 16.8824 26.0448 16.9368 26.1979C16.996 26.3511 17.0257 26.5437 17.0257 26.7759C17.0257 27.1563 16.9565 27.4625 16.8182 27.6947C16.6848 27.9269 16.4922 28.0973 16.2402 28.206C15.9883 28.3147 15.6894 28.369 15.3436 28.369Z" fill="#545961"/>
<path d="M9.7602 28.3684C9.37983 28.3684 9.07849 28.2992 8.8562 28.1609C8.63884 28.0176 8.48076 27.8052 8.38196 27.5236C8.28316 27.2421 8.23376 26.8889 8.23376 26.464C8.23376 25.9997 8.29798 25.6242 8.42642 25.3377C8.5598 25.0512 8.74505 24.8413 8.98216 24.7079C9.21928 24.5745 9.50333 24.5078 9.8343 24.5078C10.3431 24.5078 10.726 24.6461 10.9828 24.9228C11.2446 25.1945 11.3756 25.6341 11.3756 26.2417L11.3385 26.7085H8.9377C8.94264 27.0642 9.00933 27.3335 9.13777 27.5162C9.26621 27.6941 9.49839 27.783 9.8343 27.783C9.97756 27.783 10.1332 27.7805 10.3011 27.7756C10.474 27.7657 10.6444 27.7558 10.8124 27.7459C10.9804 27.7361 11.1236 27.7262 11.2422 27.7163L11.257 28.235C11.1335 28.2547 10.9853 28.2745 10.8124 28.2943C10.6395 28.319 10.4592 28.3363 10.2715 28.3461C10.0887 28.361 9.91828 28.3684 9.7602 28.3684ZM8.9377 26.1973H10.6864C10.6864 25.7774 10.6173 25.4834 10.479 25.3155C10.3456 25.1475 10.1307 25.0636 9.8343 25.0636C9.64164 25.0636 9.47863 25.1006 9.34525 25.1747C9.21187 25.2488 9.1106 25.3698 9.04144 25.5378C8.97228 25.7008 8.9377 25.9206 8.9377 26.1973Z" fill="#545961"/>
<path d="M4.38062 28.2946V23.0039H5.06974V24.7675C5.15865 24.7279 5.26239 24.6909 5.38095 24.6563C5.50445 24.6168 5.63536 24.5822 5.77367 24.5526C5.91199 24.5229 6.0429 24.5081 6.1664 24.5081C6.42327 24.5081 6.63322 24.5427 6.79624 24.6119C6.9642 24.6761 7.0951 24.7823 7.18896 24.9305C7.28282 25.0737 7.34704 25.2615 7.38162 25.4936C7.42114 25.7258 7.4409 26.0049 7.4409 26.3309V28.2946H6.74437V26.3754C6.74437 26.0691 6.72708 25.8246 6.6925 25.6418C6.65792 25.459 6.58876 25.3281 6.48502 25.2491C6.38623 25.1651 6.23309 25.1231 6.02561 25.1231C5.91199 25.1231 5.79343 25.133 5.66994 25.1528C5.55138 25.1725 5.43776 25.1997 5.32908 25.2343C5.22534 25.2639 5.13889 25.2936 5.06974 25.3232V28.2946H4.38062Z" fill="#545961"/>
<path d="M1.59161 28.2949V23.8193H0.0874023V23.1895H3.79235V23.8193H2.30296V28.2949H1.59161Z" fill="#545961"/>
<path d="M151.599 2.17773L152.729 3.2494L151.645 4.36715L150.514 3.29549L151.599 2.17773Z" fill="#CDAE27"/>
<path d="M154.172 3.29549L155.302 4.36715L156.387 3.2494L155.256 2.17773L154.172 3.29549Z" fill="#CDAE27"/>
<path d="M152.579 4.70116L153.456 5.53083L154.298 4.66659L153.421 3.83691L152.579 4.70116Z" fill="#CDAE27"/>
<path d="M155.798 5.17381L156.675 6.01501L157.517 5.15077L156.64 4.30957L155.798 5.17381Z" fill="#CDAE27"/>
<path d="M151.149 6.02635L152.026 6.86755L152.868 6.00331L151.991 5.16211L151.149 6.02635Z" fill="#CDAE27"/>
<path d="M154.091 6.12987L154.968 6.97106L155.81 6.10682L154.933 5.26562L154.091 6.12987Z" fill="#CDAE27"/>
<path d="M152.937 7.13319L153.548 7.72088L154.137 7.11015L153.525 6.52246L152.937 7.13319Z" fill="#CDAE27"/>
<path d="M155.268 7.59413L155.879 8.18181L156.467 7.57108L155.856 6.9834L155.268 7.59413Z" fill="#CDAE27"/>
<path d="M160.344 2.93847L160.69 4.8398L162.605 4.49411L162.259 2.59277L160.344 2.93847Z" fill="#CDAE27"/>
<path d="M157.852 3.73359L158.129 5.25466L159.663 4.9781L159.386 3.45703L157.852 3.73359Z" fill="#CDAE27"/>
<path d="M160.817 5.85371L161.094 7.37477L162.628 7.09821L162.351 5.57715L160.817 5.85371Z" fill="#CDAE27"/>
<path d="M158.706 6.07246L158.925 7.25935L160.125 7.04041L159.905 5.85352L158.706 6.07246Z" fill="#CDAE27"/>
<path d="M161.025 8.33125L161.244 9.51814L162.444 9.2992L162.224 8.1123L161.025 8.33125Z" fill="#CDAE27"/>
<path d="M156.906 6.55683L157.125 7.74373L158.325 7.52478L158.106 6.33789L156.906 6.55683Z" fill="#CDAE27"/>
<path d="M159.075 8.1125L159.294 9.29939L160.494 9.08045L160.275 7.89355L159.075 8.1125Z" fill="#CDAE27"/>
<path d="M157.552 8.25039L157.702 9.08006L158.544 8.93026L158.394 8.10059L157.552 8.25039Z" fill="#CDAE27"/>
<path d="M159.167 9.9789L159.317 10.8086L160.159 10.6588L160.009 9.8291L159.167 9.9789Z" fill="#CDAE27"/>
<path d="M166.032 9.14941L165.201 10.8894L166.955 11.7191L167.785 9.97909L166.032 9.14941Z" fill="#CDAE27"/>
<path d="M163.54 8.34277L162.87 9.73709L164.278 10.4054L164.947 9.01112L163.54 8.34277Z" fill="#CDAE27"/>
<path d="M164.693 11.7881L164.024 13.1824L165.432 13.8507L166.101 12.4564L164.693 11.7881Z" fill="#CDAE27"/>
<path d="M162.847 10.7393L162.328 11.8224L163.424 12.341L163.943 11.2578L162.847 10.7393Z" fill="#CDAE27"/>
<path d="M163.401 13.9082L162.882 14.9914L163.978 15.5099L164.497 14.4267L163.401 13.9082Z" fill="#CDAE27"/>
<path d="M161.105 10.0947L160.586 11.1779L161.682 11.6965L162.201 10.6133L161.105 10.0947Z" fill="#CDAE27"/>
<path d="M161.959 12.6064L161.44 13.6896L162.536 14.2082L163.055 13.125L161.959 12.6064Z" fill="#CDAE27"/>
<path d="M160.632 11.8457L160.263 12.6062L161.036 12.975L161.405 12.2144L160.632 11.8457Z" fill="#CDAE27"/>
<path d="M160.932 14.1738L160.563 14.9344L161.336 15.3031L161.705 14.5426L160.932 14.1738Z" fill="#CDAE27"/>
<path d="M166.978 17.4922L165.27 18.414L166.205 20.108L167.912 19.1861L166.978 17.4922Z" fill="#CDAE27"/>
<path d="M165.432 15.3945L164.059 16.1435L164.809 17.5033L166.17 16.7543L165.432 15.3945Z" fill="#CDAE27"/>
<path d="M164.336 18.8516L162.963 19.6006L163.713 20.9603L165.074 20.2113L164.336 18.8516Z" fill="#CDAE27"/>
<path d="M163.459 16.9277L162.398 17.5039L162.986 18.564L164.047 17.9879L163.459 16.9277Z" fill="#CDAE27"/>
<path d="M162.04 19.8203L160.979 20.3965L161.567 21.4566L162.628 20.8805L162.04 19.8203Z" fill="#CDAE27"/>
<path d="M162.432 15.3955L161.371 15.9717L161.959 17.0318L163.021 16.4556L162.432 15.3955Z" fill="#CDAE27"/>
<path d="M161.636 17.9297L160.575 18.5058L161.163 19.566L162.225 18.9898L161.636 17.9297Z" fill="#CDAE27"/>
<path d="M161.013 16.5361L160.263 16.9394L160.679 17.6885L161.428 17.2851L161.013 16.5361Z" fill="#CDAE27"/>
<path d="M159.871 18.5986L159.121 19.0019L159.536 19.7394L160.286 19.3361L159.871 18.5986Z" fill="#CDAE27"/>
<path d="M162.824 24.7977L160.898 24.5557L160.655 26.4685L162.582 26.7105L162.824 24.7977Z" fill="#CDAE27"/>
<path d="M162.813 22.2057L161.267 22.0098L161.071 23.5424L162.617 23.7383L162.813 22.2057Z" fill="#CDAE27"/>
<path d="M159.882 24.3717L158.336 24.1758L158.14 25.7084L159.686 25.9043L159.882 24.3717Z" fill="#CDAE27"/>
<path d="M160.298 22.2973L159.098 22.1475L158.948 23.3459L160.148 23.4957L160.298 22.2973Z" fill="#CDAE27"/>
<path d="M157.437 23.8305L156.237 23.6807L156.087 24.8791L157.287 25.0174L157.437 23.8305Z" fill="#CDAE27"/>
<path d="M160.378 20.4652L159.167 20.3154L159.017 21.5138L160.217 21.6636L160.378 20.4652Z" fill="#CDAE27"/>
<path d="M158.232 22.0551L157.021 21.9053L156.871 23.1037L158.071 23.2535L158.232 22.0551Z" fill="#CDAE27"/>
<path d="M158.556 20.5686L157.713 20.4648L157.61 21.306L158.452 21.4098L158.556 20.5686Z" fill="#CDAE27"/>
<path d="M156.41 21.5832L155.567 21.4795L155.464 22.3207L156.306 22.4244L156.41 21.5832Z" fill="#CDAE27"/>
<path d="M155.141 28.3127L153.71 26.999L152.383 28.4164L153.814 29.73L155.141 28.3127Z" fill="#CDAE27"/>
<path d="M154.887 1.31365L153.456 0L152.129 1.41736L153.56 2.73101L154.887 1.31365Z" fill="#CDAE27"/>
<path d="M156.664 26.2039L155.521 25.1553L154.46 26.2845L155.602 27.3332L156.664 26.2039Z" fill="#CDAE27"/>
<path d="M153.006 26.2615L151.864 25.2129L150.803 26.3422L151.945 27.3908L153.006 26.2615Z" fill="#CDAE27"/>
<path d="M154.575 24.8328L153.687 24.0146L152.856 24.9019L153.745 25.7201L154.575 24.8328Z" fill="#CDAE27"/>
<path d="M151.356 24.406L150.468 23.5879L149.637 24.4752L150.526 25.2933L151.356 24.406Z" fill="#CDAE27"/>
<path d="M155.717 23.3806L154.829 22.5625L153.998 23.4498L154.887 24.2679L155.717 23.3806Z" fill="#CDAE27"/>
<path d="M153.041 23.4265L152.152 22.6084L151.322 23.4957L152.21 24.3138L153.041 23.4265Z" fill="#CDAE27"/>
<path d="M154.171 22.4131L153.548 21.8369L152.972 22.4592L153.595 23.0353L154.171 22.4131Z" fill="#CDAE27"/>
<path d="M151.841 21.9863L151.218 21.4102L150.641 22.0324L151.264 22.6086L151.841 21.9863Z" fill="#CDAE27"/>
<path d="M146.845 26.7111L146.465 24.8213L144.561 25.2016L144.942 27.0914L146.845 26.7111Z" fill="#CDAE27"/>
<path d="M149.326 25.8814L149.014 24.3604L147.48 24.66L147.791 26.181L149.326 25.8814Z" fill="#CDAE27"/>
<path d="M146.326 23.8072L146.015 22.2861L144.48 22.5857L144.792 24.1068L146.326 23.8072Z" fill="#CDAE27"/>
<path d="M148.437 23.5533L148.195 22.3779L147.007 22.6084L147.249 23.7838L148.437 23.5533Z" fill="#CDAE27"/>
<path d="M150.214 23.0465L149.972 21.8711L148.784 22.1016L149.026 23.2885L150.214 23.0465Z" fill="#CDAE27"/>
<path d="M148.022 21.525L147.78 20.3496L146.592 20.5916L146.834 21.767L148.022 21.525Z" fill="#CDAE27"/>
<path d="M149.545 21.3521L149.383 20.5225L148.541 20.6838L148.703 21.5135L149.545 21.3521Z" fill="#CDAE27"/>
<path d="M147.895 19.6588L147.734 18.8291L146.891 18.9904L147.053 19.8201L147.895 19.6588Z" fill="#CDAE27"/>
<path d="M141.054 20.5916L141.861 18.84L140.096 18.0449L139.288 19.7965L141.054 20.5916Z" fill="#CDAE27"/>
<path d="M143.557 21.3636L144.203 19.9578L142.784 19.3125L142.138 20.7183L143.557 21.3636Z" fill="#CDAE27"/>
<path d="M142.346 17.9418L142.992 16.5359L141.573 15.8906L140.927 17.2965L142.346 17.9418Z" fill="#CDAE27"/>
<path d="M144.215 18.9554L144.722 17.8607L143.615 17.3652L143.107 18.4599L144.215 18.9554Z" fill="#CDAE27"/>
<path d="M145.692 21.6986L146.199 20.6039L145.092 20.1084L144.584 21.2031L145.692 21.6986Z" fill="#CDAE27"/>
<path d="M143.603 15.7982L144.111 14.7035L143.003 14.208L142.496 15.3027L143.603 15.7982Z" fill="#CDAE27"/>
<path d="M145.957 19.5775L146.464 18.4828L145.357 17.9873L144.849 19.082L145.957 19.5775Z" fill="#CDAE27"/>
<path d="M145.069 17.0775L145.576 15.9828L144.469 15.4873L143.961 16.582L145.069 17.0775Z" fill="#CDAE27"/>
<path d="M146.407 17.8148L146.765 17.0428L145.992 16.6855L145.634 17.4576L146.407 17.8148Z" fill="#CDAE27"/>
<path d="M146.072 15.4877L146.43 14.7156L145.657 14.3584L145.299 15.1305L146.072 15.4877Z" fill="#CDAE27"/>
<path d="M139.969 12.2718L141.654 11.3154L140.684 9.64453L139 10.601L139.969 12.2718Z" fill="#CDAE27"/>
<path d="M141.55 14.3461L142.899 13.5855L142.126 12.2373L140.777 13.0094L141.55 14.3461Z" fill="#CDAE27"/>
<path d="M142.588 10.8783L143.938 10.1178L143.165 8.76953L141.815 9.54159L142.588 10.8783Z" fill="#CDAE27"/>
<path d="M143.499 12.7797L144.549 12.1805L143.949 11.1318L142.9 11.731L143.499 12.7797Z" fill="#CDAE27"/>
<path d="M144.872 9.86364L145.922 9.26443L145.322 8.21582L144.272 8.81503L144.872 9.86364Z" fill="#CDAE27"/>
<path d="M144.549 14.3002L145.599 13.701L144.999 12.6523L143.949 13.2515L144.549 14.3002Z" fill="#CDAE27"/>
<path d="M145.311 11.7533L146.361 11.1541L145.761 10.1055L144.711 10.7047L145.311 11.7533Z" fill="#CDAE27"/>
<path d="M145.945 13.125L146.684 12.7101L146.257 11.9727L145.519 12.3875L145.945 13.125Z" fill="#CDAE27"/>
<path d="M147.053 11.0508L147.791 10.6359L147.364 9.89844L146.626 10.3133L147.053 11.0508Z" fill="#CDAE27"/>
<path d="M143.996 4.89723L145.934 5.10465L146.142 3.19179L144.203 2.98438L143.996 4.89723Z" fill="#CDAE27"/>
<path d="M144.053 7.50134L145.599 7.66267L145.761 6.13008L144.215 5.96875L144.053 7.50134Z" fill="#CDAE27"/>
<path d="M146.949 5.27771L148.495 5.43903L148.657 3.90644L147.111 3.74512L146.949 5.27771Z" fill="#CDAE27"/>
<path d="M146.557 7.35174L147.768 7.47849L147.895 6.28007L146.684 6.15332L146.557 7.35174Z" fill="#CDAE27"/>
<path d="M149.395 5.78436L150.606 5.91111L150.733 4.71269L149.522 4.58594L149.395 5.78436Z" fill="#CDAE27"/>
<path d="M146.522 9.19549L147.734 9.32224L147.861 8.12383L146.649 7.99707L146.522 9.19549Z" fill="#CDAE27"/>
<path d="M148.634 7.57049L149.845 7.69724L149.972 6.49883L148.761 6.37207L148.634 7.57049Z" fill="#CDAE27"/>
<path d="M148.345 9.05701L149.199 9.1492L149.291 8.308L148.438 8.21582L148.345 9.05701Z" fill="#CDAE27"/>
<path d="M150.468 8.00819L151.322 8.10037L151.414 7.25918L150.56 7.16699L150.468 8.00819Z" fill="#CDAE27"/>
<path d="M159.64 16.052C159.398 15.9137 159.132 15.7985 158.867 15.7178C158.186 15.4989 157.46 15.4528 156.744 15.568C156.433 15.6141 156.121 15.6948 155.821 15.7985L155.729 15.8331C155.567 15.8907 155.406 15.9714 155.244 16.052C155.106 16.1212 154.967 16.2018 154.829 16.2825C154.506 16.4784 154.194 16.6858 153.906 16.9163C153.664 15.2915 153.641 13.6437 153.814 12.0189C153.814 12.0189 153.814 12.0074 153.825 12.0074C154.564 12.4683 154.356 13.7474 154.194 14.1161C154.194 14.1276 154.206 14.1276 154.206 14.1276C154.829 13.4132 154.933 12.3992 154.483 11.5695C154.483 11.558 154.483 11.558 154.494 11.558C154.621 11.6617 154.725 11.7654 154.829 11.8921C155.071 12.2033 155.221 12.5835 155.244 12.9753C155.256 13.1366 155.256 13.298 155.244 13.4708C155.244 13.5054 155.233 13.54 155.233 13.5745C155.233 13.5861 155.233 13.586 155.244 13.586C155.556 12.9868 155.556 12.2724 155.244 11.6732C155.129 11.4658 154.991 11.2814 154.829 11.1086C154.783 11.0509 154.725 11.0048 154.668 10.9472C154.668 10.9472 154.668 10.9472 154.668 10.9357C154.668 10.9242 154.668 10.9357 154.679 10.9357C154.737 10.9472 154.783 10.9588 154.841 10.9818C154.991 11.0279 155.129 11.1086 155.256 11.2007C155.521 11.3966 155.717 11.6617 155.833 11.9728C155.925 12.2033 155.971 12.4337 155.971 12.6757C155.971 12.6757 155.971 12.6872 155.983 12.6872C155.994 12.6872 155.994 12.6872 155.994 12.6757C156.156 12.1917 156.098 11.6732 155.844 11.2353C155.694 11.0048 155.498 10.8205 155.267 10.6822C155.141 10.6015 155.002 10.5439 154.852 10.4978C154.783 10.4748 154.725 10.4633 154.656 10.4517C154.644 10.4517 154.644 10.4402 154.656 10.4402C154.725 10.4287 154.794 10.4287 154.852 10.4287C154.991 10.4287 155.129 10.4402 155.267 10.4633C155.475 10.4978 155.671 10.5785 155.844 10.6937C156.006 10.7974 156.133 10.9357 156.237 11.1086C156.237 11.1201 156.248 11.1086 156.248 11.1086C156.225 10.8089 156.075 10.5324 155.844 10.3365C155.671 10.1982 155.475 10.0945 155.267 10.0369C155.129 10.0023 154.991 9.97928 154.852 9.97928C154.679 9.97928 154.494 10.0023 154.333 10.0715C154.321 10.0715 154.321 10.0715 154.321 10.0599C154.448 9.87557 154.633 9.74881 154.852 9.6912C154.991 9.6451 155.129 9.63358 155.267 9.6451C155.383 9.6451 155.498 9.67967 155.602 9.72576H155.614V9.71424C155.51 9.59901 155.394 9.50682 155.267 9.43768C155.141 9.36854 155.002 9.32245 154.852 9.29941C154.448 9.25331 154.068 9.44921 153.86 9.7949H153.848C153.802 9.71424 153.756 9.61053 153.71 9.51835C153.606 9.27636 153.525 9.02285 153.479 8.76934C153.479 8.76934 153.479 8.75781 153.468 8.75781C153.468 8.75781 153.456 8.75781 153.456 8.76934C153.41 9.02285 153.329 9.27636 153.225 9.51835C153.179 9.61053 153.145 9.70272 153.087 9.7949H153.075C152.764 9.2994 152.095 9.1496 151.599 9.46073C151.495 9.52987 151.391 9.62206 151.322 9.71424V9.72576H151.333C151.783 9.54139 152.314 9.67967 152.614 10.0599V10.0715H152.602C152.025 9.86404 151.379 10.0254 150.964 10.4748C150.814 10.6591 150.71 10.8781 150.687 11.1086C150.687 11.1201 150.699 11.1201 150.699 11.1086C150.768 10.9933 150.849 10.8896 150.953 10.7974C151.322 10.4978 151.806 10.3711 152.279 10.4402C152.291 10.4402 152.291 10.4517 152.279 10.4517C151.691 10.5554 151.183 10.9472 150.953 11.5003C150.826 11.8806 150.814 12.2954 150.941 12.6757C150.941 12.6757 150.941 12.6872 150.953 12.6872C150.964 12.6872 150.964 12.6872 150.964 12.6757C150.964 12.6642 150.964 12.6527 150.964 12.6411C150.953 11.846 151.483 11.1316 152.256 10.9242C152.256 10.9242 152.268 10.9242 152.268 10.9357C152.268 10.9357 152.268 10.9357 152.268 10.9472C151.472 11.5695 151.218 12.6757 151.679 13.5745C151.679 13.5745 151.679 13.5745 151.691 13.5745C151.691 13.5745 151.691 13.5745 151.691 13.563C151.552 12.8025 151.841 12.0304 152.429 11.5349C152.441 11.5349 152.441 11.5349 152.441 11.5464C151.991 12.3761 152.106 13.3902 152.718 14.1046C152.718 14.1161 152.729 14.1046 152.729 14.0931C152.579 13.7243 152.372 12.4452 153.098 11.9843H153.11C153.283 13.6206 153.248 15.2569 153.018 16.8817C152.464 16.4438 151.852 16.0751 151.195 15.81C151.114 15.787 151.045 15.7524 150.976 15.7294C150.422 15.545 149.833 15.4643 149.257 15.4874C148.634 15.5104 148.034 15.6602 147.48 15.9368C147.411 15.9714 147.353 16.0059 147.307 16.029C147.295 16.0405 147.295 16.0405 147.307 16.052C147.307 16.052 147.318 16.0635 147.33 16.0635C147.388 16.052 147.434 16.029 147.491 16.0175C148.068 15.8561 148.668 15.7985 149.268 15.8446C149.868 15.9022 150.445 16.052 150.987 16.3055C151.726 16.6512 152.418 17.1006 153.041 17.6307C152.395 18.253 151.702 18.8291 150.987 19.3707C150.964 19.3822 150.941 19.3938 150.918 19.4053C150.756 19.1863 150.456 19.1402 150.249 19.3016C150.156 19.3707 150.087 19.4629 150.064 19.5781C150.03 19.7279 150.064 19.8777 150.156 19.993C150.376 20.2119 150.71 20.258 150.987 20.1082C151.587 19.8547 152.337 19.0711 153.26 18.2299C153.341 18.1608 153.41 18.0916 153.491 18.0225C153.571 18.0916 153.641 18.1608 153.721 18.2299C154.137 18.6102 154.518 18.9789 154.864 19.29C155.002 19.4168 155.141 19.5436 155.279 19.6473C155.464 19.7971 155.648 19.9354 155.856 20.0506C156.133 20.258 156.513 20.2465 156.779 20.0275C156.79 20.016 156.802 20.0045 156.825 19.993C156.917 19.8777 156.94 19.7279 156.917 19.5781C156.894 19.4859 156.848 19.4053 156.779 19.3477C156.721 19.29 156.64 19.244 156.56 19.2209C156.375 19.1748 156.179 19.2555 156.064 19.4053C155.994 19.3707 155.925 19.3246 155.867 19.2785C155.671 19.1403 155.475 18.9789 155.291 18.8176C155.164 18.7024 155.025 18.5756 154.875 18.4489C154.587 18.1953 154.275 17.9073 153.952 17.6192C154.252 17.3772 154.564 17.1352 154.875 16.9278C155.014 16.8356 155.152 16.7549 155.291 16.6628C155.475 16.5475 155.671 16.4553 155.867 16.3516C156.167 16.2133 156.467 16.0981 156.79 16.0059C157.483 15.81 158.198 15.7639 158.913 15.8792C159.167 15.9253 159.421 15.9829 159.675 16.052C159.686 16.052 159.698 16.052 159.698 16.0405C159.652 16.0635 159.652 16.052 159.64 16.052Z" fill="#CDAE27"/>
</svg>
