<svg width="79" height="79" viewBox="0 0 79 79" fill="none" xmlns="http://www.w3.org/2000/svg">
<path d="M31.2168 32.6614C32.4137 31.0234 33.8889 30.1257 35.2771 29.9392C31.8572 31.8687 32.008 35.8297 32.008 35.8675C32.4195 34.043 34.1063 32.1689 35.3525 31.8483C34.341 32.6439 34.6656 36.4388 35.7351 37.6076C35.4076 35.2438 35.7988 32.7314 37.8739 31.6821L38.442 32.2563L37.8681 32.8392L38.442 33.4222L37.8681 34.0051L38.442 34.588L37.8681 35.168L38.442 35.751L37.8681 36.3339L38.442 36.9168L37.8681 37.4997L38.442 38.0827L37.8681 38.6627L38.442 39.2456L37.8681 39.8285L38.442 40.4114L37.8681 40.9915L38.442 41.5744L37.8681 42.1573L38.442 42.7373L37.4305 43.7196L39.5926 42.8423L41.7547 43.7196L40.7432 42.7373L41.317 42.1573L40.7403 41.5744L41.317 40.9915L40.7403 40.4085L41.317 39.8256L40.7403 39.2456L41.317 38.6627L40.7403 38.0797L41.317 37.4968L40.7403 36.9139L41.317 36.3339L40.7403 35.751L41.317 35.168L40.7403 34.5851L41.317 34.0022L40.7403 33.4222L41.317 32.8392L40.7403 32.2563L41.3112 31.6821C43.3863 32.7343 43.7776 35.2438 43.4472 37.6076C44.5137 36.4388 44.8383 32.6439 43.8297 31.8483C45.076 32.1689 46.7627 34.043 47.1743 35.8675C47.1743 35.8326 47.325 31.8687 43.9051 29.9392C45.2122 30.1024 46.7685 31.0234 47.9655 32.6614C47.9655 32.6265 47.1192 28.9016 43.2878 28.0855C44.9803 27.931 45.7976 28.1758 47.1018 29.1143C45.9078 26.2026 41.8764 26.6165 41.8126 26.6165C42.8096 26.1035 44.0066 25.1184 42.7255 25.2524C40.3287 25.5002 39.5897 23.3288 39.5897 23.3288C39.5897 23.3288 38.8506 25.4973 36.4538 25.2524C35.1728 25.1213 36.3698 26.1035 37.3668 26.6165C37.303 26.6165 33.2716 26.2026 32.0775 29.1143C33.3817 28.1787 34.199 27.931 35.8916 28.0855C32.0601 28.9016 31.2139 32.6294 31.2139 32.6644L31.2168 32.6614Z" fill="#00324B"/>
<path d="M46.5691 51.2744C46.3605 52.3615 45.2997 51.7582 45.1026 51.6445C45.0157 51.595 44.7867 51.4143 44.4737 51.1578L45.0882 50.3825C45.2881 50.1289 45.2475 49.7617 44.9983 49.5606C44.749 49.3595 44.3839 49.4003 44.1839 49.6538L43.5869 50.4087C42.3059 49.3157 40.7003 47.9021 40.7003 47.9021C40.7003 47.9021 46.8213 42.0175 54.4522 41.6298C54.4436 41.6298 49.7485 39.1874 43.1956 43.8945C42.0798 44.696 39.7091 46.7742 39.5989 46.8704C39.4888 46.7742 37.1181 44.696 36.0022 43.8945C29.4494 39.1874 24.7572 41.6269 24.7456 41.6298C32.3766 42.0175 38.4947 47.8992 38.4976 47.9021C38.4976 47.9021 36.892 49.3157 35.611 50.4087L35.014 49.6538C34.814 49.4003 34.4488 49.3595 34.1996 49.5606C33.9503 49.7617 33.9069 50.1318 34.1097 50.3825L34.7242 51.1578C34.414 51.4143 34.1822 51.595 34.0952 51.6445C33.8982 51.7582 32.8374 52.3615 32.6288 51.2744C32.4752 50.4758 31.4492 50.1756 31.0666 51.0733C30.6783 51.9885 31.313 53.0494 32.3273 53.3496C33.2113 53.6119 34.0402 53.4574 34.7821 52.9153C34.9125 52.8191 35.2082 52.5772 35.5936 52.2566L36.1356 52.9415C36.1588 52.9707 36.1588 53.0115 36.1327 53.0377C35.9066 53.2651 35.9066 53.6382 36.1327 53.8655C36.2457 53.9792 36.3935 54.0374 36.5442 54.0374C36.692 54.0374 36.8398 53.9792 36.9558 53.8655C37.4108 53.405 37.4427 52.6821 37.0369 52.1983L36.4863 51.5046C37.8455 50.3533 39.5033 48.9223 39.6047 48.8348C39.7062 48.9223 41.3668 50.3533 42.7232 51.5046L42.1841 52.1867C41.7697 52.6851 41.7987 53.405 42.2537 53.8655C42.3667 53.9792 42.5145 54.0374 42.6653 54.0374C42.816 54.0374 42.9608 53.9792 43.0768 53.8655C43.3028 53.6382 43.3028 53.2651 43.0768 53.0377C43.0507 53.0115 43.0478 52.9707 43.0826 52.9299L43.6158 52.2566C44.0013 52.5772 44.2969 52.8191 44.4274 52.9153C45.1693 53.4574 45.9982 53.6148 46.8821 53.3496C47.8965 53.0465 48.5312 51.9855 48.1428 51.0733C47.7603 50.1756 46.7343 50.4758 46.5807 51.2744H46.5691Z" fill="#00324B"/>
<path d="M38.9932 0V13.7921L35.0661 17.7414H21.3286L38.9932 0Z" fill="#00324B"/>
<path d="M19.2794 19.7962V33.6174L13.9525 38.9745H0.183105L19.2794 19.7962Z" fill="#00324B"/>
<path d="M37.4948 77.3135L0.194824 40.1928H14.2366L24.5166 50.5281L37.4948 77.3135Z" fill="#00324B"/>
<path d="M26.4929 26.3628L20.4878 32.399V19.8924L26.4929 26.3628Z" fill="#00324B"/>
<path d="M57.8628 17.7414H44.1195L40.1982 13.7979V0L57.8628 17.7414Z" fill="#00324B"/>
<path d="M78.9997 38.9745H65.2333L59.9121 33.6233V19.7962L78.9997 38.9745Z" fill="#00324B"/>
<path d="M58.7067 19.8924V32.4107L52.6929 26.3628L58.7067 19.8924Z" fill="#00324B"/>
<path d="M33.8546 18.9568L27.351 25.5001L21.2764 18.9568H33.8546Z" fill="#00324B"/>
<path d="M57.9156 18.9568L51.838 25.503L45.3286 18.9568H57.9156Z" fill="#00324B"/>
<path d="M52.0637 53.1513L39.5985 78.87L27.1362 53.1658L39.5927 65.6871L52.0637 53.1513Z" fill="#00324B"/>
<path d="M78.9972 40.1928L41.703 77.3077L41.6943 77.3164L54.6783 50.5135L64.9496 40.1928H78.9972Z" fill="#00324B"/>
</svg>
