<svg width="42" height="48" viewBox="0 0 42 48" fill="none" xmlns="http://www.w3.org/2000/svg">
<path d="M9.56081 30.5876C17.7845 32.1377 23.3696 36.9891 27.2034 40.7401C27.0259 41.0832 26.872 41.4619 26.7064 41.876C26.6117 42.1245 26.5171 42.3493 26.4224 42.5505C22.6714 38.8824 12.1048 31.0018 0 32.8004C0 32.8122 3.71546 29.4872 9.56081 30.5876Z" fill="white"/>
<path d="M34.9301 45.9345C34.9301 46.5143 34.374 47.1533 33.3682 47.1533C32.4216 47.1533 30.3864 46.5498 27.5939 43.781C27.7477 43.4733 27.8897 43.142 28.0199 42.8107C28.15 42.4912 28.2802 42.2072 28.3985 41.9588C30.4574 44.0058 31.9246 45.4967 33.0014 45.4967C33.0014 45.4967 33.0369 44.7513 33.7824 44.7513C34.5278 44.7513 34.9301 45.3429 34.9301 45.9345Z" fill="white"/>
<path d="M30.0789 38.6455C28.8364 38.6455 27.878 39.8525 27.0379 42.006C25.9019 44.9287 24.8843 44.7749 24.6477 44.7394C24.3282 44.6802 24.0797 44.2661 24.2099 44.1951C24.3637 44.1241 24.2572 44.5264 24.766 44.6329C24.9908 44.6802 25.7954 44.4435 25.5115 43.6863C25.405 43.4023 24.9198 43.1301 24.3282 43.1301C23.7366 43.1301 23.0029 43.4496 23.0029 44.3489C23.0029 45.2482 23.5472 45.8635 24.7897 45.8635C26.0321 45.8635 26.8485 44.7394 27.7005 42.6686C28.9903 39.5566 29.9251 39.7105 30.2209 39.7815C30.5404 39.8525 30.7888 40.2548 30.6587 40.3258C30.5048 40.3968 30.6113 39.9945 30.1025 39.888C29.8777 39.8406 29.0731 40.0773 29.3571 40.8346C29.4636 41.1186 29.9487 41.3907 30.5403 41.3907C31.132 41.3907 31.8656 41.0712 31.8656 40.1719C31.8656 39.2608 31.3213 38.6455 30.0789 38.6455Z" fill="white"/>
<path d="M32.0075 30.5876C23.7838 32.1377 18.1988 36.9891 14.365 40.7401C14.5425 41.0832 14.6963 41.4619 14.862 41.876C14.9566 42.1245 15.0513 42.3493 15.1459 42.5505C18.8969 38.8824 29.4635 31.0018 41.5683 32.8004C41.5683 32.8122 37.8529 29.4872 32.0075 30.5876Z" fill="white"/>
<path d="M6.63806 45.9345C6.63806 46.5143 7.1942 47.1533 8.19998 47.1533C9.14659 47.1533 11.1818 46.5498 13.9743 43.781C13.8205 43.4733 13.6785 43.142 13.5484 42.8107C13.4182 42.4912 13.288 42.2072 13.1697 41.9588C11.1108 44.0058 9.64357 45.4967 8.5668 45.4967C8.5668 45.4967 8.53129 44.7513 7.78583 44.7513C7.02854 44.7394 6.63806 45.3429 6.63806 45.9345Z" fill="white"/>
<path d="M11.4897 38.6455C12.7322 38.6455 13.6906 39.8525 14.5307 42.006C15.6667 44.9287 16.6843 44.7749 16.9209 44.7394C17.2404 44.6802 17.4889 44.2661 17.3588 44.1951C17.2049 44.1241 17.3114 44.5264 16.8026 44.6329C16.5778 44.6802 15.7732 44.4435 16.0572 43.6863C16.1637 43.4023 16.6488 43.1301 17.2404 43.1301C17.8321 43.1301 18.5657 43.4496 18.5657 44.3489C18.5657 45.2482 18.0214 45.8635 16.779 45.8635C15.5365 45.8635 14.7201 44.7394 13.8681 42.6686C12.5783 39.5566 11.6436 39.7105 11.3477 39.7815C11.0283 39.8525 10.7798 40.2548 10.9099 40.3258C11.0638 40.3968 10.9573 39.9945 11.4661 39.888C11.6909 39.8406 12.4955 40.0773 12.2115 40.8346C12.105 41.1186 11.6199 41.3907 11.0283 41.3907C10.4366 41.3907 9.703 41.0712 9.703 40.1719C9.703 39.2608 10.2473 38.6455 11.4897 38.6455Z" fill="white"/>
<path d="M25.7006 10.2234C30.0668 11.2056 32.4097 15.5955 30.4928 20.7664C30.0313 15.205 27.8186 13.8916 25.1918 13.2053C28.4812 15.844 28.6114 19.0151 26.7892 22.1745C26.6945 18.0212 25.2273 15.7493 22.7897 14.8264C22.7897 14.8264 23.1447 15.4062 22.9554 16.0215C22.6832 16.8853 21.9733 16.8261 21.9141 18.0449H22.8844L21.9141 20.6599H22.8844L21.9141 23.2749H22.8844L21.9141 25.8899H22.8844L21.9141 28.505H22.8489C22.8489 28.505 21.7958 30.3509 21.7958 30.8478C21.7958 31.3448 22.1626 31.3093 22.1626 31.3093L23.476 30.1734L22.9317 31.7353L24.0913 31.1318L23.8073 31.9364L25.5112 31.617C23.8073 32.3624 22.2454 33.238 20.8018 34.1965C19.3819 33.2499 17.8437 32.3979 16.1634 31.6525L17.6662 31.9364L17.3822 31.1318L18.5418 31.7353L17.9975 30.1734L19.3109 31.3093C19.3109 31.3093 19.6777 31.3448 19.6777 30.8478C19.6777 30.3627 18.6246 28.505 18.6246 28.505H19.5476L18.5773 25.8899H19.5476L18.5773 23.2749H19.5476L18.5773 20.6599H19.5476L18.5773 18.0449H19.5476C19.4884 16.8261 18.7784 16.8853 18.5063 16.0215C18.317 15.4062 18.6719 14.8264 18.6719 14.8264C16.2344 15.7493 14.779 18.0094 14.6725 22.1745C12.8503 19.0151 12.9804 15.844 16.2699 13.2053C13.6431 13.8916 11.4303 15.205 10.9689 20.7664C9.05197 15.5955 11.3948 11.2056 15.7611 10.2234C11.8918 10.5074 9.24129 12.7438 8.16451 17.5716C7.32439 13.4183 8.57866 8.40121 15.3706 7.33627C12.6018 6.81563 10.1287 7.25344 8.17634 9.37149C9.71459 6.54348 11.809 4.40176 16.0806 5.01706C15.6546 4.18877 14.1992 3.57347 11.6433 3.21849C13.856 2.52036 16.0214 2.29554 17.9738 3.86929C17.7253 2.76885 16.8852 1.83407 15.6309 1.00578C17.2875 1.14777 18.9678 1.75124 19.8907 3.49064C19.9144 2.76885 19.9617 2.11805 20.0919 1.53825C20.2102 0.958448 20.4114 0.449642 20.7308 0C21.3698 0.899285 21.5236 2.03522 21.571 3.49064C22.4939 1.75124 24.1742 1.14777 25.8307 1.00578C24.5765 1.83407 23.7245 2.78068 23.4878 3.86929C25.4402 2.28371 27.6056 2.52036 29.8183 3.21849C27.2506 3.58531 25.7952 4.18877 25.3811 5.01706C29.6527 4.40176 31.7471 6.54348 33.2853 9.37149C31.3329 7.25344 28.8599 6.81563 26.091 7.33627C32.8948 8.40121 34.1491 13.4183 33.2972 17.5716C32.2204 12.7438 29.5698 10.5074 25.7006 10.2234Z" fill="white"/>
</svg>
