<svg width="80" height="79" viewBox="0 0 80 79" fill="none" xmlns="http://www.w3.org/2000/svg">
<path d="M31.603 32.566C32.8032 30.9327 34.2824 30.0376 35.6744 29.8516C32.2452 31.7755 32.3964 35.7249 32.3964 35.7627C32.809 33.9435 34.5004 32.0748 35.75 31.7551C34.7358 32.5485 35.0613 36.3323 36.1336 37.4976C35.8052 35.1408 36.1976 32.6357 38.2784 31.5895L38.8479 32.162L38.2725 32.7432L38.8479 33.3245L38.2725 33.9057L38.8479 34.4869L38.2725 35.0652L38.8479 35.6464L38.2725 36.2277L38.8479 36.8089L38.2725 37.3901L38.8479 37.9713L38.2725 38.5497L38.8479 39.1309L38.2725 39.7121L38.8479 40.2933L38.2725 40.8716L38.8479 41.4529L38.2725 42.0341L38.8479 42.6124L37.8337 43.5918L40.0017 42.717L42.1696 43.5918L41.1554 42.6124L41.7308 42.0341L41.1525 41.4529L41.7308 40.8716L41.1525 40.2904L41.7308 39.7092L41.1525 39.1309L41.7308 38.5497L41.1525 37.9684L41.7308 37.3872L41.1525 36.806L41.7308 36.2277L41.1525 35.6464L41.7308 35.0652L41.1525 34.484L41.7308 33.9028L41.1525 33.3245L41.7308 32.7432L41.1525 32.162L41.725 31.5895C43.8058 32.6386 44.1981 35.1408 43.8668 37.4976C44.9363 36.3323 45.2617 32.5485 44.2504 31.7551C45.5 32.0748 47.1914 33.9435 47.6041 35.7627C47.6041 35.7278 47.7552 31.7755 44.326 29.8516C45.6366 30.0144 47.1972 30.9327 48.3974 32.566C48.3974 32.5311 47.5488 28.8171 43.707 28.0034C45.4041 27.8493 46.2237 28.0934 47.5314 29.0292C46.3341 26.126 42.2917 26.5387 42.2278 26.5387C43.2275 26.0272 44.4277 25.0449 43.1432 25.1786C40.7398 25.4256 39.9988 23.2606 39.9988 23.2606C39.9988 23.2606 39.2577 25.4227 36.8543 25.1786C35.5698 25.0478 36.7701 26.0272 37.7698 26.5387C37.7058 26.5387 33.6634 26.126 32.4661 29.0292C33.7739 28.0964 34.5934 27.8493 36.2906 28.0034C32.4487 28.8171 31.6001 32.534 31.6001 32.5689L31.603 32.566Z" fill="white"/>
<path d="M46.9966 51.1244C46.7874 52.2084 45.7237 51.6068 45.5261 51.4935C45.4389 51.4441 45.2093 51.2639 44.8955 51.0082L45.5116 50.2352C45.7121 49.9823 45.6714 49.6162 45.4215 49.4156C45.1716 49.2151 44.8054 49.2558 44.6049 49.5086L44.0062 50.2613C42.7217 49.1715 41.1117 47.762 41.1117 47.762C41.1117 47.762 47.2494 41.8946 54.9012 41.5081C54.8925 41.5081 50.1846 39.0728 43.6139 43.7661C42.495 44.5653 40.1178 46.6374 40.0074 46.7333C39.8969 46.6374 37.5197 44.5653 36.4009 43.7661C29.8301 39.0728 25.1251 41.5052 25.1135 41.5081C32.7653 41.8946 38.9002 47.7591 38.9031 47.762C38.9031 47.762 37.2931 49.1715 36.0086 50.2613L35.4099 49.5086C35.2094 49.2558 34.8432 49.2151 34.5933 49.4156C34.3434 49.6162 34.2998 49.9852 34.5032 50.2352L35.1193 51.0082C34.8083 51.2639 34.5758 51.4441 34.4887 51.4935C34.291 51.6068 33.2274 52.2084 33.0182 51.1244C32.8642 50.3282 31.8354 50.0288 31.4518 50.9239C31.0624 51.8364 31.6988 52.8943 32.7159 53.1936C33.6023 53.4551 34.4334 53.3011 35.1774 52.7606C35.3082 52.6647 35.6046 52.4235 35.9911 52.1038L36.5346 52.7867C36.5578 52.8158 36.5578 52.8565 36.5317 52.8826C36.305 53.1093 36.305 53.4813 36.5317 53.708C36.645 53.8213 36.7932 53.8794 36.9444 53.8794C37.0926 53.8794 37.2408 53.8213 37.357 53.708C37.8133 53.2488 37.8452 52.5281 37.4384 52.0457L36.8862 51.354C38.2492 50.2061 39.9115 48.7792 40.0132 48.692C40.1149 48.7792 41.7801 50.2061 43.1402 51.354L42.5996 52.034C42.1841 52.531 42.2131 53.2488 42.6694 53.708C42.7827 53.8213 42.931 53.8794 43.0821 53.8794C43.2332 53.8794 43.3785 53.8213 43.4947 53.708C43.7214 53.4813 43.7214 53.1093 43.4947 52.8826C43.4686 52.8565 43.4657 52.8158 43.5005 52.7751L44.0353 52.1038C44.4218 52.4235 44.7182 52.6647 44.849 52.7606C45.5929 53.3011 46.4241 53.458 47.3105 53.1936C48.3276 52.8913 48.964 51.8335 48.5746 50.9239C48.191 50.0288 47.1622 50.3282 47.0082 51.1244H46.9966Z" fill="white"/>
<path d="M39.4 0V13.7518L35.4622 17.6895H21.6873L39.4 0Z" fill="white"/>
<path d="M19.6325 19.7384V33.5192L14.2911 38.8606H0.484131L19.6325 19.7384Z" fill="white"/>
<path d="M37.8976 77.0877L0.49585 40.0754H14.576L24.884 50.3805L37.8976 77.0877Z" fill="white"/>
<path d="M26.866 26.2858L20.8445 32.3044V19.8343L26.866 26.2858Z" fill="white"/>
<path d="M58.3217 17.6895H44.5408L40.6089 13.7576V0L58.3217 17.6895Z" fill="white"/>
<path d="M79.5159 38.8606H65.7119L60.3762 33.525V19.7384L79.5159 38.8606Z" fill="white"/>
<path d="M59.1674 19.8343V32.316L53.1372 26.2858L59.1674 19.8343Z" fill="white"/>
<path d="M34.2473 18.9014L27.726 25.4256L21.6348 18.9014H34.2473Z" fill="white"/>
<path d="M58.374 18.9014L52.2798 25.4285L45.7527 18.9014H58.374Z" fill="white"/>
<path d="M52.5065 52.996L40.0073 78.6396L27.511 53.0105L40.0015 65.4952L52.5065 52.996Z" fill="white"/>
<path d="M79.5131 40.0754L42.1171 77.0819L42.1084 77.0906L55.1278 50.3659L65.4271 40.0754H79.5131Z" fill="white"/>
</svg>
