<svg width="58" height="66" viewBox="0 0 58 66" fill="none" xmlns="http://www.w3.org/2000/svg">
<path d="M13.3401 42.6786C24.8145 44.8414 32.6073 51.6105 37.9565 56.8442C37.7088 57.323 37.4942 57.8513 37.2631 58.4292C37.131 58.7759 36.9989 59.0896 36.8668 59.3702C31.6332 54.2521 16.8897 43.2565 0 45.766C0 45.7825 5.18414 41.1432 13.3401 42.6786Z" fill="#01794C"/>
<path d="M48.7379 64.092C48.7379 64.9009 47.9619 65.7925 46.5586 65.7925C45.2378 65.7925 42.3981 64.9505 38.5017 61.0871C38.7163 60.6579 38.9145 60.1956 39.0961 59.7333C39.2777 59.2875 39.4593 58.8913 39.6244 58.5446C42.4971 61.4008 44.5444 63.4811 46.0468 63.4811C46.0468 63.4811 46.0963 62.441 47.1364 62.441C48.1766 62.441 48.7379 63.2665 48.7379 64.092Z" fill="#01794C"/>
<path d="M41.9687 53.9217C40.2351 53.9217 38.8978 55.6057 37.7256 58.6105C36.1406 62.6885 34.7208 62.4739 34.3906 62.4243C33.9448 62.3418 33.5981 61.7639 33.7797 61.6649C33.9943 61.5658 33.8458 62.1272 34.5557 62.2758C34.8694 62.3418 35.9921 62.0116 35.5958 60.9549C35.4472 60.5587 34.7703 60.179 33.9448 60.179C33.1193 60.179 32.0957 60.6248 32.0957 61.8795C32.0957 63.1343 32.8552 63.9928 34.5887 63.9928C36.3223 63.9928 37.4614 62.4243 38.6502 59.5351C40.4498 55.1929 41.7541 55.4076 42.1668 55.5066C42.6126 55.6057 42.9593 56.167 42.7777 56.2661C42.563 56.3652 42.7116 55.8038 42.0017 55.6552C41.688 55.5892 40.5653 55.9194 40.9616 56.976C41.1102 57.3723 41.7871 57.752 42.6126 57.752C43.4381 57.752 44.4617 57.3062 44.4617 56.0515C44.4617 54.7802 43.7022 53.9217 41.9687 53.9217Z" fill="#01794C"/>
<path d="M44.6599 42.6786C33.1854 44.8414 25.3927 51.6105 20.0435 56.8442C20.2911 57.323 20.5057 57.8513 20.7369 58.4292C20.8689 58.7759 21.001 59.0896 21.1331 59.3702C26.3668 54.2521 41.1102 43.2565 58 45.766C58 45.7825 52.8158 41.1432 44.6599 42.6786Z" fill="#01794C"/>
<path d="M9.26196 64.092C9.26196 64.9009 10.0379 65.7925 11.4413 65.7925C12.7621 65.7925 15.6018 64.9505 19.4982 61.0871C19.2835 60.6579 19.0854 60.1956 18.9038 59.7333C18.7222 59.2875 18.5406 58.8913 18.3755 58.5446C15.5027 61.4008 13.4555 63.4811 11.9531 63.4811C11.9531 63.4811 11.9036 62.441 10.8634 62.441C9.80679 62.4244 9.26196 63.2665 9.26196 64.092Z" fill="#01794C"/>
<path d="M16.0313 53.9217C17.7649 53.9217 19.1022 55.6057 20.2744 58.6105C21.8594 62.6885 23.2792 62.4739 23.6094 62.4243C24.0552 62.3418 24.4019 61.7639 24.2203 61.6649C24.0057 61.5658 24.1543 62.1272 23.4443 62.2758C23.1306 62.3418 22.008 62.0116 22.4042 60.9549C22.5528 60.5587 23.2297 60.179 24.0552 60.179C24.8807 60.179 25.9043 60.6248 25.9043 61.8795C25.9043 63.1343 25.1449 63.9928 23.4113 63.9928C21.6778 63.9928 20.5386 62.4243 19.3499 59.5351C17.5503 55.1929 16.246 55.4076 15.8332 55.5066C15.3875 55.6057 15.0407 56.167 15.2224 56.2661C15.437 56.3652 15.2884 55.8038 15.9983 55.6552C16.312 55.5892 17.4347 55.9194 17.0385 56.976C16.8899 57.3723 16.213 57.752 15.3875 57.752C14.562 57.752 13.5383 57.3062 13.5383 56.0515C13.5383 54.7802 14.2978 53.9217 16.0313 53.9217Z" fill="#01794C"/>
<path d="M35.8598 14.2647C41.952 15.635 45.221 21.7602 42.5463 28.9751C41.9025 21.2154 38.8151 19.3828 35.1499 18.4252C39.7397 22.1069 39.9213 26.5316 37.3787 30.9398C37.2466 25.1448 35.1994 21.9748 31.7983 20.6871C31.7983 20.6871 32.2936 21.4961 32.0295 22.3546C31.6497 23.5598 30.6592 23.4773 30.5766 25.1778H31.9304L30.5766 28.8265H31.9304L30.5766 32.4752H31.9304L30.5766 36.1239H31.9304L30.5766 39.7727H31.8809C31.8809 39.7727 30.4115 42.3482 30.4115 43.0416C30.4115 43.7351 30.9233 43.6855 30.9233 43.6855L32.7559 42.1006L31.9965 44.2799L33.6144 43.4379L33.2182 44.5606L35.5956 44.1148C33.2182 45.1549 31.0389 46.3767 29.0247 47.714C27.0435 46.3932 24.8972 45.2045 22.5527 44.1643L24.6495 44.5606L24.2533 43.4379L25.8713 44.2799L25.1118 42.1006L26.9444 43.6855C26.9444 43.6855 27.4562 43.7351 27.4562 43.0416C27.4562 42.3647 25.9868 39.7727 25.9868 39.7727H27.2746L25.9208 36.1239H27.2746L25.9208 32.4752H27.2746L25.9208 28.8265H27.2746L25.9208 25.1778H27.2746C27.1921 23.4773 26.2015 23.5598 25.8217 22.3546C25.5576 21.4961 26.0529 20.6871 26.0529 20.6871C22.6518 21.9748 20.6211 25.1283 20.4725 30.9398C17.9299 26.5316 18.1115 22.1069 22.7013 18.4252C19.0361 19.3828 15.9487 21.2154 15.3049 28.9751C12.6302 21.7602 15.8992 15.635 21.9914 14.2647C16.5926 14.6609 12.8944 17.7813 11.392 24.5174C10.2198 18.7224 11.9698 11.7221 21.4466 10.2362C17.5832 9.50978 14.1326 10.1206 11.4085 13.0759C13.5548 9.13004 16.4771 6.14173 22.4372 7.00025C21.8428 5.84455 19.8121 4.98603 16.2459 4.49073C19.3333 3.51663 22.3546 3.20294 25.0788 5.39878C24.7321 3.86335 23.5598 2.55905 21.8098 1.40335C24.1212 1.60147 26.4656 2.44348 27.7534 4.87046C27.7864 3.86335 27.8524 2.95529 28.0341 2.1463C28.1992 1.33731 28.4798 0.627381 28.9256 0C29.8171 1.25476 30.0318 2.83972 30.0978 4.87046C31.3856 2.44348 33.73 1.60147 36.0414 1.40335C34.2914 2.55905 33.1026 3.87986 32.7724 5.39878C35.4966 3.18643 38.5179 3.51663 41.6053 4.49073C38.0226 5.00254 35.9919 5.84455 35.414 7.00025C41.3741 6.14173 44.2964 9.13004 46.4427 13.0759C43.7186 10.1206 40.268 9.50978 36.4046 10.2362C45.8979 11.7221 47.6479 18.7224 46.4592 24.5174C44.9568 17.7813 41.2586 14.6609 35.8598 14.2647Z" fill="#01794C"/>
</svg>
