<svg width="15" height="15" viewBox="0 0 15 15" fill="none" xmlns="http://www.w3.org/2000/svg">
<path fill-rule="evenodd" clip-rule="evenodd" d="M1.00001 3.83335C1.00001 2.26855 2.26853 1.00002 3.83334 1.00002C5.39815 1.00002 6.66667 2.26855 6.66667 3.83335C6.66667 4.88146 6.09783 5.79729 5.24964 6.28794C5.09515 6.37732 5 6.54226 5 6.72075V7.94447C5 8.41729 4.99409 8.54189 4.95724 8.65243C4.92039 8.76298 4.85037 8.8662 4.56667 9.24446L4.1 9.86669C3.96667 10.0445 3.96667 10.2889 4.1 10.4667L4.92164 11.5622L5.32164 11.2622L4.92164 11.5622C4.94511 11.5935 4.95811 11.6109 4.96774 11.6243C4.97613 11.636 4.97741 11.6384 4.97673 11.6373C4.98884 11.6577 4.99644 11.6805 4.99902 11.7042C4.99888 11.7029 4.99932 11.7056 4.99963 11.72C4.99998 11.7365 5 11.7582 5 11.7973C5 11.8456 4.99997 11.8725 4.99944 11.893C4.99911 11.9059 4.99867 11.9113 4.99853 11.9126C4.99469 11.9414 4.98342 11.9686 4.96583 11.9917C4.96672 11.9905 4.96459 11.9936 4.95255 12.0062C4.93843 12.0211 4.91938 12.0402 4.88525 12.0743L5.2388 12.4279L4.88525 12.0743L3.83334 13.1262L3.30127 12.5942C2.88705 12.18 2.78469 12.0651 2.73011 11.9333C2.67552 11.8015 2.66667 11.6479 2.66667 11.0621V6.72075C2.66667 6.54226 2.57153 6.37731 2.41703 6.28794C1.56884 5.79729 1.00001 4.88146 1.00001 3.83335ZM3.83334 2.03252e-05C1.71625 2.03252e-05 5.06639e-06 1.71626 5.06639e-06 3.83335C5.06639e-06 5.14701 0.661015 6.30577 1.66667 6.996V11.0621L1.66662 11.1427C1.66617 11.6084 1.66582 11.977 1.80623 12.316C1.94663 12.655 2.20752 12.9153 2.53716 13.2444L2.59417 13.3013L3.47978 14.1869C3.67505 14.3822 3.99163 14.3822 4.18689 14.1869L5.59235 12.7814L5.60512 12.7687L5.60514 12.7687C5.65701 12.7169 5.71234 12.6617 5.76013 12.5992L5.36294 12.2955L5.76014 12.5992C5.8837 12.4376 5.96286 12.2465 5.98976 12.0448C6.00017 11.9668 6.00009 11.8886 6.00002 11.8153L6 11.7973L6.00001 11.7827C6.00006 11.7233 6.00011 11.6598 5.99312 11.5957C5.97508 11.4303 5.92188 11.2707 5.83708 11.1276C5.80425 11.0722 5.76611 11.0214 5.73041 10.9739L5.73038 10.9738L5.73038 10.9738L5.73037 10.9738L5.72164 10.9622L5.125 10.1667L5.36667 9.84447L5.40555 9.79268L5.40556 9.79267C5.63216 9.49103 5.81128 9.25259 5.90592 8.96866C6.00057 8.68473 6.00033 8.3865 6.00004 8.00924L6 7.94447V6.996C7.00566 6.30577 7.66667 5.14701 7.66667 3.83335C7.66667 1.71626 5.95043 2.03252e-05 3.83334 2.03252e-05ZM3.83334 3.16669C3.46515 3.16669 3.16667 3.46516 3.16667 3.83335C3.16667 4.20154 3.46515 4.50002 3.83334 4.50002H3.83933C4.20752 4.50002 4.50599 4.20154 4.50599 3.83335C4.50599 3.46516 4.20752 3.16669 3.83933 3.16669H3.83334ZM12.5288 9.01155C12.3639 9.00029 12.1508 9.00002 11.8333 9.00002H7.83334C7.5572 9.00002 7.33334 8.77616 7.33334 8.50002C7.33334 8.22388 7.5572 8.00002 7.83334 8.00002H11.8502C12.1465 8.00002 12.3938 8.00001 12.5969 8.01387C12.8083 8.02829 13.008 8.05939 13.2016 8.13957C13.6508 8.32565 14.0077 8.68255 14.1938 9.13177C14.274 9.32536 14.3051 9.52504 14.3195 9.73644C14.3333 9.93952 14.3333 10.1869 14.3333 10.4832V10.5169C14.3333 10.8132 14.3333 11.0605 14.3195 11.2636C14.3051 11.475 14.274 11.6747 14.1938 11.8683C14.0077 12.3175 13.6508 12.6744 13.2016 12.8605C13.008 12.9407 12.8083 12.9718 12.5969 12.9862C12.3938 13 12.1465 13 11.8502 13H7.83334C7.5572 13 7.33334 12.7762 7.33334 12.5C7.33334 12.2239 7.5572 12 7.83334 12H11.8333C12.1508 12 12.3639 11.9997 12.5288 11.9885C12.6893 11.9775 12.7675 11.9579 12.8189 11.9366C13.0231 11.852 13.1853 11.6898 13.2699 11.4856C13.2912 11.4342 13.3109 11.356 13.3218 11.1955C13.3331 11.0306 13.3333 10.8175 13.3333 10.5C13.3333 10.1826 13.3331 9.96949 13.3218 9.80451C13.3109 9.64403 13.2912 9.56589 13.2699 9.51445C13.1853 9.31026 13.0231 9.14803 12.8189 9.06345C12.7675 9.04215 12.6893 9.0225 12.5288 9.01155ZM11.8333 3.00002C12.1508 3.00002 12.3639 3.00029 12.5288 3.01155C12.6893 3.0225 12.7675 3.04215 12.8189 3.06345C13.0231 3.14803 13.1853 3.31026 13.2699 3.51445C13.2912 3.56589 13.3109 3.64403 13.3218 3.80452C13.3331 3.96949 13.3333 4.18255 13.3333 4.50002C13.3333 4.81749 13.3331 5.03055 13.3218 5.19553C13.3109 5.35601 13.2912 5.43415 13.2699 5.48559C13.1853 5.68978 13.0231 5.85201 12.8189 5.93659C12.7675 5.95789 12.6893 5.97754 12.5288 5.98849C12.3639 5.99975 12.1508 6.00002 11.8333 6.00002H9.16667C8.89053 6.00002 8.66667 6.22388 8.66667 6.50002C8.66667 6.77616 8.89053 7.00002 9.16667 7.00002H11.8502C12.1465 7.00003 12.3938 7.00003 12.5969 6.98617C12.8083 6.97175 13.008 6.94066 13.2016 6.86047C13.6508 6.67439 14.0077 6.31749 14.1938 5.86827C14.274 5.67468 14.3051 5.475 14.3195 5.2636C14.3333 5.06053 14.3333 4.81319 14.3333 4.51691V4.51686V4.48318V4.48313C14.3333 4.18685 14.3333 3.93951 14.3195 3.73644C14.3051 3.52504 14.274 3.32536 14.1938 3.13177C14.0077 2.68255 13.6508 2.32565 13.2016 2.13957C13.008 2.05939 12.8083 2.02829 12.5969 2.01387C12.3938 2.00001 12.1465 2.00002 11.8502 2.00002H9.16667C8.89053 2.00002 8.66667 2.22388 8.66667 2.50002C8.66667 2.77616 8.89053 3.00002 9.16667 3.00002H11.8333Z" fill="#161616"/>
</svg>
