<svg width="14" height="14" viewBox="0 0 14 14" fill="none" xmlns="http://www.w3.org/2000/svg">
<path d="M7.33333 4.16667C7.33333 3.89052 7.10948 3.66667 6.83333 3.66667C6.55719 3.66667 6.33333 3.89052 6.33333 4.16667V6.33333H4.16667C3.89052 6.33333 3.66667 6.55719 3.66667 6.83333C3.66667 7.10948 3.89052 7.33333 4.16667 7.33333H6.33333V9.5C6.33333 9.77614 6.55719 10 6.83333 10C7.10948 10 7.33333 9.77614 7.33333 9.5V7.33333H9.5C9.77614 7.33333 10 7.10948 10 6.83333C10 6.55719 9.77614 6.33333 9.5 6.33333H7.33333V4.16667Z" fill="#161616"/>
<path fill-rule="evenodd" clip-rule="evenodd" d="M6.87145 1.52698e-07H6.79522C5.33475 -8.75048e-06 4.18763 -1.5825e-05 3.29202 0.120396C2.37424 0.243787 1.64607 0.50181 1.07394 1.07394C0.50181 1.64607 0.243787 2.37424 0.120396 3.29202C-1.5825e-05 4.18763 -8.75048e-06 5.33475 1.52705e-07 6.79522V6.87145C-8.75048e-06 8.33192 -1.5825e-05 9.47904 0.120396 10.3747C0.243787 11.2924 0.50181 12.0206 1.07394 12.5927C1.64607 13.1649 2.37424 13.4229 3.29202 13.5463C4.18762 13.6667 5.33474 13.6667 6.7952 13.6667H6.87144C8.33191 13.6667 9.47904 13.6667 10.3747 13.5463C11.2924 13.4229 12.0206 13.1649 12.5927 12.5927C13.1649 12.0206 13.4229 11.2924 13.5463 10.3747C13.6667 9.47904 13.6667 8.33193 13.6667 6.87147V6.79522C13.6667 5.33476 13.6667 4.18762 13.5463 3.29202C13.4229 2.37424 13.1649 1.64607 12.5927 1.07394C12.0206 0.50181 11.2924 0.243787 10.3747 0.120396C9.47904 -1.5825e-05 8.33192 -8.75048e-06 6.87145 1.52698e-07ZM1.78105 1.78105C2.13641 1.42569 2.61838 1.21996 3.42526 1.11148C4.24653 1.00106 5.32642 1 6.83333 1C8.34025 1 9.42014 1.00106 10.2414 1.11148C11.0483 1.21996 11.5303 1.42569 11.8856 1.78105C12.241 2.13641 12.4467 2.61838 12.5552 3.42526C12.6656 4.24653 12.6667 5.32642 12.6667 6.83333C12.6667 8.34025 12.6656 9.42014 12.5552 10.2414C12.4467 11.0483 12.241 11.5303 11.8856 11.8856C11.5303 12.241 11.0483 12.4467 10.2414 12.5552C9.42014 12.6656 8.34025 12.6667 6.83333 12.6667C5.32642 12.6667 4.24653 12.6656 3.42526 12.5552C2.61838 12.4467 2.13641 12.241 1.78105 11.8856C1.42569 11.5303 1.21996 11.0483 1.11148 10.2414C1.00106 9.42014 1 8.34025 1 6.83333C1 5.32642 1.00106 4.24653 1.11148 3.42526C1.21996 2.61838 1.42569 2.13641 1.78105 1.78105Z" fill="#161616"/>
</svg>
