<svg width="16" height="16" viewBox="0 0 16 16" fill="none" xmlns="http://www.w3.org/2000/svg">
<path d="M8 3.33301C8.40695 3.33301 8.7373 3.66337 8.7373 4.07031V7.2627H11.9297C12.3366 7.2627 12.667 7.59305 12.667 8C12.667 8.40695 12.3366 8.7373 11.9297 8.7373H8.7373V11.9297C8.7373 12.3366 8.40695 12.667 8 12.667C7.59305 12.667 7.2627 12.3366 7.2627 11.9297V8.7373H4.07031C3.66337 8.7373 3.33301 8.40695 3.33301 8C3.33301 7.59305 3.66337 7.2627 4.07031 7.2627H7.2627V4.07031C7.2627 3.66337 7.59305 3.33301 8 3.33301Z" fill="black"/>
</svg>
