<svg width="12" height="15" viewBox="0 0 12 15" fill="none" xmlns="http://www.w3.org/2000/svg">
<path d="M7.23633 0.00012207C8.8203 0.0257378 9.95493 0.137268 10.7393 0.921997C11.2381 1.42111 11.4594 2.05413 11.5645 2.83606C11.6665 3.59582 11.667 4.56652 11.667 5.79211V8.14075C11.6674 8.60637 11.6675 8.97476 11.5273 9.3136C11.387 9.65252 11.1263 9.91332 10.7969 10.2423C10.7781 10.2611 10.7585 10.2807 10.7393 10.2999L7.58203 13.4591C7.56543 13.4757 7.54842 13.4917 7.53223 13.5079C7.24814 13.7926 7.02421 14.018 6.73926 14.1544C6.68044 14.1826 6.62008 14.2079 6.55859 14.2296C6.26063 14.3348 5.94219 14.3344 5.54004 14.3341H5.43848C4.38432 14.3341 3.54907 14.3342 2.8877 14.257C2.20873 14.1776 1.64832 14.0108 1.17871 13.632C1.00306 13.4902 0.842798 13.3302 0.701172 13.1544C0.322641 12.6847 0.156409 12.1246 0.0771484 11.4454C-7.55413e-05 10.7837 -7.98702e-06 9.94765 0 8.8927V7.83118C3.97269e-08 7.5551 0.223949 7.33128 0.5 7.33118C0.776143 7.33118 1 7.55503 1 7.83118V8.86047C1 9.95462 1.00067 10.7322 1.07031 11.3292C1.13873 11.9155 1.26834 12.2633 1.48047 12.5265C1.57737 12.6467 1.68647 12.7567 1.80664 12.8536C2.06969 13.0658 2.41803 13.1954 3.00391 13.2638C3.6005 13.3334 4.37729 13.3341 5.4707 13.3341C5.72788 13.3341 5.88879 13.3324 6 13.3253V13.13C5.99999 12.2179 6.00043 11.4826 6.07812 10.9044C6.1588 10.3042 6.33126 9.79897 6.73242 9.39758C7.13369 8.99611 7.63914 8.82303 8.23926 8.74231C8.81721 8.6646 9.55231 8.66515 10.4639 8.66516H10.6553C10.6642 8.537 10.667 8.35191 10.667 8.05969V5.8302C10.667 4.55836 10.6654 3.65437 10.5732 2.96887C10.4831 2.29792 10.3143 1.91133 10.0322 1.62903C9.57475 1.17132 8.86573 1.02674 7.21973 1.00012C6.94377 0.99549 6.72405 0.768311 6.72852 0.49231C6.73305 0.216261 6.96026 -0.00434158 7.23633 0.00012207ZM9.95996 9.66516C9.28315 9.6676 8.77486 9.67934 8.37207 9.73352C7.88308 9.79932 7.62394 9.92003 7.43945 10.1046C7.25502 10.2892 7.13509 10.5489 7.06934 11.0382C7.01523 11.4411 7.00342 11.9493 7.00098 12.6261L9.95996 9.66516ZM3.16699 0.00012207C3.44298 0.000152592 3.66678 0.224176 3.66699 0.500122V0.866333C4.24437 0.979037 4.75262 1.28348 5.12793 1.71008L5.57227 1.43762C5.80756 1.29361 6.11544 1.36747 6.25977 1.60266C6.40407 1.838 6.33003 2.14576 6.09473 2.29016L5.6377 2.57141C5.74293 2.86135 5.79976 3.17439 5.7998 3.50012C5.7998 3.82606 5.74301 4.13971 5.6377 4.42981L6.09473 4.71106C6.33009 4.85549 6.4042 5.1632 6.25977 5.39856C6.1153 5.63382 5.80759 5.70703 5.57227 5.56262L5.12793 5.29016C4.75262 5.71687 4.24443 6.02117 3.66699 6.13391V6.50012C3.66699 6.77625 3.44311 7.00009 3.16699 7.00012C2.89085 7.00012 2.66699 6.77626 2.66699 6.50012V6.13391C2.0895 6.02118 1.58139 5.71689 1.20605 5.29016L0.761719 5.56262C0.526416 5.70702 0.218695 5.63378 0.0742188 5.39856C-0.0701132 5.16336 0.00331246 4.85562 0.238281 4.71106L0.696289 4.42981C0.590964 4.1397 0.533203 3.82607 0.533203 3.50012C0.533249 3.17438 0.591047 2.86136 0.696289 2.57141L0.239258 2.29016C0.00393608 2.14575 -0.0701225 1.83801 0.0742188 1.60266C0.218563 1.36745 0.526415 1.29354 0.761719 1.43762L1.20605 1.71008C1.58136 1.28351 2.08964 0.979032 2.66699 0.866333V0.500122C2.6672 0.224158 2.89098 0.00012207 3.16699 0.00012207ZM3.16699 1.81848C2.27558 1.81848 1.53341 2.56081 1.5332 3.50012C1.5332 4.43962 2.27546 5.18274 3.16699 5.18274C4.0585 5.18271 4.7998 4.4396 4.7998 3.50012C4.7996 2.56083 4.05838 1.81851 3.16699 1.81848Z" fill="#161616"/>
</svg>
