<svg width="21" height="22" viewBox="0 0 21 22" fill="none" xmlns="http://www.w3.org/2000/svg">
<path d="M10.5576 0.620407C12.7479 0.620394 14.4683 0.620524 15.8115 0.801071C17.1882 0.986158 18.2805 1.37354 19.1387 2.23174C19.9969 3.08993 20.3842 4.18223 20.5693 5.55888C20.7499 6.90215 20.75 8.62253 20.75 10.8128V10.928C20.75 13.1183 20.7499 14.8387 20.5693 16.1819C20.3842 17.5586 19.9969 18.6509 19.1387 19.5091C18.2805 20.3673 17.1882 20.7547 15.8115 20.9397C14.4683 21.1203 12.7479 21.1204 10.5576 21.1204H10.4424C8.25212 21.1204 6.53174 21.1203 5.18848 20.9397C3.81182 20.7547 2.71953 20.3673 1.86133 19.5091C1.00313 18.6509 0.615751 17.5586 0.430664 16.1819C0.250117 14.8387 0.249987 13.1183 0.25 10.928V10.8128C0.249987 8.62253 0.250117 6.90215 0.430664 5.55888C0.615751 4.18223 1.00313 3.08993 1.86133 2.23174C2.71953 1.37354 3.81182 0.986158 5.18848 0.801071C6.53174 0.620524 8.25213 0.620394 10.4424 0.620407H10.5576ZM10.5 2.12041C8.23963 2.12041 6.6196 2.12177 5.3877 2.2874C4.17747 2.45013 3.4549 2.75926 2.92188 3.29228C2.38885 3.8253 2.07972 4.54788 1.91699 5.7581C1.75137 6.99 1.75 8.61003 1.75 10.8704C1.75 13.1308 1.75137 14.7508 1.91699 15.9827C2.07972 17.1929 2.38885 17.9155 2.92188 18.4485C3.4549 18.9816 4.17747 19.2907 5.3877 19.4534C6.6196 19.619 8.23963 19.6204 10.5 19.6204C12.7604 19.6204 14.3804 19.619 15.6123 19.4534C16.8225 19.2907 17.5451 18.9816 18.0781 18.4485C18.6111 17.9155 18.9203 17.1929 19.083 15.9827C19.2486 14.7508 19.25 13.1308 19.25 10.8704C19.25 8.61003 19.2486 6.99 19.083 5.7581C18.9203 4.54788 18.6111 3.8253 18.0781 3.29228C17.5451 2.75926 16.8225 2.45013 15.6123 2.2874C14.3804 2.12177 12.7604 2.12041 10.5 2.12041ZM10.5 6.12041C10.9142 6.12041 11.25 6.45619 11.25 6.87041V10.1204H14.5C14.9142 10.1204 15.25 10.4562 15.25 10.8704C15.25 11.2846 14.9142 11.6204 14.5 11.6204H11.25V14.8704C11.25 15.2846 10.9142 15.6204 10.5 15.6204C10.0858 15.6204 9.75 15.2846 9.75 14.8704V11.6204H6.5C6.08579 11.6204 5.75 11.2846 5.75 10.8704C5.75 10.4562 6.08579 10.1204 6.5 10.1204H9.75V6.87041C9.75 6.45619 10.0858 6.12041 10.5 6.12041Z" fill="white"/>
</svg>
