<svg width="13" height="14" viewBox="0 0 13 14" fill="none" xmlns="http://www.w3.org/2000/svg">
<path fill-rule="evenodd" clip-rule="evenodd" d="M6.50156 13.3996C10.0362 13.3996 12.9016 10.5342 12.9016 6.99961C12.9016 3.46499 10.0362 0.599609 6.50156 0.599609C2.96694 0.599609 0.101562 3.46499 0.101562 6.99961C0.101562 10.5342 2.96694 13.3996 6.50156 13.3996ZM9.46725 6.43392L7.06725 4.03392C6.75483 3.7215 6.2483 3.7215 5.93588 4.03392L3.53588 6.43392C3.22346 6.74634 3.22346 7.25288 3.53588 7.5653C3.8483 7.87771 4.35483 7.87771 4.66725 7.5653L5.70156 6.53098V9.39961C5.70156 9.84144 6.05973 10.1996 6.50156 10.1996C6.94339 10.1996 7.30156 9.84144 7.30156 9.39961V6.53098L8.33588 7.56529C8.6483 7.87771 9.15483 7.87771 9.46725 7.56529C9.77967 7.25287 9.77967 6.74634 9.46725 6.43392Z" fill="#EA580C"/>
</svg>
