<svg width="13" height="14" viewBox="0 0 13 14" fill="none" xmlns="http://www.w3.org/2000/svg">
<path fill-rule="evenodd" clip-rule="evenodd" d="M6.50156 13.3996C10.0362 13.3996 12.9016 10.5342 12.9016 6.99961C12.9016 3.46499 10.0362 0.599609 6.50156 0.599609C2.96694 0.599609 0.101562 3.46499 0.101562 6.99961C0.101562 10.5342 2.96694 13.3996 6.50156 13.3996ZM7.30156 4.59961C7.30156 4.15778 6.94339 3.79961 6.50156 3.79961C6.05973 3.79961 5.70156 4.15778 5.70156 4.59961V7.46824L4.66725 6.43392C4.35483 6.1215 3.8483 6.1215 3.53588 6.43392C3.22346 6.74634 3.22346 7.25288 3.53588 7.5653L5.93588 9.96529C6.2483 10.2777 6.75483 10.2777 7.06725 9.96529L9.46725 7.56529C9.77967 7.25287 9.77967 6.74634 9.46725 6.43392C9.15483 6.1215 8.6483 6.1215 8.33588 6.43392L7.30156 7.46824V4.59961Z" fill="#16A34A"/>
</svg>
