<svg width="30" height="30" viewBox="0 0 30 30" fill="none" xmlns="http://www.w3.org/2000/svg">
<path d="M17.5953 23.6512C17.665 23.8884 17.6999 24.1326 17.6999 24.3907C17.6999 25.8768 16.493 27.0768 15.0139 27.0768C13.5348 27.0768 12.3278 25.8698 12.3278 24.3907C12.3278 24.1326 12.3627 23.8884 12.4325 23.6512" stroke="#021C2C" stroke-width="1.5" stroke-miterlimit="16" stroke-linecap="round" stroke-linejoin="round"/>
<path d="M16.165 5.61628V5.01628C16.165 4.73024 16.165 4.14419 16.165 3.71163C16.165 3.27907 15.6836 2.93024 15.0836 2.93024C14.4836 2.93024 14.0023 3.27907 14.0023 3.70466C14.0023 4.13024 14.0023 4.71628 14.0023 5.00931V5.61628M21.7883 11.5884C21.7883 8.24652 18.7813 5.53954 15.0836 5.53954C11.386 5.53954 8.39295 8.29535 8.40691 11.693C8.42086 15.0907 8.43481 17.8744 8.43481 17.9023C8.43481 17.9302 7.64644 19.2279 6.68368 20.8047C5.72089 22.3744 4.93252 23.6512 4.9395 23.6512C4.94648 23.6512 8.07202 23.6512 11.9232 23.6512H18.0836C21.9348 23.6512 25.0604 23.6512 25.0534 23.6442C25.0534 23.6442 24.3209 22.3116 23.4139 20.6791C22.5139 19.0465 21.7813 17.7 21.7813 17.6791C21.7883 17.6581 21.7883 14.9302 21.7883 11.5884Z" stroke="#021C2C" stroke-width="1.5" stroke-miterlimit="16" stroke-linecap="round" stroke-linejoin="round"/>
<circle cx="22.5" cy="8.125" r="4.5" fill="#D32F2F" stroke="#FDFDFD"/>
</svg>
