<svg xmlns="http://www.w3.org/2000/svg" width="20" height="20.016" viewBox="0 0 20 20.016">
    <g>
        <path fill="#002c6c" d="M8.75 20.016a2.5 2.5 0 0 1-2.5-2.5h5a2.5 2.5 0 0 1-2.5 2.5zm8.75-3.75H0c1.847-1.231 2.5-7.308 2.5-8.75a6.221 6.221 0 0 1 1.422-3.953A6.426 6.426 0 0 1 7.5 1.392v-.251A1.308 1.308 0 0 1 8.685 0a1.162 1.162 0 0 1 .19.016 1.432 1.432 0 0 1 .948.576 1.042 1.042 0 0 1 .177.8 6.426 6.426 0 0 1 3.578 2.171A6.221 6.221 0 0 1 15 7.516c0 1.44.652 7.511 2.5 8.748z" transform="translate(1.25)"/>
    </g>
</svg>
