<svg width="16" height="12" viewBox="0 0 16 12" fill="none" xmlns="http://www.w3.org/2000/svg">
<path d="M5.55001 9.51537L14.1885 0.876923C14.3372 0.728207 14.5138 0.652239 14.7183 0.649023C14.9228 0.645823 15.1026 0.72179 15.2577 0.876923C15.4128 1.03204 15.4904 1.21024 15.4904 1.41152C15.4904 1.61279 15.4128 1.79099 15.2577 1.94612L6.18268 11.0211C6.00191 11.2019 5.79102 11.2922 5.55001 11.2922C5.30899 11.2922 5.0981 11.2019 4.91733 11.0211L0.742331 6.84612C0.593615 6.69741 0.520215 6.52081 0.522131 6.31632C0.524065 6.11184 0.60259 5.93204 0.757706 5.77692C0.91284 5.62179 1.09104 5.54422 1.29231 5.54422C1.49359 5.54422 1.67179 5.62179 1.82691 5.77692L5.55001 9.51537Z" fill="white"/>
</svg>
