<svg width="93" height="75" viewBox="0 0 93 75" fill="none" xmlns="http://www.w3.org/2000/svg">
<path d="M20.925 0C24.0081 0 26.965 1.23465 29.1451 3.43234C31.3252 5.63003 32.55 8.61074 32.55 11.7188C32.55 14.8268 31.3252 17.8075 29.1451 20.0052C26.965 22.2029 24.0081 23.4375 20.925 23.4375C17.8419 23.4375 14.885 22.2029 12.7049 20.0052C10.5248 17.8075 9.3 14.8268 9.3 11.7188C9.3 8.61074 10.5248 5.63003 12.7049 3.43234C14.885 1.23465 17.8419 0 20.925 0ZM74.4 0C77.4831 0 80.44 1.23465 82.6201 3.43234C84.8002 5.63003 86.025 8.61074 86.025 11.7188C86.025 14.8268 84.8002 17.8075 82.6201 20.0052C80.44 22.2029 77.4831 23.4375 74.4 23.4375C71.3169 23.4375 68.36 22.2029 66.1799 20.0052C63.9998 17.8075 62.775 14.8268 62.775 11.7188C62.775 8.61074 63.9998 5.63003 66.1799 3.43234C68.36 1.23465 71.3169 0 74.4 0ZM0 43.7549C0 35.127 6.94594 28.125 15.5048 28.125H21.7097C24.0202 28.125 26.2144 28.6377 28.1906 29.5459C28.0017 30.6006 27.9145 31.6992 27.9145 32.8125C27.9145 38.4082 30.3558 43.4326 34.2066 46.875C34.1775 46.875 34.1484 46.875 34.1048 46.875H3.09516C1.395 46.875 0 45.4688 0 43.7549ZM58.8952 46.875C58.8661 46.875 58.837 46.875 58.7934 46.875C62.6588 43.4326 65.0855 38.4082 65.0855 32.8125C65.0855 31.6992 64.9837 30.6152 64.8094 29.5459C66.7856 28.623 68.9798 28.125 71.2903 28.125H77.4952C86.0541 28.125 93 35.127 93 43.7549C93 45.4834 91.605 46.875 89.9048 46.875H58.8952ZM32.55 32.8125C32.55 29.0829 34.0197 25.506 36.6359 22.8688C39.252 20.2316 42.8002 18.75 46.5 18.75C50.1998 18.75 53.748 20.2316 56.3641 22.8688C58.9803 25.506 60.45 29.0829 60.45 32.8125C60.45 36.5421 58.9803 40.119 56.3641 42.7562C53.748 45.3934 50.1998 46.875 46.5 46.875C42.8002 46.875 39.252 45.3934 36.6359 42.7562C34.0197 40.119 32.55 36.5421 32.55 32.8125ZM18.6 71.0889C18.6 60.3076 27.2752 51.5625 37.9702 51.5625H55.0298C65.7248 51.5625 74.4 60.3076 74.4 71.0889C74.4 73.2422 72.6708 75 70.5202 75H22.4798C20.3438 75 18.6 73.2568 18.6 71.0889Z" fill="#4B5563"/>
</svg>
