<svg width="31" height="33" viewBox="0 0 31 33" fill="none" xmlns="http://www.w3.org/2000/svg">
<path d="M16.2129 0C18.6131 -3.11973e-05 20.5346 0.000437179 22.043 0.213867C23.6082 0.435389 24.8934 0.905635 25.9033 1.96875C26.9054 3.0237 27.342 4.35229 27.5488 5.97168C27.7501 7.5478 27.75 9.5609 27.75 12.0977V17.625C27.75 18.2463 27.2463 18.75 26.625 18.75C26.0037 18.75 25.5 18.2463 25.5 17.625V12.1777C25.5 9.54235 25.4974 7.67286 25.3164 6.25586C25.1388 4.86585 24.8069 4.08213 24.2715 3.51855C23.7438 2.96315 23.0222 2.62455 21.7285 2.44141C21.4429 2.40098 21.1368 2.37085 20.8086 2.3457C20.684 3.08992 20.5715 3.74168 20.4141 4.27051C20.2269 4.89903 19.9438 5.48608 19.3994 5.94727C18.855 6.40846 18.2289 6.59062 17.5781 6.67188C16.9742 6.74723 16.2321 6.74712 15.3789 6.74707H12.3701C11.5166 6.74712 10.7739 6.74729 10.1699 6.67188C9.51921 6.59061 8.89303 6.40844 8.34863 5.94727C7.80446 5.48615 7.52207 4.89887 7.33496 4.27051C7.1775 3.74162 7.06309 3.09003 6.93848 2.3457C6.61133 2.37081 6.30629 2.4011 6.02148 2.44141C4.72782 2.62455 4.00617 2.96315 3.47852 3.51855C2.94312 4.08213 2.61118 4.86585 2.43359 6.25586C2.25261 7.67286 2.25 9.54235 2.25 12.1777V20.0723C2.25 22.7076 2.25261 24.5771 2.43359 25.9941C2.61118 27.3841 2.94312 28.1679 3.47852 28.7314C4.00617 29.2868 4.72782 29.6255 6.02148 29.8086C7.35403 29.9972 9.1167 30 11.625 30H13.875C14.4963 30 15 30.5037 15 31.125C15 31.7463 14.4963 32.25 13.875 32.25H11.5371C9.13685 32.25 7.21537 32.2496 5.70703 32.0361C4.14175 31.8146 2.85664 31.3444 1.84668 30.2812C0.844567 29.2263 0.408007 27.8977 0.201172 26.2783C-8.64312e-05 24.7022 -2.21708e-05 22.6891 0 20.1523V12.0977C-2.21708e-05 9.5609 -8.70321e-05 7.5478 0.201172 5.97168C0.408007 4.35229 0.844565 3.0237 1.84668 1.96875C2.85664 0.905635 4.14175 0.435389 5.70703 0.213867C7.21537 0.000436869 9.13685 -3.11973e-05 11.5371 0H16.2129ZM29.249 21.0645C29.8347 20.857 30.4781 21.1643 30.6855 21.75C30.8927 22.3355 30.5863 22.978 30.001 23.1855C29.136 23.4919 28.169 24.137 27.1738 25.0098C26.1902 25.8724 25.2384 26.9036 24.4004 27.9082C23.5645 28.9102 22.8551 29.8699 22.3545 30.5791C22.1046 30.9331 21.7088 31.5279 21.5752 31.7285C21.3578 32.0706 20.9722 32.2698 20.5674 32.249C20.1627 32.2283 19.8005 31.9912 19.6191 31.6289C18.9359 30.2625 18.3033 29.6798 17.9385 29.4365C17.7555 29.3145 17.6277 29.2692 17.5742 29.2539C17.5644 29.2511 17.5562 29.2493 17.5508 29.248C16.9642 29.2097 16.5 28.7213 16.5 28.125C16.5002 27.5038 17.0038 27 17.625 27C18.4453 27 18.8075 27.3118 19.1865 27.5645C19.6565 27.8778 20.1679 28.3483 20.6826 29.0479C21.1941 28.3328 21.8776 27.4201 22.6729 26.4668C23.5553 25.4089 24.5895 24.2838 25.6904 23.3184C26.7796 22.3632 27.9966 21.5081 29.249 21.0645ZM13.875 21C14.4963 21 15 21.5037 15 22.125C15 22.7463 14.4963 23.25 13.875 23.25H7.875C7.25368 23.25 6.75 22.7463 6.75 22.125C6.75 21.5037 7.25368 21 7.875 21H13.875ZM19.875 13.5C20.4963 13.5 21 14.0037 21 14.625C21 15.2463 20.4963 15.75 19.875 15.75H7.875C7.25368 15.75 6.75 15.2463 6.75 14.625C6.75 14.0037 7.25368 13.5 7.875 13.5H19.875ZM11.625 2.25C10.7289 2.25 9.92807 2.24976 9.20801 2.25879C9.31168 2.86389 9.3917 3.2936 9.49121 3.62793C9.61087 4.02984 9.71784 4.15842 9.80273 4.23047C9.8877 4.30244 10.0323 4.38741 10.4492 4.43945C10.8972 4.49535 11.4975 4.49707 12.4365 4.49707H15.3125C16.2516 4.49707 16.8518 4.49539 17.2998 4.43945C17.7167 4.38741 17.8603 4.30244 17.9453 4.23047C18.0303 4.15848 18.138 4.03043 18.2578 3.62793C18.3573 3.29363 18.4364 2.86378 18.54 2.25879C17.8205 2.24978 17.0203 2.25 16.125 2.25H11.625Z" fill="#4CAF50"/>
</svg>
