<svg width="20" height="20" viewBox="0 0 20 20" fill="none" xmlns="http://www.w3.org/2000/svg">
<path d="M4.32861 12.3643C6.47192 11.0881 9.02761 10.7364 11.396 11.3047C11.7316 11.3853 11.9384 11.723 11.8579 12.0586C11.7773 12.3942 11.4396 12.601 11.104 12.5205C9.04338 12.0261 6.82256 12.3338 4.96729 13.4385C4.82748 13.5217 4.67459 13.6092 4.51416 13.7002C3.92036 14.0371 3.22705 14.4302 2.74365 14.9033C2.44377 15.1969 2.31504 15.4388 2.29443 15.626C2.27819 15.7746 2.31637 16.0202 2.69189 16.3779C3.55507 17.2003 4.43234 17.708 5.49268 17.708H10.8335C11.1785 17.7081 11.4583 17.988 11.4585 18.333C11.4585 18.6781 11.1786 18.9579 10.8335 18.958H5.49268C3.97751 18.958 2.80576 18.2132 1.82959 17.2832C1.26374 16.7441 0.981574 16.1368 1.05225 15.4902C1.1188 14.8825 1.48405 14.3862 1.86865 14.0098C2.48375 13.4077 3.38206 12.9015 3.97607 12.5664C4.11163 12.4899 4.23168 12.422 4.32861 12.3643ZM15.4165 11.875C17.3725 11.875 18.9585 13.461 18.9585 15.417C18.9583 17.3729 17.3724 18.958 15.4165 18.958C13.4606 18.958 11.8747 17.3728 11.8745 15.417C11.8745 13.461 13.4605 11.875 15.4165 11.875ZM13.4155 14.2988C13.2306 14.6294 13.1245 15.0113 13.1245 15.417C13.1247 16.6825 14.151 17.708 15.4165 17.708C15.8221 17.708 16.2032 17.6029 16.5337 17.418L13.4155 14.2988ZM15.4165 13.125C15.0109 13.125 14.6298 13.2302 14.2993 13.415L17.4175 16.5342C17.6024 16.2037 17.7084 15.8226 17.7085 15.417C17.7085 14.1513 16.6822 13.125 15.4165 13.125ZM9.99951 1.04199C12.4158 1.04199 14.3745 3.00075 14.3745 5.41699C14.3743 7.83309 12.4156 9.79199 9.99951 9.79199C7.58354 9.79179 5.62469 7.83297 5.62451 5.41699C5.62451 3.00087 7.58343 1.04219 9.99951 1.04199ZM9.99951 2.29199C8.27379 2.29219 6.87451 3.69122 6.87451 5.41699C6.87469 7.14261 8.2739 8.54179 9.99951 8.54199C11.7253 8.54199 13.1243 7.14273 13.1245 5.41699C13.1245 3.6911 11.7254 2.29199 9.99951 2.29199Z" fill="#F76B15"/>
</svg>
