<svg width="93" height="75" viewBox="0 0 93 75" fill="none" xmlns="http://www.w3.org/2000/svg">
<path d="M55.802 4.6875H74.402C76.9741 4.6875 79.052 6.78223 79.052 9.375C79.052 11.9678 76.9741 14.0625 74.402 14.0625H57.8945C57.1389 17.8418 54.5669 20.9619 51.152 22.4561V65.625H74.402C76.9741 65.625 79.052 67.7197 79.052 70.3125C79.052 72.9053 76.9741 75 74.402 75H46.502H18.602C16.03 75 13.952 72.9053 13.952 70.3125C13.952 67.7197 16.03 65.625 18.602 65.625H41.852V22.4561C38.4372 20.9473 35.8651 17.8271 35.1095 14.0625H18.602C16.03 14.0625 13.952 11.9678 13.952 9.375C13.952 6.78223 16.03 4.6875 18.602 4.6875H37.202C39.3236 1.8457 42.6948 0 46.502 0C50.3092 0 53.6805 1.8457 55.802 4.6875ZM63.8814 46.875H84.9227L74.402 28.6816L63.8814 46.875ZM74.402 60.9375C65.2619 60.9375 57.662 55.957 56.0926 49.3799C55.7148 47.7686 56.238 46.1133 57.0662 44.6777L70.9 20.7715C71.6265 19.5117 72.9634 18.75 74.402 18.75C75.8406 18.75 77.1775 19.5264 77.9041 20.7715L91.7378 44.6777C92.5661 46.1133 93.0892 47.7686 92.7114 49.3799C91.142 55.957 83.5422 60.9375 74.402 60.9375ZM18.4276 28.6816L7.90702 46.875H28.9628L18.4276 28.6816ZM0.132799 49.3799C-0.245014 47.7686 0.278111 46.1133 1.10639 44.6777L14.9401 20.7715C15.6667 19.5117 17.0036 18.75 18.4422 18.75C19.8808 18.75 21.2176 19.5264 21.9442 20.7715L35.778 44.6777C36.6062 46.1133 37.1294 47.7686 36.7515 49.3799C35.1676 55.957 27.5678 60.9375 18.4276 60.9375C9.28749 60.9375 1.70217 55.957 0.132799 49.3799Z" fill="#4B5563"/>
</svg>
