<svg width="12" height="12" viewBox="0 0 12 12" fill="none" xmlns="http://www.w3.org/2000/svg">
<path fill-rule="evenodd" clip-rule="evenodd" d="M11.1331 0.533532C10.4218 -0.177845 9.2684 -0.177844 8.55702 0.533533L2.07964 7.01091C1.43389 7.6565 1.03923 8.05106 0.76778 8.53684C0.616369 8.8078 0.4841 9.21879 0.367063 9.63936C0.246665 10.072 0.128139 10.5698 0.014995 11.045L0.0136069 11.0509C-0.0266094 11.2198 0.0236815 11.3974 0.146457 11.5202C0.269232 11.643 0.446912 11.6933 0.615821 11.6531L0.621612 11.6517C1.09679 11.5386 1.59469 11.42 2.02732 11.2996C2.44789 11.1826 2.85888 11.0503 3.12984 10.8989C3.61561 10.6274 4.01018 10.2328 4.65577 9.58704L11.1331 3.10965C11.8445 2.39828 11.8445 1.24491 11.1331 0.533532ZM9.26413 1.24064C9.58498 0.919787 10.1052 0.919787 10.426 1.24064C10.7469 1.56149 10.7469 2.08169 10.426 2.40255L9.84508 2.9835L8.68318 1.82159L9.26413 1.24064ZM7.97607 2.5287L9.13798 3.69061L4.00229 8.8263C3.28622 9.54237 2.99215 9.8303 2.64204 10.0259C2.4884 10.1118 2.18579 10.2175 1.75922 10.3362C1.57695 10.3869 1.38145 10.4376 1.17845 10.4882C1.22908 10.2852 1.27973 10.0897 1.33046 9.90745C1.44916 9.48089 1.55488 9.17828 1.64073 9.02464C1.83637 8.67453 2.12431 8.38046 2.84038 7.66439L7.97607 2.5287Z" fill="#161616"/>
<path d="M5.16667 10.6667C4.89052 10.6667 4.66667 10.8905 4.66667 11.1667C4.66667 11.4428 4.89052 11.6667 5.16667 11.6667H9.16667C9.44281 11.6667 9.66667 11.4428 9.66667 11.1667C9.66667 10.8905 9.44281 10.6667 9.16667 10.6667H5.16667Z" fill="#161616"/>
</svg>
