<svg width="66" height="75" viewBox="0 0 66 75" fill="none" xmlns="http://www.w3.org/2000/svg">
<path d="M33 37.5C27.9988 37.5 23.2024 35.5246 19.666 32.0083C16.1296 28.4919 14.1429 23.7228 14.1429 18.75C14.1429 13.7772 16.1296 9.00805 19.666 5.49175C23.2024 1.97544 27.9988 0 33 0C38.0012 0 42.7976 1.97544 46.334 5.49175C49.8704 9.00805 51.8571 13.7772 51.8571 18.75C51.8571 23.7228 49.8704 28.4919 46.334 32.0083C42.7976 35.5246 38.0012 37.5 33 37.5ZM30.8049 52.6172L28.0647 48.0762C27.1219 46.5088 28.2563 44.5312 30.083 44.5312H33H35.9022C37.729 44.5312 38.8634 46.5234 37.9205 48.0762L35.1804 52.6172L40.1009 70.7666L45.4045 49.248C45.6991 48.0615 46.8482 47.2852 48.0415 47.5928C58.3688 50.1709 66 59.458 66 70.5029C66 72.9932 63.967 75 61.4772 75H42.0603C41.7509 75 41.471 74.9414 41.2058 74.8389L41.25 75H24.75L24.7942 74.8389C24.529 74.9414 24.2344 75 23.9397 75H4.52277C2.03304 75 0 72.9785 0 70.5029C0 59.4434 7.64598 50.1562 17.9585 47.5928C19.1518 47.2998 20.3009 48.0762 20.5955 49.248L25.8991 70.7666L30.8196 52.6172H30.8049Z" fill="#4B5563"/>
</svg>
