<svg width="24" height="24" viewBox="0 0 24 24" fill="none" xmlns="http://www.w3.org/2000/svg">
<path d="M10.5605 1.25C11.1636 1.2495 11.6401 1.24945 12.0869 1.40723C12.1793 1.43984 12.2701 1.47726 12.3584 1.51953C12.7858 1.72411 13.1227 2.06125 13.5488 2.48828C13.5731 2.51259 13.5972 2.53762 13.6221 2.5625L18.3584 7.30078C18.3872 7.32961 18.4162 7.3586 18.4443 7.38672C18.9387 7.88038 19.3305 8.27078 19.541 8.7793C19.7515 9.28784 19.7507 9.84111 19.75 10.54V13.0049C19.75 13.4191 19.4142 13.7549 19 13.7549C18.5858 13.7549 18.25 13.4191 18.25 13.0049V10.6611C18.25 10.2229 18.2469 9.94515 18.2334 9.75293H17.9453C16.5778 9.75295 15.4754 9.7533 14.6084 9.63672C13.7083 9.51566 12.9505 9.25632 12.3486 8.6543C11.7468 8.05218 11.4872 7.29396 11.3662 6.39355C11.2497 5.52633 11.25 4.42367 11.25 3.05566V2.76367C11.0832 2.75304 10.8419 2.75 10.4561 2.75C8.81547 2.75 7.64988 2.75094 6.75488 2.85547C5.87606 2.95812 5.35453 3.15243 4.95996 3.4707C4.7797 3.61615 4.61509 3.78057 4.46973 3.96094C4.15167 4.35572 3.95807 4.87772 3.85547 5.75684C3.75101 6.65221 3.75 7.818 3.75 9.45898V14.0049C3.75 15.9125 3.75148 17.2687 3.88965 18.2969C4.02494 19.3032 4.27894 19.8832 4.70215 20.3066C5.39807 21.0028 6.47934 21.2134 9.01074 21.25C9.42484 21.256 9.75587 21.5967 9.75 22.0107C9.74401 22.4249 9.40338 22.7559 8.98926 22.75C6.56201 22.7149 4.83183 22.5576 3.6416 21.3672C2.8933 20.6186 2.56094 19.6689 2.40332 18.4961C2.25018 17.3564 2.24998 15.9001 2.25 14.0615V9.41113C2.24999 7.82902 2.25042 6.5755 2.36621 5.58301C2.48509 4.56436 2.734 3.72412 3.30176 3.01953C3.51431 2.75579 3.75491 2.51539 4.01855 2.30273C4.72294 1.7346 5.56267 1.48517 6.58105 1.36621C7.57312 1.25035 8.82593 1.24999 10.4072 1.25H10.5605ZM16 15.25C17.6417 15.2501 19.0606 16.1329 20.0137 16.9229C20.5006 17.3265 20.8932 17.7282 21.1641 18.0293C21.2999 18.1803 21.4068 18.3077 21.4805 18.3984C21.5152 18.4412 21.5732 18.5166 21.5967 18.5469L21.6006 18.5518C21.7944 18.8115 21.7989 19.1654 21.6143 19.4297C21.6098 19.4354 21.6027 19.4454 21.5938 19.457C21.5622 19.4979 21.5091 19.5663 21.4805 19.6016C21.4068 19.6923 21.2999 19.8197 21.1641 19.9707C20.8932 20.2718 20.5006 20.6735 20.0137 21.0771C19.0606 21.8671 17.6417 22.7499 16 22.75C14.3582 22.75 12.9385 21.8672 11.9854 21.0771C11.4984 20.6734 11.1058 20.2717 10.835 19.9707C10.6991 19.8197 10.5932 19.6923 10.5195 19.6016C10.4848 19.5587 10.4258 19.4833 10.4023 19.4531L10.3984 19.4482C10.2002 19.1822 10.201 18.8167 10.3994 18.5508L10.4336 18.5059C10.4538 18.4799 10.4828 18.4437 10.5195 18.3984C10.5932 18.3077 10.6991 18.1803 10.835 18.0293C11.1058 17.7283 11.4984 17.3266 11.9854 16.9229C12.9385 16.1328 14.3582 15.25 16 15.25ZM16 16.75C14.8806 16.7501 13.7998 17.3673 12.9434 18.0771C12.543 18.409 12.2141 18.7427 11.9805 19C12.2141 19.2573 12.543 19.591 12.9434 19.9229C13.7998 20.6327 14.8806 21.2499 16 21.25C17.1196 21.25 18.2011 20.6328 19.0576 19.9229C19.4579 19.591 19.7869 19.2573 20.0205 19C19.7869 18.7427 19.4579 18.409 19.0576 18.0771C18.2011 17.3672 17.1196 16.75 16 16.75ZM15.999 18C16.5513 18 16.999 18.4477 16.999 19C16.999 19.5523 16.5513 20 15.999 20H15.9902C15.4379 20 14.9902 19.5523 14.9902 19C14.9902 18.4477 15.4379 18 15.9902 18H15.999ZM12.751 3.8125C12.7546 4.82786 12.7723 5.58994 12.8535 6.19434C12.9522 6.92818 13.1324 7.31687 13.4092 7.59375C13.686 7.87065 14.0749 8.0517 14.8086 8.15039C15.4126 8.23159 16.1738 8.24829 17.1885 8.25195L12.751 3.8125Z" fill="#EAD6DB"/>
</svg>
