<svg width="20" height="20" viewBox="0 0 20 20" fill="none" xmlns="http://www.w3.org/2000/svg">
<path d="M9.63379 1.04187C10.1363 1.04145 10.533 1.0414 10.9053 1.17273C10.9823 1.1999 11.0582 1.23126 11.1318 1.26648C11.488 1.43689 11.7689 1.71743 12.124 2.07312C12.1442 2.09335 12.1648 2.11394 12.1855 2.13464L16.1318 6.08191C16.1558 6.1059 16.1797 6.1298 16.2031 6.1532C16.6151 6.56443 16.9417 6.88969 17.1172 7.31335C17.2927 7.73706 17.2926 8.19798 17.292 8.78015V11.6669C17.2919 12.0119 17.012 12.2917 16.667 12.2919C16.3219 12.2919 16.0421 12.012 16.042 11.6669V8.88074C16.042 8.51586 16.0385 8.28494 16.0273 8.12488H15.7881C14.6484 8.12489 13.7293 8.12533 13.0068 8.0282C12.2569 7.92737 11.6256 7.71127 11.124 7.20984C10.6224 6.70824 10.4065 6.07614 10.3057 5.32605C10.2086 4.60364 10.208 3.68521 10.208 2.54578V2.30261C10.069 2.29377 9.86808 2.29187 9.54688 2.29187C8.17968 2.29187 7.20777 2.29268 6.46191 2.37976C5.72987 2.46527 5.29553 2.62648 4.9668 2.89148C4.81662 3.01257 4.67971 3.14953 4.55859 3.29968C4.29348 3.62849 4.13239 4.06339 4.04688 4.79578C3.95979 5.5416 3.95801 6.51266 3.95801 7.87976V11.6669C3.95801 13.2558 3.96006 14.3847 4.0752 15.2411C4.18792 16.0794 4.39929 16.5623 4.75195 16.9149C5.10462 17.2676 5.58743 17.479 6.42578 17.5917C7.28216 17.7068 8.41101 17.7089 10 17.7089C10.3452 17.7089 10.625 17.9887 10.625 18.3339C10.6248 18.6788 10.345 18.9589 10 18.9589H9.95312C8.42166 18.9589 7.20814 18.9586 6.25879 18.8309C5.28196 18.6996 4.49172 18.4222 3.86816 17.7987C3.24453 17.1751 2.96729 16.3841 2.83594 15.4071C2.70837 14.4578 2.70799 13.245 2.70801 11.7137V7.83972C2.708 6.52199 2.70821 5.47796 2.80469 4.65125C2.90377 3.80263 3.11172 3.10249 3.58496 2.5155C3.7621 2.2958 3.96291 2.09596 4.18262 1.91882C4.76958 1.44564 5.46881 1.23763 6.31738 1.13855C7.14408 1.04203 8.18809 1.04186 9.50586 1.04187H9.63379ZM13.7188 12.8973C13.9593 12.6502 14.3551 12.6443 14.6025 12.8846C14.6996 12.979 14.8871 13.1303 15.1562 13.3417C15.1759 13.3571 15.1966 13.3727 15.2168 13.3885C15.4591 13.5788 15.7416 13.8002 16.0107 14.0282C16.2996 14.273 16.5953 14.5438 16.8232 14.8114C16.9373 14.9454 17.047 15.0933 17.1309 15.2499C17.2121 15.4016 17.2919 15.6032 17.292 15.8329C17.292 16.0627 17.2121 16.265 17.1309 16.4169C17.047 16.5734 16.9373 16.7214 16.8232 16.8553C16.5953 17.123 16.2996 17.3937 16.0107 17.6385C15.7416 17.8666 15.4591 18.088 15.2168 18.2782C15.1966 18.294 15.1759 18.3097 15.1562 18.3251C14.8874 18.5362 14.6997 18.6867 14.6025 18.7811C14.3551 19.0216 13.9594 19.0166 13.7188 18.7694C13.4782 18.5219 13.4839 18.1252 13.7314 17.8846C13.8872 17.7333 14.1381 17.5364 14.3848 17.3427C14.4036 17.3279 14.4224 17.3127 14.4414 17.2977C14.6868 17.1051 14.9516 16.8967 15.2021 16.6844C15.2931 16.6074 15.3798 16.5315 15.4609 16.4579H10C9.65482 16.4579 9.375 16.1781 9.375 15.8329C9.37523 15.4879 9.65496 15.2079 10 15.2079H15.4609C15.3799 15.1343 15.2929 15.0592 15.2021 14.9823C14.9516 14.77 14.6868 14.5617 14.4414 14.369C14.4223 14.354 14.4036 14.3389 14.3848 14.3241C14.1378 14.1301 13.8872 13.9325 13.7314 13.7811C13.4839 13.5405 13.4782 13.1449 13.7188 12.8973ZM11.459 3.17664C11.462 4.02228 11.4763 4.65667 11.5439 5.16003C11.6262 5.7715 11.7772 6.09542 12.0078 6.32605C12.2384 6.55656 12.5626 6.70676 13.1738 6.78894C13.6772 6.85658 14.3117 6.87085 15.1572 6.8739L11.459 3.17664Z" fill="#D32F2F"/>
</svg>
