<svg width="20" height="20" viewBox="0 0 20 20" fill="none" xmlns="http://www.w3.org/2000/svg">
<path d="M9.63379 1.04187C10.1362 1.04145 10.533 1.04136 10.9053 1.17273C10.9823 1.19991 11.0582 1.23124 11.1318 1.26648C11.488 1.43694 11.769 1.71731 12.124 2.07312C12.1443 2.09341 12.1648 2.11486 12.1855 2.13562L16.1328 6.08386C16.1568 6.10784 16.1807 6.13176 16.2041 6.15515C16.6161 6.56652 16.9417 6.89253 17.1172 7.31628C17.2926 7.74002 17.2926 8.20074 17.292 8.78308V12.5048C17.292 12.8498 17.012 13.1296 16.667 13.1298C16.3218 13.1298 16.042 12.8499 16.042 12.5048V8.88367C16.042 8.51873 16.0385 8.28795 16.0273 8.12781H15.7871C14.6477 8.12782 13.7292 8.12732 13.0068 8.03015C12.2567 7.92925 11.6246 7.71359 11.123 7.21179C10.6217 6.71007 10.4065 6.07819 10.3057 5.328C10.2085 4.60526 10.208 3.68595 10.208 2.54578V2.30261C10.069 2.29377 9.8681 2.29187 9.54688 2.29187C8.17967 2.29187 7.20776 2.29264 6.46191 2.37976C5.72996 2.4653 5.29552 2.6264 4.9668 2.89148C4.81649 3.01272 4.67979 3.15028 4.55859 3.30066C4.29347 3.62963 4.1324 4.06418 4.04688 4.79675C3.95979 5.54298 3.95801 6.51491 3.95801 7.88269V11.6708C3.95801 13.2605 3.96005 14.3901 4.0752 15.2469C4.18792 16.0858 4.39924 16.5689 4.75195 16.9218C5.3319 17.5019 6.23307 17.6783 8.34277 17.7089C8.68773 17.7141 8.963 17.9976 8.95801 18.3427C8.9529 18.6877 8.66929 18.9629 8.32422 18.9579C6.30135 18.9286 4.85904 18.7978 3.86719 17.8055C3.24392 17.1818 2.96729 16.3909 2.83594 15.4139C2.70831 14.4642 2.70799 13.2498 2.70801 11.7177V7.84265C2.708 6.52412 2.70817 5.47933 2.80469 4.65222C2.90375 3.80338 3.11186 3.10363 3.58496 2.51648C3.76205 2.29675 3.96201 2.096 4.18164 1.91882C4.76865 1.44533 5.46869 1.23768 6.31738 1.13855C7.1441 1.04198 8.1881 1.04186 9.50586 1.04187H9.63379ZM12.0645 12.8846C12.3119 12.6444 12.7077 12.6501 12.9482 12.8973C13.1888 13.1448 13.1829 13.5405 12.9355 13.7811C12.7799 13.9325 12.5291 14.1302 12.2822 14.3241C12.2633 14.339 12.2438 14.3539 12.2246 14.369C11.9792 14.5617 11.7153 14.77 11.4648 14.9823C11.3741 15.0592 11.2871 15.1343 11.2061 15.2079H16.667C17.0119 15.2081 17.2918 15.488 17.292 15.8329C17.292 16.178 17.012 16.4577 16.667 16.4579H11.2061C11.2872 16.5316 11.3739 16.6074 11.4648 16.6844C11.7153 16.8967 11.9793 17.1051 12.2246 17.2977C12.2438 17.3128 12.2633 17.3278 12.2822 17.3427C12.529 17.5364 12.7799 17.7334 12.9355 17.8846C13.1831 18.1252 13.1888 18.5219 12.9482 18.7694C12.7076 19.0167 12.3119 19.0216 12.0645 18.7811C11.9673 18.6867 11.7788 18.5364 11.5098 18.3251C11.4902 18.3097 11.4703 18.294 11.4502 18.2782C11.2078 18.0879 10.9254 17.8666 10.6562 17.6385C10.3673 17.3937 10.0717 17.123 9.84375 16.8553C9.72957 16.7213 9.61904 16.5736 9.53516 16.4169C9.45391 16.265 9.375 16.0627 9.375 15.8329C9.3751 15.6032 9.45396 15.4016 9.53516 15.2499C9.61903 15.0931 9.72957 14.9455 9.84375 14.8114C10.0717 14.5437 10.3673 14.273 10.6562 14.0282C10.9254 13.8001 11.2078 13.5788 11.4502 13.3885C11.4703 13.3728 11.4903 13.357 11.5098 13.3417C11.779 13.1302 11.9673 12.979 12.0645 12.8846ZM11.459 3.17664C11.462 4.02284 11.4763 4.65829 11.5439 5.16199C11.6262 5.77357 11.7772 6.09727 12.0078 6.328C12.2385 6.55875 12.5624 6.70963 13.1738 6.79187C13.6772 6.85954 14.3116 6.87378 15.1572 6.87683L11.459 3.17664Z" fill="#4CAF50"/>
</svg>
