<svg width="13" height="13" viewBox="0 0 13 13" fill="none" xmlns="http://www.w3.org/2000/svg">
<path fill-rule="evenodd" clip-rule="evenodd" d="M2.62142 1.05333e-06C2.63298 1.5699e-06 2.64457 2.08648e-06 2.65621 2.08648e-06L10.3786 1.05333e-06C10.8923 -2.25501e-05 11.3284 -4.25776e-05 11.6724 0.0468691C12.0366 0.0965232 12.3849 0.208609 12.6514 0.502065C12.9204 0.798092 12.994 1.15484 12.9996 1.51952C13.0049 1.86009 12.9505 2.28315 12.887 2.77641L12.8824 2.81233C12.8599 2.98688 12.8262 3.15571 12.756 3.32474C12.6847 3.49635 12.5865 3.64251 12.4643 3.78777C11.8111 4.56369 10.597 5.96593 8.88762 7.24293C8.85997 7.26358 8.82508 7.31254 8.81843 7.386C8.65235 9.22129 8.50625 10.1923 8.40085 10.7549C8.28687 11.3632 7.82284 11.7842 7.42276 12.0741C7.21339 12.2259 6.99115 12.3625 6.79321 12.4829C6.77734 12.4926 6.76166 12.5021 6.74618 12.5115C6.56127 12.624 6.40407 12.7196 6.27267 12.8125C5.91233 13.0673 5.49661 13.0494 5.17885 12.8643C4.87898 12.6896 4.66797 12.371 4.62531 12.0107C4.53167 11.2197 4.36191 9.67129 4.17451 7.38172C4.16849 7.30828 4.15702 7.28697 4.15607 7.2852C4.15541 7.28396 4.15372 7.28086 4.14812 7.2747C4.14186 7.26782 4.12935 7.25563 4.10557 7.23785C2.39968 5.96245 1.18788 4.56267 0.535671 3.78774C0.413868 3.64302 0.312806 3.50034 0.240748 3.32682C0.170207 3.15694 0.140128 2.98726 0.117626 2.81233C0.116081 2.80031 0.11454 2.78834 0.113004 2.7764C0.0495257 2.28315 -0.00491829 1.86009 0.000353542 1.51952C0.00599846 1.15484 0.0796127 0.798091 0.348536 0.502065C0.615124 0.208609 0.963349 0.0965231 1.32753 0.0468691C1.67161 -4.25776e-05 2.10771 -2.25501e-05 2.62142 1.05333e-06ZM1.46263 1.0377C1.20656 1.07261 1.12942 1.12966 1.08871 1.17447C1.05034 1.21672 1.00401 1.2911 1.00023 1.53499C0.996213 1.79475 1.04008 2.14541 1.10945 2.68475C1.12873 2.83462 1.14562 2.89836 1.16429 2.94331C1.18144 2.98461 1.21182 3.03814 1.30076 3.14382C1.93961 3.90287 3.09231 5.2317 4.70436 6.43694C4.83387 6.53378 4.9527 6.65365 5.03866 6.81507C5.12336 6.97411 5.15803 7.13957 5.17117 7.30015C5.35755 9.57721 5.52609 11.1136 5.61837 11.8931C5.62119 11.9168 5.62984 11.9403 5.64316 11.9607C5.65679 11.9816 5.67192 11.9942 5.68222 12.0002C5.68353 12.001 5.68469 12.0016 5.68568 12.0021C5.68805 12.0008 5.69125 11.9989 5.69532 11.996C5.85673 11.8819 6.04407 11.768 6.22089 11.6606C6.23849 11.6499 6.25599 11.6393 6.27335 11.6287C6.47255 11.5075 6.66307 11.3897 6.83601 11.2644C7.20055 11.0002 7.37936 10.7767 7.41795 10.5707C7.51561 10.0495 7.65815 9.11205 7.8225 7.29587C7.85261 6.96311 8.01598 6.64587 8.28912 6.44181C9.90447 5.23502 11.0595 3.90381 11.6992 3.1438C11.7768 3.05163 11.8113 2.9922 11.8325 2.94107C11.8549 2.88735 11.8736 2.81626 11.8905 2.68475C11.9599 2.14541 12.0038 1.79475 11.9997 1.53499C11.996 1.2911 11.9496 1.21672 11.9113 1.17447C11.8706 1.12966 11.7934 1.07261 11.5374 1.0377C11.2689 1.0011 10.9018 1 10.3438 1H2.65621C2.09818 1 1.73107 1.0011 1.46263 1.0377ZM5.68044 12.0044C5.68046 12.0044 5.68079 12.0042 5.68141 12.0041L5.68044 12.0044Z" fill="black"/>
</svg>
