<svg width="13" height="14" viewBox="0 0 13 14" fill="none" xmlns="http://www.w3.org/2000/svg">
<path fill-rule="evenodd" clip-rule="evenodd" d="M2.62142 0.500001C2.63298 0.500002 2.64457 0.500002 2.65621 0.500002L10.3786 0.500001C10.8923 0.499977 11.3284 0.499957 11.6724 0.546869C12.0366 0.596523 12.3849 0.708609 12.6514 1.00207C12.9204 1.29809 12.994 1.65484 12.9996 2.01952C13.0049 2.36009 12.9505 2.78315 12.887 3.27641L12.8824 3.31233C12.8599 3.48688 12.8262 3.65571 12.756 3.82474C12.6847 3.99635 12.5865 4.14251 12.4643 4.28777C11.8111 5.06369 10.597 6.46593 8.88762 7.74293C8.85997 7.76358 8.82508 7.81254 8.81843 7.886C8.65235 9.72129 8.50625 10.6923 8.40085 11.2549C8.28687 11.8632 7.82284 12.2842 7.42276 12.5741C7.21339 12.7259 6.99115 12.8625 6.79321 12.9829C6.77734 12.9926 6.76166 13.0021 6.74618 13.0115C6.56127 13.124 6.40407 13.2196 6.27267 13.3125C5.91233 13.5673 5.49661 13.5494 5.17885 13.3643C4.87898 13.1896 4.66797 12.871 4.62531 12.5107C4.53167 11.7197 4.36191 10.1713 4.17451 7.88172C4.16849 7.80828 4.15702 7.78697 4.15607 7.7852C4.15541 7.78396 4.15372 7.78086 4.14812 7.7747C4.14186 7.76782 4.12935 7.75563 4.10557 7.73785C2.39968 6.46245 1.18788 5.06267 0.535671 4.28774C0.413868 4.14302 0.312806 4.00034 0.240748 3.82682C0.170207 3.65694 0.140128 3.48726 0.117626 3.31233C0.116081 3.30031 0.11454 3.28834 0.113004 3.2764C0.0495257 2.78315 -0.00491829 2.36009 0.000353542 2.01952C0.00599846 1.65484 0.0796127 1.29809 0.348536 1.00206C0.615124 0.708609 0.963349 0.596523 1.32753 0.546869C1.67161 0.499957 2.10771 0.499977 2.62142 0.500001ZM1.46263 1.5377C1.20656 1.57261 1.12942 1.62966 1.08871 1.67447C1.05034 1.71672 1.00401 1.7911 1.00023 2.03499C0.996213 2.29475 1.04008 2.64541 1.10945 3.18475C1.12873 3.33462 1.14562 3.39836 1.16429 3.44331C1.18144 3.48461 1.21182 3.53814 1.30076 3.64382C1.93961 4.40287 3.09231 5.7317 4.70436 6.93694C4.83387 7.03378 4.9527 7.15365 5.03866 7.31507C5.12336 7.47411 5.15803 7.63957 5.17117 7.80015C5.35755 10.0772 5.52609 11.6136 5.61837 12.3931C5.62119 12.4168 5.62984 12.4403 5.64316 12.4607C5.65679 12.4816 5.67192 12.4942 5.68222 12.5002C5.68353 12.501 5.68469 12.5016 5.68568 12.5021C5.68805 12.5008 5.69125 12.4989 5.69532 12.496C5.85673 12.3819 6.04407 12.268 6.22089 12.1606C6.23849 12.1499 6.25599 12.1393 6.27335 12.1287C6.47255 12.0075 6.66307 11.8897 6.83601 11.7644C7.20055 11.5002 7.37936 11.2767 7.41795 11.0707C7.51561 10.5495 7.65815 9.61205 7.8225 7.79587C7.85261 7.46311 8.01598 7.14587 8.28912 6.94181C9.90447 5.73502 11.0595 4.40381 11.6992 3.6438C11.7768 3.55163 11.8113 3.4922 11.8325 3.44107C11.8549 3.38735 11.8736 3.31626 11.8905 3.18475C11.9599 2.64541 12.0038 2.29475 11.9997 2.03499C11.996 1.7911 11.9496 1.71672 11.9113 1.67447C11.8706 1.62966 11.7934 1.57261 11.5374 1.5377C11.2689 1.5011 10.9018 1.5 10.3438 1.5H2.65621C2.09818 1.5 1.73107 1.5011 1.46263 1.5377ZM5.68044 12.5044C5.68046 12.5044 5.68079 12.5042 5.68141 12.5041L5.68044 12.5044Z" fill="#7F404F"/>
</svg>
