<svg width="18" height="16" viewBox="0 0 18 16" fill="none" xmlns="http://www.w3.org/2000/svg">
<path d="M14.375 11.6667H12.2917C11.9467 11.6667 11.6667 11.3867 11.6667 11.0417C11.6667 10.6967 11.9467 10.4167 12.2917 10.4167H14.375C14.72 10.4167 15 10.6967 15 11.0417C15 11.3867 14.72 11.6667 14.375 11.6667Z" fill="#161616"/>
<path d="M9.79167 11.6667H7.70833C7.36333 11.6667 7.08333 11.3867 7.08333 11.0417C7.08333 10.6967 7.36333 10.4167 7.70833 10.4167H9.79167C10.1367 10.4167 10.4167 10.6967 10.4167 11.0417C10.4167 11.3867 10.1367 11.6667 9.79167 11.6667Z" fill="#161616"/>
<path d="M14.375 8.33333H12.2917C11.9467 8.33333 11.6667 8.05333 11.6667 7.70833C11.6667 7.36333 11.9467 7.08333 12.2917 7.08333H14.375C14.72 7.08333 15 7.36333 15 7.70833C15 8.05333 14.72 8.33333 14.375 8.33333Z" fill="#161616"/>
<path d="M9.79167 8.33333H7.70833C7.36333 8.33333 7.08333 8.05333 7.08333 7.70833C7.08333 7.36333 7.36333 7.08333 7.70833 7.08333H9.79167C10.1367 7.08333 10.4167 7.36333 10.4167 7.70833C10.4167 8.05333 10.1367 8.33333 9.79167 8.33333Z" fill="#161616"/>
<path d="M14.375 5H7.70833C7.36333 5 7.08333 4.72 7.08333 4.375C7.08333 4.03 7.36333 3.75 7.70833 3.75H14.375C14.72 3.75 15 4.03 15 4.375C15 4.72 14.72 5 14.375 5Z" fill="#161616"/>
<path fill-rule="evenodd" clip-rule="evenodd" d="M2.70833 15.4167H12.2917C14.7367 15.4167 16.0833 15.4167 17 14.5C17.9167 13.5842 17.9167 12.2367 17.9167 9.79167V5.625C17.9167 3.18 17.9167 1.8325 17 0.916667C16.0842 0 14.7367 0 12.2917 0H8.125C7.30167 0 6.8884 3.90597e-05 6.48674 0.102539L6.48466 0.103295C6.48256 0.104093 6.48021 0.10498 6.47835 0.10498C5.40835 0.395814 4.56338 1.24087 4.27254 2.31087L4.27139 2.31431C4.27069 2.31614 4.27002 2.31789 4.27002 2.31999C4.19678 2.60409 4.17544 2.89489 4.16922 3.33333H3.95833C2.2725 3.33333 1.34172 3.33338 0.675049 4.00838C4.87765e-05 4.67505 0 5.605 0 7.29167V12.7083C0 14.2017 1.215 15.4167 2.70833 15.4167ZM2.70833 14.1667C3.5125 14.1667 4.16667 13.5125 4.16667 12.7083V4.58333H3.95833C2.505 4.58333 1.85 4.59585 1.5625 4.88835L1.55501 4.89583C1.26251 5.18333 1.25 5.83833 1.25 7.29167V12.7083C1.25 13.5125 1.90417 14.1667 2.70833 14.1667ZM5.41484 12.8085C5.39665 13.3073 5.2432 13.7721 4.99007 14.1667H12.2917C14.4714 14.1667 15.5659 14.1667 16.1167 13.6167C16.6667 13.0667 16.6667 11.9726 16.6667 9.79206V5.625C16.6667 3.44526 16.6667 2.35085 16.1167 1.80005C15.5667 1.25005 14.4717 1.25 12.2917 1.25H8.125C7.41 1.25 7.0492 1.25 6.80086 1.3125C6.16086 1.48833 5.655 1.9942 5.47917 2.6342C5.41667 2.88253 5.41667 3.24333 5.41667 3.95833V12.7083C5.41667 12.7419 5.41606 12.7753 5.41484 12.8085Z" fill="#161616"/>
</svg>
