<svg width="17" height="17" viewBox="0 0 17 17" fill="none" xmlns="http://www.w3.org/2000/svg">
<path d="M1.25 0.625C1.25 0.279822 0.970179 0 0.625001 0C0.279823 0 3.35176e-07 0.279822 3.35176e-07 0.625V9.83812C-1.4368e-05 11.1736 -2.61019e-05 12.2394 0.112358 13.0753C0.22846 13.9389 0.474715 14.6501 1.03733 15.2127C1.59995 15.7753 2.31112 16.0215 3.17468 16.1376C4.01058 16.25 5.07639 16.25 6.41188 16.25H15.625C15.9702 16.25 16.25 15.9702 16.25 15.625C16.25 15.2798 15.9702 15 15.625 15H6.45833C5.06574 15 4.08416 14.9987 3.34124 14.8988C3.20823 14.8809 3.08605 14.8602 2.97339 14.8365C3.14108 14.5018 3.31637 14.1042 3.49666 13.6953C3.53238 13.6142 3.5683 13.5327 3.6044 13.4512C3.87921 12.8306 4.1762 12.1782 4.5122 11.5808C4.85043 10.9795 5.20929 10.4688 5.5935 10.1142C5.97227 9.76455 6.33853 9.59906 6.71358 9.59906C7.21625 9.59906 7.54631 9.89488 8.07388 10.4334L8.12569 10.4864C8.59112 10.9631 9.25498 11.6431 10.303 11.6431C11.1901 11.6431 11.8307 11.2552 12.313 10.7271C12.7367 10.2632 13.0585 9.66611 13.3391 9.14535L13.3984 9.03544C14.0413 7.84632 14.5365 7.08333 15.625 7.08333C15.9702 7.08333 16.25 6.80351 16.25 6.45833C16.25 6.11316 15.9702 5.83333 15.625 5.83333C13.7085 5.83333 12.8934 7.3411 12.3041 8.43112L12.2659 8.50178C11.9593 9.06933 11.7058 9.53835 11.39 9.88413C11.0915 10.211 10.7674 10.3931 10.303 10.3931C9.81952 10.3931 9.50025 10.1032 8.96683 9.55871L8.92751 9.51852C8.45577 9.03607 7.78401 8.34906 6.71358 8.34906C5.92884 8.34906 5.27403 8.70795 4.74568 9.19563C4.22277 9.67829 3.78846 10.3178 3.42271 10.968C3.05474 11.6223 2.73696 12.3229 2.46143 12.9451L2.35081 13.1955C2.16783 13.6102 2.00817 13.972 1.86145 14.2657C1.60459 13.9789 1.44184 13.5828 1.35121 12.9088C1.25133 12.1658 1.25 11.1843 1.25 9.79167V0.625Z" fill="#161616"/>
<path d="M4.79167 2.08333C5.13685 2.08333 5.41667 1.80351 5.41667 1.45833C5.41667 1.11316 5.13685 0.833333 4.79167 0.833333H3.95833C3.61316 0.833333 3.33333 1.11316 3.33333 1.45833C3.33333 1.80351 3.61316 2.08333 3.95833 2.08333H4.79167Z" fill="#161616"/>
<path d="M7.91667 3.95833C7.91667 4.30351 7.63684 4.58333 7.29167 4.58333H3.95833C3.61316 4.58333 3.33333 4.30351 3.33333 3.95833C3.33333 3.61316 3.61316 3.33333 3.95833 3.33333H7.29167C7.63684 3.33333 7.91667 3.61316 7.91667 3.95833Z" fill="#161616"/>
</svg>
