<svg width="18" height="18" viewBox="0 0 18 18" fill="none" xmlns="http://www.w3.org/2000/svg">
<path d="M12.3169 5.65028C12.561 5.4062 12.561 5.01047 12.3169 4.76639C12.0729 4.52231 11.6771 4.52231 11.4331 4.76639L8.54179 7.65766L6.48358 5.5997C6.23949 5.35564 5.84376 5.35566 5.5997 5.59975C5.35564 5.84384 5.35566 6.23957 5.59975 6.48364L7.65791 8.54154L7.26639 8.93306C7.02231 9.17714 7.02231 9.57286 7.26639 9.81694C7.51047 10.061 7.9062 10.061 8.15028 9.81694L8.54185 9.42537L8.93319 9.81666C9.17728 10.0607 9.57301 10.0607 9.81707 9.81661C10.0611 9.57252 10.0611 9.17679 9.81702 8.93273L9.42573 8.54149L12.3169 5.65028Z" fill="#161616"/>
<path fill-rule="evenodd" clip-rule="evenodd" d="M8.58931 1.90882e-07H8.49402C6.66843 -1.09381e-05 5.23453 -1.97813e-05 4.11502 0.150495C2.96781 0.304734 2.05759 0.627263 1.34243 1.34243C0.627263 2.05759 0.304734 2.96781 0.150495 4.11502C-1.97813e-05 5.23453 -1.09381e-05 6.66843 1.90882e-07 8.49402V8.58931C-1.09381e-05 10.4149 -1.97813e-05 11.8488 0.150495 12.9683C0.304734 14.1155 0.627263 15.0257 1.34243 15.7409C2.05759 16.4561 2.96781 16.7786 4.11502 16.9328C5.23453 17.0834 6.66842 17.0833 8.494 17.0833H8.58931C10.4149 17.0833 11.8488 17.0834 12.9683 16.9328C14.1155 16.7786 15.0257 16.4561 15.7409 15.7409C16.4561 15.0257 16.7786 14.1155 16.9328 12.9683C17.0834 11.8488 17.0833 10.4149 17.0833 8.58933V8.49403C17.0833 6.66845 17.0834 5.23453 16.9328 4.11502C16.7786 2.96781 16.4561 2.05759 15.7409 1.34243C15.0257 0.627263 14.1155 0.304734 12.9683 0.150495C11.8488 -1.97813e-05 10.4149 -1.09381e-05 8.58931 1.90882e-07ZM2.22631 2.22631C2.67052 1.78211 3.27298 1.52495 4.28158 1.38935C5.30816 1.25133 6.65802 1.25 8.54167 1.25C10.4253 1.25 11.7752 1.25133 12.8018 1.38935C13.8104 1.52495 14.4128 1.78211 14.857 2.22631C15.3012 2.67052 15.5584 3.27298 15.694 4.28158C15.832 5.30816 15.8333 6.65802 15.8333 8.54167C15.8333 10.4253 15.832 11.7752 15.694 12.8018C15.5584 13.8104 15.3012 14.4128 14.857 14.857C14.4128 15.3012 13.8104 15.5584 12.8018 15.694C11.7752 15.832 10.4253 15.8333 8.54167 15.8333C6.65802 15.8333 5.30816 15.832 4.28158 15.694C3.27298 15.5584 2.67052 15.3012 2.22631 14.857C1.78211 14.4128 1.52495 13.8104 1.38935 12.8018C1.25133 11.7752 1.25 10.4253 1.25 8.54167C1.25 6.65802 1.25133 5.30816 1.38935 4.28158C1.52495 3.27298 1.78211 2.67052 2.22631 2.22631Z" fill="#161616"/>
</svg>
