<svg width="16" height="18" viewBox="0 0 16 18" fill="none" xmlns="http://www.w3.org/2000/svg">
<path d="M4.375 7.50028C4.02982 7.50028 3.75 7.78011 3.75 8.12528C3.75 8.47046 4.02982 8.75028 4.375 8.75028H6.875C7.22018 8.75028 7.5 8.47046 7.5 8.12528C7.5 7.78011 7.22018 7.50028 6.875 7.50028H4.375Z" fill="#5E5E5E"/>
<path d="M4.375 4.16695C4.02982 4.16695 3.75 4.44677 3.75 4.79195C3.75 5.13713 4.02982 5.41695 4.375 5.41695L10.2083 5.41695C10.5535 5.41695 10.8333 5.13713 10.8333 4.79195C10.8333 4.44677 10.5535 4.16695 10.2083 4.16695H4.375Z" fill="#5E5E5E"/>
<path fill-rule="evenodd" clip-rule="evenodd" d="M7.66357 0.000244348H8.3884C9.71662 0.00023799 10.7626 0.000233219 11.5924 0.0867204C12.4397 0.175029 13.1364 0.359257 13.7324 0.779183C14.0506 1.00335 14.3343 1.27009 14.5744 1.57193C15.0285 2.14282 15.2288 2.81412 15.3241 3.62426C15.4167 4.41129 15.4167 5.40086 15.4167 6.64577V8.82981C15.4167 10.0451 15.4167 10.9883 15.3665 11.7494C15.3156 12.5209 15.2112 13.1488 14.9819 13.7274C14.2835 15.4898 12.8128 16.8658 10.9667 17.5138C9.81765 17.9172 8.40771 17.9171 5.93657 17.9169L5.63431 17.9169C4.27169 17.9172 3.42253 17.9174 2.72197 17.6715C1.59774 17.2768 0.696453 16.4367 0.267266 15.3537C0.121715 14.9864 0.0592203 14.5965 0.0292686 14.1424C-6.01634e-06 13.6986 -2.83635e-06 13.1523 3.42566e-07 12.4654V7.24233C-1.5552e-05 5.71306 -2.82625e-05 4.49784 0.135948 3.54595C0.276542 2.56175 0.573345 1.7682 1.23398 1.14643C1.88926 0.529699 2.71658 0.257198 3.7437 0.127228C4.74737 0.000225278 6.03196 0.000233222 7.66357 0.000244348ZM3.90062 1.36734C2.99885 1.48145 2.47274 1.6971 2.09068 2.05668C1.71399 2.41122 1.49213 2.8915 1.37339 3.72272C1.2515 4.576 1.25 5.70182 1.25 7.29191V12.4434C1.25 13.1572 1.25032 13.6623 1.27656 14.0601C1.30243 14.4524 1.35159 14.697 1.42934 14.8932C1.71813 15.6219 2.33524 16.2109 3.136 16.492C3.60878 16.658 4.2244 16.6669 5.77652 16.6669C6.04362 16.6669 6.2958 16.6668 6.53429 16.6663C7.68776 16.626 8.61046 15.6782 8.61046 14.5149C8.61046 14.3923 8.60507 14.2605 8.5982 14.1125L8.59564 14.0576C8.58957 13.9285 8.58297 13.788 8.58006 13.6479C8.57348 13.3312 8.58348 12.9616 8.67909 12.6048C8.8653 11.9098 9.40814 11.367 10.1031 11.1807C10.4599 11.0851 10.8295 11.0751 11.1463 11.0817C11.2864 11.0846 11.4268 11.0912 11.5559 11.0973L11.6108 11.0999C11.7588 11.1067 11.8906 11.1121 12.0132 11.1121C13.2022 11.1121 14.166 10.1483 14.166 8.95935C14.166 8.94975 14.1662 8.94021 14.1667 8.93072C14.1667 8.88988 14.1667 8.84866 14.1667 8.80706V6.68585C14.1667 5.39182 14.1657 4.47582 14.0826 3.77033C14.0014 3.07953 13.8485 2.66731 13.5961 2.35004C13.4314 2.14294 13.2351 1.95785 13.0125 1.80103C12.6648 1.5561 12.2103 1.40789 11.4628 1.32999C10.7054 1.25104 9.72454 1.25024 8.35227 1.25024H7.70833C6.02212 1.25024 4.81668 1.25142 3.90062 1.36734ZM14.1215 11.6305C13.5419 12.0886 12.8095 12.3621 12.0132 12.3621C11.8584 12.3621 11.7004 12.3554 11.5529 12.3485L11.4963 12.3459C11.3658 12.3398 11.2429 12.334 11.1203 12.3314C10.8364 12.3256 10.6093 12.3392 10.4266 12.3882C10.163 12.4588 9.95713 12.6647 9.88649 12.9283C9.83755 13.111 9.82389 13.3381 9.82979 13.622C9.83233 13.7445 9.83809 13.8674 9.84422 13.9979L9.84686 14.0545C9.85371 14.2021 9.86046 14.3601 9.86046 14.5149C9.86046 15.3004 9.59432 16.0237 9.14729 16.5996C9.72494 16.5522 10.1618 16.4716 10.5527 16.3344C12.0753 15.7999 13.2618 14.675 13.8198 13.2669C13.9813 12.8594 14.0724 12.3768 14.1192 11.6672C14.12 11.655 14.1208 11.6428 14.1215 11.6305Z" fill="#5E5E5E"/>
</svg>
