<svg xmlns="http://www.w3.org/2000/svg" width="16" height="16" viewBox="0 0 16 16">
    <defs>
        <clipPath id="y34gq86bwa">
            <path fill="none" d="M1-8.5h2.5a10.075 10.075 0 0 1 .3-2.5H1.7A7.172 7.172 0 0 0 1-8.5zM2.3-12h1.8l.6-1.5.6-.9a5.888 5.888 0 0 0-3 2.4zM8-16a8.024 8.024 0 0 0-8 8 8.024 8.024 0 0 0 8 8 8.024 8.024 0 0 0 8-8 8.024 8.024 0 0 0-8-8zm-.5 1.1a3.576 3.576 0 0 0-1.9 1.8c-.2.4-.3.7-.5 1.1h2.4zm0 3.9H4.8a10.679 10.679 0 0 0-.3 2.5h3zm1 2.5V-11h2.7a10.075 10.075 0 0 1 .3 2.5zm-1 1h-3A10.679 10.679 0 0 0 4.8-5h2.7zm1 2.5v-2.5h3a10.679 10.679 0 0 1-.3 2.5zm-1 1H5.1a5.359 5.359 0 0 0 .5 1.1A4.3 4.3 0 0 0 7.5-1zM5.3-1.5l-.6-.9a4.714 4.714 0 0 1-.6-1.5H2.3a7.131 7.131 0 0 0 3 2.4zM1.7-5h2.1a10.679 10.679 0 0 1-.3-2.5H1A7.172 7.172 0 0 0 1.7-5zm9 3.5A7.5 7.5 0 0 0 13.8-4H12l-.6 1.5c-.3.4-.5.7-.7 1zm.2-2.5H8.5v2.9A3.458 3.458 0 0 0 10.4-3a9.292 9.292 0 0 0 .5-1zm1.3-1h2.1a7.172 7.172 0 0 0 .7-2.5h-2.5a10.679 10.679 0 0 1-.3 2.5zm.3-3.5H15a7.172 7.172 0 0 0-.7-2.5h-2.1a10.075 10.075 0 0 1 .3 2.5zm-.6-3.5l-.6-1.5-.6-.9a5.888 5.888 0 0 1 3 2.4zm-1 0H8.5v-2.9a3.458 3.458 0 0 1 1.9 1.9 9.292 9.292 0 0 1 .5 1z" clip-rule="evenodd" transform="translate(0 16)"/>
        </clipPath>
    </defs>
    <g clip-path="url(#y34gq86bwa)">
        <path fill="#002b6b" d="M-5-21h26V5H-5z" transform="translate(0 16)"/>
    </g>
</svg>
