<svg width="32" height="33" viewBox="0 0 32 33" fill="none" xmlns="http://www.w3.org/2000/svg">
<path fill-rule="evenodd" clip-rule="evenodd" d="M4.0002 13.2998C4.21237 13.2998 4.41585 13.3841 4.56588 13.5341C4.71591 13.6841 4.8002 13.8876 4.8002 14.0998V27.6998H27.2002V14.0998C27.2002 13.8876 27.2845 13.6841 27.4345 13.5341C27.5845 13.3841 27.788 13.2998 28.0002 13.2998C28.2124 13.2998 28.4159 13.3841 28.5659 13.5341C28.7159 13.6841 28.8002 13.8876 28.8002 14.0998V28.4998C28.8002 28.712 28.7159 28.9155 28.5659 29.0655C28.4159 29.2155 28.2124 29.2998 28.0002 29.2998H4.0002C3.78802 29.2998 3.58454 29.2155 3.43451 29.0655C3.28448 28.9155 3.2002 28.712 3.2002 28.4998V14.0998C3.2002 13.8876 3.28448 13.6841 3.43451 13.5341C3.58454 13.3841 3.78802 13.2998 4.0002 13.2998Z" fill="white"/>
<path fill-rule="evenodd" clip-rule="evenodd" d="M4.7998 9.3C4.7998 9.08783 4.88409 8.88434 5.03412 8.73431C5.18415 8.58429 5.38763 8.5 5.5998 8.5H26.3998C26.612 8.5 26.8155 8.58429 26.9655 8.73431C27.1155 8.88434 27.1998 9.08783 27.1998 9.3V16.772C27.1997 16.9037 27.1671 17.0334 27.1049 17.1496C27.0426 17.2657 26.9527 17.3646 26.843 17.4376L16.443 24.3656C16.3117 24.453 16.1575 24.4996 15.9998 24.4996C15.8421 24.4996 15.6879 24.453 15.5566 24.3656L5.1566 17.4376C5.04692 17.3646 4.95697 17.2657 4.89472 17.1496C4.83248 17.0334 4.79987 16.9037 4.7998 16.772V9.3ZM6.3998 10.1V16.3432L15.9998 22.7384L25.5998 16.3432V10.1H6.3998Z" fill="white"/>
<path fill-rule="evenodd" clip-rule="evenodd" d="M15.5568 3.83418C15.6881 3.74681 15.8423 3.7002 16 3.7002C16.1577 3.7002 16.3119 3.74681 16.4432 3.83418L23.6432 8.63418L22.7568 9.96538L16 5.46138L9.24319 9.96538L8.35679 8.63418L15.5568 3.83418ZM26.9664 11.9334L28.5664 13.5334L27.4336 14.6662L25.8336 13.0662L26.9664 11.9334ZM6.16639 13.0662L4.56639 14.6662L3.43359 13.5334L5.03359 11.9334L6.16639 13.0662ZM10.8 13.2998C10.8 13.1937 10.8421 13.092 10.9172 13.0169C10.9922 12.9419 11.0939 12.8998 11.2 12.8998H20.8C20.9061 12.8998 21.0078 12.9419 21.0828 13.0169C21.1579 13.092 21.2 13.1937 21.2 13.2998C21.2 13.4059 21.1579 13.5076 21.0828 13.5826C21.0078 13.6576 20.9061 13.6998 20.8 13.6998H11.2C11.0939 13.6998 10.9922 13.6576 10.9172 13.5826C10.8421 13.5076 10.8 13.4059 10.8 13.2998ZM11.6 16.4998C11.6 16.3937 11.6421 16.292 11.7172 16.2169C11.7922 16.1419 11.8939 16.0998 12 16.0998H20C20.1061 16.0998 20.2078 16.1419 20.2828 16.2169C20.3579 16.292 20.4 16.3937 20.4 16.4998C20.4 16.6059 20.3579 16.7076 20.2828 16.7826C20.2078 16.8576 20.1061 16.8998 20 16.8998H12C11.8939 16.8998 11.7922 16.8576 11.7172 16.7826C11.6421 16.7076 11.6 16.6059 11.6 16.4998Z" fill="white"/>
</svg>
