<svg width="176" height="79" viewBox="0 0 176 79" fill="none" xmlns="http://www.w3.org/2000/svg">
<path d="M54.3993 9.19494C54.3615 9.32572 54.3208 9.47102 54.2772 9.62795C54.2336 9.78488 54.1958 9.94472 54.1668 10.1046C54.1377 10.2644 54.1261 10.4213 54.129 10.5724C54.129 10.7236 54.1639 10.8601 54.2249 10.9793C54.2859 11.0984 54.3847 11.1914 54.5242 11.2583C54.6637 11.3251 54.8526 11.3571 55.088 11.3542H61.7692C61.9116 10.8543 61.9494 10.3777 61.8883 9.92728C61.8244 9.47393 61.682 8.99151 61.4611 8.47422L62.6991 7.61401C62.9403 8.19814 63.0944 8.80552 63.1612 9.44196C63.228 10.0784 63.2426 10.7148 63.2135 11.3542H64.4602V12.9322H53.4925C53.3705 12.8101 53.292 12.6561 53.2572 12.4672C53.2194 12.2783 53.2107 12.072 53.2281 11.8511C53.2455 11.6303 53.2862 11.4007 53.3501 11.1595C53.4141 10.9212 53.4867 10.6887 53.571 10.4649C53.6553 10.2411 53.7425 10.0348 53.8355 9.84301C53.9285 9.65121 54.0127 9.48846 54.0912 9.35768V9.3664L54.3993 9.19203V9.19494ZM58.4417 14.2138L59.5605 15.3356L58.4417 16.4806L57.3054 15.3356L58.4417 14.2138Z" fill="#00324B"/>
<path d="M64.2307 11.3571H66.5817C66.6486 11.0984 66.6921 10.8543 66.7067 10.6247C66.7212 10.3922 66.7183 10.1626 66.6921 9.93015C66.666 9.69766 66.6166 9.46517 66.541 9.22687C66.4684 8.98857 66.3754 8.74155 66.265 8.47709L67.503 7.61688C67.7122 8.12836 67.8604 8.63402 67.9476 9.13969C68.0348 9.64535 68.0784 10.1772 68.0784 10.741L68.0464 11.3571H69.639V12.9351H64.2249V11.3571H64.2307ZM65.9133 4.47827L66.9537 5.51285L68.0028 4.47827L69.1304 5.60585L68.0028 6.74214L66.9537 5.69303L65.9133 6.74214L64.7857 5.60585L65.9133 4.47827Z" fill="#00324B"/>
<path d="M69.479 11.357H74.7245C74.1927 10.7671 73.565 10.1568 72.8385 9.52616C72.1119 8.89553 71.2575 8.24456 70.2753 7.57616L70.8681 5.74531L76.5816 3.33032L75.9829 5.06528L71.6208 6.73919C72.2049 7.1228 72.7455 7.51803 73.2424 7.92779C73.7394 8.33465 74.1956 8.73861 74.6083 9.13965C75.021 9.54069 75.3959 9.92721 75.733 10.3021C76.0701 10.677 76.3694 11.0286 76.6339 11.3541H77.4708V12.9321H69.4848V11.3541L69.479 11.357Z" fill="#00324B"/>
<path d="M79.1913 12.9351H77.2588V11.3571H78.6566L79.0112 10.0929C79.0809 9.75291 79.2001 9.4187 79.3744 9.09031C79.5488 8.76482 79.758 8.47422 80.0021 8.22138C80.2463 7.96855 80.5195 7.76803 80.8188 7.62272C81.1181 7.47451 81.4262 7.41058 81.7429 7.42511C82.2224 7.47161 82.6206 7.60528 82.9432 7.82034C83.2628 8.03539 83.5157 8.30566 83.7016 8.62534C83.8847 8.94501 84.0068 9.30246 84.0678 9.69479C84.1288 10.0871 84.1405 10.4852 84.1027 10.8892C84.0649 11.2931 83.9894 11.6884 83.8702 12.0691C83.7511 12.4498 83.6028 12.7898 83.4256 13.0833L79.6621 12.0342L79.1972 12.9351H79.1913ZM82.8763 11.328C82.9141 11.2379 82.9431 11.1188 82.9635 10.9677C82.9838 10.8165 82.9897 10.6567 82.978 10.4823C82.9664 10.308 82.9373 10.1307 82.8821 9.95053C82.8298 9.77035 82.7455 9.59889 82.6322 9.44196C82.5189 9.28503 82.3706 9.14843 82.1876 9.03509C82.0045 8.92175 81.7778 8.8462 81.5075 8.80261C81.3332 8.80261 81.1646 8.85201 80.999 8.94791C80.8333 9.04672 80.6822 9.17459 80.5485 9.34024C80.4148 9.50298 80.3044 9.68897 80.2201 9.90112C80.1358 10.1104 80.0864 10.3312 80.069 10.555L82.8705 11.328H82.8763Z" fill="#00324B"/>
<path d="M3.88797 23.6702C4.75109 23.0512 5.1812 22.7432 5.1812 22.7461C5.20154 22.9292 5.21898 23.1442 5.23351 23.3854C5.24513 23.6266 5.25966 23.8766 5.26838 24.1352C5.28 24.3938 5.29163 24.6438 5.30325 24.8879C5.31488 25.132 5.32941 25.347 5.34685 25.5301C5.46891 26.2363 5.66652 26.771 5.94551 27.1401C6.2245 27.5092 6.56451 27.6923 6.96265 27.6923H7.57875V29.2616H6.86093C6.59356 29.2558 6.34655 29.2151 6.11987 29.1395C5.89319 29.064 5.68685 28.9448 5.49796 28.7821C5.30906 28.6193 5.13469 28.4101 4.97195 28.1544C4.81211 27.8986 4.661 27.5935 4.5186 27.236C4.42269 27.5818 4.30936 27.8812 4.17859 28.1282C4.04781 28.3752 3.90541 28.5816 3.7572 28.7443C3.60608 28.907 3.45497 29.0262 3.29513 29.1047C3.1382 29.1802 2.98126 29.218 2.83014 29.218C2.66159 29.218 2.48141 29.186 2.28961 29.1221C2.09781 29.0582 1.90018 28.9739 1.70257 28.8664C1.50205 28.7588 1.30152 28.6368 1.10391 28.5002C0.903386 28.3636 0.708673 28.2183 0.519775 28.0672L0.804587 26.0155C0.830742 25.9428 0.941176 25.8295 1.13298 25.6813C1.32478 25.5301 1.56599 25.3703 1.85369 25.1959C2.1443 25.0216 2.46398 24.853 2.82143 24.6874C3.17598 24.5217 3.53343 24.3851 3.89088 24.2805V23.6731L3.88797 23.6702ZM1.99609 19.8835L3.03648 20.9239L4.07688 19.8835L5.21316 21.0111L4.07688 22.1474L3.03648 21.0983L1.99609 22.1474L0.859804 21.0111L1.99609 19.8835ZM4.07688 25.4284C3.86183 25.5127 3.64677 25.5941 3.43753 25.6783C3.22829 25.7597 3.01614 25.8527 2.804 25.9544C2.59185 26.0561 2.37388 26.1724 2.15592 26.3002C1.93796 26.4281 1.71419 26.5821 1.48752 26.7623C1.80428 26.9687 2.08909 27.1488 2.34773 27.3058C2.60638 27.4627 2.81561 27.5557 2.97836 27.5818C3.13529 27.5964 3.28641 27.5528 3.43171 27.4482C3.57702 27.3435 3.69908 27.1924 3.8037 26.9948C3.90542 26.7972 3.98388 26.5647 4.03619 26.2973C4.0885 26.03 4.10303 25.7394 4.07397 25.4284H4.07688Z" fill="#00324B"/>
<path d="M10.6041 19.6685C10.6622 19.7585 10.7087 19.8515 10.7436 19.9533C10.7785 20.055 10.8075 20.1538 10.8337 20.2526C10.8656 20.4269 10.8714 20.6013 10.8569 20.7815C10.8424 20.9617 10.8017 21.1244 10.7378 21.2697C10.6738 21.4179 10.5866 21.5371 10.4762 21.6301C10.3658 21.7231 10.2321 21.7696 10.0723 21.7696C9.94149 21.7696 9.84268 21.7463 9.77584 21.6998C9.709 21.6533 9.63634 21.5923 9.55788 21.5197C9.52591 21.572 9.48812 21.633 9.43872 21.6998C9.39222 21.7667 9.33411 21.8335 9.26436 21.8974C9.19461 21.9614 9.11323 22.0166 9.02024 22.0631C8.92434 22.1096 8.81972 22.1387 8.70348 22.1503C8.52039 22.1648 8.37218 22.1387 8.26174 22.0718C8.15131 22.0021 8.06995 21.912 8.01764 21.7957C7.96533 21.6795 7.93627 21.5487 7.92755 21.4034C7.91883 21.2581 7.92755 21.1186 7.94208 20.982C7.95952 20.8454 7.98857 20.7205 8.02635 20.6071C8.06413 20.4938 8.099 20.4124 8.13678 20.3572C8.13678 20.3717 8.14841 20.3688 8.17456 20.3485C8.20072 20.3281 8.22978 20.3049 8.26465 20.2787C8.29953 20.2526 8.32859 20.2293 8.35474 20.2119C8.3809 20.1945 8.39543 20.1916 8.39543 20.209C8.35475 20.3136 8.31697 20.4357 8.28791 20.5752C8.25885 20.7147 8.25012 20.8454 8.26465 20.9704C8.27918 21.0954 8.31406 21.1971 8.37509 21.2813C8.43612 21.3656 8.53493 21.4063 8.67152 21.4005C8.82264 21.4005 8.94177 21.3598 9.02315 21.2755C9.10452 21.1913 9.16555 21.0924 9.20914 20.9791C9.24983 20.8658 9.28471 20.7495 9.30796 20.6275C9.33121 20.5054 9.36316 20.4066 9.40676 20.3281C9.41257 20.3427 9.4242 20.3427 9.44745 20.3281C9.46779 20.3136 9.49103 20.2933 9.51719 20.27C9.54334 20.2468 9.5695 20.2264 9.59275 20.2061C9.616 20.1886 9.63054 20.1857 9.63635 20.2032C9.59276 20.3543 9.58694 20.4967 9.61601 20.6304C9.64507 20.7641 9.69737 20.8687 9.77002 20.9471C9.84267 21.0256 9.93568 21.0721 10.049 21.0895C10.1624 21.1041 10.2844 21.0692 10.4152 20.9791C10.4472 20.9326 10.4617 20.8745 10.4588 20.8047C10.4588 20.7379 10.4442 20.6653 10.4239 20.5955C10.4036 20.5258 10.3745 20.4531 10.3367 20.3834C10.2989 20.3136 10.2641 20.2497 10.2263 20.1974C10.296 20.1015 10.36 20.0143 10.421 19.93C10.482 19.8457 10.5402 19.7615 10.5983 19.6772L10.6041 19.6685Z" fill="#00324B"/>
<path d="M7.37545 27.6865H9.7265C9.79334 27.4278 9.83693 27.1837 9.85146 26.9541C9.866 26.7245 9.86309 26.492 9.83694 26.2596C9.81078 26.0271 9.76137 25.7946 9.68581 25.5563C9.61316 25.318 9.52016 25.071 9.40973 24.8065L10.6477 23.9463C10.857 24.4578 11.0052 24.9634 11.0924 25.4691C11.1795 25.9748 11.2231 26.5066 11.2231 27.0704L11.1912 27.6865H12.7837V29.2645H7.36963V27.6865H7.37545ZM8.99997 30.5432L10.0404 31.5777L11.0895 30.5432L12.217 31.6649L11.0895 32.8099L10.0404 31.7608L8.99997 32.8099L7.8724 31.6649L8.99997 30.5432Z" fill="#00324B"/>
<path d="M12.6238 27.6866H14.9429L14.7627 20.4126L16.2535 19.8052L16.1344 27.396V29.2646H12.6238V27.6866Z" fill="#00324B"/>
<path d="M17.9159 27.393L17.7502 20.4183L19.2498 19.8022L19.1161 27.6836H20.8046V29.2617H17.9159V27.393Z" fill="#00324B"/>
<path d="M22.0919 27.6866C22.118 27.4541 22.1762 27.2245 22.2604 26.992C22.3476 26.7595 22.458 26.5416 22.5946 26.3323C22.7312 26.126 22.8852 25.9313 23.0596 25.7569C23.234 25.5796 23.4171 25.4285 23.6118 25.3006C23.8065 25.1728 24.007 25.074 24.2162 25.0042C24.4255 24.9345 24.6318 24.9054 24.8352 24.917C25.245 24.9577 25.5967 25.0623 25.8873 25.228C26.1779 25.3936 26.4191 25.6029 26.608 25.8499C26.7969 26.0998 26.9393 26.3817 27.0381 26.6985C27.134 27.0153 27.1921 27.3436 27.2066 27.6837H28.3197V29.2617H27.041C26.916 29.7557 26.7387 30.1916 26.5121 30.5723L21.8884 29.2617H20.5952V27.6837H22.0861L22.0919 27.6866ZM25.9715 28.8141C26.0093 28.7241 26.0384 28.6049 26.0587 28.4538C26.0791 28.3027 26.0849 28.1428 26.0733 27.9685C26.0616 27.7941 26.0297 27.6168 25.9774 27.4366C25.925 27.2565 25.8408 27.085 25.7274 26.9281C25.6141 26.7711 25.4659 26.6346 25.2828 26.5212C25.0997 26.4079 24.873 26.3294 24.6057 26.2887C24.4313 26.2887 24.2627 26.3381 24.0971 26.434C23.9314 26.5299 23.7803 26.6607 23.6466 26.8235C23.513 26.9862 23.4025 27.1722 23.3153 27.3843C23.2282 27.5936 23.1759 27.8144 23.1613 28.0382L25.9715 28.8112V28.8141Z" fill="#00324B"/>
<path d="M28.1191 27.6866H30.4382L30.258 20.4126L31.7489 19.8052L31.6297 27.396V29.2646H28.1191V27.6866Z" fill="#00324B"/>
<path d="M33.8384 27.393L33.6582 20.4183L35.181 19.8022L35.0299 27.3146L33.9488 29.2646H33.8297L33.8384 27.3959V27.393Z" fill="#00324B"/>
<path d="M43.0161 23.6702C43.8793 23.0512 44.3094 22.7432 44.3094 22.7461C44.3297 22.9292 44.3472 23.1442 44.3617 23.3854C44.3733 23.6266 44.3878 23.8766 44.3966 24.1352C44.4082 24.3938 44.4198 24.6438 44.4314 24.8879C44.4431 25.132 44.4576 25.347 44.475 25.5301C44.5971 26.2363 44.7947 26.771 45.0737 27.1401C45.3527 27.5092 45.6927 27.6923 46.0908 27.6923H46.7069V29.2616H45.9891C45.7217 29.2558 45.4747 29.2151 45.248 29.1395C45.0214 29.064 44.815 28.9448 44.6261 28.7821C44.4372 28.6193 44.2629 28.4101 44.1001 28.1544C43.9403 27.8986 43.7892 27.5935 43.6468 27.236C43.5509 27.5818 43.4375 27.8812 43.3068 28.1282C43.176 28.3752 43.0336 28.5816 42.8854 28.7443C42.7343 28.907 42.5831 29.0262 42.4233 29.1047C42.2635 29.1831 42.1094 29.218 41.9583 29.218C41.7898 29.218 41.6096 29.186 41.4178 29.1221C41.226 29.0582 41.0284 28.9739 40.8307 28.8664C40.6302 28.7588 40.4297 28.6368 40.2321 28.5002C40.0316 28.3636 39.8368 28.2183 39.6479 28.0672L39.9328 26.0155C39.9589 25.9428 40.0693 25.8295 40.2611 25.6813C40.4529 25.5301 40.6942 25.3703 40.9819 25.1959C41.2725 25.0216 41.5922 24.853 41.9496 24.6874C42.3042 24.5217 42.6616 24.3851 43.0191 24.2805V23.6731L43.0161 23.6702ZM41.1214 19.8835L42.1617 20.9239L43.2021 19.8835L44.3384 21.0111L43.2021 22.1474L42.1617 21.0983L41.1214 22.1474L39.9851 21.0111L41.1214 19.8835ZM43.205 25.4284C42.99 25.5127 42.7749 25.5941 42.5657 25.6783C42.3565 25.7597 42.1443 25.8527 41.9322 25.9544C41.72 26.0561 41.5021 26.1724 41.2841 26.3002C41.0661 26.4281 40.8424 26.5821 40.6157 26.7623C40.9325 26.9687 41.2173 27.1488 41.4759 27.3058C41.7346 27.4627 41.9438 27.5557 42.1065 27.5818C42.2635 27.5964 42.4146 27.5528 42.5599 27.4482C42.7052 27.3435 42.8272 27.1924 42.9319 26.9948C43.0365 26.7972 43.1121 26.5647 43.1644 26.2973C43.2167 26.03 43.2312 25.7394 43.2021 25.4284H43.205Z" fill="#00324B"/>
<path d="M48.436 29.2645H46.5034V27.6864H47.9013L48.2558 26.4223C48.3255 26.0823 48.4447 25.748 48.6191 25.4197C48.7934 25.0942 49.0027 24.8036 49.2468 24.5507C49.4909 24.2979 49.7641 24.0974 50.0634 23.9521C50.3627 23.8039 50.6708 23.7399 50.9876 23.7545C51.4671 23.801 51.8652 23.9346 52.1878 24.1497C52.5075 24.3647 52.7603 24.635 52.9463 24.9547C53.1294 25.2744 53.2514 25.6318 53.3125 26.0241C53.3735 26.4165 53.3851 26.8146 53.3473 27.2185C53.3095 27.6225 53.234 28.0177 53.1148 28.3984C52.9957 28.7791 52.8475 29.1191 52.6702 29.4127L48.9068 28.3636L48.4418 29.2645H48.436ZM52.1209 27.6545C52.1587 27.5644 52.1878 27.4452 52.2081 27.2941C52.2285 27.143 52.2343 26.9831 52.2227 26.8088C52.211 26.6344 52.182 26.4571 52.1267 26.277C52.0744 26.0968 51.9902 25.9253 51.8768 25.7684C51.7635 25.6115 51.6153 25.4749 51.4322 25.3615C51.2491 25.2482 51.0224 25.1726 50.7522 25.129C50.5778 25.129 50.4092 25.1784 50.2436 25.2743C50.0779 25.3732 49.9268 25.501 49.7931 25.6667C49.6595 25.8294 49.549 26.0154 49.4648 26.2276C49.3805 26.4368 49.3311 26.6577 49.3136 26.8814L52.1151 27.6545H52.1209Z" fill="#00324B"/>
<path d="M54.6782 29.2558C54.684 29.218 54.716 29.1802 54.7741 29.1366C54.8322 29.0959 54.9194 29.0465 55.0357 28.9913C55.1519 28.9361 55.2972 28.8693 55.4745 28.7937C55.6518 28.7181 55.861 28.6281 56.1022 28.5205C55.9511 28.5002 55.8087 28.4537 55.6808 28.381C55.5529 28.3084 55.4396 28.227 55.3466 28.1311C55.2507 28.0352 55.178 27.9364 55.1257 27.8318C55.0734 27.7272 55.0473 27.6313 55.0473 27.547C55.0473 27.3465 55.0996 27.1227 55.2042 26.8728C55.3088 26.6228 55.4541 26.3758 55.6343 26.1346C55.8145 25.8934 56.0266 25.6696 56.2649 25.4691C56.5032 25.2657 56.7561 25.1117 57.0234 25.007C57.2879 24.9024 57.5582 24.8588 57.8313 24.8821C58.1045 24.9024 58.369 25.0157 58.6189 25.2221C58.5869 25.2918 58.5433 25.3732 58.4852 25.472C58.4271 25.5708 58.3661 25.6696 58.2992 25.7713C58.2324 25.8731 58.1714 25.9719 58.1103 26.062C58.0493 26.152 58.0057 26.2276 57.9795 26.2857C57.8691 26.245 57.7238 26.2102 57.5465 26.184C57.3664 26.1579 57.1862 26.1549 57.006 26.1753C56.8258 26.1956 56.6602 26.2479 56.512 26.3293C56.3638 26.4107 56.2707 26.5386 56.2272 26.7129C56.1807 26.8931 56.2126 27.0326 56.3231 27.1343C56.4335 27.236 56.5875 27.3145 56.7851 27.3668C56.9828 27.4191 57.2065 27.4482 57.4565 27.454C57.7064 27.4598 57.9505 27.454 58.1859 27.4336C58.4213 27.4162 58.6363 27.39 58.8281 27.3581C59.0199 27.3261 59.1565 27.2941 59.235 27.2622C59.1885 27.3988 59.1478 27.5179 59.1129 27.6225C59.0781 27.7272 59.0461 27.826 59.0112 27.9219C58.9763 28.0178 58.9444 28.1195 58.9095 28.2212C58.8746 28.3229 58.8369 28.4392 58.7962 28.5641C58.6276 28.6019 58.4242 28.6513 58.1888 28.7094C57.9505 28.7705 57.6976 28.8402 57.4274 28.9216C57.1571 29.0029 56.8781 29.0901 56.5933 29.186C56.3085 29.2819 56.0353 29.3778 55.7738 29.4737C55.5093 29.5725 55.2681 29.6714 55.0444 29.7731C54.8206 29.8748 54.6375 29.9736 54.4951 30.0695L54.684 29.25L54.6782 29.2558Z" fill="#00324B"/>
<path d="M60.9031 27.393L60.7229 20.4183L62.2457 19.8022L62.0946 27.3146L61.0135 29.2646H60.8944L60.9031 27.3959V27.393Z" fill="#00324B"/>
<path d="M65.0356 29.2646C64.8292 29.2588 64.652 29.2152 64.5038 29.1309C64.3526 29.0466 64.2277 28.9304 64.126 28.7793C64.0242 28.6281 63.9487 28.4509 63.8964 28.2474C63.847 28.0411 63.8208 27.8202 63.8208 27.5848C63.8208 27.1809 63.8877 26.774 64.0271 26.3672C64.1637 25.9603 64.3526 25.5942 64.5968 25.2687C64.838 24.9461 65.1227 24.6816 65.454 24.4811C65.7824 24.2777 66.1399 24.1789 66.5235 24.1789C66.8548 24.1585 67.157 24.2312 67.4302 24.3968C67.7034 24.5625 67.9388 24.8008 68.1335 25.1059C68.3282 25.414 68.4793 25.783 68.5839 26.2102C68.6886 26.6404 68.738 27.1053 68.7351 27.611V27.6895H69.9179V29.2675H68.5607C68.5026 29.5203 68.4212 29.779 68.3108 30.0492C68.2032 30.3166 68.0637 30.5811 67.8923 30.8397C67.7208 31.0983 67.5203 31.3425 67.2849 31.5778C67.0495 31.8132 66.7792 32.0196 66.4712 32.2056C66.1631 32.3887 65.8144 32.5427 65.425 32.6676C65.0356 32.7926 64.6055 32.8682 64.1318 32.9001L61.3535 32.1184C62.0365 32.0719 62.6961 31.9905 63.3326 31.8772C63.969 31.7638 64.5532 31.5982 65.0792 31.3831C65.6081 31.1681 66.0614 30.8891 66.445 30.5462C66.8257 30.2033 67.1018 29.779 67.2704 29.2675H65.0385L65.0356 29.2646ZM64.9891 26.96C64.9426 27.0327 64.9251 27.1111 64.9368 27.1954C64.9484 27.2797 64.9862 27.3582 65.0472 27.4308C65.1082 27.5064 65.1867 27.5645 65.2797 27.6139C65.3756 27.6604 65.4773 27.6837 65.5877 27.6837H67.4651C67.4854 27.6372 67.5029 27.5587 67.5116 27.4512C67.5232 27.3436 67.5203 27.2187 67.5029 27.0792C67.4883 26.9397 67.4564 26.7915 67.407 26.6374C67.3605 26.4834 67.2907 26.3352 67.2006 26.1957C67.1105 26.0562 66.9972 25.9342 66.8606 25.8237C66.724 25.7162 66.5584 25.6406 66.3637 25.6C66.2649 25.568 66.1312 25.5912 65.9626 25.6726C65.7941 25.7511 65.6342 25.8615 65.4802 26.001C65.3291 26.1405 65.2012 26.2945 65.0966 26.466C64.9949 26.6374 64.9571 26.8002 64.9833 26.96H64.9891Z" fill="#00324B"/>
<path d="M71.1995 27.6866C71.2257 27.4541 71.2838 27.2245 71.3681 26.992C71.4553 26.7595 71.5657 26.5416 71.7023 26.3323C71.8389 26.126 71.9929 25.9313 72.1673 25.7569C72.3416 25.5796 72.5247 25.4285 72.7194 25.3006C72.9141 25.1728 73.1147 25.074 73.3239 25.0042C73.5331 24.9345 73.7395 24.9054 73.9429 24.917C74.3527 24.9577 74.7043 25.0623 74.9949 25.228C75.2855 25.3936 75.5267 25.6029 75.7156 25.8499C75.9045 26.0998 76.0469 26.3817 76.1457 26.6985C76.2416 27.0153 76.2998 27.3436 76.3143 27.6837H77.4273V29.2617H76.1486C76.0237 29.7557 75.8464 30.1916 75.6197 30.5723L70.9961 29.2617H69.7029V27.6837H71.1937L71.1995 27.6866ZM75.0792 28.8141C75.117 28.7241 75.146 28.6049 75.1664 28.4538C75.1867 28.3027 75.1925 28.1428 75.1809 27.9685C75.1693 27.7941 75.1373 27.6168 75.085 27.4366C75.0327 27.2565 74.9484 27.085 74.8351 26.9281C74.7217 26.7711 74.5735 26.6346 74.3904 26.5212C74.2073 26.4079 73.9807 26.3294 73.7133 26.2887C73.539 26.2887 73.3704 26.3381 73.2047 26.434C73.0391 26.5328 72.888 26.6607 72.7543 26.8235C72.6206 26.9862 72.5102 27.1722 72.423 27.3843C72.3358 27.5936 72.2835 27.8144 72.269 28.0382L75.0792 28.8112V28.8141Z" fill="#00324B"/>
<path d="M77.2268 27.6866H79.5459L79.3657 20.4126L80.8565 19.8052L80.7374 27.396V29.2646H77.2268V27.6866Z" fill="#00324B"/>
<path d="M82.946 27.393L82.7659 20.4183L84.2887 19.8022L84.1376 27.3146L83.0565 29.2646H82.9373L82.946 27.3959V27.393Z" fill="#00324B"/>
<path d="M28.3487 45.2018C29.2147 46.0039 27.7267 48.3898 27.2414 49.1687C26.14 50.9385 24.7073 52.502 23.85 54.4258C23.7221 54.4433 23.7861 54.2718 23.7977 54.1963C24.1028 52.2928 25.9162 50.334 26.9741 48.7589C28.1685 46.9833 28.0348 46.8699 25.954 47.3872C22.7369 48.1893 19.2438 49.5116 16.1372 50.7031C14.1232 51.4732 10.5254 52.7287 8.86023 53.9434C8.79048 53.9928 8.64518 54.0713 8.67134 54.1759C8.70621 54.3125 10.6882 55.5854 10.9933 55.8092C13.6437 57.7417 16.1866 59.8196 18.6277 62.0108C21.746 64.8094 24.6346 68.8925 29.4297 67.5877C29.9354 67.4511 31.2635 66.7943 31.3391 66.2508C30.97 60.6943 30.7956 55.1175 30.1475 49.5901L30.9816 47.6517C31.2083 48.7793 31.3739 49.9272 31.4756 51.0751C31.7953 54.6845 31.7692 58.3288 32.0423 61.9411C32.144 63.304 32.2312 66.245 33.3094 67.1663C33.6378 67.4482 35.0647 67.9393 35.3204 67.5499C35.5907 66.7594 35.7796 65.7684 36.3463 65.1523C36.23 65.9748 35.7738 66.7216 35.7128 67.5528C36.8868 67.4133 37.9824 66.7972 38.9647 66.1666C38.802 65.3093 38.6857 64.4345 38.6073 63.5656C38.212 59.2471 38.0609 54.8995 37.6134 50.584C37.5581 50.2963 37.2297 49.7354 37.2094 49.5087C37.2007 49.4186 37.8023 48.012 37.8982 47.8261C37.933 47.7592 37.9389 47.6575 38.0406 47.6517C38.2672 48.4363 38.6218 49.1745 38.8891 49.9446C39.171 50.7525 39.5605 51.6796 39.5575 52.5223C39.2059 52.2869 39.0141 51.7813 38.7526 51.5081C38.6915 51.4442 38.6538 51.4035 38.6044 51.4994C39.1536 56.1811 39.1187 60.9472 40.0167 65.5795C40.7258 65.4546 41.3739 65.0768 42.1004 65.0157C45.7679 64.7048 45.393 70.5984 42.5305 70.581C40.8624 70.5722 39.7581 69.311 39.2757 67.8376C38.0667 68.4566 36.9508 69.3284 35.5733 69.5347C35.5587 71.0023 36.3318 72.6182 37.5959 73.3999C40.8566 75.4167 46.9972 72.438 49.5837 70.1654C49.7696 70.0026 50.4061 69.4243 50.3974 69.2238C50.037 68.0032 49.4442 66.864 49.107 65.6347C48.9821 65.1814 48.8978 64.263 48.7525 63.9405C48.6711 63.7603 48.4416 63.6789 48.4154 63.4958C48.3951 63.3331 48.6944 61.9062 48.7641 61.6592C48.7903 61.5691 48.7699 61.479 48.8746 61.418L50.7461 64.0625L49.9004 63.8155C50.1474 64.7978 50.6095 65.7161 50.8682 66.6926C51.8214 70.2816 50.3654 71.8858 47.4942 73.6527C44.9397 75.2249 40.5456 77.1168 37.686 75.4952C35.7099 74.3763 34.8293 71.8538 35.0037 69.6713C33.693 69.7992 32.7718 69.3371 32.1237 68.2125C31.8941 67.8172 31.7895 67.3929 31.5803 66.9919C31.1501 68.6774 30.0139 69.5144 28.3254 69.7353C25.7303 70.0753 24.3324 69.3924 22.4057 67.8376C19.9442 65.8469 17.7442 63.5423 15.2711 61.5604C15.1956 61.5022 14.7945 61.1564 14.7422 61.2058C15.9366 62.9611 17.1107 64.5449 16.4016 66.7798C16.0877 67.7736 15.2798 68.4014 14.3179 68.721C15.1956 69.1192 16.9712 69.2471 17.3897 70.238C18.7817 73.5481 12.6992 76.8959 10.2929 77.8927C7.40426 79.0901 3.21946 79.6626 1.12996 76.7535C-0.71833 74.1816 -0.0266677 70.7408 1.26365 68.0875C-0.171974 67.4627 0.0663132 65.6435 0.394705 64.3967C0.818998 62.7838 1.74315 61.293 2.10932 59.6511C2.23138 59.6336 2.18197 59.8138 2.17325 59.8893C1.95238 61.6359 -0.0121476 64.7019 1.08927 66.2799C1.51066 66.8815 2.23138 66.9716 2.81551 66.5327L3.09741 66.1084C2.95791 66.7652 2.82422 67.8056 2.10641 68.0817C1.95529 68.1398 1.50486 68.1776 1.48161 68.1979C1.4322 68.2386 1.12995 69.2325 1.08345 69.3894C0.263928 72.159 0.458652 75.1145 3.42289 76.367C7.10204 77.9189 11.9233 75.3789 14.9079 73.2575C15.1607 73.0773 16.7445 71.9294 16.7155 71.7638C16.6777 71.54 16.1342 71.3947 15.9453 71.3307C14.4342 70.8105 12.8213 70.6187 11.2868 70.2003C10.9759 70.116 10.0808 69.9532 10.0982 69.5842C10.104 69.4592 10.4993 67.8492 10.5458 67.7678C10.6039 67.6661 10.662 67.6632 10.7579 67.6254C11.4612 67.3464 12.5597 67.2796 13.3327 67.0936C13.7541 66.9948 16.0296 66.3642 15.986 65.8527C15.9628 65.5882 15.2363 64.4752 15.0445 64.1817C13.0799 61.1971 10.3423 58.5961 7.86343 56.0445C7.73847 55.5912 7.87505 55.103 7.89539 54.67C7.93608 53.8243 7.82565 53.1384 8.39235 52.4148C9.20025 51.3831 12.8416 49.994 14.1813 49.4506C17.8372 47.9714 22.2167 46.2974 26.0267 45.3413C26.5759 45.2047 27.9098 44.795 28.3487 45.2018ZM44.0301 68.32C44.1434 68.1369 43.8877 67.733 43.7598 67.5906C43.0042 66.7507 41.6093 67.0064 40.6532 67.2738C41.0542 68.288 42.3561 68.66 43.3704 68.5438C43.4808 68.5321 43.9981 68.3752 44.0301 68.32Z" fill="#00324B"/>
<path d="M75.14 52.3944C74.768 52.1212 74.5355 51.694 74.2565 51.3366C74.1955 51.4557 74.21 51.6621 74.2188 51.7986C74.5413 56.9628 75.2156 62.2461 75.4219 67.3929C75.5381 70.2816 75.8026 73.8561 72.0014 74.0653C68.5257 74.2542 68.5286 71.1418 67.9386 68.6628C67.9183 68.5815 67.9154 68.4304 67.7991 68.5582C67.7701 68.5902 67.619 69.2441 67.5492 69.4039C66.8808 70.9558 65.6399 72.0165 64.3321 73.0337C61.7573 75.0302 57.7178 77.634 56.2938 72.9668C56.2706 72.8883 56.3432 72.8418 56.1892 72.8651C55.3755 73.4521 54.524 73.9956 53.658 74.4983C52.2485 75.3208 51.2633 75.9165 49.6127 76.1693C47.9707 76.4193 46.2358 76.4919 44.5764 76.5326C44.5415 76.3321 44.6258 76.4164 44.7304 76.3728C45.5673 76.0357 46.4915 75.7799 47.3459 75.4544C50.4438 74.2775 53.3092 72.8971 56.0497 71.0284C56.2299 70.8628 56.1253 70.5925 56.163 70.3629C56.349 69.1685 56.6978 67.9015 57.3197 66.8611C57.404 66.9076 57.34 67.0703 57.3197 67.1459C57.0727 68.2734 56.4101 69.4417 56.506 70.671C56.5525 70.7233 56.9448 70.4269 57.0233 70.3775C58.1072 69.6451 59.7172 68.4623 60.528 67.4597C61.1587 66.678 60.6472 65.9282 60.4525 65.7393C59.1069 66.0125 56.9273 66.614 56.0817 65.1348C55.39 63.9259 56.0817 61.9119 57.1482 61.1157C58.7902 59.8922 60.2985 62.4554 60.9262 63.676C61.0192 63.6992 62.2746 63.1993 62.4635 63.1093C62.757 62.9698 63.4952 62.6588 63.3964 62.2723C62.9459 61.2057 62.385 60.1915 61.9608 59.1133C61.8358 58.7995 61.6324 57.9131 61.5219 57.7329C61.458 57.6283 61.147 57.669 61.1064 57.5005C61.0482 57.2505 61.5946 55.9573 61.519 55.5679L63.7771 57.8637C63.8061 58.0236 63.7073 57.9596 63.6027 57.9683C63.347 57.9887 63.1116 57.9131 62.8616 57.9335C63.6434 59.526 64.3874 61.0023 63.9573 62.839C63.6172 64.292 62.6902 64.9692 61.3418 65.4458C61.272 66.1694 61.3621 66.8378 61.1935 67.5556C60.6559 69.834 58.6042 71.1912 56.7966 72.4437C57.465 74.231 59.6998 73.6556 61.0511 73.0598C62.8355 72.2781 66.503 69.5696 67.4649 67.8956C67.7875 67.3348 67.6015 66.6954 67.4998 66.0677C67.0871 63.519 66.0293 61.136 65.0529 58.7704L65.5469 56.835C66.2124 57.7853 66.7035 58.9535 67.1017 60.0433C68.2205 63.1064 68.3484 66.0154 69.0284 69.1278C69.29 70.3222 69.505 71.3859 70.7866 71.816C71.7602 72.1415 72.8558 72.0514 73.8061 71.6881C73.9223 71.6445 74.614 71.3132 74.6547 71.2667C74.8174 71.0865 74.6605 70.8947 74.6547 70.7C74.5878 68.6919 74.3728 66.7041 74.2304 64.7018C73.9223 60.3484 73.7799 55.8294 73.3121 51.5051C73.2801 51.2203 73.2685 50.8658 73.2249 50.6042C73.1668 50.27 72.8325 49.5929 72.8267 49.3866C72.818 49.0117 73.4864 48.0381 73.5271 47.5848C73.5533 47.5644 73.6085 47.6226 73.6288 47.6574C73.9979 48.2183 74.6663 50.4502 74.8843 51.2C74.9976 51.5865 75.14 51.9788 75.1458 52.3828L75.14 52.3944ZM57.7382 64.0392C58.1683 64.0915 58.7669 64.0392 59.2203 64.0392C59.2319 64.0392 59.4063 63.9549 59.3976 63.9346C58.889 63.211 57.9677 62.3595 57.0727 63.0221C56.2764 63.612 57.1308 63.9695 57.7382 64.0421V64.0392Z" fill="#00324B"/>
<path d="M46.0876 52.3799C45.9481 52.4119 45.9219 52.3073 45.8463 52.2317C45.5819 51.9643 45.4046 51.5517 45.0995 51.3221L45.3814 55.132C45.8754 54.8007 46.3665 54.4491 46.8257 54.0713C47.2878 53.6935 47.9504 53.1297 48.3485 52.6996C49.075 51.912 48.7437 52.1533 48.1712 51.6737C47.2384 50.892 47.7644 49.8429 48.7234 49.4041C50.2143 48.7211 49.9265 50.7293 49.4732 51.4936C50.2375 51.912 50.0282 51.9934 49.6882 52.6618C48.8396 51.9905 48.9065 52.5223 48.3834 53.0861C47.9446 53.5598 47.3488 54.1875 46.8664 54.6031C46.4101 54.9983 45.8754 55.2773 45.4104 55.658L46.3026 67.3028C46.323 68.2677 46.1544 69.7963 45.8086 70.6972C45.765 70.8134 45.7301 70.9704 45.5935 71.011L44.5938 56.2364C44.5648 56.1608 44.5328 56.1201 44.4398 56.1288C44.2858 56.1433 43.1349 56.8583 42.8182 56.9803C42.7513 57.0065 42.6002 57.0907 42.5537 57.0006L44.5328 55.7161L44.0998 50.5142C44.094 50.2149 43.7045 49.6133 43.7132 49.3779C43.7162 49.2849 44.3555 47.7418 44.4253 47.6517C44.4514 47.6197 44.5008 47.5587 44.5299 47.579C45.0733 49.1687 45.7388 50.7263 46.0847 52.377L46.0876 52.3799ZM49.2639 51.3221C49.4034 50.8629 49.4063 50.0085 48.7437 50.055C47.4621 50.1422 48.6914 51.1913 49.2639 51.3221Z" fill="#00324B"/>
<path d="M77.0117 51.4267C77.1628 53.8388 77.3459 57.858 77.5319 60.27C77.7963 60.2991 78.2933 60.3311 78.5578 60.363C78.4125 57.9451 78.0986 53.9143 77.9329 51.4965L79.1506 52.5892L77.3663 47.7185C77.2645 47.7243 77.2587 47.826 77.2238 47.8929C77.1338 48.0702 76.5438 49.4418 76.5351 49.529C76.5206 49.686 76.8809 50.366 76.9274 50.5927C76.9797 50.8542 76.91 51.1535 77.0146 51.4238L77.0117 51.4267Z" fill="#00324B"/>
<path d="M54.2771 52.2376C53.908 51.9964 53.7016 51.5372 53.4285 51.2146C53.4023 51.1856 53.3064 51.0519 53.289 51.142C53.504 56.434 54.2858 61.7319 54.4921 67.0181C54.5444 68.3782 54.3584 69.7353 53.8905 71.0082C53.8324 71.0082 53.7888 70.7583 53.783 70.6915C53.289 64.3997 53.0565 58.0615 52.4404 51.7784C52.3939 51.3134 52.3706 50.677 52.2835 50.2411C52.2195 49.9272 51.9289 49.4477 51.9405 49.1687C51.9492 48.9711 52.4549 47.7825 52.5799 47.5413C52.6147 47.4745 52.6235 47.3728 52.7223 47.3669C53.2541 48.9827 53.9603 50.5521 54.2741 52.2376H54.2771Z" fill="#00324B"/>
<path d="M58.2323 53.7198L69.386 49.9099C69.4267 49.9564 69.3598 50.6219 69.1971 50.6742L58.18 54.4812C57.8516 54.6759 57.9213 55.199 57.7005 55.4838L57.8051 54.6381L55.6895 55.3443C55.7389 55.1786 55.7447 54.6759 55.8493 54.5858C55.9975 54.455 57.2936 54.1179 57.6133 53.9871C57.7208 53.9435 57.8284 53.8971 57.9359 53.8535C58.1131 52.3481 57.7325 51.174 56.8752 49.9622C56.7095 49.7268 55.7912 48.7445 55.7679 48.6631C55.7069 48.4423 56.0179 47.8436 56.0411 47.585C57.2559 48.6922 58.1858 50.4039 58.2991 52.0662C58.3369 52.6271 58.2294 53.1676 58.2294 53.7227L58.2323 53.7198Z" fill="#00324B"/>
<path d="M8.8137 60.0724C8.72071 60.1421 8.14528 59.4446 7.8227 59.8399C7.47978 60.2642 7.40714 61.8771 7.31124 62.4873C7.28509 62.6501 7.07293 63.4028 7.12234 63.458C7.51176 63.4231 8.44462 64.385 8.44171 64.6844C8.44171 64.8529 8.28478 65.0941 8.31675 65.2947C7.51466 65.19 6.32605 65.1377 5.98895 66.0444C6.35221 68.195 6.99738 70.3222 6.90438 72.5309L6.69513 73.4841C6.73291 72.4117 6.62829 71.351 6.46264 70.2932C6.2999 69.2673 5.95408 68.224 5.79715 67.2185C5.56466 65.7567 5.78553 64.6786 7.47108 64.5565C7.18046 64.2746 6.71839 64.0276 6.36385 64.3327C6.25341 64.4286 6.20111 64.6786 6.05871 64.7338C6.1052 64.3327 6.30862 63.7602 6.62539 63.5016C6.71548 63.4289 6.89566 63.4028 6.90438 63.3912C6.93635 63.3505 6.67771 62.5455 6.63993 62.4205C6.55856 62.1619 5.95117 60.6391 5.73902 60.6391C5.66637 60.6391 5.65474 60.9529 5.17233 60.7815C4.53007 60.5577 4.62017 60.0927 4.93984 59.6248C5.12874 59.3487 5.42516 59.5405 5.68381 59.7062C6.54402 60.2554 6.89566 61.8858 7.08165 62.8245C7.29961 61.9933 7.31995 61.1186 7.50304 60.2816C7.628 59.7062 7.86631 58.4537 8.63352 59.1569C8.96482 59.4592 9.01713 59.6742 8.81079 60.0724H8.8137Z" fill="#00324B"/>
<path d="M0.836392 51.4617L2.69921 50.7468C3.15256 50.4765 3.62917 50.2411 4.01278 49.872C2.76605 49.6395 1.46992 49.7064 0.199951 49.6948C0.391755 49.4797 0.978798 48.1894 1.11539 48.1051C1.15898 48.0789 1.80413 48.0034 1.92619 47.9976C2.60041 47.9598 3.85585 48.0557 4.48938 48.262C4.65794 48.3173 4.8265 48.3841 4.9689 48.4916C5.02702 48.5643 4.9689 48.6195 4.94565 48.6834C4.76256 49.2356 4.10287 50.5056 3.65242 50.8514C2.92299 51.4123 1.71695 51.3629 0.836392 51.4559V51.4617Z" fill="#00324B"/>
<path d="M22.9345 56.4746C23.0682 56.463 22.9985 56.6984 22.9869 56.7739C22.8881 57.4016 22.5684 58.4159 21.8331 58.5147C20.8683 58.6455 20.2202 57.7998 20.1185 56.925C19.8395 54.5275 21.6094 52.1939 22.0889 49.9097C22.2255 49.8951 22.1325 50.0463 22.1237 50.1218C21.9552 51.5138 21.1618 52.9146 20.8509 54.2834C20.6532 55.1639 20.5167 56.2392 21.2723 56.896C21.8273 57.3813 22.7834 57.2476 22.9345 56.4717V56.4746Z" fill="#00324B"/>
<path d="M83.8554 55.5156C83.9891 55.504 83.9194 55.7394 83.9077 55.8149C83.8089 56.4427 83.4893 57.4569 82.754 57.5557C81.7892 57.6865 81.1411 56.8408 81.0394 55.966C80.7604 53.5685 82.5303 51.2349 83.0098 48.9507C83.1464 48.9362 83.0534 49.0873 83.0446 49.1628C82.8761 50.5549 82.0827 51.9556 81.7718 53.3244C81.5741 54.2049 81.4376 55.2802 82.1931 55.937C82.7482 56.4223 83.7043 56.2886 83.8554 55.5127V55.5156Z" fill="#00324B"/>
<path d="M33.2919 72.5136C33.6407 72.8623 33.4082 74.0829 32.9374 74.2776C32.7369 74.359 32.487 74.2631 32.2951 74.1788C31.9319 74.0189 31.7488 73.6993 31.4059 73.551C31.031 75.1494 29.3193 76.1404 27.9476 76.835C26.7183 77.4569 25.4861 77.701 24.1348 77.9277L26.5817 76.8815C28.1278 75.9777 30.3132 75.2511 31.2751 73.6702C31.3536 73.5394 31.5919 72.9466 31.6267 72.9204C31.6558 72.9001 31.7633 72.9756 31.8302 72.9495C31.9174 72.9146 32.0888 72.6647 32.2283 72.5746C32.5218 72.3857 33.013 72.2346 33.2919 72.5136ZM33.1699 73.6934C33.0536 72.996 32.6177 72.7519 31.9697 73.0599C32.0627 73.2808 33.0188 73.83 33.1699 73.6934Z" fill="#00324B"/>
<path d="M17.4972 54.2137C17.5408 53.7894 17.1543 53.6615 16.8172 53.5859C16.0994 53.4261 15.3525 53.554 14.6725 53.7894C14.7567 54.0509 14.9718 54.1614 15.1898 54.295C15.9018 54.728 18.2237 55.3209 18.401 56.1695C18.4853 56.5763 17.9738 57.207 17.5379 57.175C16.5585 56.7275 15.5298 56.3148 14.5737 55.8266C13.6728 55.3674 12.83 54.9954 13.0479 53.7894C13.2223 53.9696 13.2979 54.1846 13.4693 54.3909C13.7105 54.6786 14.0476 54.9228 14.3673 55.1175C15.431 55.7626 16.7591 56.216 17.8895 56.7536C18.247 56.7449 17.936 56.2421 17.7733 56.0881C17.0177 55.3732 15.0997 55.1175 14.4661 54.4549C13.9605 53.9289 15.2392 53.3738 15.6722 53.2721C16.4016 53.1006 18.5579 53.0164 17.4972 54.2137Z" fill="#00324B"/>
<path d="M22.7224 76.3758C22.6497 76.6228 21.9639 78.1747 21.8331 78.2066L19.8279 77.082L20.8508 75.3267L22.7224 76.3787V76.3758Z" fill="#00324B"/>
<path d="M68.4327 75.3906C68.6565 75.5766 70.2752 76.4049 70.2868 76.5502L69.415 78.2735L67.4185 77.1169L68.4327 75.3906Z" fill="#00324B"/>
<path d="M82.3355 75.3906C82.5593 75.5766 84.178 76.4049 84.1896 76.5502L83.3178 78.2735L81.3213 77.1169L82.3355 75.3906Z" fill="#00324B"/>
<path d="M64.4484 77.852C64.3728 77.7445 65.1778 76.2653 65.2621 76.0183C65.4655 75.9834 66.9098 76.9511 67.1917 77.1284C67.2266 77.2504 66.349 78.8198 66.2443 78.8285L64.4484 77.852Z" fill="#00324B"/>
<path d="M19.6857 77.0122L18.7673 78.7733L16.8696 77.6835L17.7502 75.9573L19.6857 77.0122Z" fill="#00324B"/>
<path d="M49.758 59.2964L47.7905 58.2735L48.6304 56.4717L50.531 57.5033L49.758 59.2964Z" fill="#00324B"/>
<path d="M4.29469 54.2834C4.254 54.3125 3.76287 53.7138 3.42285 53.9376C2.88232 54.2921 2.93462 56.7827 2.61495 57.5034C2.56263 57.6226 2.51905 57.6022 2.42606 57.672C2.21972 56.6722 1.86517 55.7191 1.33045 54.8501C1.15027 54.7891 1.15898 55.0536 1.07471 55.0681C0.795719 55.1146 0.197056 54.7513 0.199962 54.391C0.199962 54.2834 0.484766 53.6557 0.531263 53.6441C0.644602 53.6208 0.91486 53.7196 1.0282 53.7778C1.99303 54.2515 2.3999 55.9922 2.56845 56.9687C2.83291 56.0823 2.84162 55.1204 3.06248 54.2137C3.17582 53.7487 3.37926 52.7926 4.0186 53.2576C4.45452 53.5772 4.57657 53.8039 4.29758 54.2834H4.29469Z" fill="#00324B"/>
<path d="M70.6559 53.5801C69.8393 52.9321 69.6184 53.1035 69.4063 54.0596C69.2436 54.7978 69.2494 55.5941 69.0692 56.3322C69.014 56.5618 68.9878 56.8146 68.7844 56.9657C68.5664 55.9689 68.2322 55.0099 67.6888 54.1439C67.4476 54.1526 67.4941 54.3997 67.1947 54.327C66.9477 54.2689 66.5176 53.9754 66.5205 53.6847C66.5205 53.5976 66.846 52.9466 66.8867 52.9379C67.9736 52.7141 68.9064 55.44 68.9239 56.2625C69.2581 55.3209 69.1389 53.5191 69.6766 52.7083C70.1764 51.9585 71.0599 52.9786 70.653 53.5801H70.6559Z" fill="#00324B"/>
<path d="M84.4889 60.5635C83.6723 59.9155 83.4515 60.0869 83.2393 61.043C83.0766 61.7812 83.0824 62.5775 82.9022 63.3156C82.847 63.5452 82.8208 63.798 82.6174 63.9492C82.3994 62.9524 82.0652 61.9933 81.5218 61.1273C81.2806 61.136 81.3271 61.3831 81.0278 61.3104C80.7807 61.2523 80.3506 60.9588 80.3535 60.6682C80.3535 60.581 80.679 59.93 80.7197 59.9213C81.8066 59.6975 82.7395 62.4235 82.7569 63.2459C83.0911 62.3043 82.9719 60.5025 83.5096 59.6917C84.0094 58.9419 84.8929 59.962 84.486 60.5635H84.4889Z" fill="#00324B"/>
<path d="M63.3152 48.6398C63.1989 48.7473 62.6351 47.9103 62.2399 48.5177C61.8447 49.128 61.9173 50.8717 61.6587 51.6766C61.6122 51.822 61.5773 51.9324 61.4436 52.0254C61.2053 51.479 61.1123 50.8833 60.8769 50.334C60.7084 49.9388 60.4614 49.5901 60.2754 49.2035C60.0109 49.7121 59.1739 49.2239 59.1478 48.8112C59.142 48.6979 59.4268 48.0847 59.4762 48.0731C59.8714 47.9742 60.2928 48.3695 60.5253 48.6398C61.1181 49.3285 61.3157 50.2759 61.4785 51.1448C61.4988 51.2465 61.4785 51.3628 61.618 51.3918C61.7284 50.5374 61.8011 49.6017 61.9929 48.7676C62.1033 48.2794 62.3242 47.178 62.9955 47.6517C63.3994 47.9365 63.5099 48.1806 63.3122 48.6398H63.3152Z" fill="#00324B"/>
<path d="M29.0752 54.356C28.9444 54.4548 28.3922 53.6266 27.9999 54.2339C27.6337 54.8006 27.5727 57.544 27.3083 57.7445C27.192 57.7678 27.16 57.7184 27.1135 57.6225C26.9334 57.2476 26.8375 56.5211 26.6369 56.0532C26.4684 55.6579 26.2214 55.3092 26.0354 54.9227C25.7709 55.4313 24.934 54.943 24.9078 54.5304C24.902 54.417 25.1868 53.8038 25.2362 53.7922C25.6314 53.6934 26.0528 54.0886 26.2853 54.3589C26.8781 55.0477 27.0758 55.9951 27.2385 56.864C27.2588 56.9657 27.2385 57.0819 27.378 57.111C27.5843 56.1665 27.5669 54.2659 28.0958 53.4871C28.5492 52.8187 29.4588 53.8038 29.0723 54.356H29.0752Z" fill="#00324B"/>
<path d="M29.7087 62.8244C29.6709 62.8535 29.2844 62.3275 28.8369 62.4844C28.305 62.6704 28.3574 65.6811 27.9069 66.213L27.1804 64.1903C27.1165 64.0595 26.7387 63.3911 26.637 63.394C26.5585 63.394 26.5236 63.7602 25.9889 63.4783C25.4745 63.208 25.5442 62.7489 25.8639 62.3391C26.1371 61.9904 26.7793 62.5745 26.9915 62.8302C27.2821 63.1819 27.4536 63.6149 27.6221 64.0334L28.0115 65.5823C28.1743 64.9604 28.3835 61.8974 28.9793 61.7143C29.299 61.6155 29.6041 61.9177 29.7785 62.1618C30.008 62.4844 29.7668 62.4931 29.7058 62.8302L29.7087 62.8244Z" fill="#00324B"/>
<path d="M36.3462 49.5553C36.2357 49.6366 35.9306 49.0787 35.4802 49.2153C35.2477 49.285 35.146 49.8139 35.0995 50.0348C35.0036 50.4736 34.8088 52.8072 34.5473 52.9409C34.4107 52.9729 34.4456 52.8886 34.4107 52.7985C34.1056 51.9877 34.0155 50.9793 33.4139 50.2644C33.1785 49.9854 33.2628 50.2615 33.0506 50.3196C32.7571 50.4009 32.2253 50.0231 32.1991 49.718C32.1904 49.6047 32.5275 48.9537 32.6409 48.9421C33.2076 48.8781 33.9806 49.9796 34.123 50.4736L34.6548 52.3045C34.9135 51.2989 34.8437 49.5553 35.3726 48.6805C35.8056 47.9627 36.8053 48.9711 36.3491 49.5524L36.3462 49.5553Z" fill="#00324B"/>
<path d="M30.133 58.166L30.0168 58.7327L23.0741 61.2C23.0654 60.982 23.0421 60.706 23.263 60.5781L30.133 58.166Z" fill="#00324B"/>
<path d="M32.7456 64.5886L32.8589 64.0161L38.0406 62.1184C37.997 62.3102 38.0202 62.6415 37.8546 62.7432L32.7485 64.5886H32.7456Z" fill="#00324B"/>
<path d="M43.4778 62.0486C43.5998 62.0312 43.5504 62.2113 43.5417 62.2869C43.4487 63.0396 42.7658 64.3241 41.9259 63.4958C40.8623 62.4467 42.2369 60.3194 42.4926 59.157C42.6205 59.1396 42.5566 59.311 42.5449 59.3866C42.4054 60.2788 41.7399 61.4005 42.0305 62.3363C42.2718 63.1151 43.4865 62.9349 43.4836 62.0515L43.4778 62.0486Z" fill="#00324B"/>
<path d="M25.1229 73.6935C25.2508 73.6761 25.1868 73.8475 25.1752 73.9231C25.1171 74.2922 24.8352 75.1146 24.469 75.2628C24.0622 75.4284 23.7628 75.3122 23.51 74.9867C22.5801 73.7865 23.8762 71.9789 24.1348 70.7293C24.2627 70.7118 24.1988 70.8833 24.1871 70.9588C24.0883 71.5953 23.7192 72.2637 23.6466 72.8885C23.5885 73.4 23.5507 74.0161 24.0273 74.327C24.5824 74.6903 24.9805 74.2108 25.1229 73.6935Z" fill="#00324B"/>
<path d="M35.6402 58.7327C35.7681 58.7153 35.7041 58.8867 35.6925 58.9623C35.5821 59.654 34.9863 60.8862 34.161 60.1742C33.0043 59.1774 34.4022 56.9135 34.6492 55.7685C34.7829 55.7569 34.7132 55.9923 34.7015 56.0678C34.5708 56.8903 33.6379 58.6339 34.4719 59.2994C35.0212 59.7382 35.4978 59.3081 35.6402 58.7327Z" fill="#00324B"/>
<path d="M64.7971 68.5409C64.925 68.5235 64.8611 68.6949 64.8494 68.7705C64.7216 69.5842 63.9689 71.0576 63.1435 69.9475C62.2572 68.756 63.4574 67.0733 63.7393 65.8586C63.8701 65.8469 63.8061 66.0881 63.7916 66.1579C63.6172 67.0036 63.0331 67.9597 63.3295 68.8402C63.6492 69.7818 64.739 69.4592 64.7971 68.5409Z" fill="#00324B"/>
<path d="M58.8686 58.3084C59.0023 58.2909 58.918 58.4479 58.9064 58.5205C58.8425 58.9477 58.6042 59.7237 58.2118 59.9445C57.6103 60.2816 57.1162 59.7556 56.9593 59.1918C56.6251 57.9945 57.5638 56.6926 57.8108 55.5534C57.9416 55.5418 57.8776 55.783 57.8631 55.8527C57.6974 56.6606 57.2441 57.4104 57.3167 58.2677C57.4156 59.4156 58.7059 59.4563 58.8686 58.3055V58.3084Z" fill="#00324B"/>
<path d="M71.4347 62.0485C71.5626 62.0311 71.4987 62.2025 71.487 62.2781C71.3621 63.0685 70.6762 64.5303 69.8131 63.4928C68.8599 62.3478 70.095 60.5664 70.3769 59.3661C70.5077 59.3545 70.4438 59.5957 70.4292 59.6655C70.2694 60.4211 69.8189 61.2028 69.8829 62.0107C69.9788 63.2167 71.2923 63.2284 71.4347 62.0485Z" fill="#00324B"/>
<path d="M83.4953 74.1235C82.7193 74.4751 81.7312 74.4403 80.8972 74.3385C80.0254 74.2281 79.1971 73.9113 78.7873 73.086C78.3253 72.188 78.2613 71.1563 78.1916 70.1683C78.116 69.0552 78.0434 67.948 77.9678 66.8349C77.93 66.2566 77.6772 60.2526 77.5232 60.241C77.7382 60.2526 77.9562 60.27 78.1683 60.2933C78.2613 60.2962 78.3514 60.3049 78.4473 60.3136C78.4735 60.3136 78.5026 60.3165 78.52 60.334C78.5461 60.3543 78.549 60.3892 78.549 60.4241C78.6595 62.0021 78.7903 63.583 78.8774 65.161C78.9501 66.4077 78.8426 67.6516 79.0227 68.8925C79.0692 69.2209 79.0809 69.558 79.1216 69.8893C79.1593 70.209 79.2029 70.5286 79.232 70.8512C79.2436 70.9849 79.2407 71.0953 79.2175 71.2261C79.1942 71.3569 79.1855 71.4789 79.2872 71.5777C79.6476 71.9207 80.0806 72.2287 80.5688 72.3653C81.0832 72.5106 81.6295 72.5048 82.1585 72.4699C82.638 72.4409 83.1029 72.3275 83.5069 72.1619C83.7859 72.0456 84.062 71.8887 84.2218 71.63C84.4398 71.2784 84.3874 70.825 84.277 70.424C84.0126 69.4824 83.4691 68.6193 82.7222 67.9771C82.8966 67.3522 83.2482 66.1026 83.2482 66.1026L83.4459 66.1229C84.3439 67.3464 84.8553 68.9273 84.9222 70.4414C84.9832 71.7376 84.8437 73.5132 83.4894 74.1264L83.4953 74.1235Z" fill="#00324B"/>
<path d="M73.8904 77.8201L74.0037 77.2476L79.1853 75.3499C79.1417 75.5417 79.165 75.873 78.9993 75.9747L73.8933 77.8201H73.8904Z" fill="#00324B"/>
<path d="M85.3754 38.6396H0.572021V40.2264H85.3754V38.6396Z" fill="#00324B"/>
<path d="M128.087 32.5659C129.287 30.9327 130.766 30.0376 132.158 29.8516C128.729 31.7754 128.88 35.7248 128.88 35.7626C129.293 33.9434 130.984 32.0747 132.234 31.7551C131.22 32.5484 131.545 36.3322 132.618 37.4976C132.289 35.1407 132.681 32.6356 134.762 31.5894L135.332 32.1619L134.756 32.7432L135.332 33.3244L134.756 33.9056L135.332 34.4868L134.756 35.0651L135.332 35.6464L134.756 36.2276L135.332 36.8088L134.756 37.39L135.332 37.9713L134.756 38.5496L135.332 39.1308L134.756 39.712L135.332 40.2933L134.756 40.8716L135.332 41.4528L134.756 42.034L135.332 42.6123L134.318 43.5917L136.486 42.717L138.654 43.5917L137.639 42.6123L138.215 42.034L137.636 41.4528L138.215 40.8716L137.636 40.2903L138.215 39.7091L137.636 39.1308L138.215 38.5496L137.636 37.9684L138.215 37.3871L137.636 36.8059L138.215 36.2276L137.636 35.6464L138.215 35.0651L137.636 34.4839L138.215 33.9027L137.636 33.3244L138.215 32.7432L137.636 32.1619L138.209 31.5894C140.29 32.6385 140.682 35.1407 140.351 37.4976C141.42 36.3322 141.746 32.5484 140.734 31.7551C141.984 32.0747 143.675 33.9434 144.088 35.7626C144.088 35.7277 144.239 31.7754 140.81 29.8516C142.121 30.0143 143.681 30.9327 144.881 32.5659C144.881 32.531 144.033 28.817 140.191 28.0033C141.888 27.8493 142.708 28.0934 144.015 29.0291C142.818 26.1259 138.776 26.5386 138.712 26.5386C139.711 26.0271 140.912 25.0449 139.627 25.1785C137.224 25.4256 136.483 23.2605 136.483 23.2605C136.483 23.2605 135.742 25.4227 133.338 25.1785C132.054 25.0478 133.254 26.0271 134.254 26.5386C134.19 26.5386 130.147 26.1259 128.95 29.0291C130.258 28.0963 131.077 27.8493 132.774 28.0033C128.933 28.817 128.084 32.5339 128.084 32.5688L128.087 32.5659Z" fill="#00324B"/>
<path d="M143.48 51.1243C143.271 52.2083 142.208 51.6067 142.01 51.4934C141.923 51.444 141.693 51.2638 141.379 51.008L141.995 50.235C142.196 49.9822 142.155 49.616 141.905 49.4155C141.655 49.215 141.289 49.2556 141.089 49.5085L140.49 50.2611C139.206 49.1714 137.596 47.7619 137.596 47.7619C137.596 47.7619 143.733 41.8944 151.385 41.5079C151.376 41.5079 146.668 39.0726 140.098 43.766C138.979 44.5652 136.602 46.6372 136.491 46.7331C136.381 46.6372 134.004 44.5652 132.885 43.766C126.314 39.0726 121.609 41.505 121.597 41.5079C129.249 41.8944 135.384 47.759 135.387 47.7619C135.387 47.7619 133.777 49.1714 132.492 50.2611L131.894 49.5085C131.693 49.2556 131.327 49.215 131.077 49.4155C130.827 49.616 130.784 49.9851 130.987 50.235L131.603 51.008C131.292 51.2638 131.06 51.444 130.973 51.4934C130.775 51.6067 129.711 52.2083 129.502 51.1243C129.348 50.328 128.319 50.0287 127.936 50.9237C127.546 51.8363 128.183 52.8941 129.2 53.1934C130.086 53.455 130.917 53.301 131.661 52.7604C131.792 52.6645 132.089 52.4233 132.475 52.1036L133.018 52.7866C133.042 52.8156 133.042 52.8563 133.016 52.8825C132.789 53.1091 132.789 53.4811 133.016 53.7078C133.129 53.8212 133.277 53.8793 133.428 53.8793C133.576 53.8793 133.725 53.8212 133.841 53.7078C134.297 53.2486 134.329 52.5279 133.922 52.0455L133.37 51.3538C134.733 50.2059 136.395 48.779 136.497 48.6919C136.599 48.779 138.264 50.2059 139.624 51.3538L139.084 52.0339C138.668 52.5308 138.697 53.2486 139.153 53.7078C139.267 53.8212 139.415 53.8793 139.566 53.8793C139.717 53.8793 139.862 53.8212 139.979 53.7078C140.205 53.4811 140.205 53.1091 139.979 52.8825C139.952 52.8563 139.95 52.8156 139.984 52.7749L140.519 52.1036C140.906 52.4233 141.202 52.6645 141.333 52.7604C142.077 53.301 142.908 53.4579 143.794 53.1934C144.811 52.8912 145.448 51.8334 145.058 50.9237C144.675 50.0287 143.646 50.328 143.492 51.1243H143.48Z" fill="#00324B"/>
<path d="M135.884 0V13.7518L131.946 17.6895H118.171L135.884 0Z" fill="#00324B"/>
<path d="M116.116 19.7383V33.5191L110.775 38.8605H96.968L116.116 19.7383Z" fill="#00324B"/>
<path d="M134.381 77.0878L96.9797 40.0754H111.06L121.368 50.3805L134.381 77.0878Z" fill="#00324B"/>
<path d="M123.35 26.2858L117.328 32.3044V19.8342L123.35 26.2858Z" fill="#00324B"/>
<path d="M154.806 17.6895H141.025L137.093 13.7576V0L154.806 17.6895Z" fill="#00324B"/>
<path d="M176 38.8605H162.196L156.86 33.5249V19.7383L176 38.8605Z" fill="#00324B"/>
<path d="M155.651 19.8342V32.316L149.621 26.2858L155.651 19.8342Z" fill="#00324B"/>
<path d="M130.731 18.9014L124.21 25.4256L118.119 18.9014H130.731Z" fill="#00324B"/>
<path d="M154.858 18.9014L148.764 25.4285L142.237 18.9014H154.858Z" fill="#00324B"/>
<path d="M148.99 52.9961L136.491 78.6397L123.995 53.0106L136.485 65.4953L148.99 52.9961Z" fill="#00324B"/>
<path d="M175.997 40.0754L138.601 77.082L138.592 77.0907L151.612 50.366L161.911 40.0754H175.997Z" fill="#00324B"/>
</svg>
