<svg width="176" height="79" viewBox="0 0 176 79" fill="none" xmlns="http://www.w3.org/2000/svg">
<path d="M54.3991 9.19494C54.3614 9.32572 54.3207 9.47102 54.2771 9.62795C54.2335 9.78488 54.1957 9.94472 54.1666 10.1046C54.1376 10.2644 54.126 10.4213 54.1289 10.5724C54.1289 10.7236 54.1637 10.8601 54.2248 10.9793C54.2858 11.0984 54.3846 11.1914 54.5241 11.2583C54.6636 11.3251 54.8525 11.3571 55.0879 11.3542H61.769C61.9114 10.8543 61.9492 10.3777 61.8882 9.92728C61.8243 9.47393 61.6819 8.99151 61.461 8.47422L62.699 7.61401C62.9402 8.19814 63.0942 8.80552 63.1611 9.44196C63.2279 10.0784 63.2425 10.7148 63.2134 11.3542H64.4601V12.9322H53.4924C53.3704 12.8101 53.2919 12.6561 53.257 12.4672C53.2193 12.2783 53.2105 12.072 53.228 11.8511C53.2454 11.6303 53.2861 11.4007 53.35 11.1595C53.414 10.9212 53.4866 10.6887 53.5709 10.4649C53.6552 10.2411 53.7423 10.0348 53.8353 9.84301C53.9283 9.65121 54.0126 9.48846 54.0911 9.35768V9.3664L54.3991 9.19203V9.19494ZM58.4416 14.2138L59.5604 15.3356L58.4416 16.4806L57.3053 15.3356L58.4416 14.2138Z" fill="white"/>
<path d="M64.2305 11.3571H66.5816C66.6484 11.0985 66.692 10.8543 66.7065 10.6247C66.7211 10.3923 66.7182 10.1627 66.692 9.93019C66.6659 9.6977 66.6165 9.46521 66.5409 9.22691C66.4683 8.9886 66.3753 8.74159 66.2648 8.47713L67.5028 7.61692C67.7121 8.1284 67.8603 8.63406 67.9475 9.13973C68.0347 9.64539 68.0782 10.1772 68.0782 10.741L68.0463 11.3571H69.6388V12.9351H64.2247V11.3571H64.2305ZM65.9132 4.47831L66.9536 5.51289L68.0027 4.47831L69.1303 5.60588L68.0027 6.74218L66.9536 5.69306L65.9132 6.74218L64.7856 5.60588L65.9132 4.47831Z" fill="white"/>
<path d="M69.479 11.3571H74.7245C74.1927 10.7672 73.565 10.1569 72.8385 9.52624C72.1119 8.89561 71.2575 8.24464 70.2753 7.57623L70.8681 5.74538L76.5816 3.3304L75.9829 5.06535L71.6208 6.73927C72.2049 7.12288 72.7455 7.51811 73.2424 7.92787C73.7394 8.33473 74.1956 8.73868 74.6083 9.13973C75.021 9.54077 75.3959 9.92728 75.733 10.3022C76.0701 10.6771 76.3694 11.0287 76.6339 11.3542H77.4708V12.9322H69.4848V11.3542L69.479 11.3571Z" fill="white"/>
<path d="M79.1912 12.9351H77.2587V11.3571H78.6565L79.011 10.0929C79.0808 9.75292 79.1999 9.41871 79.3743 9.09032C79.5487 8.76483 79.7579 8.47422 80.002 8.22139C80.2461 7.96856 80.5193 7.76804 80.8187 7.62273C81.118 7.47452 81.426 7.41059 81.7428 7.42512C82.2223 7.47161 82.6205 7.60529 82.943 7.82034C83.2627 8.0354 83.5155 8.30567 83.7015 8.62535C83.8846 8.94502 84.0067 9.30247 84.0677 9.69479C84.1287 10.0871 84.1404 10.4853 84.1026 10.8892C84.0648 11.2932 83.9892 11.6884 83.8701 12.0691C83.7509 12.4498 83.6027 12.7898 83.4254 13.0833L79.662 12.0342L79.197 12.9351H79.1912ZM82.8762 11.328C82.914 11.2379 82.943 11.1188 82.9634 10.9677C82.9837 10.8166 82.9895 10.6567 82.9779 10.4823C82.9663 10.308 82.9372 10.1307 82.882 9.95053C82.8297 9.77035 82.7454 9.59889 82.6321 9.44196C82.5187 9.28503 82.3705 9.14844 82.1874 9.0351C82.0043 8.92176 81.7777 8.84621 81.5074 8.80261C81.333 8.80261 81.1645 8.85202 80.9988 8.94792C80.8332 9.04673 80.6821 9.1746 80.5484 9.34025C80.4147 9.50299 80.3043 9.68898 80.22 9.90113C80.1357 10.1104 80.0863 10.3312 80.0689 10.555L82.8704 11.328H82.8762Z" fill="white"/>
<path d="M3.88785 23.6703C4.75097 23.0513 5.18108 22.7433 5.18108 22.7462C5.20142 22.9293 5.21886 23.1443 5.23339 23.3855C5.24501 23.6267 5.25954 23.8767 5.26826 24.1353C5.27988 24.3939 5.29151 24.6439 5.30313 24.888C5.31475 25.1321 5.32929 25.3471 5.34673 25.5302C5.46879 26.2364 5.6664 26.7711 5.94539 27.1402C6.22438 27.5093 6.56439 27.6924 6.96253 27.6924H7.57863V29.2617H6.86081C6.59344 29.2559 6.34643 29.2152 6.11975 29.1396C5.89307 29.0641 5.68673 28.9449 5.49784 28.7822C5.30894 28.6194 5.13457 28.4102 4.97183 28.1545C4.81199 27.8987 4.66087 27.5936 4.51847 27.2361C4.42257 27.5819 4.30924 27.8813 4.17846 28.1283C4.04769 28.3753 3.90529 28.5817 3.75707 28.7444C3.60595 28.9071 3.45485 29.0263 3.29501 29.1048C3.13808 29.1803 2.98114 29.2181 2.83002 29.2181C2.66147 29.2181 2.48129 29.1861 2.28949 29.1222C2.09768 29.0583 1.90006 28.974 1.70245 28.8665C1.50192 28.7589 1.3014 28.6369 1.10379 28.5003C0.903264 28.3637 0.708551 28.2184 0.519653 28.0673L0.804465 26.0156C0.83062 25.9429 0.941054 25.8296 1.13286 25.6814C1.32466 25.5302 1.56586 25.3704 1.85357 25.196C2.14418 25.0217 2.46386 24.8531 2.82131 24.6875C3.17586 24.5218 3.53331 24.3852 3.89076 24.2806V23.6732L3.88785 23.6703ZM1.99597 19.8836L3.03636 20.924L4.07676 19.8836L5.21304 21.0112L4.07676 22.1475L3.03636 21.0984L1.99597 22.1475L0.859682 21.0112L1.99597 19.8836ZM4.07676 25.4285C3.8617 25.5128 3.64665 25.5942 3.43741 25.6784C3.22817 25.7598 3.01602 25.8528 2.80388 25.9545C2.59173 26.0562 2.37376 26.1725 2.1558 26.3003C1.93784 26.4282 1.71407 26.5822 1.4874 26.7624C1.80416 26.9688 2.08897 27.1489 2.34761 27.3059C2.60626 27.4628 2.81549 27.5558 2.97824 27.5819C3.13517 27.5965 3.28628 27.5529 3.43159 27.4483C3.5769 27.3436 3.69896 27.1925 3.80358 26.9949C3.9053 26.7973 3.98376 26.5648 4.03607 26.2974C4.08838 26.0301 4.10291 25.7395 4.07385 25.4285H4.07676Z" fill="white"/>
<path d="M10.604 19.6686C10.6621 19.7587 10.7086 19.8517 10.7435 19.9534C10.7783 20.0551 10.8074 20.1539 10.8335 20.2527C10.8655 20.4271 10.8713 20.6015 10.8568 20.7816C10.8423 20.9618 10.8016 21.1246 10.7376 21.2699C10.6737 21.4181 10.5865 21.5372 10.4761 21.6302C10.3657 21.7232 10.232 21.7697 10.0721 21.7697C9.94137 21.7697 9.84256 21.7465 9.77572 21.7C9.70888 21.6535 9.63622 21.5924 9.55776 21.5198C9.52579 21.5721 9.488 21.6331 9.4386 21.7C9.3921 21.7668 9.33398 21.8336 9.26424 21.8976C9.19449 21.9615 9.11311 22.0167 9.02011 22.0632C8.92421 22.1097 8.8196 22.1388 8.70336 22.1504C8.52027 22.1649 8.37205 22.1388 8.26162 22.072C8.15119 22.0022 8.06983 21.9121 8.01752 21.7959C7.96521 21.6796 7.93615 21.5489 7.92743 21.4035C7.91871 21.2582 7.92743 21.1187 7.94196 20.9822C7.95939 20.8456 7.98845 20.7206 8.02623 20.6073C8.06401 20.4939 8.09888 20.4126 8.13666 20.3573C8.13666 20.3719 8.14829 20.369 8.17444 20.3486C8.2006 20.3283 8.22966 20.305 8.26453 20.2789C8.2994 20.2527 8.32847 20.2295 8.35462 20.212C8.38078 20.1946 8.39531 20.1917 8.39531 20.2091C8.35462 20.3137 8.31685 20.4358 8.28779 20.5753C8.25872 20.7148 8.25 20.8456 8.26453 20.9705C8.27906 21.0955 8.31394 21.1972 8.37497 21.2815C8.43599 21.3658 8.53481 21.4065 8.67139 21.4006C8.82251 21.4006 8.94165 21.36 9.02302 21.2757C9.1044 21.1914 9.16543 21.0926 9.20902 20.9792C9.24971 20.8659 9.28459 20.7497 9.30784 20.6276C9.33108 20.5056 9.36304 20.4067 9.40663 20.3283C9.41245 20.3428 9.42407 20.3428 9.44732 20.3283C9.46767 20.3137 9.49091 20.2934 9.51707 20.2702C9.54322 20.2469 9.56938 20.2266 9.59263 20.2062C9.61588 20.1888 9.63042 20.1859 9.63623 20.2033C9.59264 20.3544 9.58682 20.4968 9.61588 20.6305C9.64494 20.7642 9.69725 20.8688 9.7699 20.9473C9.84255 21.0257 9.93555 21.0722 10.0489 21.0897C10.1622 21.1042 10.2843 21.0693 10.4151 20.9792C10.447 20.9327 10.4616 20.8746 10.4586 20.8049C10.4586 20.738 10.4441 20.6654 10.4238 20.5956C10.4034 20.5259 10.3744 20.4532 10.3366 20.3835C10.2988 20.3138 10.2639 20.2498 10.2262 20.1975C10.2959 20.1016 10.3598 20.0144 10.4209 19.9301C10.4819 19.8459 10.54 19.7616 10.5982 19.6773L10.604 19.6686Z" fill="white"/>
<path d="M7.3752 27.6866H9.72626C9.7931 27.4279 9.83669 27.1838 9.85122 26.9542C9.86575 26.7246 9.86285 26.4922 9.83669 26.2597C9.81054 26.0272 9.76113 25.7947 9.68557 25.5564C9.61292 25.3181 9.51992 25.0711 9.40949 24.8066L10.6475 23.9464C10.8567 24.4579 11.0049 24.9635 11.0921 25.4692C11.1793 25.9749 11.2229 26.5067 11.2229 27.0705L11.1909 27.6866H12.7835V29.2646H7.36938V27.6866H7.3752ZM8.99973 30.5433L10.0401 31.5779L11.0892 30.5433L12.2168 31.665L11.0892 32.81L10.0401 31.7609L8.99973 32.81L7.87216 31.665L8.99973 30.5433Z" fill="white"/>
<path d="M12.6237 27.6866H14.9427L14.7626 20.4126L16.2534 19.8052L16.1343 27.396V29.2646H12.6237V27.6866Z" fill="white"/>
<path d="M17.9158 27.3931L17.7501 20.4184L19.2497 19.8023L19.116 27.6837H20.8045V29.2617H17.9158V27.3931Z" fill="white"/>
<path d="M22.0918 27.6866C22.1179 27.4541 22.176 27.2245 22.2603 26.992C22.3475 26.7595 22.4579 26.5416 22.5945 26.3323C22.7311 26.126 22.8851 25.9313 23.0595 25.7569C23.2339 25.5796 23.4169 25.4285 23.6116 25.3006C23.8064 25.1728 24.0069 25.074 24.2161 25.0042C24.4254 24.9345 24.6317 24.9054 24.8351 24.917C25.2449 24.9577 25.5965 25.0623 25.8871 25.228C26.1778 25.3936 26.419 25.6029 26.6079 25.8499C26.7967 26.0998 26.9391 26.3817 27.038 26.6985C27.1339 27.0153 27.192 27.3436 27.2065 27.6837H28.3196V29.2617H27.0409C26.9159 29.7557 26.7386 30.1916 26.5119 30.5723L21.8883 29.2617H20.5951V27.6837H22.0859L22.0918 27.6866ZM25.9714 28.8141C26.0092 28.7241 26.0382 28.6049 26.0586 28.4538C26.0789 28.3027 26.0848 28.1428 26.0731 27.9685C26.0615 27.7941 26.0295 27.6168 25.9772 27.4366C25.9249 27.2565 25.8406 27.085 25.7273 26.9281C25.614 26.7711 25.4657 26.6346 25.2827 26.5212C25.0996 26.4079 24.8729 26.3294 24.6055 26.2887C24.4312 26.2887 24.2626 26.3381 24.097 26.434C23.9313 26.5299 23.7802 26.6607 23.6465 26.8235C23.5128 26.9862 23.4024 27.1722 23.3152 27.3843C23.228 27.5936 23.1757 27.8144 23.1612 28.0382L25.9714 28.8112V28.8141Z" fill="white"/>
<path d="M28.1191 27.6866H30.4382L30.258 20.4126L31.7489 19.8052L31.6297 27.396V29.2646H28.1191V27.6866Z" fill="white"/>
<path d="M33.8384 27.3931L33.6582 20.4184L35.181 19.8023L35.0299 27.3146L33.9488 29.2646H33.8297L33.8384 27.396V27.3931Z" fill="white"/>
<path d="M43.0159 23.6703C43.879 23.0513 44.3091 22.7433 44.3091 22.7462C44.3295 22.9293 44.3469 23.1443 44.3614 23.3855C44.3731 23.6267 44.3876 23.8767 44.3963 24.1353C44.4079 24.3939 44.4196 24.6439 44.4312 24.888C44.4428 25.1321 44.4573 25.3471 44.4748 25.5302C44.5968 26.2364 44.7945 26.7711 45.0734 27.1402C45.3524 27.5093 45.6924 27.6924 46.0906 27.6924H46.7067V29.2617H45.9889C45.7215 29.2559 45.4745 29.2152 45.2478 29.1396C45.0211 29.0641 44.8148 28.9449 44.6259 28.7822C44.437 28.6194 44.2626 28.4102 44.0999 28.1545C43.94 27.8987 43.7889 27.5936 43.6465 27.2361C43.5506 27.5819 43.4373 27.8813 43.3065 28.1283C43.1757 28.3753 43.0333 28.5817 42.8851 28.7444C42.734 28.9071 42.5829 29.0263 42.423 29.1048C42.2632 29.1832 42.1092 29.2181 41.9581 29.2181C41.7895 29.2181 41.6093 29.1861 41.4175 29.1222C41.2257 29.0583 41.0281 28.974 40.8305 28.8665C40.63 28.7589 40.4295 28.6369 40.2318 28.5003C40.0313 28.3637 39.8366 28.2184 39.6477 28.0673L39.9325 26.0156C39.9587 25.9429 40.0691 25.8296 40.2609 25.6814C40.4527 25.5302 40.6939 25.3704 40.9816 25.196C41.2722 25.0217 41.5919 24.8531 41.9494 24.6875C42.3039 24.5218 42.6614 24.3852 43.0188 24.2806V23.6732L43.0159 23.6703ZM41.1211 19.8836L42.1615 20.924L43.2019 19.8836L44.3382 21.0112L43.2019 22.1475L42.1615 21.0984L41.1211 22.1475L39.9848 21.0112L41.1211 19.8836ZM43.2048 25.4285C42.9897 25.5128 42.7747 25.5942 42.5655 25.6784C42.3562 25.7598 42.1441 25.8528 41.9319 25.9545C41.7198 26.0562 41.5018 26.1725 41.2839 26.3003C41.0659 26.4282 40.8421 26.5822 40.6154 26.7624C40.9322 26.9688 41.217 27.1489 41.4757 27.3059C41.7343 27.4628 41.9435 27.5558 42.1063 27.5819C42.2632 27.5965 42.4143 27.5529 42.5596 27.4483C42.7049 27.3436 42.827 27.1925 42.9316 26.9949C43.0362 26.7973 43.1118 26.5648 43.1641 26.2974C43.2164 26.0301 43.231 25.7395 43.2019 25.4285H43.2048Z" fill="white"/>
<path d="M48.4357 29.2646H46.5032V27.6866H47.901L48.2556 26.4224C48.3253 26.0824 48.4445 25.7482 48.6188 25.4198C48.7932 25.0943 49.0024 24.8037 49.2465 24.5509C49.4907 24.298 49.7638 24.0975 50.0632 23.9522C50.3625 23.804 50.6705 23.7401 50.9873 23.7546C51.4668 23.8011 51.865 23.9348 52.1875 24.1498C52.5072 24.3649 52.76 24.6351 52.946 24.9548C53.1291 25.2745 53.2512 25.6319 53.3122 26.0243C53.3732 26.4166 53.3849 26.8147 53.3471 27.2187C53.3093 27.6226 53.2337 28.0179 53.1146 28.3986C52.9954 28.7793 52.8472 29.1193 52.6699 29.4128L48.9065 28.3637L48.4415 29.2646H48.4357ZM52.1207 27.6546C52.1585 27.5645 52.1875 27.4454 52.2079 27.2942C52.2282 27.1431 52.234 26.9833 52.2224 26.8089C52.2108 26.6345 52.1817 26.4573 52.1265 26.2771C52.0742 26.0969 51.9899 25.9255 51.8766 25.7685C51.7632 25.6116 51.615 25.475 51.4319 25.3617C51.2489 25.2483 51.0222 25.1728 50.7519 25.1292C50.5775 25.1292 50.409 25.1786 50.2433 25.2745C50.0777 25.3733 49.9266 25.5012 49.7929 25.6668C49.6592 25.8296 49.5488 26.0155 49.4645 26.2277C49.3802 26.4369 49.3308 26.6578 49.3134 26.8816L52.1149 27.6546H52.1207Z" fill="white"/>
<path d="M54.6781 29.2559C54.6839 29.2181 54.7158 29.1803 54.774 29.1367C54.8321 29.096 54.9193 29.0466 55.0355 28.9914C55.1518 28.9362 55.2971 28.8694 55.4744 28.7938C55.6516 28.7182 55.8609 28.6282 56.1021 28.5206C55.951 28.5003 55.8086 28.4538 55.6807 28.3811C55.5528 28.3085 55.4395 28.2271 55.3465 28.1312C55.2506 28.0353 55.1779 27.9365 55.1256 27.8319C55.0733 27.7273 55.0471 27.6314 55.0471 27.5471C55.0471 27.3466 55.0995 27.1228 55.2041 26.8729C55.3087 26.6229 55.454 26.3759 55.6342 26.1347C55.8144 25.8935 56.0265 25.6697 56.2648 25.4692C56.5031 25.2658 56.756 25.1118 57.0233 25.0071C57.2878 24.9025 57.558 24.8589 57.8312 24.8822C58.1044 24.9025 58.3689 25.0158 58.6188 25.2222C58.5868 25.2919 58.5432 25.3733 58.4851 25.4721C58.427 25.5709 58.3659 25.6697 58.2991 25.7714C58.2323 25.8732 58.1712 25.972 58.1102 26.0621C58.0492 26.1521 58.0056 26.2277 57.9794 26.2858C57.869 26.2451 57.7237 26.2103 57.5464 26.1841C57.3662 26.158 57.1861 26.155 57.0059 26.1754C56.8257 26.1957 56.6601 26.248 56.5118 26.3294C56.3636 26.4108 56.2706 26.5387 56.227 26.713C56.1805 26.8932 56.2125 27.0327 56.3229 27.1344C56.4334 27.2361 56.5874 27.3146 56.785 27.3669C56.9826 27.4192 57.2064 27.4483 57.4563 27.4541C57.7063 27.4599 57.9504 27.4541 58.1858 27.4337C58.4212 27.4163 58.6362 27.3901 58.828 27.3582C59.0198 27.3262 59.1564 27.2942 59.2349 27.2623C59.1884 27.3989 59.1477 27.518 59.1128 27.6226C59.0779 27.7273 59.046 27.8261 59.0111 27.922C58.9762 28.0179 58.9443 28.1196 58.9094 28.2213C58.8745 28.323 58.8367 28.4393 58.796 28.5642C58.6275 28.602 58.4241 28.6514 58.1887 28.7095C57.9504 28.7706 57.6975 28.8403 57.4273 28.9217C57.157 29.003 56.878 29.0902 56.5932 29.1861C56.3084 29.282 56.0352 29.3779 55.7737 29.4738C55.5092 29.5726 55.268 29.6715 55.0443 29.7732C54.8205 29.8749 54.6374 29.9737 54.495 30.0696L54.6839 29.2501L54.6781 29.2559Z" fill="white"/>
<path d="M60.9031 27.3931L60.7229 20.4184L62.2457 19.8023L62.0946 27.3146L61.0135 29.2646H60.8944L60.9031 27.396V27.3931Z" fill="white"/>
<path d="M65.0356 29.2646C64.8292 29.2588 64.652 29.2152 64.5038 29.1309C64.3526 29.0466 64.2277 28.9304 64.126 28.7793C64.0242 28.6282 63.9487 28.4509 63.8964 28.2475C63.847 28.0411 63.8208 27.8203 63.8208 27.5849C63.8208 27.1809 63.8877 26.7741 64.0271 26.3672C64.1637 25.9603 64.3526 25.5942 64.5968 25.2687C64.838 24.9461 65.1227 24.6817 65.454 24.4811C65.7824 24.2777 66.1399 24.1789 66.5235 24.1789C66.8548 24.1585 67.157 24.2312 67.4302 24.3968C67.7034 24.5625 67.9388 24.8008 68.1335 25.1059C68.3282 25.414 68.4793 25.7831 68.5839 26.2103C68.6886 26.6404 68.738 27.1054 68.7351 27.611V27.6895H69.9179V29.2675H68.5607C68.5026 29.5203 68.4212 29.779 68.3108 30.0493C68.2032 30.3166 68.0637 30.5811 67.8923 30.8397C67.7208 31.0984 67.5203 31.3425 67.2849 31.5779C67.0495 31.8133 66.7792 32.0196 66.4712 32.2056C66.1631 32.3887 65.8144 32.5427 65.425 32.6677C65.0356 32.7926 64.6055 32.8682 64.1318 32.9001L61.3535 32.1184C62.0365 32.0719 62.6961 31.9905 63.3326 31.8772C63.969 31.7639 64.5532 31.5982 65.0792 31.3832C65.6081 31.1681 66.0614 30.8891 66.445 30.5462C66.8257 30.2033 67.1018 29.779 67.2704 29.2675H65.0385L65.0356 29.2646ZM64.9891 26.96C64.9426 27.0327 64.9251 27.1112 64.9368 27.1954C64.9484 27.2797 64.9862 27.3582 65.0472 27.4308C65.1082 27.5064 65.1867 27.5645 65.2797 27.6139C65.3756 27.6604 65.4773 27.6837 65.5877 27.6837H67.4651C67.4854 27.6372 67.5029 27.5587 67.5116 27.4512C67.5232 27.3437 67.5203 27.2187 67.5029 27.0792C67.4883 26.9397 67.4564 26.7915 67.407 26.6375C67.3605 26.4834 67.2907 26.3352 67.2006 26.1957C67.1105 26.0562 66.9972 25.9342 66.8606 25.8238C66.724 25.7162 66.5584 25.6407 66.3637 25.6C66.2649 25.568 66.1312 25.5913 65.9626 25.6726C65.7941 25.7511 65.6342 25.8615 65.4802 26.001C65.3291 26.1405 65.2012 26.2945 65.0966 26.466C64.9949 26.6375 64.9571 26.8002 64.9833 26.96H64.9891Z" fill="white"/>
<path d="M71.1994 27.6866C71.2256 27.4541 71.2837 27.2245 71.368 26.992C71.4551 26.7595 71.5656 26.5416 71.7022 26.3323C71.8387 26.126 71.9928 25.9313 72.1671 25.7569C72.3415 25.5796 72.5246 25.4285 72.7193 25.3006C72.914 25.1728 73.1145 25.074 73.3238 25.0042C73.533 24.9345 73.7393 24.9054 73.9428 24.917C74.3525 24.9577 74.7042 25.0623 74.9948 25.228C75.2854 25.3936 75.5266 25.6029 75.7155 25.8499C75.9044 26.0998 76.0468 26.3817 76.1456 26.6985C76.2415 27.0153 76.2996 27.3436 76.3142 27.6837H77.4272V29.2617H76.1485C76.0236 29.7557 75.8463 30.1916 75.6196 30.5723L70.996 29.2617H69.7028V27.6837H71.1936L71.1994 27.6866ZM75.0791 28.8141C75.1169 28.7241 75.1459 28.6049 75.1663 28.4538C75.1866 28.3027 75.1924 28.1428 75.1808 27.9685C75.1692 27.7941 75.1372 27.6168 75.0849 27.4366C75.0326 27.2565 74.9483 27.085 74.835 26.9281C74.7216 26.7711 74.5734 26.6346 74.3903 26.5212C74.2072 26.4079 73.9806 26.3294 73.7132 26.2887C73.5388 26.2887 73.3703 26.3381 73.2046 26.434C73.039 26.5328 72.8879 26.6607 72.7542 26.8235C72.6205 26.9862 72.5101 27.1722 72.4229 27.3843C72.3357 27.5936 72.2834 27.8144 72.2688 28.0382L75.0791 28.8112V28.8141Z" fill="white"/>
<path d="M77.2267 27.6866H79.5458L79.3656 20.4126L80.8564 19.8052L80.7373 27.396V29.2646H77.2267V27.6866Z" fill="white"/>
<path d="M82.9459 27.3931L82.7657 20.4184L84.2886 19.8023L84.1374 27.3146L83.0564 29.2646H82.9372L82.9459 27.396V27.3931Z" fill="white"/>
<path d="M28.3487 45.2017C29.2147 46.0038 27.7267 48.3898 27.2414 49.1686C26.14 50.9384 24.7073 52.5019 23.85 54.4258C23.7221 54.4432 23.7861 54.2717 23.7977 54.1962C24.1028 52.2927 25.9162 50.3339 26.9741 48.7588C28.1685 46.9832 28.0348 46.8699 25.954 47.3872C22.7369 48.1892 19.2438 49.5115 16.1372 50.703C14.1232 51.4731 10.5254 52.7286 8.86023 53.9434C8.79048 53.9928 8.64518 54.0712 8.67134 54.1758C8.70621 54.3124 10.6882 55.5853 10.9933 55.8091C13.6437 57.7416 16.1866 59.8195 18.6277 62.0107C21.746 64.8093 24.6346 68.8924 29.4297 67.5876C29.9354 67.451 31.2635 66.7942 31.3391 66.2508C30.97 60.6943 30.7956 55.1174 30.1475 49.59L30.9816 47.6516C31.2083 48.7792 31.3739 49.9271 31.4756 51.075C31.7953 54.6844 31.7692 58.3287 32.0423 61.941C32.144 63.3039 32.2312 66.245 33.3094 67.1662C33.6378 67.4481 35.0647 67.9392 35.3204 67.5498C35.5907 66.7593 35.7796 65.7684 36.3463 65.1523C36.23 65.9747 35.7738 66.7215 35.7128 67.5527C36.8868 67.4132 37.9824 66.7971 38.9647 66.1665C38.802 65.3092 38.6857 64.4344 38.6073 63.5655C38.212 59.247 38.0609 54.8995 37.6134 50.5839C37.5581 50.2962 37.2297 49.7353 37.2094 49.5086C37.2007 49.4185 37.8023 48.012 37.8982 47.826C37.933 47.7591 37.9389 47.6574 38.0406 47.6516C38.2672 48.4363 38.6218 49.1744 38.8891 49.9445C39.171 50.7524 39.5605 51.6795 39.5575 52.5223C39.2059 52.2869 39.0141 51.7812 38.7526 51.508C38.6915 51.4441 38.6538 51.4034 38.6044 51.4993C39.1536 56.1811 39.1187 60.9471 40.0167 65.5794C40.7258 65.4545 41.3739 65.0767 42.1004 65.0157C45.7679 64.7047 45.393 70.5983 42.5305 70.5809C40.8624 70.5722 39.7581 69.3109 39.2757 67.8375C38.0667 68.4565 36.9508 69.3283 35.5733 69.5347C35.5587 71.0023 36.3318 72.6181 37.5959 73.3998C40.8566 75.4167 46.9972 72.4379 49.5837 70.1653C49.7696 70.0026 50.4061 69.4242 50.3974 69.2237C50.037 68.0031 49.4442 66.864 49.107 65.6347C48.9821 65.1813 48.8978 64.263 48.7525 63.9404C48.6711 63.7602 48.4416 63.6789 48.4154 63.4958C48.3951 63.333 48.6944 61.9061 48.7641 61.6591C48.7903 61.569 48.7699 61.4789 48.8746 61.4179L50.7461 64.0625L49.9004 63.8154C50.1474 64.7977 50.6095 65.716 50.8682 66.6925C51.8214 70.2816 50.3654 71.8857 47.4942 73.6527C44.9397 75.2249 40.5456 77.1167 37.686 75.4951C35.7099 74.3763 34.8293 71.8538 35.0037 69.6713C33.693 69.7991 32.7718 69.3371 32.1237 68.2124C31.8941 67.8172 31.7895 67.3929 31.5803 66.9918C31.1501 68.6774 30.0139 69.5143 28.3254 69.7352C25.7303 70.0752 24.3324 69.3923 22.4057 67.8375C19.9442 65.8468 17.7442 63.5423 15.2711 61.5603C15.1956 61.5022 14.7945 61.1563 14.7422 61.2057C15.9366 62.961 17.1107 64.5449 16.4016 66.7797C16.0877 67.7736 15.2798 68.4013 14.3179 68.721C15.1956 69.1191 16.9712 69.247 17.3897 70.238C18.7817 73.548 12.6992 76.8959 10.2929 77.8927C7.40426 79.09 3.21946 79.6625 1.12996 76.7535C-0.71833 74.1816 -0.0266677 70.7407 1.26365 68.0874C-0.171974 67.4626 0.0663132 65.6434 0.394705 64.3967C0.818998 62.7838 1.74315 61.2929 2.10932 59.651C2.23138 59.6335 2.18197 59.8137 2.17325 59.8893C1.95238 61.6358 -0.0121476 64.7018 1.08927 66.2798C1.51066 66.8814 2.23138 66.9715 2.81551 66.5327L3.09741 66.1084C2.95791 66.7651 2.82422 67.8055 2.10641 68.0816C1.95529 68.1397 1.50486 68.1775 1.48161 68.1979C1.4322 68.2385 1.12995 69.2324 1.08345 69.3894C0.263928 72.1589 0.458652 75.1144 3.42289 76.367C7.10204 77.9188 11.9233 75.3789 14.9079 73.2574C15.1607 73.0772 16.7445 71.9293 16.7155 71.7637C16.6777 71.5399 16.1342 71.3946 15.9453 71.3306C14.4342 70.8105 12.8213 70.6187 11.2868 70.2002C10.9759 70.1159 10.0808 69.9532 10.0982 69.5841C10.104 69.4591 10.4993 67.8491 10.5458 67.7678C10.6039 67.666 10.662 67.6631 10.7579 67.6253C11.4612 67.3464 12.5597 67.2795 13.3327 67.0935C13.7541 66.9947 16.0296 66.3641 15.986 65.8526C15.9628 65.5882 15.2363 64.4751 15.0445 64.1816C13.0799 61.197 10.3423 58.596 7.86343 56.0445C7.73847 55.5911 7.87505 55.1029 7.89539 54.6699C7.93608 53.8242 7.82565 53.1384 8.39235 52.4147C9.20025 51.3831 12.8416 49.9939 14.1813 49.4505C17.8372 47.9713 22.2167 46.2973 26.0267 45.3412C26.5759 45.2046 27.9098 44.7949 28.3487 45.2017ZM44.0301 68.3199C44.1434 68.1368 43.8877 67.7329 43.7598 67.5905C43.0042 66.7506 41.6093 67.0064 40.6532 67.2737C41.0542 68.288 42.3561 68.6599 43.3704 68.5437C43.4808 68.5321 43.9981 68.3751 44.0301 68.3199Z" fill="white"/>
<path d="M75.1401 52.3944C74.7681 52.1212 74.5357 51.694 74.2567 51.3366C74.1956 51.4557 74.2102 51.6621 74.2189 51.7986C74.5415 56.9628 75.2157 62.2461 75.422 67.3929C75.5383 70.2816 75.8027 73.8561 72.0015 74.0653C68.5258 74.2542 68.5287 71.1418 67.9388 68.6628C67.9184 68.5815 67.9155 68.4304 67.7993 68.5582C67.7702 68.5902 67.6191 69.2441 67.5493 69.4039C66.8809 70.9558 65.64 72.0165 64.3323 73.0337C61.7574 75.0302 57.7179 77.634 56.2939 72.9668C56.2707 72.8883 56.3434 72.8418 56.1893 72.8651C55.3756 73.4521 54.5241 73.9956 53.6581 74.4983C52.2486 75.3208 51.2635 75.9165 49.6128 76.1693C47.9708 76.4193 46.2359 76.4919 44.5765 76.5326C44.5416 76.3321 44.6259 76.4164 44.7305 76.3728C45.5675 76.0357 46.4916 75.7799 47.346 75.4544C50.4439 74.2775 53.3094 72.8971 56.0498 71.0284C56.23 70.8628 56.1254 70.5925 56.1632 70.3629C56.3492 69.1685 56.6979 67.9015 57.3198 66.8611C57.4041 66.9076 57.3401 67.0703 57.3198 67.1459C57.0728 68.2734 56.4102 69.4417 56.5061 70.671C56.5526 70.7233 56.9449 70.4269 57.0234 70.3775C58.1074 69.6451 59.7174 68.4623 60.5282 67.4597C61.1588 66.678 60.6473 65.9282 60.4526 65.7393C59.1071 66.0125 56.9275 66.614 56.0818 65.1348C55.3901 63.9259 56.0818 61.9119 57.1483 61.1157C58.7903 59.8922 60.2986 62.4554 60.9263 63.676C61.0193 63.6992 62.2747 63.1993 62.4636 63.1093C62.7572 62.9698 63.4953 62.6588 63.3965 62.2723C62.9461 61.2057 62.3852 60.1915 61.9609 59.1133C61.8359 58.7995 61.6325 57.9131 61.5221 57.7329C61.4581 57.6283 61.1472 57.669 61.1065 57.5005C61.0484 57.2505 61.5947 55.9573 61.5191 55.5679L63.7772 57.8637C63.8063 58.0236 63.7074 57.9596 63.6028 57.9683C63.3471 57.9887 63.1117 57.9131 62.8618 57.9335C63.6435 59.526 64.3875 61.0023 63.9574 62.839C63.6174 64.292 62.6903 64.9692 61.3419 65.4458C61.2721 66.1694 61.3622 66.8378 61.1937 67.5556C60.656 69.834 58.6043 71.1912 56.7967 72.4437C57.4651 74.231 59.6999 73.6556 61.0513 73.0598C62.8356 72.2781 66.5031 69.5696 67.4651 67.8956C67.7876 67.3348 67.6017 66.6954 67.4999 66.0677C67.0873 63.519 66.0294 61.136 65.053 58.7704L65.547 56.835C66.2125 57.7853 66.7037 58.9535 67.1018 60.0433C68.2207 63.1064 68.3485 66.0154 69.0286 69.1278C69.2901 70.3222 69.5052 71.3859 70.7868 71.816C71.7603 72.1415 72.8559 72.0514 73.8062 71.6881C73.9225 71.6445 74.6141 71.3132 74.6548 71.2667C74.8175 71.0865 74.6606 70.8947 74.6548 70.7C74.588 68.6919 74.3729 66.7041 74.2305 64.7018C73.9225 60.3484 73.7801 55.8294 73.3122 51.5051C73.2802 51.2203 73.2686 50.8658 73.225 50.6042C73.1669 50.27 72.8327 49.5929 72.8269 49.3866C72.8181 49.0117 73.4865 48.0381 73.5272 47.5848C73.5534 47.5644 73.6086 47.6226 73.6289 47.6574C73.998 48.2183 74.6664 50.4502 74.8844 51.2C74.9977 51.5865 75.1401 51.9788 75.1459 52.3828L75.1401 52.3944ZM57.7383 64.0392C58.1684 64.0915 58.7671 64.0392 59.2204 64.0392C59.232 64.0392 59.4064 63.9549 59.3977 63.9346C58.8891 63.211 57.9679 62.3595 57.0728 63.0221C56.2765 63.612 57.1309 63.9695 57.7383 64.0421V64.0392Z" fill="white"/>
<path d="M46.0876 52.3799C45.9481 52.4118 45.9219 52.3072 45.8463 52.2317C45.5819 51.9643 45.4046 51.5516 45.0995 51.322L45.3814 55.132C45.8754 54.8007 46.3665 54.449 46.8257 54.0712C47.2878 53.6934 47.9504 53.1296 48.3485 52.6995C49.075 51.912 48.7437 52.1532 48.1712 51.6737C47.2384 50.8919 47.7644 49.8428 48.7234 49.404C50.2143 48.7211 49.9265 50.7292 49.4732 51.4935C50.2375 51.912 50.0282 51.9933 49.6882 52.6618C48.8396 51.9904 48.9065 52.5223 48.3834 53.0861C47.9446 53.5597 47.3488 54.1875 46.8664 54.603C46.4101 54.9983 45.8754 55.2773 45.4104 55.658L46.3026 67.3028C46.323 68.2676 46.1544 69.7962 45.8086 70.6971C45.765 70.8134 45.7301 70.9703 45.5935 71.011L44.5938 56.2363C44.5648 56.1607 44.5328 56.12 44.4398 56.1287C44.2858 56.1433 43.1349 56.8582 42.8182 56.9803C42.7513 57.0064 42.6002 57.0907 42.5537 57.0006L44.5328 55.7161L44.0998 50.5141C44.094 50.2148 43.7045 49.6132 43.7132 49.3778C43.7162 49.2848 44.3555 47.7417 44.4253 47.6516C44.4514 47.6196 44.5008 47.5586 44.5299 47.579C45.0733 49.1686 45.7388 50.7263 46.0847 52.377L46.0876 52.3799ZM49.2639 51.322C49.4034 50.8629 49.4063 50.0085 48.7437 50.055C47.4621 50.1422 48.6914 51.1913 49.2639 51.322Z" fill="white"/>
<path d="M77.0116 51.4267C77.1627 53.8387 77.3458 57.8579 77.5318 60.27C77.7962 60.299 78.2932 60.331 78.5576 60.363C78.4123 57.9451 78.0985 53.9143 77.9328 51.4964L79.1505 52.5891L77.3661 47.7184C77.2644 47.7243 77.2586 47.826 77.2237 47.8928C77.1336 48.0701 76.5437 49.4418 76.535 49.529C76.5204 49.6859 76.8808 50.3659 76.9273 50.5926C76.9796 50.8542 76.9099 51.1535 77.0145 51.4237L77.0116 51.4267Z" fill="white"/>
<path d="M54.2771 52.2375C53.908 51.9963 53.7016 51.5371 53.4285 51.2145C53.4023 51.1855 53.3064 51.0518 53.289 51.1419C53.504 56.4339 54.2858 61.7318 54.4921 67.018C54.5444 68.3781 54.3584 69.7352 53.8905 71.0081C53.8324 71.0081 53.7888 70.7582 53.783 70.6913C53.289 64.3996 53.0565 58.0613 52.4404 51.7783C52.3939 51.3133 52.3706 50.6769 52.2835 50.241C52.2195 49.9271 51.9289 49.4476 51.9405 49.1686C51.9492 48.971 52.4549 47.7824 52.5799 47.5412C52.6147 47.4743 52.6235 47.3726 52.7223 47.3668C53.2541 48.9826 53.9603 50.5519 54.2741 52.2375H54.2771Z" fill="white"/>
<path d="M58.2322 53.7196L69.3859 49.9097C69.4266 49.9562 69.3597 50.6217 69.197 50.674L58.1799 54.481C57.8515 54.6757 57.9212 55.1988 57.7004 55.4836L57.805 54.6379L55.6893 55.3441C55.7387 55.1785 55.7445 54.6757 55.8492 54.5856C55.9974 54.4548 57.2935 54.1177 57.6132 53.9869C57.7207 53.9434 57.8282 53.8969 57.9358 53.8533C58.113 52.3479 57.7323 51.1738 56.875 49.962C56.7094 49.7266 55.7911 48.7443 55.7678 48.6629C55.7068 48.4421 56.0177 47.8434 56.041 47.5848C57.2557 48.692 58.1857 50.4037 58.299 52.066C58.3368 52.6269 58.2293 53.1674 58.2293 53.7225L58.2322 53.7196Z" fill="white"/>
<path d="M8.8137 60.0724C8.72071 60.1421 8.14528 59.4446 7.8227 59.8399C7.47978 60.2642 7.40714 61.8771 7.31124 62.4873C7.28509 62.6501 7.07293 63.4028 7.12234 63.458C7.51176 63.4231 8.44462 64.385 8.44171 64.6844C8.44171 64.8529 8.28478 65.0941 8.31675 65.2947C7.51466 65.19 6.32605 65.1377 5.98895 66.0444C6.35221 68.195 6.99738 70.3222 6.90438 72.5309L6.69513 73.4841C6.73291 72.4117 6.62829 71.351 6.46264 70.2932C6.2999 69.2673 5.95408 68.224 5.79715 67.2185C5.56466 65.7567 5.78553 64.6786 7.47108 64.5565C7.18046 64.2746 6.71839 64.0276 6.36385 64.3327C6.25341 64.4286 6.20111 64.6786 6.05871 64.7338C6.1052 64.3327 6.30862 63.7602 6.62539 63.5016C6.71548 63.4289 6.89566 63.4028 6.90438 63.3912C6.93635 63.3505 6.67771 62.5455 6.63993 62.4205C6.55856 62.1619 5.95117 60.6391 5.73902 60.6391C5.66637 60.6391 5.65474 60.9529 5.17233 60.7815C4.53007 60.5577 4.62017 60.0927 4.93984 59.6248C5.12874 59.3487 5.42516 59.5405 5.68381 59.7062C6.54402 60.2554 6.89566 61.8858 7.08165 62.8245C7.29961 61.9933 7.31995 61.1186 7.50304 60.2816C7.628 59.7062 7.86631 58.4537 8.63352 59.1569C8.96482 59.4592 9.01713 59.6742 8.81079 60.0724H8.8137Z" fill="white"/>
<path d="M0.836392 51.4615L2.69921 50.7466C3.15256 50.4764 3.62917 50.241 4.01278 49.8719C2.76605 49.6394 1.46992 49.7062 0.199951 49.6946C0.391755 49.4796 0.978798 48.1892 1.11539 48.105C1.15898 48.0788 1.80413 48.0033 1.92619 47.9974C2.60041 47.9597 3.85585 48.0556 4.48938 48.2619C4.65794 48.3171 4.8265 48.384 4.9689 48.4915C5.02702 48.5641 4.9689 48.6193 4.94565 48.6833C4.76256 49.2354 4.10287 50.5054 3.65242 50.8512C2.92299 51.4121 1.71695 51.3627 0.836392 51.4557V51.4615Z" fill="white"/>
<path d="M22.9345 56.4746C23.0682 56.463 22.9985 56.6984 22.9869 56.7739C22.8881 57.4016 22.5684 58.4159 21.8331 58.5147C20.8683 58.6455 20.2202 57.7998 20.1185 56.925C19.8395 54.5275 21.6094 52.1939 22.0889 49.9097C22.2255 49.8951 22.1325 50.0463 22.1237 50.1218C21.9552 51.5138 21.1618 52.9146 20.8509 54.2834C20.6532 55.1639 20.5167 56.2392 21.2723 56.896C21.8273 57.3813 22.7834 57.2476 22.9345 56.4717V56.4746Z" fill="white"/>
<path d="M83.8556 55.5156C83.9892 55.5039 83.9195 55.7393 83.9079 55.8149C83.8091 56.4426 83.4894 57.4569 82.7541 57.5557C81.7893 57.6864 81.1412 56.8408 81.0395 55.966C80.7605 53.5685 82.5304 51.2349 83.0099 48.9507C83.1465 48.9361 83.0535 49.0872 83.0448 49.1628C82.8762 50.5548 82.0828 51.9556 81.7719 53.3244C81.5743 54.2049 81.4377 55.2802 82.1933 55.937C82.7483 56.4223 83.7044 56.2886 83.8556 55.5127V55.5156Z" fill="white"/>
<path d="M33.2919 72.5135C33.6407 72.8622 33.4082 74.0828 32.9374 74.2775C32.7369 74.3588 32.487 74.263 32.2951 74.1787C31.9319 74.0188 31.7488 73.6992 31.4059 73.5509C31.031 75.1493 29.3193 76.1403 27.9476 76.8349C26.7183 77.4568 25.4861 77.7009 24.1348 77.9276L26.5817 76.8814C28.1278 75.9776 30.3132 75.251 31.2751 73.6701C31.3536 73.5393 31.5919 72.9465 31.6267 72.9203C31.6558 72.9 31.7633 72.9755 31.8302 72.9494C31.9174 72.9145 32.0888 72.6646 32.2283 72.5745C32.5218 72.3856 33.013 72.2345 33.2919 72.5135ZM33.1699 73.6933C33.0536 72.9959 32.6177 72.7518 31.9697 73.0598C32.0627 73.2807 33.0188 73.8299 33.1699 73.6933Z" fill="white"/>
<path d="M17.4972 54.2136C17.5408 53.7893 17.1543 53.6615 16.8172 53.5859C16.0994 53.4261 15.3525 53.5539 14.6725 53.7893C14.7567 54.0509 14.9718 54.1613 15.1898 54.295C15.9018 54.728 18.2237 55.3209 18.401 56.1695C18.4853 56.5763 17.9738 57.2069 17.5379 57.175C16.5585 56.7274 15.5298 56.3148 14.5737 55.8265C13.6728 55.3674 12.83 54.9954 13.0479 53.7893C13.2223 53.9695 13.2979 54.1846 13.4693 54.3909C13.7105 54.6786 14.0476 54.9227 14.3673 55.1174C15.431 55.7626 16.7591 56.216 17.8895 56.7536C18.247 56.7449 17.936 56.2421 17.7733 56.0881C17.0177 55.3732 15.0997 55.1174 14.4661 54.4549C13.9605 53.9288 15.2392 53.3738 15.6722 53.2721C16.4016 53.1006 18.5579 53.0163 17.4972 54.2136Z" fill="white"/>
<path d="M22.7225 76.3757C22.6498 76.6227 21.964 78.1746 21.8332 78.2065L19.828 77.0819L20.851 75.3266L22.7225 76.3786V76.3757Z" fill="white"/>
<path d="M68.4327 75.3905C68.6565 75.5765 70.2752 76.4047 70.2868 76.55L69.415 78.2734L67.4185 77.1167L68.4327 75.3905Z" fill="white"/>
<path d="M82.3355 75.3905C82.5593 75.5765 84.178 76.4047 84.1896 76.55L83.3178 78.2734L81.3213 77.1167L82.3355 75.3905Z" fill="white"/>
<path d="M64.4485 77.852C64.3729 77.7445 65.1779 76.2652 65.2622 76.0182C65.4656 75.9833 66.91 76.9511 67.1919 77.1284C67.2267 77.2504 66.3491 78.8197 66.2445 78.8285L64.4485 77.852Z" fill="white"/>
<path d="M19.6855 77.0121L18.7672 78.7732L16.8695 77.6834L17.7501 75.9572L19.6855 77.0121Z" fill="white"/>
<path d="M49.7581 59.2964L47.7906 58.2735L48.6305 56.4717L50.5311 57.5034L49.7581 59.2964Z" fill="white"/>
<path d="M4.29469 54.2834C4.254 54.3124 3.76287 53.7138 3.42285 53.9376C2.88232 54.2921 2.93462 56.7826 2.61495 57.5034C2.56263 57.6225 2.51905 57.6022 2.42606 57.6719C2.21972 56.6722 1.86517 55.719 1.33045 54.8501C1.15027 54.789 1.15898 55.0535 1.07471 55.068C0.795719 55.1145 0.197056 54.7513 0.199962 54.3909C0.199962 54.2834 0.484766 53.6557 0.531263 53.644C0.644602 53.6208 0.91486 53.7196 1.0282 53.7777C1.99303 54.2514 2.3999 55.9922 2.56845 56.9686C2.83291 56.0823 2.84162 55.1203 3.06248 54.2136C3.17582 53.7487 3.37926 52.7926 4.0186 53.2575C4.45452 53.5772 4.57657 53.8039 4.29758 54.2834H4.29469Z" fill="white"/>
<path d="M70.6559 53.5801C69.8393 52.932 69.6184 53.1035 69.4063 54.0596C69.2436 54.7977 69.2494 55.594 69.0692 56.3322C69.014 56.5618 68.9878 56.8146 68.7844 56.9657C68.5664 55.9689 68.2322 55.0099 67.6888 54.1439C67.4476 54.1526 67.4941 54.3996 67.1947 54.327C66.9477 54.2688 66.5176 53.9753 66.5205 53.6847C66.5205 53.5975 66.846 52.9466 66.8867 52.9378C67.9736 52.7141 68.9064 55.44 68.9239 56.2624C69.2581 55.3209 69.1389 53.5191 69.6766 52.7083C70.1764 51.9585 71.0599 52.9785 70.653 53.5801H70.6559Z" fill="white"/>
<path d="M84.4891 60.5635C83.6724 59.9154 83.4516 60.0869 83.2394 61.043C83.0767 61.7812 83.0825 62.5774 82.9023 63.3156C82.8471 63.5452 82.8209 63.798 82.6175 63.9491C82.3996 62.9523 82.0654 61.9933 81.5219 61.1273C81.2807 61.136 81.3272 61.383 81.0279 61.3104C80.7809 61.2522 80.3507 60.9587 80.3537 60.6681C80.3537 60.5809 80.6791 59.93 80.7198 59.9213C81.8067 59.6975 82.7396 62.4234 82.757 63.2459C83.0912 62.3043 82.9721 60.5025 83.5097 59.6917C84.0095 58.9419 84.893 59.9619 84.4862 60.5635H84.4891Z" fill="white"/>
<path d="M63.315 48.6397C63.1988 48.7472 62.635 47.9103 62.2398 48.5176C61.8445 49.1279 61.9172 50.8716 61.6585 51.6766C61.612 51.8219 61.5772 51.9323 61.4435 52.0253C61.2052 51.479 61.1122 50.8832 60.8768 50.334C60.7082 49.9387 60.4612 49.59 60.2752 49.2035C60.0108 49.7121 59.1738 49.2238 59.1477 48.8112C59.1419 48.6978 59.4267 48.0846 59.4761 48.073C59.8713 47.9742 60.2927 48.3694 60.5252 48.6397C61.118 49.3285 61.3156 50.2758 61.4784 51.1448C61.4987 51.2465 61.4784 51.3627 61.6179 51.3918C61.7283 50.5374 61.801 49.6016 61.9928 48.7676C62.1032 48.2793 62.3241 47.1779 62.9954 47.6516C63.3993 47.9364 63.5097 48.1805 63.3121 48.6397H63.315Z" fill="white"/>
<path d="M29.0752 54.356C28.9444 54.4548 28.3922 53.6266 27.9999 54.234C27.6337 54.8007 27.5727 57.544 27.3083 57.7445C27.192 57.7678 27.16 57.7184 27.1135 57.6225C26.9334 57.2476 26.8375 56.5211 26.6369 56.0532C26.4684 55.658 26.2214 55.3092 26.0354 54.9227C25.7709 55.4313 24.934 54.943 24.9078 54.5304C24.902 54.417 25.1868 53.8039 25.2362 53.7922C25.6314 53.6934 26.0528 54.0887 26.2853 54.3589C26.8781 55.0477 27.0758 55.9951 27.2385 56.864C27.2588 56.9657 27.2385 57.0819 27.378 57.111C27.5843 56.1665 27.5669 54.2659 28.0958 53.4871C28.5492 52.8187 29.4588 53.8039 29.0723 54.356H29.0752Z" fill="white"/>
<path d="M29.7087 62.8245C29.6709 62.8535 29.2844 62.3275 28.8369 62.4845C28.305 62.6704 28.3574 65.6812 27.9069 66.213L27.1804 64.1903C27.1165 64.0596 26.7387 63.3911 26.637 63.394C26.5585 63.394 26.5236 63.7602 25.9889 63.4783C25.4745 63.2081 25.5442 62.7489 25.8639 62.3391C26.1371 61.9904 26.7793 62.5745 26.9915 62.8303C27.2821 63.1819 27.4536 63.6149 27.6221 64.0334L28.0115 65.5824C28.1743 64.9605 28.3835 61.8974 28.9793 61.7143C29.299 61.6155 29.6041 61.9177 29.7785 62.1619C30.008 62.4844 29.7668 62.4932 29.7058 62.8303L29.7087 62.8245Z" fill="white"/>
<path d="M36.3463 49.5551C36.2359 49.6365 35.9307 49.0785 35.4803 49.2151C35.2478 49.2848 35.1461 49.8138 35.0996 50.0346C35.0037 50.4735 34.809 52.8071 34.5474 52.9407C34.4108 52.9727 34.4457 52.8884 34.4108 52.7984C34.1057 51.9875 34.0156 50.9791 33.414 50.2642C33.1786 49.9852 33.2629 50.2613 33.0508 50.3194C32.7572 50.4008 32.2254 50.023 32.1993 49.7179C32.1905 49.6045 32.5277 48.9535 32.641 48.9419C33.2077 48.878 33.9807 49.9794 34.1231 50.4735L34.6549 52.3043C34.9136 51.2988 34.8438 49.5551 35.3728 48.6804C35.8058 47.9626 36.8055 48.971 36.3492 49.5522L36.3463 49.5551Z" fill="white"/>
<path d="M30.133 58.1659L30.0168 58.7326L23.0741 61.1999C23.0654 60.982 23.0421 60.7059 23.263 60.578L30.133 58.1659Z" fill="white"/>
<path d="M32.7456 64.5885L32.8589 64.016L38.0406 62.1183C37.997 62.3101 38.0202 62.6414 37.8546 62.7431L32.7485 64.5885H32.7456Z" fill="white"/>
<path d="M43.4779 62.0485C43.6 62.0311 43.5506 62.2113 43.5419 62.2868C43.4489 63.0395 42.7659 64.324 41.926 63.4958C40.8624 62.4467 42.237 60.3194 42.4927 59.1569C42.6206 59.1395 42.5567 59.311 42.5451 59.3865C42.4056 60.2787 41.7401 61.4005 42.0307 62.3362C42.2719 63.1151 43.4866 62.9349 43.4837 62.0514L43.4779 62.0485Z" fill="white"/>
<path d="M25.1229 73.6933C25.2508 73.6759 25.1868 73.8474 25.1752 73.9229C25.1171 74.292 24.8352 75.1144 24.469 75.2626C24.0622 75.4283 23.7628 75.312 23.51 74.9865C22.5801 73.7863 23.8762 71.9787 24.1348 70.7291C24.2627 70.7117 24.1988 70.8831 24.1871 70.9587C24.0883 71.5951 23.7192 72.2635 23.6466 72.8883C23.5885 73.3998 23.5507 74.0159 24.0273 74.3269C24.5824 74.6901 24.9805 74.2106 25.1229 73.6933Z" fill="white"/>
<path d="M35.6401 58.7326C35.7679 58.7152 35.704 58.8867 35.6924 58.9622C35.582 59.6539 34.9862 60.8861 34.1609 60.1741C33.0042 59.1773 34.4021 56.9134 34.6491 55.7684C34.7828 55.7568 34.713 55.9922 34.7014 56.0677C34.5706 56.8902 33.6378 58.6338 34.4718 59.2993C35.0211 59.7382 35.4977 59.3081 35.6401 58.7326Z" fill="white"/>
<path d="M64.7972 68.5408C64.9251 68.5233 64.8612 68.6948 64.8496 68.7704C64.7217 69.5841 63.969 71.0575 63.1437 69.9473C62.2573 68.7558 63.4575 67.0732 63.7394 65.8584C63.8702 65.8468 63.8063 66.088 63.7917 66.1578C63.6174 67.0034 63.0332 67.9596 63.3296 68.8401C63.6493 69.7817 64.7391 69.4591 64.7972 68.5408Z" fill="white"/>
<path d="M58.8687 58.3083C59.0024 58.2909 58.9181 58.4478 58.9065 58.5205C58.8426 58.9477 58.6043 59.7236 58.212 59.9445C57.6104 60.2816 57.1163 59.7556 56.9594 59.1918C56.6252 57.9945 57.5639 56.6925 57.8109 55.5533C57.9417 55.5417 57.8777 55.7829 57.8632 55.8527C57.6976 56.6606 57.2442 57.4104 57.3169 58.2677C57.4157 59.4156 58.706 59.4563 58.8687 58.3054V58.3083Z" fill="white"/>
<path d="M71.4347 62.0485C71.5626 62.0311 71.4987 62.2025 71.487 62.2781C71.3621 63.0686 70.6762 64.5303 69.8131 63.4929C68.8599 62.3478 70.095 60.5664 70.3769 59.3662C70.5077 59.3545 70.4438 59.5958 70.4292 59.6655C70.2694 60.4211 69.8189 61.2028 69.8829 62.0107C69.9788 63.2168 71.2923 63.2284 71.4347 62.0485Z" fill="white"/>
<path d="M83.4951 74.1235C82.7192 74.4751 81.7311 74.4402 80.8971 74.3385C80.0252 74.2281 79.197 73.9113 78.7872 73.086C78.3252 72.188 78.2612 71.1563 78.1915 70.1682C78.1159 69.0552 78.0433 67.9479 77.9677 66.8349C77.9299 66.2566 77.6771 60.2525 77.5231 60.2409C77.7381 60.2525 77.9561 60.27 78.1682 60.2932C78.2612 60.2961 78.3513 60.3049 78.4472 60.3136C78.4734 60.3136 78.5024 60.3165 78.5199 60.3339C78.546 60.3543 78.5489 60.3891 78.5489 60.424C78.6594 62.002 78.7901 63.583 78.8773 65.161C78.95 66.4077 78.8424 67.6515 79.0226 68.8924C79.0691 69.2208 79.0808 69.5579 79.1214 69.8892C79.1592 70.2089 79.2028 70.5286 79.2319 70.8512C79.2435 70.9848 79.2406 71.0953 79.2173 71.226C79.1941 71.3568 79.1854 71.4789 79.2871 71.5777C79.6474 71.9206 80.0804 72.2287 80.5687 72.3653C81.0831 72.5106 81.6294 72.5047 82.1583 72.4699C82.6378 72.4408 83.1028 72.3275 83.5068 72.1618C83.7858 72.0456 84.0618 71.8886 84.2217 71.63C84.4396 71.2784 84.3873 70.825 84.2769 70.424C84.0124 69.4824 83.469 68.6193 82.7221 67.977C82.8965 67.3522 83.2481 66.1026 83.2481 66.1026L83.4457 66.1229C84.3437 67.3464 84.8552 68.9273 84.9221 70.4414C84.9831 71.7375 84.8436 73.5132 83.4893 74.1264L83.4951 74.1235Z" fill="white"/>
<path d="M73.8904 77.82L74.0037 77.2475L79.1853 75.3498C79.1417 75.5416 79.165 75.8729 78.9993 75.9746L73.8933 77.82H73.8904Z" fill="white"/>
<path d="M85.3754 38.6397H0.572021V40.2265H85.3754V38.6397Z" fill="white"/>
<path d="M128.087 32.566C129.287 30.9327 130.766 30.0376 132.158 29.8516C128.729 31.7755 128.88 35.7249 128.88 35.7627C129.293 33.9435 130.984 32.0748 132.234 31.7552C131.219 32.5485 131.545 36.3323 132.617 37.4976C132.289 35.1408 132.681 32.6357 134.762 31.5895L135.332 32.162L134.756 32.7432L135.332 33.3245L134.756 33.9057L135.332 34.4869L134.756 35.0652L135.332 35.6464L134.756 36.2277L135.332 36.8089L134.756 37.3901L135.332 37.9713L134.756 38.5497L135.332 39.1309L134.756 39.7121L135.332 40.2933L134.756 40.8716L135.332 41.4529L134.756 42.0341L135.332 42.6124L134.317 43.5918L136.485 42.717L138.653 43.5918L137.639 42.6124L138.214 42.0341L137.636 41.4529L138.214 40.8716L137.636 40.2904L138.214 39.7092L137.636 39.1309L138.214 38.5497L137.636 37.9684L138.214 37.3872L137.636 36.806L138.214 36.2277L137.636 35.6464L138.214 35.0652L137.636 34.484L138.214 33.9028L137.636 33.3245L138.214 32.7432L137.636 32.162L138.209 31.5895C140.289 32.6386 140.682 35.1408 140.35 37.4976C141.42 36.3323 141.745 32.5485 140.734 31.7552C141.984 32.0748 143.675 33.9435 144.088 35.7627C144.088 35.7278 144.239 31.7755 140.81 29.8516C142.12 30.0144 143.681 30.9327 144.881 32.566C144.881 32.5311 144.032 28.8171 140.191 28.0034C141.888 27.8493 142.707 28.0935 144.015 29.0292C142.818 26.126 138.775 26.5387 138.711 26.5387C139.711 26.0272 140.911 25.0449 139.627 25.1786C137.223 25.4256 136.482 23.2606 136.482 23.2606C136.482 23.2606 135.741 25.4227 133.338 25.1786C132.053 25.0478 133.254 26.0272 134.253 26.5387C134.189 26.5387 130.147 26.126 128.95 29.0292C130.258 28.0964 131.077 27.8493 132.774 28.0034C128.932 28.8171 128.084 32.534 128.084 32.5689L128.087 32.566Z" fill="white"/>
<path d="M143.48 51.1244C143.271 52.2084 142.207 51.6068 142.01 51.4935C141.923 51.4441 141.693 51.2639 141.379 51.0082L141.995 50.2352C142.196 49.9823 142.155 49.6161 141.905 49.4156C141.655 49.2151 141.289 49.2558 141.089 49.5086L140.49 50.2613C139.205 49.1715 137.595 47.762 137.595 47.762C137.595 47.762 143.733 41.8946 151.385 41.5081C151.376 41.5081 146.668 39.0728 140.098 43.7661C138.979 44.5653 136.602 46.6374 136.491 46.7333C136.381 46.6374 134.003 44.5653 132.885 43.7661C126.314 39.0728 121.609 41.5052 121.597 41.5081C129.249 41.8946 135.384 47.7591 135.387 47.762C135.387 47.762 133.777 49.1715 132.492 50.2613L131.894 49.5086C131.693 49.2558 131.327 49.2151 131.077 49.4156C130.827 49.6161 130.784 49.9852 130.987 50.2352L131.603 51.0082C131.292 51.2639 131.06 51.4441 130.972 51.4935C130.775 51.6068 129.711 52.2084 129.502 51.1244C129.348 50.3281 128.319 50.0288 127.936 50.9239C127.546 51.8364 128.183 52.8942 129.2 53.1936C130.086 53.4551 130.917 53.3011 131.661 52.7606C131.792 52.6647 132.088 52.4235 132.475 52.1038L133.018 52.7867C133.042 52.8158 133.042 52.8565 133.015 52.8826C132.789 53.1093 132.789 53.4813 133.015 53.708C133.129 53.8213 133.277 53.8794 133.428 53.8794C133.576 53.8794 133.725 53.8213 133.841 53.708C134.297 53.2488 134.329 52.5281 133.922 52.0457L133.37 51.354C134.733 50.2061 136.395 48.7792 136.497 48.692C136.599 48.7792 138.264 50.2061 139.624 51.354L139.083 52.034C138.668 52.531 138.697 53.2488 139.153 53.708C139.266 53.8213 139.415 53.8794 139.566 53.8794C139.717 53.8794 139.862 53.8213 139.978 53.708C140.205 53.4813 140.205 53.1093 139.978 52.8826C139.952 52.8565 139.949 52.8158 139.984 52.7751L140.519 52.1038C140.906 52.4235 141.202 52.6647 141.333 52.7606C142.077 53.3011 142.908 53.458 143.794 53.1936C144.811 52.8913 145.448 51.8335 145.058 50.9239C144.675 50.0288 143.646 50.3281 143.492 51.1244H143.48Z" fill="white"/>
<path d="M135.884 0V13.7518L131.946 17.6895H118.171L135.884 0Z" fill="white"/>
<path d="M116.116 19.7384V33.5192L110.775 38.8606H96.968L116.116 19.7384Z" fill="white"/>
<path d="M134.381 77.0877L96.9796 40.0754H111.06L121.368 50.3805L134.381 77.0877Z" fill="white"/>
<path d="M123.35 26.2858L117.328 32.3044V19.8343L123.35 26.2858Z" fill="white"/>
<path d="M154.806 17.6895H141.025L137.093 13.7576V0L154.806 17.6895Z" fill="white"/>
<path d="M176 38.8606H162.196L156.86 33.525V19.7384L176 38.8606Z" fill="white"/>
<path d="M155.651 19.8343V32.316L149.621 26.2858L155.651 19.8343Z" fill="white"/>
<path d="M130.731 18.9014L124.21 25.4256L118.119 18.9014H130.731Z" fill="white"/>
<path d="M154.858 18.9014L148.764 25.4285L142.237 18.9014H154.858Z" fill="white"/>
<path d="M148.99 52.996L136.491 78.6396L123.995 53.0105L136.485 65.4952L148.99 52.996Z" fill="white"/>
<path d="M175.997 40.0754L138.601 77.0819L138.592 77.0906L151.612 50.3659L161.911 40.0754H175.997Z" fill="white"/>
</svg>
