<svg width="12" height="16" viewBox="0 0 12 16" fill="none" xmlns="http://www.w3.org/2000/svg">
<path d="M3.33301 8.16711C3.53921 8.16711 3.72507 8.29329 3.7998 8.48547L5.22656 12.1554L5.48535 10.088L4.88574 8.89075C4.80825 8.73575 4.8171 8.55085 4.9082 8.40344C4.9993 8.25638 5.16001 8.16723 5.33301 8.16711L6.66699 8.16711C6.83999 8.16723 7.0007 8.25638 7.0918 8.40344C7.1829 8.55085 7.19175 8.73575 7.11426 8.89075L6.51465 10.088L6.77246 12.1554L8.2002 8.48547C8.27493 8.29329 8.46079 8.16711 8.66699 8.16711L10 8.16711C11.0125 8.16711 11.833 8.9876 11.833 10.0001L11.833 14.6671C11.8328 14.9431 11.609 15.1671 11.333 15.1671C11.0571 15.1669 10.8332 14.943 10.833 14.6671L10.833 10.0001C10.833 9.53989 10.4602 9.16711 10 9.16711H9.00879L6.7998 14.8478C6.72507 15.04 6.53921 15.1671 6.33301 15.1671H5.66699C5.46079 15.1671 5.27493 15.04 5.2002 14.8478L2.99121 9.16711H2C1.53976 9.16711 1.16699 9.53988 1.16699 10.0001L1.16699 14.6671C1.16682 14.943 0.942877 15.1669 0.666992 15.1671C0.390958 15.1671 0.167168 14.9431 0.166992 14.6671L0.166992 10.0001C0.166992 8.9876 0.987478 8.16711 2 8.16711H3.33301ZM6 0.83313C7.56481 0.83313 8.83301 2.10231 8.83301 3.66711V4.33313C8.83301 5.89794 7.56481 7.16711 6 7.16711C4.43519 7.16711 3.16699 5.89794 3.16699 4.33313V3.66711C3.16699 2.10231 4.43519 0.83313 6 0.83313ZM6 1.83313C4.98748 1.83313 4.16699 2.65459 4.16699 3.66711V4.33313C4.16699 5.34565 4.98748 6.16711 6 6.16711C7.01252 6.16711 7.83301 5.34565 7.83301 4.33313V3.66711C7.83301 2.65459 7.01252 1.83313 6 1.83313Z" fill="#161616"/>
</svg>
