<svg width="28" height="31" viewBox="0 0 28 31" fill="none" xmlns="http://www.w3.org/2000/svg">
<path d="M9.9845 2.10547C12.3773 0.275212 15.7085 0.293293 18.0812 2.19043L18.2716 2.33105C18.4676 2.46459 18.6788 2.58167 18.9083 2.72461C19.2029 2.90806 19.5097 3.12505 19.7511 3.44531L19.8331 3.54492C19.8635 3.58055 19.9008 3.6237 19.9347 3.6709C20.0056 3.76986 20.0716 3.89595 20.0851 4.06348L20.1359 4.62598C20.2711 5.935 20.5156 7.21242 20.9689 8.45312L21.1827 9.04785C22.2316 12.0291 23.0016 15.0867 23.3849 18.2344L23.4034 18.3418C23.457 18.5771 23.5834 18.7196 23.756 18.8438C23.8614 18.9196 23.9805 18.9863 24.1183 19.0625C24.245 19.1326 24.3866 19.2113 24.5226 19.3057C26.4283 20.1584 26.9469 21.8094 27.1652 23.5283L27.2452 24.2119C27.3193 24.8966 27.3761 25.5825 27.4249 26.2666L27.4406 26.5088C27.4426 26.6054 27.438 26.7115 27.4142 26.8076C27.3881 26.9127 27.3343 27.0308 27.2257 27.1201C27.1432 27.188 27.0449 27.2265 26.9376 27.2412L26.8273 27.248C26.6851 27.2475 26.5528 27.2077 26.4493 27.1143C26.3495 27.0242 26.3045 26.9095 26.2833 26.8125C26.2623 26.7162 26.2599 26.617 26.2609 26.5361C26.2614 26.4949 26.2626 26.4536 26.2638 26.418C26.2651 26.3809 26.2668 26.3496 26.2667 26.3213L26.257 25.79C26.2207 24.7297 26.0802 23.6836 25.839 22.6494L25.7101 22.1328C25.578 21.6376 25.3561 21.2394 24.9757 20.9355L24.8029 20.8115C23.3621 19.877 21.8638 19.0409 20.3439 18.2324L18.8185 17.4297C18.666 17.3502 18.6069 17.3682 18.5861 17.377C18.5577 17.389 18.5184 17.4196 18.465 17.4941L18.4073 17.584C17.629 18.8865 15.9623 19.4945 14.3361 19.5693C12.8122 19.6395 11.218 19.247 10.2843 18.4082L10.1066 18.2344C9.84435 17.9547 9.62945 17.634 9.41418 17.3301C9.24263 17.3765 9.07741 17.4513 8.90833 17.542C8.79935 17.6004 8.69161 17.6633 8.57922 17.7295L8.23352 17.9258C7.05976 18.5478 5.89619 19.1849 4.74915 19.8506L3.60754 20.5273C2.89754 20.9569 2.46598 21.5012 2.23938 22.2422L2.15442 22.5723C1.94975 23.5365 1.82865 24.5091 1.7511 25.4912L1.68665 26.4756C1.68381 26.5282 1.68671 26.5703 1.68567 26.6494C1.6848 26.7149 1.68111 26.8018 1.65833 26.8867C1.63441 26.9758 1.58428 27.0787 1.48059 27.1543C1.40401 27.2101 1.31619 27.2383 1.22473 27.2471L1.13196 27.25C1.01191 27.2466 0.901057 27.2135 0.807739 27.1465C0.715504 27.0803 0.656945 26.9931 0.621216 26.9072C0.553848 26.7451 0.554741 26.5602 0.561646 26.4355L0.600708 25.7754C0.700089 24.233 0.871497 22.6774 1.41711 21.1758L1.47571 21.0283C1.79192 20.3122 2.41122 19.8849 3.02551 19.6104L3.22864 19.5117C3.68109 19.2735 3.98277 18.9779 4.19641 18.625C4.44442 18.2152 4.58401 17.7107 4.67981 17.0859L4.77649 16.4863C5.28407 13.4918 6.14103 10.5736 7.29895 7.75391L7.36145 7.58105C7.48944 7.17858 7.49846 6.76986 7.52747 6.30273L7.54309 6.14258C7.59112 5.7714 7.71782 5.42224 7.8136 5.11035C7.91289 4.78699 7.98713 4.4841 7.9718 4.16211L7.95911 4.02344C7.93776 3.85767 7.9858 3.70108 8.05579 3.56934C8.12622 3.43689 8.2276 3.31331 8.33801 3.2041C8.55837 2.98616 8.84501 2.79665 9.09973 2.67773L9.28333 2.58887C9.4593 2.49988 9.61389 2.40795 9.75598 2.28906L9.9845 2.10547ZM17.4542 15.1484C17.2293 15.4023 17.0036 15.66 16.7706 15.9082L16.4366 16.25C15.8602 16.8117 15.2514 17.159 14.5734 17.2686C13.9813 17.3641 13.3589 17.2743 12.6886 17.0205L12.3986 16.9023L12.3859 16.8965L12.3741 16.8896C11.9212 16.6282 11.5552 16.2849 11.2238 15.9268C11.0583 15.748 10.8982 15.5619 10.7413 15.3809C10.6749 15.3042 10.6085 15.2285 10.5421 15.1533C10.2635 16.029 10.3054 16.6233 10.5509 17.0576C10.837 17.5637 11.4414 17.9305 12.3927 18.2441L12.7589 18.3496C13.6175 18.5632 14.508 18.5463 15.3654 18.3018L15.7013 18.1982C16.4591 17.9476 17.0369 17.6218 17.3575 17.1611C17.6688 16.7138 17.7697 16.0865 17.4542 15.1484ZM18.8888 7.02051C18.8157 8.63287 18.8368 10.2985 18.6779 11.9346L18.5978 12.6338C18.4521 13.7306 18.5093 14.7499 18.7247 15.8105L18.7521 15.917C18.782 16.0136 18.8216 16.0843 18.8683 16.1416C18.9321 16.2198 19.0223 16.2886 19.1603 16.3604L20.7677 17.209C21.2558 17.4686 21.7514 17.7309 22.2589 17.998V17.9971C21.7279 14.7034 20.9677 11.4784 19.7257 8.38965L19.4708 7.77344C19.3232 7.42673 19.145 7.119 18.8868 6.88965L18.8888 7.02051ZM8.97375 7.27051C8.77594 7.58998 8.56109 8.00832 8.33801 8.49902C7.89215 9.47984 7.42258 10.733 7.00403 12.0293C6.58559 13.3253 6.21938 14.659 5.97864 15.7998C5.85829 16.3701 5.77012 16.8896 5.7218 17.3301C5.69394 17.5842 5.68088 17.8075 5.68079 17.9961C6.83595 17.3874 7.97746 16.787 9.11731 16.1836L9.14465 16.168V16.167C9.19571 15.9523 9.25615 15.7382 9.3136 15.5303C9.37612 15.304 9.43566 15.0837 9.48352 14.8643C9.56728 14.4801 9.61138 14.1115 9.56555 13.748L9.54016 13.5928C9.38456 12.8131 9.26312 12.0344 9.23547 11.1064L9.09583 7.08301C9.05681 7.13982 9.01603 7.20223 8.97375 7.27051ZM17.7179 6.68555C15.2431 7.56599 12.745 7.52066 10.2316 6.69922C10.2234 6.77323 10.2206 6.82074 10.2218 6.86426L10.2726 9.05078C10.2916 9.77614 10.3188 10.499 10.3751 11.2207L10.3907 11.5049C10.3939 11.5993 10.3956 11.6933 10.3976 11.7852C10.4015 11.9714 10.4052 12.1521 10.421 12.332C10.4485 12.6444 10.5103 12.9479 10.6573 13.248L10.7257 13.376L10.7267 13.3789L10.9044 13.6836C11.3308 14.3845 11.8453 15.0161 12.4581 15.5615L12.6398 15.7119C13.0675 16.0387 13.5138 16.1964 13.9523 16.2021C14.4535 16.2086 14.9724 16.017 15.4689 15.6035L15.6818 15.416C16.1668 14.9672 16.5707 14.4367 16.965 13.875L17.0978 13.6699C17.3847 13.1846 17.5152 12.6588 17.5665 12.0527L17.6095 11.4482C17.6437 10.8431 17.6554 10.2358 17.6622 9.625C17.6713 8.81335 17.6718 7.99155 17.7062 7.17188L17.7286 6.7998C17.7285 6.76037 17.7248 6.72296 17.7179 6.68555ZM18.7443 5.16602C15.5616 5.80362 12.3794 5.76516 9.1134 5.16602C9.04515 5.19791 9.00225 5.23354 8.97278 5.26855C8.93483 5.31373 8.90654 5.37272 8.88586 5.4541C8.87817 5.48445 8.87279 5.51662 8.86731 5.55078C9.14325 5.40955 9.42424 5.37082 9.7052 5.39355C10.1228 5.42744 10.5536 5.60543 10.9142 5.72266L11.299 5.83984C13.2241 6.38941 15.1576 6.36754 17.0714 5.70703L17.3741 5.60352C17.6851 5.50101 18.0166 5.41169 18.3478 5.41699C18.6211 5.42142 18.8859 5.49118 19.1427 5.64746L19.0187 5.26172C19.0014 5.20882 18.984 5.18252 18.9738 5.16992C18.9655 5.15981 18.9603 5.15632 18.9552 5.1543C18.9447 5.15022 18.9258 5.14684 18.8927 5.14746L18.7443 5.16602ZM17.6984 3.3916C16.4432 2.02853 14.1532 1.48899 12.2609 2.16016L12.0685 2.23242C11.35 2.52325 10.7107 2.80475 10.3488 3.4082C10.3722 3.41517 10.3931 3.42373 10.4142 3.42773L10.7472 3.4873C12.4118 3.76294 14.0998 3.75218 15.796 3.65625L16.3781 3.62695C16.842 3.60097 17.2834 3.55423 17.6984 3.3916Z" fill="#D9D9D9" stroke="#D9D9D9" stroke-width="0.5"/>
<line x1="14.044" y1="21.6985" x2="14.3382" y2="21.6985" stroke="#D9D9D9" stroke-width="2" stroke-linecap="round"/>
<line x1="14.044" y1="25.6985" x2="14.3382" y2="25.6985" stroke="#D9D9D9" stroke-width="2" stroke-linecap="round"/>
<line x1="14.044" y1="29.6985" x2="14.3382" y2="29.6985" stroke="#D9D9D9" stroke-width="2" stroke-linecap="round"/>
</svg>
