<svg width="16" height="16" viewBox="0 0 16 16" fill="none" xmlns="http://www.w3.org/2000/svg">
<path d="M13.333 11.1992C13.609 11.1992 13.8328 11.4233 13.833 11.6992C13.833 11.9754 13.6091 12.1992 13.333 12.1992H2.66699C2.39085 12.1992 2.16699 11.9754 2.16699 11.6992C2.1672 11.4233 2.39098 11.1992 2.66699 11.1992H13.333ZM13.333 7.7998C13.6091 7.7998 13.833 8.02366 13.833 8.2998C13.8329 8.57586 13.6091 8.7998 13.333 8.7998H2.66699C2.39091 8.7998 2.1671 8.57586 2.16699 8.2998C2.16699 8.02366 2.39085 7.7998 2.66699 7.7998H13.333ZM13.333 4.39941C13.609 4.39941 13.8328 4.62342 13.833 4.89941C13.833 5.17556 13.6091 5.39941 13.333 5.39941H2.66699C2.39085 5.39941 2.16699 5.17556 2.16699 4.89941C2.16717 4.62342 2.39096 4.39941 2.66699 4.39941H13.333Z" fill="#021C2C"/>
</svg>
