<svg width="29" height="30" viewBox="0 0 29 30" fill="none" xmlns="http://www.w3.org/2000/svg">
<path d="M12.5987 2.17773L13.7293 3.2494L12.6448 4.36715L11.5142 3.29549L12.5987 2.17773Z" fill="#CDAE27"/>
<path d="M15.1715 3.29549L16.3022 4.36715L17.3867 3.2494L16.256 2.17773L15.1715 3.29549Z" fill="#CDAE27"/>
<path d="M13.5792 4.70116L14.4561 5.53083L15.2983 4.66659L14.4214 3.83691L13.5792 4.70116Z" fill="#CDAE27"/>
<path d="M16.7982 5.17381L17.675 6.01501L18.5173 5.15077L17.6404 4.30957L16.7982 5.17381Z" fill="#CDAE27"/>
<path d="M12.1487 6.02635L13.0255 6.86755L13.8677 6.00331L12.9909 5.16211L12.1487 6.02635Z" fill="#CDAE27"/>
<path d="M15.0907 6.12987L15.9675 6.97106L16.8097 6.10682L15.9329 5.26562L15.0907 6.12987Z" fill="#CDAE27"/>
<path d="M13.937 7.13319L14.5485 7.72088L15.1369 7.11015L14.5254 6.52246L13.937 7.13319Z" fill="#CDAE27"/>
<path d="M16.2676 7.59413L16.8791 8.18181L17.4675 7.57108L16.856 6.9834L16.2676 7.59413Z" fill="#CDAE27"/>
<path d="M21.3439 2.93847L21.69 4.8398L23.6052 4.49411L23.2591 2.59277L21.3439 2.93847Z" fill="#CDAE27"/>
<path d="M18.8518 3.73359L19.1287 5.25466L20.6632 4.9781L20.3863 3.45703L18.8518 3.73359Z" fill="#CDAE27"/>
<path d="M21.8169 5.85371L22.0938 7.37477L23.6282 7.09821L23.3513 5.57715L21.8169 5.85371Z" fill="#CDAE27"/>
<path d="M19.7056 6.07246L19.9248 7.25935L21.1247 7.04041L20.9054 5.85352L19.7056 6.07246Z" fill="#CDAE27"/>
<path d="M22.0245 8.33125L22.2437 9.51814L23.4436 9.2992L23.2244 8.1123L22.0245 8.33125Z" fill="#CDAE27"/>
<path d="M17.9058 6.55683L18.125 7.74373L19.3248 7.52478L19.1056 6.33789L17.9058 6.55683Z" fill="#CDAE27"/>
<path d="M20.0748 8.1125L20.294 9.29939L21.4939 9.08045L21.2747 7.89355L20.0748 8.1125Z" fill="#CDAE27"/>
<path d="M18.5519 8.25039L18.7019 9.08006L19.5441 8.93026L19.3941 8.10059L18.5519 8.25039Z" fill="#CDAE27"/>
<path d="M20.1671 9.9789L20.3171 10.8086L21.1593 10.6588L21.0093 9.8291L20.1671 9.9789Z" fill="#CDAE27"/>
<path d="M27.0317 9.14941L26.201 10.8894L27.9547 11.7191L28.7854 9.97909L27.0317 9.14941Z" fill="#CDAE27"/>
<path d="M24.5396 8.34277L23.8705 9.73709L25.278 10.4054L25.9472 9.01112L24.5396 8.34277Z" fill="#CDAE27"/>
<path d="M25.6935 11.7881L25.0243 13.1824L26.4318 13.8507L27.101 12.4564L25.6935 11.7881Z" fill="#CDAE27"/>
<path d="M23.8474 10.7393L23.3282 11.8224L24.4243 12.341L24.9435 11.2578L23.8474 10.7393Z" fill="#CDAE27"/>
<path d="M24.4013 13.9082L23.8821 14.9914L24.9781 15.5099L25.4973 14.4267L24.4013 13.9082Z" fill="#CDAE27"/>
<path d="M22.1054 10.0947L21.5862 11.1779L22.6822 11.6965L23.2014 10.6133L22.1054 10.0947Z" fill="#CDAE27"/>
<path d="M22.9591 12.6064L22.4399 13.6896L23.536 14.2082L24.0552 13.125L22.9591 12.6064Z" fill="#CDAE27"/>
<path d="M21.6324 11.8457L21.2632 12.6062L22.0362 12.975L22.4054 12.2144L21.6324 11.8457Z" fill="#CDAE27"/>
<path d="M21.9323 14.1738L21.5631 14.9344L22.3361 15.3031L22.7053 14.5426L21.9323 14.1738Z" fill="#CDAE27"/>
<path d="M27.9778 17.4922L26.2703 18.414L27.2048 20.108L28.9123 19.1861L27.9778 17.4922Z" fill="#CDAE27"/>
<path d="M26.4315 15.3945L25.0586 16.1435L25.8085 17.5033L27.1699 16.7543L26.4315 15.3945Z" fill="#CDAE27"/>
<path d="M25.3357 18.8516L23.9628 19.6006L24.7127 20.9603L26.0741 20.2113L25.3357 18.8516Z" fill="#CDAE27"/>
<path d="M24.459 16.9277L23.3976 17.5039L23.986 18.564L25.0474 17.9879L24.459 16.9277Z" fill="#CDAE27"/>
<path d="M23.0399 19.8203L21.9785 20.3965L22.5669 21.4566L23.6283 20.8805L23.0399 19.8203Z" fill="#CDAE27"/>
<path d="M23.4322 15.3955L22.3707 15.9717L22.9591 17.0318L24.0206 16.4556L23.4322 15.3955Z" fill="#CDAE27"/>
<path d="M22.6361 17.9297L21.5747 18.5058L22.1631 19.566L23.2245 18.9898L22.6361 17.9297Z" fill="#CDAE27"/>
<path d="M22.0131 16.5361L21.2632 16.9394L21.6785 17.6885L22.4284 17.2851L22.0131 16.5361Z" fill="#CDAE27"/>
<path d="M20.8709 18.5986L20.121 19.0019L20.5363 19.7394L21.2862 19.3361L20.8709 18.5986Z" fill="#CDAE27"/>
<path d="M23.8244 24.7977L21.8977 24.5557L21.6554 26.4685L23.5821 26.7105L23.8244 24.7977Z" fill="#CDAE27"/>
<path d="M23.8129 22.2057L22.2669 22.0098L22.0708 23.5424L23.6168 23.7383L23.8129 22.2057Z" fill="#CDAE27"/>
<path d="M20.8824 24.3717L19.3364 24.1758L19.1403 25.7084L20.6863 25.9043L20.8824 24.3717Z" fill="#CDAE27"/>
<path d="M21.2977 22.2973L20.0979 22.1475L19.9479 23.3459L21.1478 23.4957L21.2977 22.2973Z" fill="#CDAE27"/>
<path d="M18.4365 23.8305L17.2367 23.6807L17.0867 24.8791L18.2865 25.0174L18.4365 23.8305Z" fill="#CDAE27"/>
<path d="M21.3785 20.4652L20.1671 20.3154L20.0171 21.5138L21.217 21.6636L21.3785 20.4652Z" fill="#CDAE27"/>
<path d="M19.2325 22.0551L18.0211 21.9053L17.8711 23.1037L19.071 23.2535L19.2325 22.0551Z" fill="#CDAE27"/>
<path d="M19.5557 20.5686L18.7135 20.4648L18.6096 21.306L19.4518 21.4098L19.5557 20.5686Z" fill="#CDAE27"/>
<path d="M17.4097 21.5832L16.5675 21.4795L16.4636 22.3207L17.3058 22.4244L17.4097 21.5832Z" fill="#CDAE27"/>
<path d="M16.1406 28.3127L14.71 26.999L13.3832 28.4164L14.8138 29.73L16.1406 28.3127Z" fill="#CDAE27"/>
<path d="M15.8868 1.31365L14.4562 0L13.1294 1.41736L14.56 2.73101L15.8868 1.31365Z" fill="#CDAE27"/>
<path d="M17.6636 26.2039L16.5214 25.1553L15.46 26.2845L16.6021 27.3332L17.6636 26.2039Z" fill="#CDAE27"/>
<path d="M14.0062 26.2615L12.864 25.2129L11.8026 26.3422L12.9448 27.3908L14.0062 26.2615Z" fill="#CDAE27"/>
<path d="M15.5753 24.8328L14.6869 24.0146L13.8562 24.9019L14.7446 25.7201L15.5753 24.8328Z" fill="#CDAE27"/>
<path d="M12.3563 24.406L11.4679 23.5879L10.6372 24.4752L11.5256 25.2933L12.3563 24.406Z" fill="#CDAE27"/>
<path d="M16.7175 23.3806L15.8291 22.5625L14.9984 23.4498L15.8868 24.2679L16.7175 23.3806Z" fill="#CDAE27"/>
<path d="M14.0408 23.4265L13.1525 22.6084L12.3218 23.4957L13.2101 24.3138L14.0408 23.4265Z" fill="#CDAE27"/>
<path d="M15.1714 22.4131L14.5484 21.8369L13.9716 22.4592L14.5946 23.0353L15.1714 22.4131Z" fill="#CDAE27"/>
<path d="M12.8409 21.9863L12.2179 21.4102L11.641 22.0324L12.264 22.6086L12.8409 21.9863Z" fill="#CDAE27"/>
<path d="M7.84529 26.7111L7.46456 24.8213L5.56091 25.2016L5.94164 27.0914L7.84529 26.7111Z" fill="#CDAE27"/>
<path d="M10.3259 25.8814L10.0144 24.3604L8.47998 24.66L8.79149 26.181L10.3259 25.8814Z" fill="#CDAE27"/>
<path d="M7.32619 23.8072L7.01468 22.2861L5.48022 22.5857L5.79173 24.1068L7.32619 23.8072Z" fill="#CDAE27"/>
<path d="M9.43746 23.5533L9.19517 22.3779L8.00684 22.6084L8.24912 23.7838L9.43746 23.5533Z" fill="#CDAE27"/>
<path d="M11.2142 23.0465L10.9719 21.8711L9.78357 22.1016L10.0259 23.2885L11.2142 23.0465Z" fill="#CDAE27"/>
<path d="M9.02217 21.525L8.77989 20.3496L7.59155 20.5916L7.83383 21.767L9.02217 21.525Z" fill="#CDAE27"/>
<path d="M10.545 21.3521L10.3835 20.5225L9.54126 20.6838L9.70278 21.5135L10.545 21.3521Z" fill="#CDAE27"/>
<path d="M8.8951 19.6588L8.73358 18.8291L7.89136 18.9904L8.05288 19.8201L8.8951 19.6588Z" fill="#CDAE27"/>
<path d="M2.05365 20.5916L2.86126 18.84L1.09606 18.0449L0.288452 19.7965L2.05365 20.5916Z" fill="#CDAE27"/>
<path d="M4.55714 21.3636L5.20323 19.9578L3.78415 19.3125L3.13806 20.7183L4.55714 21.3636Z" fill="#CDAE27"/>
<path d="M3.34572 17.9418L3.99181 16.5359L2.57272 15.8906L1.92664 17.2965L3.34572 17.9418Z" fill="#CDAE27"/>
<path d="M5.21475 18.9554L5.72239 17.8607L4.61482 17.3652L4.10718 18.4599L5.21475 18.9554Z" fill="#CDAE27"/>
<path d="M6.69156 21.6986L7.1992 20.6039L6.09162 20.1084L5.58398 21.2031L6.69156 21.6986Z" fill="#CDAE27"/>
<path d="M4.6033 15.7982L5.11094 14.7035L4.00337 14.208L3.49573 15.3027L4.6033 15.7982Z" fill="#CDAE27"/>
<path d="M6.95682 19.5775L7.46446 18.4828L6.35688 17.9873L5.84924 19.082L6.95682 19.5775Z" fill="#CDAE27"/>
<path d="M6.06864 17.0775L6.57628 15.9828L5.4687 15.4873L4.96106 16.582L6.06864 17.0775Z" fill="#CDAE27"/>
<path d="M7.40691 17.8148L7.76456 17.0428L6.99157 16.6855L6.63391 17.4576L7.40691 17.8148Z" fill="#CDAE27"/>
<path d="M7.07231 15.4877L7.42997 14.7156L6.65697 14.3584L6.29932 15.1305L7.07231 15.4877Z" fill="#CDAE27"/>
<path d="M0.96913 12.2718L2.65357 11.3154L1.68444 9.64453L0 10.601L0.96913 12.2718Z" fill="#CDAE27"/>
<path d="M2.54961 14.3461L3.89947 13.5855L3.12647 12.2373L1.77661 13.0094L2.54961 14.3461Z" fill="#CDAE27"/>
<path d="M3.58806 10.8783L4.93792 10.1178L4.16492 8.76953L2.81506 9.54159L3.58806 10.8783Z" fill="#CDAE27"/>
<path d="M4.49947 12.7797L5.54936 12.1805L4.94943 11.1318L3.89954 11.731L4.49947 12.7797Z" fill="#CDAE27"/>
<path d="M5.8724 9.86364L6.92229 9.26443L6.32235 8.21582L5.27246 8.81503L5.8724 9.86364Z" fill="#CDAE27"/>
<path d="M5.5494 14.3002L6.59929 13.701L5.99935 12.6523L4.94946 13.2515L5.5494 14.3002Z" fill="#CDAE27"/>
<path d="M6.31087 11.7533L7.36077 11.1541L6.76083 10.1055L5.71094 10.7047L6.31087 11.7533Z" fill="#CDAE27"/>
<path d="M6.94543 13.125L7.68382 12.7101L7.25694 11.9727L6.51855 12.3875L6.94543 13.125Z" fill="#CDAE27"/>
<path d="M8.05298 11.0508L8.79136 10.6359L8.36448 9.89844L7.6261 10.3133L8.05298 11.0508Z" fill="#CDAE27"/>
<path d="M4.99561 4.89723L6.93387 5.10465L7.14153 3.19179L5.20328 2.98438L4.99561 4.89723Z" fill="#CDAE27"/>
<path d="M5.05334 7.50134L6.59934 7.66267L6.76086 6.13008L5.21487 5.96875L5.05334 7.50134Z" fill="#CDAE27"/>
<path d="M7.9491 5.27771L9.49509 5.43903L9.65661 3.90644L8.11062 3.74512L7.9491 5.27771Z" fill="#CDAE27"/>
<path d="M7.55688 7.35174L8.7683 7.47849L8.89521 6.28007L7.6838 6.15332L7.55688 7.35174Z" fill="#CDAE27"/>
<path d="M10.395 5.78436L11.6064 5.91111L11.7333 4.71269L10.5219 4.58594L10.395 5.78436Z" fill="#CDAE27"/>
<path d="M7.52222 9.19549L8.73363 9.32224L8.86054 8.12383L7.64913 7.99707L7.52222 9.19549Z" fill="#CDAE27"/>
<path d="M9.63367 7.57049L10.8451 7.69724L10.972 6.49883L9.76058 6.37207L9.63367 7.57049Z" fill="#CDAE27"/>
<path d="M9.34521 9.05701L10.199 9.1492L10.2913 8.308L9.43751 8.21582L9.34521 9.05701Z" fill="#CDAE27"/>
<path d="M11.468 8.00819L12.3218 8.10037L12.4141 7.25918L11.5603 7.16699L11.468 8.00819Z" fill="#CDAE27"/>
<path d="M20.6401 16.052C20.3978 15.9137 20.1324 15.7985 19.8671 15.7178C19.1864 15.4989 18.4595 15.4528 17.7442 15.568C17.4327 15.6141 17.1212 15.6948 16.8212 15.7985L16.7289 15.8331C16.5674 15.8907 16.4059 15.9714 16.2444 16.052C16.1059 16.1212 15.9675 16.2018 15.829 16.2825C15.506 16.4784 15.1945 16.6858 14.9061 16.9163C14.6638 15.2915 14.6407 13.6437 14.8138 12.0189C14.8138 12.0189 14.8138 12.0074 14.8253 12.0074C15.5637 12.4683 15.356 13.7474 15.1945 14.1161C15.1945 14.1276 15.206 14.1276 15.206 14.1276C15.829 13.4132 15.9329 12.3992 15.4829 11.5695C15.4829 11.558 15.4829 11.558 15.4945 11.558C15.6214 11.6617 15.7252 11.7654 15.829 11.8921C16.0713 12.2033 16.2213 12.5835 16.2444 12.9753C16.2559 13.1366 16.2559 13.298 16.2444 13.4708C16.2444 13.5054 16.2328 13.54 16.2328 13.5745C16.2328 13.5861 16.2328 13.586 16.2444 13.586C16.5559 12.9868 16.5559 12.2724 16.2444 11.6732C16.129 11.4658 15.9906 11.2814 15.829 11.1086C15.7829 11.0509 15.7252 11.0048 15.6675 10.9472C15.6675 10.9472 15.6675 10.9472 15.6675 10.9357C15.6675 10.9242 15.6675 10.9357 15.6791 10.9357C15.7367 10.9472 15.7829 10.9588 15.8406 10.9818C15.9906 11.0279 16.129 11.1086 16.2559 11.2007C16.5213 11.3966 16.7174 11.6617 16.8328 11.9728C16.9251 12.2033 16.9712 12.4337 16.9712 12.6757C16.9712 12.6757 16.9712 12.6872 16.9828 12.6872C16.9943 12.6872 16.9943 12.6872 16.9943 12.6757C17.1558 12.1917 17.0981 11.6732 16.8443 11.2353C16.6943 11.0048 16.4982 10.8205 16.2675 10.6822C16.1405 10.6015 16.0021 10.5439 15.8521 10.4978C15.7829 10.4748 15.7252 10.4633 15.656 10.4517C15.6444 10.4517 15.6444 10.4402 15.656 10.4402C15.7252 10.4287 15.7944 10.4287 15.8521 10.4287C15.9906 10.4287 16.129 10.4402 16.2675 10.4633C16.4751 10.4978 16.6713 10.5785 16.8443 10.6937C17.0058 10.7974 17.1328 10.9357 17.2366 11.1086C17.2366 11.1201 17.2481 11.1086 17.2481 11.1086C17.225 10.8089 17.0751 10.5324 16.8443 10.3365C16.6713 10.1982 16.4751 10.0945 16.2675 10.0369C16.129 10.0023 15.9906 9.97928 15.8521 9.97928C15.6791 9.97928 15.4945 10.0023 15.3329 10.0715C15.3214 10.0715 15.3214 10.0715 15.3214 10.0599C15.4483 9.87557 15.6329 9.74881 15.8521 9.6912C15.9906 9.6451 16.129 9.63358 16.2675 9.6451C16.3828 9.6451 16.4982 9.67967 16.602 9.72576H16.6136V9.71424C16.5097 9.59901 16.3944 9.50682 16.2675 9.43768C16.1405 9.36854 16.0021 9.32245 15.8521 9.29941C15.4483 9.25331 15.0676 9.44921 14.8599 9.7949H14.8484C14.8022 9.71424 14.7561 9.61053 14.7099 9.51835C14.6061 9.27636 14.5253 9.02285 14.4792 8.76934C14.4792 8.76934 14.4792 8.75781 14.4676 8.75781C14.4676 8.75781 14.4561 8.75781 14.4561 8.76934C14.41 9.02285 14.3292 9.27636 14.2254 9.51835C14.1792 9.61053 14.1446 9.70272 14.0869 9.7949H14.0754C13.7639 9.2994 13.0947 9.1496 12.5986 9.46073C12.4948 9.52987 12.3909 9.62206 12.3217 9.71424V9.72576H12.3333C12.7832 9.54139 13.3139 9.67967 13.6139 10.0599V10.0715H13.6023C13.0255 9.86404 12.3794 10.0254 11.9641 10.4748C11.8141 10.6591 11.7102 10.8781 11.6872 11.1086C11.6872 11.1201 11.6987 11.1201 11.6987 11.1086C11.7679 10.9933 11.8487 10.8896 11.9525 10.7974C12.3217 10.4978 12.8063 10.3711 13.2793 10.4402C13.2908 10.4402 13.2908 10.4517 13.2793 10.4517C12.6909 10.5554 12.1833 10.9472 11.9525 11.5003C11.8256 11.8806 11.8141 12.2954 11.941 12.6757C11.941 12.6757 11.941 12.6872 11.9525 12.6872C11.9641 12.6872 11.9641 12.6872 11.9641 12.6757C11.9641 12.6642 11.9641 12.6527 11.9641 12.6411C11.9525 11.846 12.4832 11.1316 13.2562 10.9242C13.2562 10.9242 13.2678 10.9242 13.2678 10.9357C13.2678 10.9357 13.2678 10.9357 13.2678 10.9472C12.4717 11.5695 12.2179 12.6757 12.6794 13.5745C12.6794 13.5745 12.6794 13.5745 12.6909 13.5745C12.6909 13.5745 12.6909 13.5745 12.6909 13.563C12.5525 12.8025 12.8409 12.0304 13.4293 11.5349C13.4408 11.5349 13.4408 11.5349 13.4408 11.5464C12.9909 12.3761 13.1062 13.3902 13.7177 14.1046C13.7177 14.1161 13.7293 14.1046 13.7293 14.0931C13.5793 13.7243 13.3716 12.4452 14.0985 11.9843H14.11C14.283 13.6206 14.2484 15.2569 14.0177 16.8817C13.4639 16.4438 12.8524 16.0751 12.1948 15.81C12.114 15.787 12.0448 15.7524 11.9756 15.7294C11.4218 15.545 10.8334 15.4643 10.2565 15.4874C9.63353 15.5104 9.0336 15.6602 8.47981 15.9368C8.41058 15.9714 8.3529 16.0059 8.30675 16.029C8.29521 16.0405 8.29521 16.0405 8.30675 16.052C8.30675 16.052 8.31829 16.0635 8.32982 16.0635C8.38751 16.052 8.43366 16.029 8.49135 16.0175C9.06821 15.8561 9.66815 15.7985 10.2681 15.8446C10.868 15.9022 11.4449 16.052 11.9871 16.3055C12.7255 16.6512 13.4178 17.1006 14.0408 17.6307C13.3947 18.253 12.7024 18.8291 11.9871 19.3707C11.9641 19.3822 11.941 19.3938 11.9179 19.4053C11.7564 19.1863 11.4564 19.1402 11.2487 19.3016C11.1565 19.3707 11.0872 19.4629 11.0642 19.5781C11.0295 19.7279 11.0642 19.8777 11.1565 19.993C11.3757 20.2119 11.7102 20.258 11.9871 20.1082C12.5871 19.8547 13.337 19.0711 14.26 18.2299C14.3407 18.1608 14.41 18.0916 14.4907 18.0225C14.5715 18.0916 14.6407 18.1608 14.7215 18.2299C15.1368 18.6102 15.5175 18.9789 15.8637 19.29C16.0021 19.4168 16.1405 19.5436 16.279 19.6473C16.4636 19.7971 16.6482 19.9354 16.8559 20.0506C17.1328 20.258 17.5135 20.2465 17.7788 20.0275C17.7904 20.016 17.8019 20.0045 17.825 19.993C17.9173 19.8777 17.9404 19.7279 17.9173 19.5781C17.8942 19.4859 17.8481 19.4053 17.7788 19.3477C17.7212 19.29 17.6404 19.244 17.5596 19.2209C17.375 19.1748 17.1789 19.2555 17.0635 19.4053C16.9943 19.3707 16.9251 19.3246 16.8674 19.2785C16.6713 19.1403 16.4751 18.9789 16.2905 18.8176C16.1636 18.7024 16.0252 18.5756 15.8752 18.4489C15.5868 18.1953 15.2753 17.9073 14.9522 17.6192C15.2522 17.3772 15.5637 17.1352 15.8752 16.9278C16.0136 16.8356 16.1521 16.7549 16.2905 16.6628C16.4751 16.5475 16.6713 16.4553 16.8674 16.3516C17.1674 16.2133 17.4673 16.0981 17.7904 16.0059C18.4826 15.81 19.1979 15.7639 19.9132 15.8792C20.1671 15.9253 20.4209 15.9829 20.6747 16.052C20.6862 16.052 20.6978 16.052 20.6978 16.0405C20.6516 16.0635 20.6516 16.052 20.6401 16.052Z" fill="#CDAE27"/>
</svg>
