<svg width="22" height="22" viewBox="0 0 22 22" fill="none" xmlns="http://www.w3.org/2000/svg">
<path d="M11.5566 21.25C13.6297 21.25 15.2627 21.2496 16.5381 21.0781C17.8464 20.9022 18.8904 20.5334 19.7119 19.7119C20.5334 18.8904 20.9022 17.8464 21.0781 16.5381C21.2496 15.2627 21.25 13.6297 21.25 11.5566V10.4434C21.25 8.37032 21.2496 6.73726 21.0781 5.46191C20.9022 4.15356 20.5334 3.10957 19.7119 2.28809C18.8904 1.4666 17.8464 1.09783 16.5381 0.921875C15.2627 0.750408 13.6297 0.749985 11.5566 0.75H10.4434C8.37032 0.749985 6.73726 0.750408 5.46191 0.921875C4.15356 1.09783 3.10957 1.4666 2.28809 2.28809C1.4666 3.10957 1.09783 4.15356 0.921875 5.46191C0.750409 6.73726 0.749986 8.37032 0.75 10.4434L0.75 11.5566C0.749986 13.6297 0.750409 15.2627 0.921875 16.5381C1.09783 17.8464 1.4666 18.8904 2.28809 19.7119C3.10957 20.5334 4.15356 20.9022 5.46191 21.0781C6.73726 21.2496 8.37032 21.25 10.4434 21.25H11.5566ZM10.5 19.75C8.35748 19.75 6.82593 19.7483 5.66211 19.5918C4.51994 19.4382 3.84505 19.1478 3.34863 18.6514C2.85222 18.155 2.56178 17.4801 2.4082 16.3379C2.25173 15.1741 2.25 13.6425 2.25 11.5L2.25 10.5C2.25 8.35748 2.25173 6.82593 2.4082 5.66211C2.56178 4.51994 2.85222 3.84505 3.34863 3.34863C3.84505 2.85222 4.51994 2.56178 5.66211 2.4082C6.82593 2.25173 8.35748 2.25 10.5 2.25H11.5C13.6425 2.25 15.1741 2.25173 16.3379 2.4082C17.4801 2.56178 18.155 2.85222 18.6514 3.34863C19.1478 3.84505 19.4382 4.51994 19.5918 5.66211C19.7483 6.82593 19.75 8.35748 19.75 10.5V11.5C19.75 13.6425 19.7483 15.1741 19.5918 16.3379C19.4382 17.4801 19.1478 18.155 18.6514 18.6514C18.155 19.1478 17.4801 19.4382 16.3379 19.5918C15.1741 19.7483 13.6425 19.75 11.5 19.75H10.5ZM9.33594 14.3135C9.60752 14.2588 9.8414 14.1035 9.99316 13.8896L10.6045 13.0117C10.668 12.9209 10.7051 12.8113 10.7051 12.6934V11.4023L11.8818 11.1611V13.4883L15.6582 12.7109C15.8365 12.3283 15.9548 11.9131 16 11.4775L13.0586 12.083V10.9189L15.6582 10.3838C15.8365 10.0012 15.9548 9.5859 16 9.15039L13.0586 9.75488V5.56934C12.6079 5.81421 12.2072 6.13996 11.8818 6.52441V9.99707L10.7051 10.2393V5C10.2546 5.24472 9.85458 5.57078 9.5293 5.95508V10.4805L6.89648 11.0225C6.71818 11.4051 6.59999 11.8204 6.55469 12.2559L9.5293 11.6445V13.1104L6.3418 13.7656C6.16335 14.1484 6.04519 14.5642 6 15L9.33594 14.3135ZM15.668 15.2275C15.8413 14.8468 15.956 14.4334 16 14L12.332 14.7725C12.1587 15.1533 12.0439 15.5666 12 16L15.668 15.2275Z" fill="#161616"/>
</svg>
