<svg width="18" height="18" viewBox="0 0 18 18" fill="none" xmlns="http://www.w3.org/2000/svg">
<path d="M3.28613 11.3223C5.5644 9.96569 8.30895 9.65417 10.7998 10.3818C11.131 10.4786 11.3212 10.825 11.2246 11.1562C11.1278 11.4876 10.7805 11.6779 10.4492 11.5811C8.28305 10.9483 5.89818 11.222 3.92578 12.3965C3.78589 12.4798 3.63224 12.5671 3.47168 12.6582C2.87794 12.995 2.18446 13.3883 1.70117 13.8613C1.40146 14.1547 1.27355 14.3969 1.25293 14.584C1.23668 14.7326 1.27406 14.9783 1.64941 15.3359C2.51254 16.1582 3.38995 16.6659 4.4502 16.666H12.291C12.6361 16.666 12.9158 16.946 12.916 17.291C12.916 17.6362 12.6362 17.916 12.291 17.916H4.4502C2.93508 17.9159 1.76325 17.1712 0.787109 16.2412C0.221328 15.7021 -0.0599258 15.0947 0.0107422 14.4482C0.0773189 13.8405 0.442513 13.3443 0.827148 12.9678C1.44228 12.3657 2.34059 11.8595 2.93457 11.5244C3.06999 11.448 3.18927 11.3799 3.28613 11.3223ZM14.791 16.666C15.1359 16.6662 15.4158 16.9461 15.416 17.291C15.416 17.6361 15.136 17.9158 14.791 17.916H14.7832C14.438 17.916 14.1582 17.6362 14.1582 17.291C14.1584 16.946 14.4381 16.666 14.7832 16.666H14.791ZM14.791 10C16.0086 10 17.083 10.9221 17.083 12.1631C17.083 12.6041 16.9429 13.0131 16.707 13.3516C16.5613 13.5606 16.3906 13.7604 16.2354 13.9385C16.2069 13.9711 16.1787 14.0029 16.1514 14.0342C16.0226 14.1812 15.9054 14.3155 15.7969 14.4531C15.5256 14.7973 15.416 15.0375 15.416 15.2402V15.625C15.4158 15.97 15.1361 16.25 14.791 16.25C14.4461 16.2499 14.1662 15.9699 14.166 15.625V15.2402C14.166 14.5933 14.5099 14.0673 14.8154 13.6797C14.9459 13.5142 15.0885 13.3507 15.2178 13.2031C15.2436 13.1736 15.2684 13.1443 15.293 13.1162C15.4474 12.939 15.5774 12.7849 15.6807 12.6367C15.7789 12.4958 15.833 12.3344 15.833 12.1631C15.833 11.7048 15.4143 11.25 14.791 11.25C14.1678 11.2501 13.75 11.7048 13.75 12.1631C13.75 12.5081 13.47 12.7879 13.125 12.7881C12.7798 12.7881 12.5 12.5083 12.5 12.1631C12.5 10.9222 13.5735 10.0001 14.791 10ZM8.95801 0C11.3742 3.53642e-05 13.333 1.95878 13.333 4.375C13.3328 6.79107 11.3741 8.74996 8.95801 8.75C6.54187 8.75 4.58318 6.7911 4.58301 4.375C4.58301 1.95875 6.54176 0 8.95801 0ZM8.95801 1.25C7.23212 1.25 5.83301 2.64911 5.83301 4.375C5.83318 6.10074 7.23223 7.5 8.95801 7.5C10.6838 7.49996 12.0828 6.10072 12.083 4.375C12.083 2.64913 10.6839 1.25004 8.95801 1.25Z" fill="#9E9E9E"/>
</svg>
