<svg width="24" height="24" viewBox="0 0 24 24" fill="none" xmlns="http://www.w3.org/2000/svg">
<path fill-rule="evenodd" clip-rule="evenodd" d="M2.24683 12.0032C2.2469 10.6174 2.24892 9.53259 2.30707 8.65102C2.36813 7.72522 2.49337 6.97179 2.76852 6.27748C3.60663 4.16259 5.37147 2.5114 7.58677 1.73373C8.85661 1.28797 10.3919 1.25283 12.9429 1.25023C12.9608 1.24999 12.9788 1.24988 12.9968 1.24988C13.0038 1.24988 13.0107 1.24997 13.0176 1.25016C13.2133 1.25001 13.415 1.25002 13.6229 1.25004L13.9857 1.25002C15.6208 1.24968 16.6398 1.24947 17.4805 1.54458C18.8295 2.01816 19.9111 3.02627 20.4261 4.32588C20.6008 4.76661 20.6758 5.23452 20.7117 5.77945C20.7468 6.31203 20.7468 6.96757 20.7468 7.79193V10C20.7468 10.4143 20.411 10.75 19.9968 10.75C19.5826 10.75 19.2468 10.4143 19.2468 10V7.81823C19.2468 6.96172 19.2464 6.3556 19.215 5.87817C19.1839 5.40744 19.1249 5.11394 19.0316 4.8785C18.6851 4.00402 17.9445 3.29723 16.9836 2.95991C16.4163 2.76075 15.6775 2.75005 13.815 2.75005C13.5042 2.75005 13.2103 2.75015 12.9319 2.75068C11.5352 2.78515 10.4135 3.92819 10.4135 5.33321C10.4135 5.48034 10.42 5.63852 10.4282 5.81612L10.4313 5.88194C10.4386 6.03685 10.4465 6.20543 10.45 6.37358C10.4579 6.75367 10.4459 7.19721 10.3311 7.62536C10.1077 8.45933 9.45628 9.11074 8.62231 9.3342C8.19416 9.44892 7.75062 9.46093 7.37052 9.45303C7.20244 9.44954 7.03393 9.44162 6.87905 9.43435L6.81307 9.43126C6.63547 9.42302 6.47729 9.41654 6.33016 9.41654C4.90539 9.41654 3.75001 10.57 3.74683 11.994C3.74683 12.0559 3.74683 12.1185 3.74683 12.1819V14.7273C3.74683 16.2802 3.74804 17.3794 3.84765 18.2259C3.94519 19.0549 4.12869 19.5496 4.4315 19.9303C4.62917 20.1788 4.86477 20.4009 5.13187 20.5891C5.54904 20.883 6.09448 21.0609 6.99144 21.1544C7.90037 21.2491 9.07738 21.25 10.7241 21.25H14.9968C15.411 21.25 15.7468 21.5858 15.7468 22C15.7468 22.4143 15.411 22.75 14.9968 22.75H10.6807C9.08688 22.7501 7.83171 22.7501 6.83595 22.6463C5.81921 22.5403 4.98315 22.3192 4.26793 21.8153C3.88613 21.5463 3.54564 21.2262 3.25755 20.864C2.71267 20.179 2.47232 19.3734 2.35793 18.4012C2.2468 17.4568 2.24681 16.2693 2.24683 14.7754V12.1546C2.24683 12.1038 2.24683 12.0532 2.24683 12.0032ZM9.76987 2.83083C9.07679 2.88767 8.55259 2.98443 8.08361 3.14906C6.25646 3.79046 4.83265 5.14034 4.16301 6.83011C3.96922 7.31911 3.85999 7.89813 3.80382 8.74974C3.80285 8.7644 3.8019 8.77913 3.80097 8.79392C4.49646 8.24449 5.37501 7.91654 6.33016 7.91654C6.51592 7.91654 6.70553 7.92465 6.88258 7.93287L6.95045 7.93604C7.10713 7.94339 7.25462 7.9503 7.40167 7.95335C7.74231 7.96043 8.0149 7.94404 8.23408 7.88531C8.55041 7.80055 8.7975 7.55346 8.88226 7.23713C8.94099 7.01795 8.95738 6.74536 8.9503 6.40472C8.94725 6.25769 8.94034 6.11022 8.93299 5.95357L8.92982 5.88563C8.9216 5.70858 8.91349 5.51897 8.91349 5.33321C8.91349 4.3903 9.23309 3.52203 9.76987 2.83083Z" fill="#161616"/>
<path fill-rule="evenodd" clip-rule="evenodd" d="M8.01565 12.2499L8.75002 12.25C9.85421 12.25 10.8125 13.1113 10.8125 14.25C10.8125 15.3886 9.85421 16.25 8.75002 16.25H7.75002V18C7.75002 18.4142 7.41424 18.75 7.00002 18.75C6.58581 18.75 6.25002 18.4142 6.25002 18L6.25001 13.9647C6.24992 13.7604 6.24982 13.5362 6.27661 13.3465C6.30854 13.1203 6.39078 12.8374 6.63655 12.6033C6.87717 12.3741 7.15902 12.3025 7.3787 12.2743C7.57026 12.2498 7.7985 12.2499 8.01565 12.2499ZM7.75002 14.75H8.75002C9.09559 14.75 9.31252 14.492 9.31252 14.25C9.31252 14.0079 9.09559 13.75 8.75002 13.75H8.05002C7.92879 13.75 7.83325 13.75 7.75123 13.7518C7.75006 13.8208 7.75002 13.9008 7.75002 14V14.75Z" fill="#161616"/>
<path d="M19.6459 12.25L21 12.25C21.4142 12.25 21.75 12.5857 21.75 13C21.75 13.4142 21.4142 13.75 21 13.75H19.6875C19.2548 13.75 19.0022 13.7514 18.8227 13.7744C18.7766 13.7803 18.7448 13.7866 18.7238 13.7919C18.7202 13.8074 18.7162 13.8287 18.7122 13.8571C18.6893 14.0194 18.6875 14.2516 18.6875 14.6666V14.75H20.125C20.5392 14.75 20.875 15.0857 20.875 15.5C20.875 15.9142 20.5392 16.25 20.125 16.25H18.6875V18C18.6875 18.4142 18.3517 18.75 17.9375 18.75C17.5233 18.75 17.1875 18.4142 17.1875 18L17.1875 14.623C17.1874 14.268 17.1874 13.9274 17.2269 13.6474C17.2717 13.3304 17.3795 12.9838 17.6766 12.7009C17.9684 12.4229 18.3172 12.3269 18.6322 12.2865C18.9186 12.2499 19.2694 12.2499 19.6459 12.25Z" fill="#161616"/>
<path fill-rule="evenodd" clip-rule="evenodd" d="M13.1026 12.25L13.125 12.25C14.9541 12.25 16.5 13.671 16.5 15.5C16.5 17.3289 14.9541 18.75 13.125 18.75L13.1026 18.75C12.9587 18.75 12.8073 18.75 12.6773 18.7388C12.5315 18.7262 12.3423 18.6953 12.1512 18.5902C11.7681 18.3796 11.6008 18.0433 11.5385 17.752C11.4945 17.5462 11.4979 17.3182 11.4996 17.208C11.4998 17.1914 11.5 17.1774 11.5 17.1666V13.8333C11.5 13.8225 11.4998 13.8085 11.4996 13.7919C11.4979 13.6817 11.4945 13.4537 11.5385 13.2479C11.6008 12.9566 11.7681 12.6204 12.1512 12.4097C12.3423 12.3046 12.5315 12.2737 12.6773 12.2611C12.8073 12.2499 12.9587 12.2499 13.1026 12.25ZM12.9995 13.7501L12.9996 13.7517C12.9998 13.7772 13 13.8069 13 13.8333V17.1666C13 17.193 12.9998 17.2227 12.9996 17.2482L12.9995 17.2498C13.0365 17.2499 13.0778 17.25 13.125 17.25C14.1955 17.25 15 16.4324 15 15.5C15 14.5675 14.1955 13.75 13.125 13.75C13.0778 13.75 13.0365 13.75 12.9995 13.7501Z" fill="#161616"/>
</svg>
