<svg width="16" height="16" viewBox="0 0 16 16" fill="none" xmlns="http://www.w3.org/2000/svg">
<path fill-rule="evenodd" clip-rule="evenodd" d="M10.7236 2.70008C11.4349 1.98888 12.5884 1.98889 13.2997 2.70008C14.0111 3.41142 14.011 4.56487 13.2997 5.27625L6.82221 11.7538C6.17684 12.3993 5.78237 12.7939 5.29681 13.0653C5.02592 13.2167 4.61475 13.3497 4.19428 13.4667C3.76161 13.5871 3.26324 13.7051 2.78803 13.8182L2.78217 13.8202C2.6135 13.8603 2.43611 13.8098 2.31342 13.6874C2.19064 13.5646 2.14039 13.3866 2.1806 13.2177L2.18158 13.2118C2.2947 12.7367 2.41374 12.2391 2.53412 11.8065C2.65113 11.386 2.78314 10.9749 2.93451 10.704C3.20596 10.2182 3.60031 9.82319 4.24603 9.17762L10.7236 2.70008ZM11.3329 12.8339C11.6091 12.8339 11.8329 13.0577 11.8329 13.3339C11.8328 13.6098 11.609 13.8339 11.3329 13.8339H7.33295C7.05707 13.8337 6.83314 13.6097 6.83295 13.3339C6.83295 13.0578 7.05695 12.834 7.33295 12.8339H11.3329ZM5.00678 9.83094C4.29088 10.5468 4.0032 10.8413 3.80756 11.1913C3.72172 11.3449 3.61569 11.6476 3.49701 12.0741C3.44629 12.2564 3.3953 12.4522 3.34467 12.6552C3.54766 12.6045 3.74346 12.5535 3.92572 12.5028C4.35204 12.3842 4.65481 12.2791 4.80853 12.1932C5.15865 11.9976 5.45281 11.7091 6.16889 10.9931L11.3046 5.85731L10.1425 4.6952L5.00678 9.83094ZM12.5927 3.40711C12.2719 3.08645 11.7514 3.08644 11.4306 3.40711L10.8495 3.98817L12.0117 5.15028L12.5927 4.56922C12.9134 4.24836 12.9135 3.72792 12.5927 3.40711Z" fill="black"/>
</svg>
