<svg width="24" height="24" viewBox="0 0 24 24" fill="none" xmlns="http://www.w3.org/2000/svg">
<path d="M10 3.3202C6.75001 2.8232 3.67401 2.8562 2.76501 3.7652C0.593013 5.9372 3.42501 20.4942 6.53501 20.1912C8.24101 20.0192 9.43201 17.2792 10.835 16.4232C11.386 16.0862 11.876 16.4282 12.222 16.8782L15.569 21.2352C16.152 21.9942 16.563 22.2202 17.442 21.7702C18.794 21.0782 20.078 19.7912 20.77 18.4422C21.22 17.5622 20.994 17.1522 20.235 16.5692L18 14.8522" stroke="#27AE61" stroke-width="1.5" stroke-linecap="round" stroke-linejoin="round"/>
<path d="M17 5V7L18.5 8M22 7C22 8.32608 21.4732 9.59785 20.5355 10.5355C19.5979 11.4732 18.3261 12 17 12C15.6739 12 14.4021 11.4732 13.4645 10.5355C12.5268 9.59785 12 8.32608 12 7C12 5.67392 12.5268 4.40215 13.4645 3.46447C14.4021 2.52678 15.6739 2 17 2C18.3261 2 19.5979 2.52678 20.5355 3.46447C21.4732 4.40215 22 5.67392 22 7Z" stroke="#27AE61" stroke-width="1.5" stroke-linecap="round" stroke-linejoin="round"/>
</svg>
