<svg width="34" height="30" viewBox="0 0 34 30" fill="none" xmlns="http://www.w3.org/2000/svg">
<path d="M18.875 10.5C18.875 9.87868 19.3787 9.375 20 9.375H26C26.6213 9.375 27.125 9.87868 27.125 10.5C27.125 11.1213 26.6213 11.625 26 11.625H20C19.3787 11.625 18.875 11.1213 18.875 10.5Z" fill="#D9D9D9"/>
<path d="M18.875 15.75C18.875 15.1287 19.3787 14.625 20 14.625H24.5C25.1213 14.625 25.625 15.1287 25.625 15.75C25.625 16.3713 25.1213 16.875 24.5 16.875H20C19.3787 16.875 18.875 16.3713 18.875 15.75Z" fill="#D9D9D9"/>
<path d="M11.7222 19.1256C9.86096 19.1531 8.19189 20.0399 7.51915 21.477C7.25572 22.0397 6.586 22.2823 6.02329 22.0189C5.46058 21.7554 5.21796 21.0857 5.48139 20.523C6.62111 18.0885 9.23618 16.9121 11.6889 16.8759C14.1554 16.8395 16.815 17.9509 18.0191 20.523C18.2826 21.0857 18.04 21.7554 17.4772 22.0189C16.9145 22.2823 16.2448 22.0397 15.9814 21.477C15.2538 19.9227 13.5697 19.0983 11.7222 19.1256Z" fill="#D9D9D9"/>
<path fill-rule="evenodd" clip-rule="evenodd" d="M11.75 6.375C9.47183 6.375 7.625 8.22183 7.625 10.5C7.625 12.7782 9.47183 14.625 11.75 14.625C14.0282 14.625 15.875 12.7782 15.875 10.5C15.875 8.22183 14.0282 6.375 11.75 6.375ZM9.875 10.5C9.875 9.46447 10.7145 8.625 11.75 8.625C12.7855 8.625 13.625 9.46447 13.625 10.5C13.625 11.5355 12.7855 12.375 11.75 12.375C10.7145 12.375 9.875 11.5355 9.875 10.5Z" fill="#D9D9D9"/>
<path fill-rule="evenodd" clip-rule="evenodd" d="M18.5679 0.375H15.4321C12.6773 0.374988 10.5179 0.374978 8.80471 0.560592C7.05641 0.750009 5.63984 1.14349 4.43035 2.02223C3.69814 2.55422 3.05422 3.19814 2.52223 3.93035C1.64349 5.13984 1.25001 6.55641 1.06059 8.30471C0.874978 10.0179 0.874988 12.1773 0.875 14.9321V15.0679C0.874988 17.8227 0.874978 19.9821 1.06059 21.6953C1.25001 23.4436 1.64349 24.8602 2.52223 26.0696C3.05422 26.8019 3.69814 27.4458 4.43035 27.9778C5.63984 28.8565 7.05641 29.25 8.80471 29.4394C10.5179 29.625 12.6772 29.625 15.432 29.625H18.5679C21.3226 29.625 23.4821 29.625 25.1953 29.4394C26.9436 29.25 28.3602 28.8565 29.5696 27.9778C30.3019 27.4458 30.9458 26.8019 31.4778 26.0696C32.3565 24.8602 32.75 23.4436 32.9394 21.6953C33.125 19.9821 33.125 17.8228 33.125 15.068V14.9321C33.125 12.1774 33.125 10.0179 32.9394 8.30471C32.75 6.55641 32.3565 5.13984 31.4778 3.93035C30.9458 3.19814 30.3019 2.55422 29.5696 2.02223C28.3602 1.14349 26.9436 0.750009 25.1953 0.560592C23.4821 0.374978 21.3227 0.374988 18.5679 0.375ZM5.75287 3.84252C6.51488 3.28889 7.4902 2.96618 9.04707 2.7975C10.625 2.62654 12.6626 2.625 15.5 2.625H18.5C21.3374 2.625 23.375 2.62654 24.9529 2.7975C26.5098 2.96618 27.4851 3.28889 28.2471 3.84252C28.7883 4.23573 29.2643 4.71167 29.6575 5.25287C30.2111 6.01488 30.5338 6.9902 30.7025 8.54707C30.8735 10.125 30.875 12.1626 30.875 15C30.875 17.8374 30.8735 19.875 30.7025 21.4529C30.5338 23.0098 30.2111 23.9851 29.6575 24.7471C29.2643 25.2883 28.7883 25.7643 28.2471 26.1575C27.4851 26.7111 26.5098 27.0338 24.9529 27.2025C23.375 27.3735 21.3374 27.375 18.5 27.375H15.5C12.6626 27.375 10.625 27.3735 9.04707 27.2025C7.4902 27.0338 6.51488 26.7111 5.75287 26.1575C5.21167 25.7643 4.73572 25.2883 4.34252 24.7471C3.78889 23.9851 3.46618 23.0098 3.2975 21.4529C3.12654 19.875 3.125 17.8374 3.125 15C3.125 12.1626 3.12654 10.125 3.2975 8.54707C3.46618 6.9902 3.78889 6.01488 4.34252 5.25287C4.73572 4.71167 5.21167 4.23573 5.75287 3.84252Z" fill="#D9D9D9"/>
</svg>
