<svg width="18" height="18" viewBox="0 0 18 18" fill="none" xmlns="http://www.w3.org/2000/svg">
<path d="M9.04785 0.458008C10.8733 0.457996 12.3073 0.457889 13.4268 0.608398C14.5739 0.76264 15.4841 1.08563 16.1992 1.80078C16.9144 2.51594 17.2374 3.42605 17.3916 4.57324C17.5421 5.69271 17.542 7.12666 17.542 8.95215V9.04785C17.542 10.8733 17.5421 12.3073 17.3916 13.4268C17.2374 14.5739 16.9144 15.4841 16.1992 16.1992C15.4841 16.9144 14.5739 17.2374 13.4268 17.3916C12.3073 17.5421 10.8733 17.542 9.04785 17.542H8.95215C7.12666 17.542 5.69271 17.5421 4.57324 17.3916C3.42605 17.2374 2.51594 16.9144 1.80078 16.1992C1.08563 15.4841 0.76264 14.5739 0.608398 13.4268C0.457889 12.3073 0.457996 10.8733 0.458008 9.04785V8.95215C0.457996 7.12666 0.457889 5.69271 0.608398 4.57324C0.76264 3.42605 1.08563 2.51594 1.80078 1.80078C2.51594 1.08563 3.42605 0.76264 4.57324 0.608398C5.69271 0.457889 7.12666 0.457996 8.95215 0.458008H9.04785ZM9 1.70801C7.11655 1.70801 5.76678 1.70968 4.74023 1.84766C3.73163 1.98326 3.12877 2.24037 2.68457 2.68457C2.24037 3.12877 1.98326 3.73163 1.84766 4.74023C1.70968 5.76678 1.70801 7.11655 1.70801 9C1.70801 10.8834 1.70968 12.2332 1.84766 13.2598C1.98326 14.2684 2.24037 14.8712 2.68457 15.3154C3.12877 15.7596 3.73163 16.0167 4.74023 16.1523C5.76678 16.2903 7.11655 16.292 9 16.292C10.8834 16.292 12.2332 16.2903 13.2598 16.1523C14.2684 16.0167 14.8712 15.7596 15.3154 15.3154C15.7596 14.8712 16.0167 14.2684 16.1523 13.2598C16.2903 12.2332 16.292 10.8834 16.292 9C16.292 7.11655 16.2903 5.76678 16.1523 4.74023C16.0167 3.73163 15.7596 3.12877 15.3154 2.68457C14.8712 2.24037 14.2684 1.98326 13.2598 1.84766C12.2332 1.70968 10.8834 1.70801 9 1.70801ZM9.00098 12.333C9.46121 12.333 9.83398 12.7068 9.83398 13.167C9.83381 13.6271 9.4611 14 9.00098 14H8.99316C8.53319 13.9998 8.16033 13.627 8.16016 13.167C8.16016 12.7069 8.53308 12.3332 8.99316 12.333H9.00098ZM9 4.20801C10.2657 4.20801 11.292 5.23435 11.292 6.5C11.292 6.95528 11.1578 7.38171 10.9277 7.73926C10.7837 7.96303 10.6152 8.17718 10.46 8.37012C10.4317 8.4053 10.4033 8.43979 10.376 8.47363C10.2472 8.63306 10.1288 8.7795 10.0195 8.92969C9.75004 9.30008 9.62511 9.5787 9.625 9.83301V10.25C9.625 10.5952 9.34518 10.875 9 10.875C8.65482 10.875 8.375 10.5952 8.375 10.25V9.83301C8.37511 9.16717 8.70175 8.61635 9.00879 8.19434C9.13856 8.01598 9.28085 7.83964 9.41016 7.67969C9.43601 7.6477 9.46171 7.61654 9.48633 7.58594C9.64062 7.39419 9.77203 7.22555 9.87695 7.0625C9.98112 6.90061 10.042 6.7083 10.042 6.5C10.042 5.9247 9.5753 5.45801 9 5.45801C8.4247 5.45801 7.95801 5.9247 7.95801 6.5C7.95801 6.84518 7.67819 7.125 7.33301 7.125C6.98798 7.12482 6.70801 6.84507 6.70801 6.5C6.70801 5.23435 7.73435 4.20801 9 4.20801Z" fill="#161616"/>
</svg>
