<svg width="18" height="18" viewBox="0 0 18 18" fill="none" xmlns="http://www.w3.org/2000/svg">
<path fill-rule="evenodd" clip-rule="evenodd" d="M13.0094 0.608305C14.1566 0.762547 15.0668 1.08508 15.782 1.80024C16.4971 2.51541 16.8197 3.42562 16.9739 4.57283C17.1136 5.61237 17.1236 6.92299 17.1243 8.56658L17.1244 9.04715C17.1244 10.8727 17.1244 12.3066 16.9739 13.4261C16.8197 14.5733 16.4971 15.4836 15.782 16.1987C15.0668 16.9139 14.1566 17.2364 13.0094 17.3906C11.9699 17.5304 10.6592 17.5404 9.01563 17.5411L8.53507 17.5411C6.70948 17.5411 5.27559 17.5411 4.15608 17.3906C3.00887 17.2364 2.09866 16.9139 1.38349 16.1987C0.668332 15.4836 0.345799 14.5733 0.191557 13.4261C0.062564 12.4666 0.0441364 11.276 0.0415039 9.80579V8.19318C0.0441364 6.72298 0.062564 5.53242 0.191557 4.57283C0.345799 3.42562 0.668332 2.51541 1.38349 1.80024C2.09866 1.08508 3.00887 0.762547 4.15608 0.608305C5.11567 0.479312 6.30623 0.460884 7.77643 0.458252H9.38904C10.8593 0.460884 12.0498 0.479312 13.0094 0.608305ZM8.58648 11.9161C8.12082 11.9161 7.7494 12.2892 7.7494 12.7495C7.7494 13.2097 8.12082 13.5828 8.57898 13.5828C9.04465 13.5828 9.41607 13.2097 9.41607 12.7495C9.41607 12.2892 9.04465 11.9161 8.58648 11.9161ZM8.58273 4.41615C7.20198 4.41615 6.08273 5.53544 6.08273 6.91615C6.08273 7.3764 6.45583 7.74948 6.91607 7.74948C7.37632 7.74948 7.7494 7.3764 7.7494 6.91615L7.755 6.81896C7.80314 6.40452 8.15536 6.08281 8.58273 6.08281C9.04298 6.08281 9.41607 6.45591 9.41607 6.91615C9.41607 7.08329 9.36773 7.2366 9.28457 7.3659C9.18615 7.51881 9.06098 7.68006 8.90682 7.87165L8.83215 7.96415C8.70282 8.12398 8.55665 8.3049 8.4234 8.48798C8.11007 8.91865 7.7494 9.51481 7.7494 10.2495C7.7494 10.7097 8.12248 11.0828 8.58273 11.0828C9.04298 11.0828 9.41607 10.7097 9.41607 10.2495C9.41607 10.0636 9.50765 9.83056 9.77107 9.46856C9.87707 9.3229 9.9914 9.18131 10.1201 9.02198L10.2053 8.91648C10.3608 8.72315 10.5355 8.50181 10.6861 8.26773C10.9371 7.87756 11.0827 7.41256 11.0827 6.91615C11.0827 5.53544 9.96348 4.41615 8.58273 4.41615Z" fill="#7F404F"/>
</svg>
