<svg width="56" height="56" viewBox="0 0 56 56" fill="none" xmlns="http://www.w3.org/2000/svg">
<g filter="url(#filter0_d_1828_22411)">
<rect x="4" y="2" width="48" height="48" rx="8" fill="black" fill-opacity="0.3" shape-rendering="crispEdges"/>
<path d="M29.2 14C29.611 14 30.0055 14.1695 30.289 14.468L35.089 19.61C35.353 19.889 35.5 20.2595 35.5 20.6435V33.5C35.5 33.8978 35.342 34.2794 35.0607 34.5607C34.7794 34.842 34.3978 35 34 35H19C18.6022 35 18.2206 34.842 17.9393 34.5607C17.658 34.2794 17.5 33.8978 17.5 33.5V15.5C17.5 15.1022 17.658 14.7206 17.9393 14.4393C18.2206 14.158 18.6022 14 19 14H29.2ZM34 21.5H28.75C28.5511 21.5 28.3603 21.421 28.2197 21.2803C28.079 21.1397 28 20.9489 28 20.75V15.5H19V33.5H34V21.5ZM22.75 30.5C22.5511 30.5 22.3603 30.421 22.2197 30.2803C22.079 30.1397 22 29.9489 22 29.75C22 29.5511 22.079 29.3603 22.2197 29.2197C22.3603 29.079 22.5511 29 22.75 29H30.25C30.4489 29 30.6397 29.079 30.7803 29.2197C30.921 29.3603 31 29.5511 31 29.75C31 29.9489 30.921 30.1397 30.7803 30.2803C30.6397 30.421 30.4489 30.5 30.25 30.5H22.75ZM22.75 26C22.5511 26 22.3603 25.921 22.2197 25.7803C22.079 25.6397 22 25.4489 22 25.25C22 25.0511 22.079 24.8603 22.2197 24.7197C22.3603 24.579 22.5511 24.5 22.75 24.5H30.25C30.4489 24.5 30.6397 24.579 30.7803 24.7197C30.921 24.8603 31 25.0511 31 25.25C31 25.4489 30.921 25.6397 30.7803 25.7803C30.6397 25.921 30.4489 26 30.25 26H22.75ZM24.25 38C24.0511 38 23.8603 37.921 23.7197 37.7803C23.579 37.6397 23.5 37.4489 23.5 37.25C23.5 37.0511 23.579 36.8603 23.7197 36.7197C23.8603 36.579 24.0511 36.5 24.25 36.5H37V23.75C37 23.5511 37.079 23.3603 37.2197 23.2197C37.3603 23.079 37.5511 23 37.75 23C37.9489 23 38.1397 23.079 38.2803 23.2197C38.421 23.3603 38.5 23.5511 38.5 23.75V36.5C38.5 36.8978 38.342 37.2794 38.0607 37.5607C37.7794 37.842 37.3978 38 37 38H24.25Z" fill="white"/>
</g>
<defs>
<filter id="filter0_d_1828_22411" x="0" y="0" width="56" height="56" filterUnits="userSpaceOnUse" color-interpolation-filters="sRGB">
<feFlood flood-opacity="0" result="BackgroundImageFix"/>
<feColorMatrix in="SourceAlpha" type="matrix" values="0 0 0 0 0 0 0 0 0 0 0 0 0 0 0 0 0 0 127 0" result="hardAlpha"/>
<feOffset dy="2"/>
<feGaussianBlur stdDeviation="2"/>
<feComposite in2="hardAlpha" operator="out"/>
<feColorMatrix type="matrix" values="0 0 0 0 0 0 0 0 0 0 0 0 0 0 0 0 0 0 0.15 0"/>
<feBlend mode="normal" in2="BackgroundImageFix" result="effect1_dropShadow_1828_22411"/>
<feBlend mode="normal" in="SourceGraphic" in2="effect1_dropShadow_1828_22411" result="shape"/>
</filter>
</defs>
</svg>
