<svg width="19" height="23" viewBox="0 0 19 23" fill="none" xmlns="http://www.w3.org/2000/svg">
<path d="M2.25348 4.27344C2.16431 5.15998 2.16455 6.21307 2.16461 7.37012L2.16461 12.6318C2.16454 13.9364 2.16474 15.109 2.29254 16.0596C2.43214 17.0978 2.75638 18.164 3.62946 19.0371C4.5024 19.9098 5.56806 20.2335 6.60602 20.373C7.55657 20.5008 8.72923 20.501 10.0338 20.501H12.2955C13.4524 20.501 14.5056 20.5012 15.3922 20.4121C14.7387 21.5129 13.5375 22.251 12.1646 22.251L7.10992 22.251C5.74238 22.251 4.63997 22.2503 3.77301 22.1338C2.87296 22.0128 2.11514 21.7542 1.51324 21.1523C0.911342 20.5504 0.651843 19.7927 0.530823 18.8926C0.414265 18.0256 0.414592 16.9232 0.414612 15.5557L0.414612 7.50098C0.414612 6.12789 1.15253 4.92681 2.25348 4.27344ZM11.6285 0.75C12.327 0.749331 12.8798 0.749398 13.3882 0.959961C13.8966 1.17053 14.2874 1.56132 14.7808 2.05566L17.6089 4.88379C18.1034 5.37725 18.495 5.76796 18.7056 6.27637C18.9161 6.78474 18.9153 7.33766 18.9146 8.03613V12.5547C18.9146 13.9221 18.9149 15.0247 18.7984 15.8916C18.6774 16.7917 18.4178 17.5495 17.816 18.1514C17.2141 18.7533 16.4563 19.0128 15.5562 19.1338C14.6893 19.2503 13.5868 19.25 12.2193 19.25H10.1099C8.74242 19.25 7.63995 19.2503 6.77301 19.1338C5.8729 19.0128 5.11516 18.7533 4.51324 18.1514C3.91138 17.5495 3.65183 16.7917 3.53082 15.8916C3.41431 15.0247 3.41459 13.9221 3.41461 12.5547L3.41461 7.44531C3.41459 6.07775 3.41427 4.97536 3.53082 4.1084C3.65184 3.20829 3.91133 2.45055 4.51324 1.84863C5.11515 1.24677 5.87294 0.987222 6.77301 0.866211C7.64016 0.749682 10.261 0.749979 11.6285 0.75ZM7.66656 14.75C7.25235 14.75 6.91656 15.0858 6.91656 15.5C6.91656 15.9142 7.25235 16.25 7.66656 16.25L14.6666 16.25C15.0808 16.25 15.4166 15.9142 15.4166 15.5C15.4166 15.0858 15.0808 14.75 14.6666 14.75L7.66656 14.75ZM7.66656 10.75C7.25235 10.75 6.91656 11.0858 6.91656 11.5C6.91656 11.9142 7.25235 12.25 7.66656 12.25L11.6666 12.25C12.0808 12.25 12.4166 11.9142 12.4166 11.5C12.4166 11.0858 12.0808 10.75 11.6666 10.75L7.66656 10.75ZM11.9146 2.99805C11.9146 3.89652 11.9147 4.69819 11.9947 5.29297C12.0791 5.92074 12.2648 6.4879 12.7203 6.94336C13.1756 7.39853 13.7422 7.58453 14.3697 7.66895C14.9645 7.74891 15.7144 7.74808 16.6129 7.74805L17.4127 7.74805C17.4074 7.19651 17.3864 7.01148 17.3189 6.84863C17.237 6.65099 17.0836 6.47861 16.4625 5.85742L13.8052 3.2002C13.1841 2.57903 13.0117 2.42562 12.814 2.34375C12.6512 2.27631 12.4661 2.25526 11.9146 2.25V2.99805Z" fill="#A38A5F"/>
</svg>
