<svg width="32" height="33" viewBox="0 0 32 33" fill="none" xmlns="http://www.w3.org/2000/svg">
<g clip-path="url(#clip0_1834_24268)">
<path d="M17.6 0.5C18.148 0.5 18.674 0.726 19.052 1.124L25.452 7.98C25.804 8.352 26 8.846 26 9.358V26.5C26 27.0304 25.7893 27.5391 25.4142 27.9142C25.0391 28.2893 24.5304 28.5 24 28.5H4C3.46957 28.5 2.96086 28.2893 2.58579 27.9142C2.21071 27.5391 2 27.0304 2 26.5V2.5C2 1.96957 2.21071 1.46086 2.58579 1.08579C2.96086 0.710714 3.46957 0.5 4 0.5L17.6 0.5ZM24 10.5H17C16.7348 10.5 16.4804 10.3946 16.2929 10.2071C16.1054 10.0196 16 9.76522 16 9.5V2.5H4V26.5H24V10.5ZM9 22.5C8.73478 22.5 8.48043 22.3946 8.29289 22.2071C8.10536 22.0196 8 21.7652 8 21.5C8 21.2348 8.10536 20.9804 8.29289 20.7929C8.48043 20.6054 8.73478 20.5 9 20.5H19C19.2652 20.5 19.5196 20.6054 19.7071 20.7929C19.8946 20.9804 20 21.2348 20 21.5C20 21.7652 19.8946 22.0196 19.7071 22.2071C19.5196 22.3946 19.2652 22.5 19 22.5H9ZM9 16.5C8.73478 16.5 8.48043 16.3946 8.29289 16.2071C8.10536 16.0196 8 15.7652 8 15.5C8 15.2348 8.10536 14.9804 8.29289 14.7929C8.48043 14.6054 8.73478 14.5 9 14.5H19C19.2652 14.5 19.5196 14.6054 19.7071 14.7929C19.8946 14.9804 20 15.2348 20 15.5C20 15.7652 19.8946 16.0196 19.7071 16.2071C19.5196 16.3946 19.2652 16.5 19 16.5H9ZM11 32.5C10.7348 32.5 10.4804 32.3946 10.2929 32.2071C10.1054 32.0196 10 31.7652 10 31.5C10 31.2348 10.1054 30.9804 10.2929 30.7929C10.4804 30.6054 10.7348 30.5 11 30.5H28V13.5C28 13.2348 28.1054 12.9804 28.2929 12.7929C28.4804 12.6054 28.7348 12.5 29 12.5C29.2652 12.5 29.5196 12.6054 29.7071 12.7929C29.8946 12.9804 30 13.2348 30 13.5V30.5C30 31.0304 29.7893 31.5391 29.4142 31.9142C29.0391 32.2893 28.5304 32.5 28 32.5H11Z" fill="white"/>
</g>
<defs>
<clipPath id="clip0_1834_24268">
<rect width="32" height="32" fill="white" transform="translate(0 0.5)"/>
</clipPath>
</defs>
</svg>
