<svg width="24" height="25" viewBox="0 0 24 25" fill="none" xmlns="http://www.w3.org/2000/svg">
<path opacity="0.4" d="M8.2099 16.8906C10.4699 15.3906 13.5302 15.3906 15.7802 16.8906C16.7101 17.5206 17.2499 18.6511 17.2499 20.001C17.2497 20.4108 16.9098 20.751 16.4999 20.751V20.7402C16.0899 20.7402 15.7499 20.4002 15.7499 19.9902C15.7499 19.5801 15.6697 18.6208 14.9501 18.1309C13.2001 16.9709 10.8097 16.9609 9.04974 18.1309C8.33019 18.6108 8.24999 19.59 8.24994 19.9902C8.24994 20.3902 7.90994 20.7402 7.49994 20.7402C7.08994 20.7402 6.74994 20.4002 6.74994 19.9902C6.75004 18.6504 7.28 17.5106 8.2099 16.8906ZM11.9999 8.24219C13.7899 8.24219 15.2499 9.70219 15.2499 11.4922C15.2499 13.2822 13.7899 14.7422 11.9999 14.7422C10.2099 14.7422 8.74994 13.2822 8.74994 11.4922C8.74994 9.70219 10.2099 8.24219 11.9999 8.24219ZM11.9999 9.74219C11.0399 9.74219 10.2499 10.5322 10.2499 11.4922C10.2499 12.4522 11.0399 13.2422 11.9999 13.2422C12.9599 13.2422 13.7499 12.4522 13.7499 11.4922C13.7499 10.5322 12.9599 9.74219 11.9999 9.74219Z" fill="#161616"/>
<path d="M6.49994 10.7422C6.90994 10.7422 7.24994 11.0822 7.24994 11.4922C7.24994 11.9022 6.90994 12.2422 6.49994 12.2422C5.58997 12.2422 4.71012 12.5423 3.95013 13.1123C3.34013 13.5723 3.24994 14.4226 3.24994 14.8926C3.24974 15.3024 2.90982 15.6924 2.49994 15.6924C2.08994 15.6924 1.74994 15.4022 1.74994 14.9922C1.74994 13.6122 2.20978 12.5521 3.04974 11.9121C4.07974 11.1421 5.26994 10.7422 6.49994 10.7422ZM17.4999 10.7422C18.7299 10.7422 19.9201 11.1421 20.9501 11.9121C21.7901 12.5521 22.2499 13.6126 22.2499 14.8926C22.2497 15.3024 21.9098 15.6924 21.4999 15.6924C21.0899 15.6924 20.7499 15.4022 20.7499 14.9922C20.7499 14.4222 20.6599 13.5723 20.04 13.1123C19.28 12.5423 18.3999 12.2422 17.4999 12.2422C17.0899 12.2422 16.7499 11.9022 16.7499 11.4922C16.7499 11.0822 17.0899 10.7422 17.4999 10.7422ZM6.49994 4.24219C8.01994 4.24219 9.24994 5.47219 9.24994 6.99219C9.24994 8.51219 8.01994 9.74219 6.49994 9.74219C4.97994 9.74219 3.74994 8.51219 3.74994 6.99219C3.74994 5.47219 4.97994 4.24219 6.49994 4.24219ZM17.4999 4.24219C19.0199 4.24219 20.2499 5.47219 20.2499 6.99219C20.2499 8.51219 19.0199 9.74219 17.4999 9.74219C15.9799 9.74219 14.7499 8.51219 14.7499 6.99219C14.7499 5.47219 15.9799 4.24219 17.4999 4.24219ZM6.49994 5.74219C5.80994 5.74219 5.24994 6.30219 5.24994 6.99219C5.24994 7.68219 5.80994 8.24219 6.49994 8.24219C7.18994 8.24219 7.74994 7.68219 7.74994 6.99219C7.74994 6.30219 7.18994 5.74219 6.49994 5.74219ZM17.4999 5.74219C16.8099 5.74219 16.2499 6.30219 16.2499 6.99219C16.2499 7.68219 16.8099 8.24219 17.4999 8.24219C18.1899 8.24219 18.7499 7.68219 18.7499 6.99219C18.7499 6.30219 18.1899 5.74219 17.4999 5.74219Z" fill="#5E5E5E"/>
</svg>
