<svg width="64" height="65" viewBox="0 0 64 65" fill="none" xmlns="http://www.w3.org/2000/svg">
<g filter="url(#filter0_d_2054_45176)">
<rect x="4" y="2.5" width="56" height="56" rx="8" fill="black" fill-opacity="0.3" shape-rendering="crispEdges"/>
<path d="M45.7 33.8L42.7 30.8C42.3 30.4 41.7 30.4 41.3 30.8L32 40.1V44.5H36.4L45.7 35.2C46.1 34.8 46.1 34.2 45.7 33.8ZM35.6 42.5H34V40.9L39 35.9L40.6 37.5L35.6 42.5ZM42 36.1L40.4 34.5L42 32.9L43.6 34.5L42 36.1ZM26 37.5H28V39.5H26V37.5ZM30 32.5H34V34.5H30V32.5ZM26 32.5H28V34.5H26V32.5ZM30 27.5H38V29.5H30V27.5ZM26 27.5H28V29.5H26V27.5Z" fill="white"/>
<path d="M23 42.5V21.5H26V24.5H38V21.5H41V27.5H43V21.5C43 20.4 42.1 19.5 41 19.5H38V18.5C38 17.4 37.1 16.5 36 16.5H28C26.9 16.5 26 17.4 26 18.5V19.5H23C21.9 19.5 21 20.4 21 21.5V42.5C21 43.6 21.9 44.5 23 44.5H28V42.5H23ZM28 18.5H36V22.5H28V18.5Z" fill="white"/>
</g>
<defs>
<filter id="filter0_d_2054_45176" x="0" y="0.5" width="64" height="64" filterUnits="userSpaceOnUse" color-interpolation-filters="sRGB">
<feFlood flood-opacity="0" result="BackgroundImageFix"/>
<feColorMatrix in="SourceAlpha" type="matrix" values="0 0 0 0 0 0 0 0 0 0 0 0 0 0 0 0 0 0 127 0" result="hardAlpha"/>
<feOffset dy="2"/>
<feGaussianBlur stdDeviation="2"/>
<feComposite in2="hardAlpha" operator="out"/>
<feColorMatrix type="matrix" values="0 0 0 0 0 0 0 0 0 0 0 0 0 0 0 0 0 0 0.15 0"/>
<feBlend mode="normal" in2="BackgroundImageFix" result="effect1_dropShadow_2054_45176"/>
<feBlend mode="normal" in="SourceGraphic" in2="effect1_dropShadow_2054_45176" result="shape"/>
</filter>
</defs>
</svg>
