<svg width="13" height="15" viewBox="0 0 13 15" fill="none" xmlns="http://www.w3.org/2000/svg">
<path d="M4.83333 10.6668C4.55719 10.6668 4.33333 10.4429 4.33333 10.1668L4.33333 6.16679C4.33333 5.89065 4.55719 5.66679 4.83333 5.66679C5.10948 5.66679 5.33333 5.89065 5.33333 6.16679L5.33333 10.1668C5.33333 10.4429 5.10948 10.6668 4.83333 10.6668Z" fill="#D32F2F"/>
<path d="M8.66667 6.16679C8.66667 5.89065 8.44281 5.66679 8.16667 5.66679C7.89052 5.66679 7.66667 5.89065 7.66667 6.16679V10.1668C7.66667 10.4429 7.89052 10.6668 8.16667 10.6668C8.44281 10.6668 8.66667 10.4429 8.66667 10.1668V6.16679Z" fill="#D32F2F"/>
<path fill-rule="evenodd" clip-rule="evenodd" d="M6.54414 0.000122454H6.50145C6.1646 0.000113167 5.87885 0.000105289 5.64172 0.0216924C5.39009 0.0446002 5.1557 0.094215 4.92905 0.214733C4.83959 0.262297 4.75424 0.317194 4.67386 0.378861C4.47018 0.53511 4.32782 0.727811 4.20261 0.947275C4.08461 1.15409 3.9661 1.41409 3.82639 1.72061L3.54704 2.33346H0.5C0.223858 2.33346 0 2.55731 0 2.83346C0 3.1096 0.223858 3.33346 0.5 3.33346H1.02929L1.40556 9.56619C1.45584 10.3993 1.49575 11.0604 1.57877 11.5885C1.66391 12.13 1.80081 12.5811 2.0754 12.9756C2.32661 13.3366 2.65025 13.6413 3.0257 13.8703C3.43611 14.1206 3.89457 14.2301 4.44027 14.2824C4.97239 14.3335 5.63465 14.3335 6.46924 14.3335H6.52102C7.35451 14.3335 8.01598 14.3335 8.54746 14.2825C9.09253 14.2303 9.5505 14.121 9.96062 13.8712C10.3358 13.6426 10.6594 13.3384 10.9107 12.978C11.1853 12.5841 11.3226 12.1338 11.4084 11.5929C11.4921 11.0656 11.5329 10.4054 11.5843 9.57352L11.9701 3.33346H12.5C12.7761 3.33346 13 3.1096 13 2.83346C13 2.55731 12.7761 2.33346 12.5 2.33346H9.51709L9.18942 1.65753C9.04612 1.36187 8.92447 1.11091 8.8047 0.911377C8.67757 0.699571 8.53465 0.513954 8.33341 0.363861C8.25388 0.304549 8.16967 0.251788 8.08161 0.206099C7.85877 0.0904873 7.62939 0.0428431 7.38335 0.0208363C7.15157 0.000105798 6.87267 0.000113445 6.54414 0.000122454ZM10.9682 3.33346H9.21484C9.20772 3.33361 9.20061 3.33361 9.19352 3.33346H3.87933C3.872 3.33362 3.86465 3.33362 3.8573 3.33346H2.03111L2.40218 9.48011C2.45438 10.3448 2.49194 10.958 2.56664 11.4332C2.64008 11.9003 2.74293 12.1842 2.89621 12.4044C3.06808 12.6514 3.28952 12.8599 3.54641 13.0166C3.7755 13.1563 4.06505 13.2418 4.53577 13.287C5.01457 13.3329 5.62891 13.3335 6.49518 13.3335C7.36031 13.3335 7.97382 13.3329 8.45203 13.2871C8.92214 13.242 9.2114 13.1566 9.44035 13.0171C9.69707 12.8608 9.91844 12.6526 10.0904 12.4061C10.2437 12.1862 10.3468 11.9027 10.4208 11.4363C10.4961 10.9618 10.5344 10.3495 10.5878 9.48602L10.9682 3.33346ZM8.40579 2.33346H4.64603L4.72737 2.15501C4.87843 1.82361 4.9784 1.60544 5.07118 1.44284C5.15925 1.28848 5.22244 1.21838 5.28254 1.17228C5.31907 1.14425 5.35787 1.11929 5.39853 1.09767C5.46541 1.06211 5.5554 1.03369 5.73239 1.01757C5.91883 1.0006 6.1588 1.00012 6.52302 1.00012C6.87835 1.00012 7.11228 1.00058 7.29426 1.01686C7.46693 1.0323 7.55519 1.05956 7.62109 1.09375C7.66112 1.11452 7.69939 1.1385 7.73554 1.16546C7.79505 1.20984 7.85808 1.27738 7.9473 1.42601C8.04132 1.58267 8.14378 1.79296 8.29878 2.11271L8.40579 2.33346Z" fill="#D32F2F"/>
</svg>
