<svg width="38" height="43" viewBox="0 0 38 43" fill="none" xmlns="http://www.w3.org/2000/svg">
<path d="M21.0705 7.31882L20.6062 7.50452L20.6061 7.50412C20.6048 7.50135 20.5973 7.48429 20.5793 7.44623C20.5615 7.40861 20.538 7.35991 20.5102 7.30287C20.4547 7.1894 20.3843 7.0474 20.3123 6.90334C19.5352 5.37419 18.329 4.00938 16.9063 3.05395C16.4559 2.75371 16.3176 2.67444 15.6226 2.33112C14.0302 1.54928 11.9266 1.15692 10.3265 1.33738C8.54389 1.5396 7.28482 1.94698 5.91316 2.75686C4.22725 3.75882 2.6897 5.43903 1.91896 7.10938C1.67551 7.63826 1.54723 7.95253 1.42729 8.31629C1.34602 8.56418 1.32719 8.62757 1.21801 9.0349C0.825132 10.5511 0.803521 12.2804 1.1669 13.9013L1.16691 13.9013L1.72954 10.4918M21.0705 7.31882L20.6047 7.50053C20.9019 8.26248 21.0393 8.69728 21.1606 9.19861C21.3412 9.9664 21.4288 10.6743 21.4288 11.2946V11.6088L21.3881 11.6548L21.3838 11.6596L21.3839 11.6596C21.3794 11.6648 21.3752 11.6697 21.3712 11.6743C21.3558 11.6743 21.3384 11.6743 21.3182 11.6743C21.2865 11.6743 21.2613 11.6742 21.2402 11.6738C21.2397 11.6738 21.2391 11.6738 21.2386 11.6738C21.2374 11.6726 21.2362 11.6714 21.2349 11.6702L21.2321 11.6674L21.2321 11.6675C21.2067 11.6432 21.1955 11.6297 21.1821 11.5756C21.1617 11.4933 21.1477 11.351 21.1477 11.0683C21.1477 10.818 21.1313 10.482 21.1003 10.3205L20.6093 10.4149L21.1003 10.3205C21.0798 10.214 21.0385 9.98265 21.0143 9.81724L21.0126 9.80546L21.0124 9.80549C20.9171 9.24712 20.6815 8.40129 20.4753 7.88828L20.473 7.88237L20.4729 7.88238C20.3577 7.60577 19.9083 6.6984 19.7528 6.4286L19.7509 6.42538C19.4374 5.8905 18.7961 5.06787 18.3034 4.57485C16.7953 3.04927 14.9724 2.09583 12.8358 1.71495C11.1003 1.40311 9.165 1.61119 7.47594 2.28501L7.47536 2.28525C5.21948 3.1885 3.37685 4.86945 2.26711 7.03034C1.88981 7.76254 1.69805 8.28436 1.48488 9.1015C1.38434 9.48542 1.34705 9.68117 1.23537 10.4157M21.0705 7.31882C21.3737 8.09604 21.5189 8.55298 21.647 9.08252L17.1843 2.63839C18.679 3.64195 19.9431 5.07255 20.7587 6.67825C20.9039 6.96864 21.0448 7.25476 21.0705 7.31882ZM1.23537 10.4157C1.23532 10.416 1.23527 10.4163 1.23522 10.4166L1.72954 10.4918M1.23537 10.4157C1.23543 10.4152 1.2355 10.4148 1.23556 10.4144L1.72954 10.4918M1.23537 10.4157C1.20058 10.6393 1.18789 11.1476 1.18737 11.5978C1.18685 12.0451 1.1981 12.548 1.23207 12.7519L1.2334 12.7599L1.23498 12.7678C1.25047 12.8452 1.27057 12.9677 1.2917 13.0963C1.30297 13.165 1.31452 13.2354 1.32583 13.3017M1.72954 10.4918C1.67402 10.8462 1.67402 12.3622 1.72527 12.6697C1.7424 12.7554 1.76526 12.8945 1.78747 13.0296C1.79847 13.0966 1.80932 13.1626 1.81922 13.2206M1.32583 13.3017C1.32567 13.3007 1.3255 13.2996 1.32534 13.2986L1.81922 13.2206M1.32583 13.3017C1.62573 15.1967 2.53995 16.9706 3.98424 18.5349L3.99137 18.5426L3.99144 18.5425C4.02174 18.574 4.05696 18.6187 4.08627 18.6638C4.10045 18.6856 4.11052 18.7032 4.11658 18.7151C4.11741 18.7167 4.1181 18.7181 4.11867 18.7193L4.35161 18.1957M1.32583 13.3017C1.326 13.3027 1.32618 13.3037 1.32635 13.3047L1.81922 13.2206M1.81922 13.2206C2.10107 15.0057 2.9637 16.6925 4.35161 18.1957M4.35161 18.1957C4.46264 18.311 4.5694 18.4775 4.59502 18.5672C4.74022 19.0327 4.34306 19.4469 3.84342 19.353M4.35161 18.1957L3.84342 19.353M3.84342 19.353L3.93582 18.8616C3.94728 18.8637 3.95812 18.8651 3.96836 18.8658C3.97991 18.8746 3.98529 18.8777 3.98529 18.8777C3.98527 18.8777 3.96799 18.8678 3.93784 18.862L3.84342 19.353Z" fill="#20545F" stroke="#20545F"/>
<path d="M11.0584 5.7992L11.0512 5.80286L11.0482 5.8043C11.0472 5.80491 11.0457 5.80589 11.0436 5.80729C11.0385 5.81066 11.0324 5.81511 11.0256 5.82039C11.0219 5.85979 11.0175 5.92324 11.0136 6.02365C11.0001 6.36617 10.9948 7.01518 10.9842 8.31106L10.984 8.32641L10.984 8.32649L10.9627 10.9826L10.9587 11.4729L10.4684 11.4786L8.61132 11.4999C8.61123 11.4999 8.61114 11.4999 8.61105 11.4999C7.75685 11.5107 7.30078 11.5181 7.04392 11.5308C6.95838 11.5351 6.90409 11.5401 6.872 11.5437C6.85455 11.5658 6.8443 11.5943 6.84377 11.6272C6.84299 11.6757 6.86315 11.7074 6.88921 11.7249L6.88926 11.7248L6.89663 11.73L6.90871 11.7384H9.03636C10.135 11.7384 10.6943 11.7372 10.9974 11.7264C11.1059 11.7226 11.1679 11.7178 11.2027 11.7138C11.211 11.7044 11.2192 11.6939 11.2266 11.6836C11.2301 11.6787 11.233 11.6744 11.2353 11.6708C11.2353 11.6705 11.2354 11.6702 11.2354 11.6698C11.2417 11.6304 11.2494 11.5449 11.2547 11.3454C11.2651 10.9536 11.2652 10.2212 11.2652 8.76652V5.92814L11.2261 5.85501L11.2261 5.85502L11.2246 5.85231C11.1999 5.80534 11.1716 5.78982 11.1541 5.78428C11.1365 5.77872 11.1047 5.77541 11.0584 5.7992Z" fill="#20545F" stroke="#20545F"/>
<path d="M26.1365 7.56782L26.1348 7.56812C25.496 7.67852 25.0376 7.85802 24.6568 8.11661C23.9493 8.59819 23.4931 9.24896 23.2351 10.1924L23.2351 10.1924L23.2343 10.1953C23.2104 10.2805 23.1855 10.5621 23.1855 10.9146C23.1855 11.2671 23.2104 11.5487 23.2343 11.6338L23.2343 11.6338L23.2349 11.6362C23.5541 12.7973 24.2455 13.6073 25.1912 14.0017C25.7818 14.2471 26.3509 14.3302 26.8522 14.2664C27.4987 14.1812 27.8595 14.0502 28.3437 13.7424L28.345 13.7416C28.8647 13.4135 29.3207 12.8947 29.5836 12.3206L29.5836 12.3206L29.5852 12.3172C29.6984 12.075 29.7606 11.9052 29.8 11.7283C29.8402 11.5478 29.8613 11.3393 29.8716 11.0141L29.8715 11.0141L29.8718 11.0087C29.8824 10.7582 29.8831 10.6238 29.8749 10.516C29.8672 10.4149 29.8507 10.3249 29.8122 10.1632L29.8122 10.1631C29.5856 9.20841 28.978 8.41726 28.0755 7.9188L28.0744 7.91819C27.8274 7.78097 27.4796 7.66534 27.1097 7.59909C26.7382 7.53256 26.3874 7.52353 26.1365 7.56782ZM27.2731 7.91003L27.2733 7.91009C28.1612 8.13333 28.8754 8.70554 29.2948 9.52267C29.5651 10.0381 29.6549 10.6292 29.5965 11.2477L29.5965 11.2477L29.5961 11.2521C29.5523 11.6753 29.491 11.9045 29.3129 12.2662C28.4985 13.939 26.4435 14.5191 24.8732 13.5282L24.8727 13.5279C24.2762 13.1506 23.8577 12.6212 23.608 11.9387C23.5511 11.7883 23.5056 11.6539 23.4819 11.4807C23.4604 11.3223 23.4593 11.1454 23.4613 10.9123C23.4614 10.6422 23.4681 10.4249 23.5098 10.2143C23.553 9.99619 23.6284 9.81024 23.7301 9.59332C24.3449 8.26296 25.8518 7.55345 27.2731 7.91003Z" fill="#20545F" stroke="#20545F"/>
<mask id="path-4-inside-1_1_6963" fill="white">
<path d="M17.3803 13.5409C17.359 13.5494 17.2223 13.5879 17.0814 13.6306C16.7312 13.7288 16.2871 14.032 16.065 14.3139C15.9668 14.442 15.7875 14.7366 15.6679 14.9672C15.5483 15.1978 15.2366 15.8 14.9761 16.2996C14.7156 16.8035 14.3782 17.4526 14.2245 17.7473C13.8529 18.4562 13.396 19.3744 13.3704 19.464C13.3576 19.5025 13.0458 19.7672 12.6743 20.0448C12.3028 20.3267 11.8458 20.6726 11.6622 20.8178C11.4743 20.963 11.2949 21.0783 11.2608 21.0783C11.2095 21.0783 10.5433 20.7409 10.4195 20.6512C10.3981 20.6341 10.2444 20.5487 10.0779 20.4591C9.91558 20.3694 9.53978 20.1644 9.24511 19.9978C7.86575 19.2292 7.69921 19.1566 7.21237 19.1566C6.70419 19.1566 6.2259 19.3573 5.88853 19.7203C5.76469 19.8484 5.4444 20.3181 5.4444 20.3694C5.4444 20.3779 5.35045 20.553 5.23088 20.758C5.11131 20.963 5.01736 21.1338 5.01736 21.1423C5.01736 21.1509 4.92341 21.3217 4.80383 21.5267C4.68853 21.7316 4.59031 21.9025 4.59031 21.911C4.59031 21.9195 4.49636 22.0904 4.37679 22.2954C4.26148 22.5003 4.16326 22.6712 4.16326 22.6797C4.16326 22.6882 4.06504 22.8591 3.94974 23.064C3.83017 23.269 3.73622 23.4398 3.73622 23.4484C3.73622 23.4569 3.638 23.6277 3.52269 23.8327C3.40312 24.0377 3.30917 24.2085 3.30917 24.2171C3.30917 24.2256 3.21095 24.3964 3.09565 24.6014C2.98035 24.8064 2.88212 24.9772 2.88212 24.9857C2.88212 24.9943 2.82661 25.0968 2.76255 25.2078C2.54049 25.5836 2.45508 25.874 2.45508 26.2583C2.45508 26.7964 2.60881 27.185 2.95472 27.5395C3.09992 27.6932 3.44583 27.9537 3.49707 27.9537C3.50988 27.9537 3.62946 28.0178 3.76611 28.0989C4.00099 28.2356 4.15045 28.3167 4.6202 28.5772C4.73551 28.6413 4.88497 28.7224 4.9533 28.7651C5.0259 28.8078 5.16682 28.8889 5.27358 28.9445C5.38035 29.0042 5.75615 29.2092 6.10632 29.4057C6.6743 29.726 6.77252 29.7644 6.96469 29.7644C7.32768 29.7644 7.57963 29.521 7.57963 29.158C7.57963 28.8163 7.48568 28.7096 6.87501 28.3808C6.68711 28.2783 6.43942 28.1416 6.32839 28.0733C6.21736 28.0092 6.11486 27.9537 6.10632 27.9537C6.09778 27.9537 5.99529 27.8982 5.88426 27.8341C5.77323 27.7658 5.54689 27.6377 5.38035 27.548C3.80454 26.6897 3.76184 26.6598 3.71486 26.3651C3.67643 26.1558 3.78746 25.921 4.53052 24.6313C4.65864 24.4092 4.76113 24.2256 4.76113 24.2171C4.76113 24.2085 4.82519 24.0889 4.90632 23.9523C4.98319 23.8156 5.09422 23.6192 5.15401 23.5124C6.1533 21.6889 6.72554 20.6897 6.83657 20.5744C6.95615 20.4548 7.00312 20.4377 7.19529 20.4377C7.41309 20.4377 7.51558 20.4804 8.2202 20.8776C8.30134 20.9245 8.45508 21.0099 8.56184 21.0697C8.6686 21.1252 8.8138 21.2064 8.88212 21.2491C8.95472 21.2918 9.12554 21.3857 9.26647 21.4626C9.40739 21.5395 9.60383 21.6462 9.70632 21.7018C9.80454 21.7573 9.97109 21.8512 10.0779 21.911C10.1846 21.9708 10.3554 22.0647 10.4622 22.1245C10.569 22.1843 10.744 22.2825 10.8593 22.3423C10.9704 22.4064 11.1198 22.4875 11.1882 22.5302C11.2608 22.5729 11.4316 22.6669 11.5725 22.7437C11.7134 22.8206 11.9056 22.9274 11.9996 22.9786C12.0935 23.0299 12.2601 23.1238 12.3754 23.1879C12.764 23.4014 12.9604 23.5124 13.1654 23.6235C13.2764 23.6875 13.4771 23.8028 13.6138 23.8797C13.7505 23.9608 13.87 24.0249 13.8786 24.0249C13.8871 24.0249 13.9896 24.0804 14.1006 24.1445C14.2117 24.2128 14.4295 24.3324 14.5832 24.4178C14.7369 24.5032 15.3519 24.8448 15.9497 25.1779C17.359 25.9637 17.4102 25.9893 17.6067 25.9893C18.1234 25.9893 18.401 25.3146 18.038 24.9388C17.9611 24.8619 17.8501 24.7722 17.7903 24.7423C17.3376 24.516 15.6807 23.5679 15.6636 23.5252C15.6508 23.4954 15.7319 23.205 15.843 22.8847C16.2572 21.6676 16.2828 21.6035 16.4964 21.39C16.7013 21.1808 16.8508 20.9544 17.4017 20.0107C17.5725 19.716 17.7946 19.3402 17.8928 19.1779C17.991 19.0114 18.1917 18.674 18.3369 18.422C18.4864 18.1701 18.6316 17.9437 18.6615 17.9181C18.6999 17.8882 18.8622 17.884 19.1996 17.9139C20.028 17.9865 20.8736 18.0462 21.0658 18.0462C21.164 18.0462 21.2451 18.0676 21.2451 18.0932C21.2451 18.1445 21.1255 18.5032 20.8181 19.3701C20.6985 19.7117 20.5618 20.0961 20.5191 20.2242C20.4764 20.3523 20.3611 20.6811 20.2629 20.9502C20.1647 21.2192 20.0494 21.548 20.0067 21.6761C19.964 21.8042 19.8273 22.1886 19.7077 22.5302C19.5839 22.8719 19.4686 23.2092 19.4515 23.2818C19.4344 23.3587 19.4088 23.4356 19.396 23.4569C19.3832 23.4783 19.3319 23.6918 19.285 23.9352C18.9775 25.4683 19.4174 26.8519 20.6045 28.0989C20.9547 28.4619 21.544 28.9701 21.9241 29.2391C22.0053 29.2946 22.1633 29.4099 22.27 29.4911C22.4622 29.6363 22.6159 29.7601 24.0636 30.943C24.4223 31.2377 24.9391 31.6605 25.2166 31.8825C26.7796 33.1551 26.5149 32.8477 27.4159 34.4235C27.9882 35.4142 29.0344 37.2377 29.1882 37.4982C29.2309 37.5665 29.517 38.0662 29.8287 38.6085C30.1405 39.1466 30.4352 39.6591 30.4864 39.7445C30.5334 39.8299 30.7768 40.2526 31.0245 40.684C31.5497 41.6064 31.7761 41.8626 32.2629 42.106C32.643 42.2897 33.0273 42.3623 33.433 42.3238C34.6544 42.2085 35.517 41.1067 35.3462 39.8726C35.2949 39.4968 35.4658 39.847 31.5028 32.0405C31.1483 31.3445 30.8067 30.7082 30.7384 30.627C30.6017 30.4647 29.154 28.8591 28.8295 28.5089C28.7099 28.3808 28.5263 28.1758 28.4238 28.0605C28.3213 27.9409 28.1462 27.7487 28.0394 27.6334C27.0871 26.6 26.2843 25.6818 26.2843 25.6263C26.2843 25.5921 26.3013 25.5281 26.3227 25.4854C26.344 25.447 26.4807 25.1053 26.6259 24.7295C26.7711 24.3537 26.9077 24.0078 26.9248 23.9608C26.9547 23.884 27.1384 23.4142 27.6636 22.0605C27.7576 21.8128 27.8515 21.5865 27.8771 21.5608C27.9198 21.5053 28.0181 21.5395 28.1291 21.6462C28.3811 21.8939 29.1754 22.4833 29.3846 22.5815C30.0593 22.8975 30.717 22.9103 31.396 22.6156C31.6779 22.4961 31.9042 22.3338 32.327 21.9537C36.4053 18.3025 36.6828 18.042 36.8793 17.7388C37.4857 16.795 37.2551 15.5096 36.354 14.8349C35.833 14.442 35.1839 14.2968 34.5946 14.4377C34.065 14.5615 33.7661 14.7665 32.9035 15.5865C32.7284 15.753 32.438 16.022 32.2629 16.1843C32.0878 16.3509 31.7974 16.6199 31.6223 16.7865C30.875 17.4911 30.6786 17.6619 30.6273 17.6619C30.5974 17.6619 30.5291 17.6192 30.4693 17.5637C30.4095 17.5124 30.2387 17.363 30.085 17.2349C29.9312 17.1067 29.7989 16.9914 29.786 16.9786C29.6835 16.8633 28.2273 15.6377 28.1163 15.5736C27.6807 15.3046 27.1512 15.6591 27.1939 16.1843C27.2152 16.4448 27.2238 16.4491 28.8679 17.8583C30.4992 19.2548 30.3796 19.1651 30.6359 19.1651C30.9348 19.1651 30.9732 19.1395 32.0067 18.1573C32.2074 17.9651 32.4892 17.7046 32.6259 17.5765C32.7668 17.4484 33.1512 17.0897 33.48 16.7822C34.6287 15.7103 34.7013 15.6548 35.0387 15.6548C35.3462 15.6548 35.7263 15.8897 35.8757 16.1758C35.9526 16.3252 35.9526 16.7566 35.8714 16.9487C35.8287 17.0512 35.5682 17.316 35.0942 17.7516C34.6971 18.1103 34.2786 18.4904 34.1633 18.5971C34.0437 18.7039 33.8643 18.8704 33.7576 18.9601C33.6508 19.0541 33.3946 19.2847 33.1811 19.4768C32.9718 19.669 32.4892 20.1046 32.1134 20.442C31.7376 20.7793 31.3618 21.1167 31.2807 21.1936C31.0458 21.4199 30.7298 21.548 30.4309 21.548C29.9868 21.548 30.1191 21.6377 27.7319 19.6904C27.0401 19.1309 26.2287 18.469 25.9213 18.2213C25.6181 17.9736 25.2337 17.6576 25.0672 17.5167C24.6145 17.1366 24.4181 17.0213 24.2131 17.0213C23.8416 17.0213 23.5682 17.3416 23.611 17.7217C23.6408 18.0078 23.5853 17.9523 25.191 19.2548C25.4771 19.4854 25.7462 19.7075 25.7932 19.7459C25.8401 19.7886 26.0793 19.9808 26.327 20.1815C26.8394 20.5914 26.8437 20.6 26.8138 20.7153C26.7924 20.7879 26.4423 21.7146 26.327 21.9964C26.3099 22.0434 26.1732 22.3893 26.028 22.7651C25.8828 23.1409 25.7462 23.4868 25.7291 23.5338C25.712 23.5808 25.5967 23.8797 25.4729 24.1957C25.349 24.5117 25.2337 24.8107 25.2166 24.8576C24.9092 25.6135 24.8537 25.8954 24.9732 26.1003C25.0202 26.1857 25.3789 26.5957 25.9255 27.185C26.0451 27.3131 26.5063 27.8213 26.9505 28.3167C27.3903 28.8078 27.8259 29.2904 27.9113 29.3843C27.9967 29.4783 28.206 29.7131 28.3811 29.901C28.5561 30.0932 28.9448 30.5245 29.2437 30.8619L29.7946 31.4768L30.3924 32.6512C30.717 33.2961 31.4515 34.7395 32.0152 35.8541C32.5789 36.9687 33.275 38.3352 33.5569 38.8861C34.0736 39.8897 34.0736 39.8897 34.0779 40.1971C34.0779 40.4662 34.065 40.5217 33.9497 40.6882C33.7063 41.0341 33.228 41.1623 32.8394 40.9829C32.6216 40.8847 32.5747 40.8292 32.3056 40.3594C32.1818 40.1459 32.0494 39.9153 32.0067 39.847C31.964 39.7744 31.6779 39.2747 31.3661 38.7366C31.0544 38.1943 30.7682 37.6946 30.7255 37.6263C30.6828 37.5537 30.3967 37.0541 30.085 36.516C29.7732 35.9736 29.4871 35.474 29.4444 35.4057C29.4017 35.3331 29.1156 34.8334 28.8038 34.2954C28.4921 33.753 28.1932 33.2363 28.1376 33.1423C28.0821 33.0484 27.9497 32.8135 27.8387 32.6256C27.591 32.19 27.5569 32.1473 27.0145 31.7117C26.5875 31.3658 26.0238 30.9046 24.6658 29.7986C23.4871 28.842 22.8764 28.3594 22.5433 28.116C21.5056 27.3729 20.7497 26.4206 20.5405 25.5921C20.4551 25.2633 20.4593 24.4263 20.5448 24.0889C20.6472 23.6833 20.6729 23.6107 20.9035 22.9573C21.0231 22.6156 21.1597 22.2313 21.2024 22.1032C21.2451 21.9751 21.3604 21.6462 21.4586 21.3772C21.5569 21.1082 21.6892 20.7238 21.7576 20.5231C21.8259 20.3224 21.9583 19.9381 22.0565 19.669C22.3811 18.7509 22.4878 18.4519 22.569 18.2042C22.6159 18.0676 22.68 17.8968 22.7099 17.8199C22.744 17.743 22.8209 17.5295 22.8807 17.3416C22.9405 17.1537 23.0771 16.7523 23.1839 16.4491C23.2907 16.1459 23.3803 15.8341 23.3803 15.7573C23.3803 15.3558 22.8551 15.0142 22.5134 15.1893C22.3682 15.2662 22.2231 15.4114 22.1761 15.5267C22.0821 15.753 21.7917 16.5772 21.7704 16.6669C21.7576 16.7181 21.7149 16.7736 21.6764 16.7865C21.5996 16.8078 20.5533 16.748 18.6786 16.6114C18.4522 16.5943 18.2174 16.5943 18.1576 16.6114C17.9611 16.6583 17.7903 16.8505 17.4828 17.3758C17.3163 17.6619 17.1327 17.9694 17.0771 18.0548C17.0216 18.1445 16.9747 18.2256 16.9747 18.2341C16.9747 18.2427 16.8722 18.422 16.7483 18.6313C16.6202 18.8363 16.3768 19.2462 16.206 19.5409C15.7149 20.3907 15.6166 20.5231 15.4586 20.5914C15.164 20.7153 14.8394 20.6341 14.6686 20.395C14.5191 20.1815 14.5362 19.8911 14.7198 19.5409C14.801 19.3872 15.0487 18.9174 15.2665 18.4946C15.4843 18.0719 15.7704 17.5124 15.907 17.2562C16.0437 16.9957 16.3213 16.4576 16.5263 16.0605C17.0088 15.1295 17.0942 15.0057 17.3334 14.8904C17.5213 14.805 17.5811 14.8007 19.3747 14.8007C21.2067 14.8007 21.2238 14.7964 21.3946 14.7025C21.5142 14.6384 21.5953 14.5445 21.6679 14.4035C21.7618 14.2156 21.7661 14.1815 21.7149 14.0192C21.6892 13.921 21.6209 13.7929 21.5739 13.7416C21.369 13.5153 21.3903 13.5195 19.3362 13.5238C18.2857 13.5238 17.406 13.5324 17.3803 13.5409ZM13.7718 21.2833C14.0579 21.5865 14.186 21.6761 14.5319 21.8085C14.6771 21.864 14.7967 21.9324 14.7967 21.958C14.7967 22.0178 14.6558 22.4534 14.5618 22.6925C14.4764 22.9018 14.4508 22.9018 14.1049 22.6968C13.9896 22.6284 13.8871 22.5729 13.8786 22.5729C13.87 22.5729 13.7675 22.5174 13.6565 22.4534C13.5455 22.385 13.2978 22.2484 13.1099 22.1459C12.6871 21.9195 12.5248 21.8085 12.5419 21.7573C12.559 21.706 13.4387 21.0398 13.4942 21.0356C13.5156 21.0356 13.6394 21.1466 13.7718 21.2833Z"/>
</mask>
<path d="M17.3803 13.5409C17.359 13.5494 17.2223 13.5879 17.0814 13.6306C16.7312 13.7288 16.2871 14.032 16.065 14.3139C15.9668 14.442 15.7875 14.7366 15.6679 14.9672C15.5483 15.1978 15.2366 15.8 14.9761 16.2996C14.7156 16.8035 14.3782 17.4526 14.2245 17.7473C13.8529 18.4562 13.396 19.3744 13.3704 19.464C13.3576 19.5025 13.0458 19.7672 12.6743 20.0448C12.3028 20.3267 11.8458 20.6726 11.6622 20.8178C11.4743 20.963 11.2949 21.0783 11.2608 21.0783C11.2095 21.0783 10.5433 20.7409 10.4195 20.6512C10.3981 20.6341 10.2444 20.5487 10.0779 20.4591C9.91558 20.3694 9.53978 20.1644 9.24511 19.9978C7.86575 19.2292 7.69921 19.1566 7.21237 19.1566C6.70419 19.1566 6.2259 19.3573 5.88853 19.7203C5.76469 19.8484 5.4444 20.3181 5.4444 20.3694C5.4444 20.3779 5.35045 20.553 5.23088 20.758C5.11131 20.963 5.01736 21.1338 5.01736 21.1423C5.01736 21.1509 4.92341 21.3217 4.80383 21.5267C4.68853 21.7316 4.59031 21.9025 4.59031 21.911C4.59031 21.9195 4.49636 22.0904 4.37679 22.2954C4.26148 22.5003 4.16326 22.6712 4.16326 22.6797C4.16326 22.6882 4.06504 22.8591 3.94974 23.064C3.83017 23.269 3.73622 23.4398 3.73622 23.4484C3.73622 23.4569 3.638 23.6277 3.52269 23.8327C3.40312 24.0377 3.30917 24.2085 3.30917 24.2171C3.30917 24.2256 3.21095 24.3964 3.09565 24.6014C2.98035 24.8064 2.88212 24.9772 2.88212 24.9857C2.88212 24.9943 2.82661 25.0968 2.76255 25.2078C2.54049 25.5836 2.45508 25.874 2.45508 26.2583C2.45508 26.7964 2.60881 27.185 2.95472 27.5395C3.09992 27.6932 3.44583 27.9537 3.49707 27.9537C3.50988 27.9537 3.62946 28.0178 3.76611 28.0989C4.00099 28.2356 4.15045 28.3167 4.6202 28.5772C4.73551 28.6413 4.88497 28.7224 4.9533 28.7651C5.0259 28.8078 5.16682 28.8889 5.27358 28.9445C5.38035 29.0042 5.75615 29.2092 6.10632 29.4057C6.6743 29.726 6.77252 29.7644 6.96469 29.7644C7.32768 29.7644 7.57963 29.521 7.57963 29.158C7.57963 28.8163 7.48568 28.7096 6.87501 28.3808C6.68711 28.2783 6.43942 28.1416 6.32839 28.0733C6.21736 28.0092 6.11486 27.9537 6.10632 27.9537C6.09778 27.9537 5.99529 27.8982 5.88426 27.8341C5.77323 27.7658 5.54689 27.6377 5.38035 27.548C3.80454 26.6897 3.76184 26.6598 3.71486 26.3651C3.67643 26.1558 3.78746 25.921 4.53052 24.6313C4.65864 24.4092 4.76113 24.2256 4.76113 24.2171C4.76113 24.2085 4.82519 24.0889 4.90632 23.9523C4.98319 23.8156 5.09422 23.6192 5.15401 23.5124C6.1533 21.6889 6.72554 20.6897 6.83657 20.5744C6.95615 20.4548 7.00312 20.4377 7.19529 20.4377C7.41309 20.4377 7.51558 20.4804 8.2202 20.8776C8.30134 20.9245 8.45508 21.0099 8.56184 21.0697C8.6686 21.1252 8.8138 21.2064 8.88212 21.2491C8.95472 21.2918 9.12554 21.3857 9.26647 21.4626C9.40739 21.5395 9.60383 21.6462 9.70632 21.7018C9.80454 21.7573 9.97109 21.8512 10.0779 21.911C10.1846 21.9708 10.3554 22.0647 10.4622 22.1245C10.569 22.1843 10.744 22.2825 10.8593 22.3423C10.9704 22.4064 11.1198 22.4875 11.1882 22.5302C11.2608 22.5729 11.4316 22.6669 11.5725 22.7437C11.7134 22.8206 11.9056 22.9274 11.9996 22.9786C12.0935 23.0299 12.2601 23.1238 12.3754 23.1879C12.764 23.4014 12.9604 23.5124 13.1654 23.6235C13.2764 23.6875 13.4771 23.8028 13.6138 23.8797C13.7505 23.9608 13.87 24.0249 13.8786 24.0249C13.8871 24.0249 13.9896 24.0804 14.1006 24.1445C14.2117 24.2128 14.4295 24.3324 14.5832 24.4178C14.7369 24.5032 15.3519 24.8448 15.9497 25.1779C17.359 25.9637 17.4102 25.9893 17.6067 25.9893C18.1234 25.9893 18.401 25.3146 18.038 24.9388C17.9611 24.8619 17.8501 24.7722 17.7903 24.7423C17.3376 24.516 15.6807 23.5679 15.6636 23.5252C15.6508 23.4954 15.7319 23.205 15.843 22.8847C16.2572 21.6676 16.2828 21.6035 16.4964 21.39C16.7013 21.1808 16.8508 20.9544 17.4017 20.0107C17.5725 19.716 17.7946 19.3402 17.8928 19.1779C17.991 19.0114 18.1917 18.674 18.3369 18.422C18.4864 18.1701 18.6316 17.9437 18.6615 17.9181C18.6999 17.8882 18.8622 17.884 19.1996 17.9139C20.028 17.9865 20.8736 18.0462 21.0658 18.0462C21.164 18.0462 21.2451 18.0676 21.2451 18.0932C21.2451 18.1445 21.1255 18.5032 20.8181 19.3701C20.6985 19.7117 20.5618 20.0961 20.5191 20.2242C20.4764 20.3523 20.3611 20.6811 20.2629 20.9502C20.1647 21.2192 20.0494 21.548 20.0067 21.6761C19.964 21.8042 19.8273 22.1886 19.7077 22.5302C19.5839 22.8719 19.4686 23.2092 19.4515 23.2818C19.4344 23.3587 19.4088 23.4356 19.396 23.4569C19.3832 23.4783 19.3319 23.6918 19.285 23.9352C18.9775 25.4683 19.4174 26.8519 20.6045 28.0989C20.9547 28.4619 21.544 28.9701 21.9241 29.2391C22.0053 29.2946 22.1633 29.4099 22.27 29.4911C22.4622 29.6363 22.6159 29.7601 24.0636 30.943C24.4223 31.2377 24.9391 31.6605 25.2166 31.8825C26.7796 33.1551 26.5149 32.8477 27.4159 34.4235C27.9882 35.4142 29.0344 37.2377 29.1882 37.4982C29.2309 37.5665 29.517 38.0662 29.8287 38.6085C30.1405 39.1466 30.4352 39.6591 30.4864 39.7445C30.5334 39.8299 30.7768 40.2526 31.0245 40.684C31.5497 41.6064 31.7761 41.8626 32.2629 42.106C32.643 42.2897 33.0273 42.3623 33.433 42.3238C34.6544 42.2085 35.517 41.1067 35.3462 39.8726C35.2949 39.4968 35.4658 39.847 31.5028 32.0405C31.1483 31.3445 30.8067 30.7082 30.7384 30.627C30.6017 30.4647 29.154 28.8591 28.8295 28.5089C28.7099 28.3808 28.5263 28.1758 28.4238 28.0605C28.3213 27.9409 28.1462 27.7487 28.0394 27.6334C27.0871 26.6 26.2843 25.6818 26.2843 25.6263C26.2843 25.5921 26.3013 25.5281 26.3227 25.4854C26.344 25.447 26.4807 25.1053 26.6259 24.7295C26.7711 24.3537 26.9077 24.0078 26.9248 23.9608C26.9547 23.884 27.1384 23.4142 27.6636 22.0605C27.7576 21.8128 27.8515 21.5865 27.8771 21.5608C27.9198 21.5053 28.0181 21.5395 28.1291 21.6462C28.3811 21.8939 29.1754 22.4833 29.3846 22.5815C30.0593 22.8975 30.717 22.9103 31.396 22.6156C31.6779 22.4961 31.9042 22.3338 32.327 21.9537C36.4053 18.3025 36.6828 18.042 36.8793 17.7388C37.4857 16.795 37.2551 15.5096 36.354 14.8349C35.833 14.442 35.1839 14.2968 34.5946 14.4377C34.065 14.5615 33.7661 14.7665 32.9035 15.5865C32.7284 15.753 32.438 16.022 32.2629 16.1843C32.0878 16.3509 31.7974 16.6199 31.6223 16.7865C30.875 17.4911 30.6786 17.6619 30.6273 17.6619C30.5974 17.6619 30.5291 17.6192 30.4693 17.5637C30.4095 17.5124 30.2387 17.363 30.085 17.2349C29.9312 17.1067 29.7989 16.9914 29.786 16.9786C29.6835 16.8633 28.2273 15.6377 28.1163 15.5736C27.6807 15.3046 27.1512 15.6591 27.1939 16.1843C27.2152 16.4448 27.2238 16.4491 28.8679 17.8583C30.4992 19.2548 30.3796 19.1651 30.6359 19.1651C30.9348 19.1651 30.9732 19.1395 32.0067 18.1573C32.2074 17.9651 32.4892 17.7046 32.6259 17.5765C32.7668 17.4484 33.1512 17.0897 33.48 16.7822C34.6287 15.7103 34.7013 15.6548 35.0387 15.6548C35.3462 15.6548 35.7263 15.8897 35.8757 16.1758C35.9526 16.3252 35.9526 16.7566 35.8714 16.9487C35.8287 17.0512 35.5682 17.316 35.0942 17.7516C34.6971 18.1103 34.2786 18.4904 34.1633 18.5971C34.0437 18.7039 33.8643 18.8704 33.7576 18.9601C33.6508 19.0541 33.3946 19.2847 33.1811 19.4768C32.9718 19.669 32.4892 20.1046 32.1134 20.442C31.7376 20.7793 31.3618 21.1167 31.2807 21.1936C31.0458 21.4199 30.7298 21.548 30.4309 21.548C29.9868 21.548 30.1191 21.6377 27.7319 19.6904C27.0401 19.1309 26.2287 18.469 25.9213 18.2213C25.6181 17.9736 25.2337 17.6576 25.0672 17.5167C24.6145 17.1366 24.4181 17.0213 24.2131 17.0213C23.8416 17.0213 23.5682 17.3416 23.611 17.7217C23.6408 18.0078 23.5853 17.9523 25.191 19.2548C25.4771 19.4854 25.7462 19.7075 25.7932 19.7459C25.8401 19.7886 26.0793 19.9808 26.327 20.1815C26.8394 20.5914 26.8437 20.6 26.8138 20.7153C26.7924 20.7879 26.4423 21.7146 26.327 21.9964C26.3099 22.0434 26.1732 22.3893 26.028 22.7651C25.8828 23.1409 25.7462 23.4868 25.7291 23.5338C25.712 23.5808 25.5967 23.8797 25.4729 24.1957C25.349 24.5117 25.2337 24.8107 25.2166 24.8576C24.9092 25.6135 24.8537 25.8954 24.9732 26.1003C25.0202 26.1857 25.3789 26.5957 25.9255 27.185C26.0451 27.3131 26.5063 27.8213 26.9505 28.3167C27.3903 28.8078 27.8259 29.2904 27.9113 29.3843C27.9967 29.4783 28.206 29.7131 28.3811 29.901C28.5561 30.0932 28.9448 30.5245 29.2437 30.8619L29.7946 31.4768L30.3924 32.6512C30.717 33.2961 31.4515 34.7395 32.0152 35.8541C32.5789 36.9687 33.275 38.3352 33.5569 38.8861C34.0736 39.8897 34.0736 39.8897 34.0779 40.1971C34.0779 40.4662 34.065 40.5217 33.9497 40.6882C33.7063 41.0341 33.228 41.1623 32.8394 40.9829C32.6216 40.8847 32.5747 40.8292 32.3056 40.3594C32.1818 40.1459 32.0494 39.9153 32.0067 39.847C31.964 39.7744 31.6779 39.2747 31.3661 38.7366C31.0544 38.1943 30.7682 37.6946 30.7255 37.6263C30.6828 37.5537 30.3967 37.0541 30.085 36.516C29.7732 35.9736 29.4871 35.474 29.4444 35.4057C29.4017 35.3331 29.1156 34.8334 28.8038 34.2954C28.4921 33.753 28.1932 33.2363 28.1376 33.1423C28.0821 33.0484 27.9497 32.8135 27.8387 32.6256C27.591 32.19 27.5569 32.1473 27.0145 31.7117C26.5875 31.3658 26.0238 30.9046 24.6658 29.7986C23.4871 28.842 22.8764 28.3594 22.5433 28.116C21.5056 27.3729 20.7497 26.4206 20.5405 25.5921C20.4551 25.2633 20.4593 24.4263 20.5448 24.0889C20.6472 23.6833 20.6729 23.6107 20.9035 22.9573C21.0231 22.6156 21.1597 22.2313 21.2024 22.1032C21.2451 21.9751 21.3604 21.6462 21.4586 21.3772C21.5569 21.1082 21.6892 20.7238 21.7576 20.5231C21.8259 20.3224 21.9583 19.9381 22.0565 19.669C22.3811 18.7509 22.4878 18.4519 22.569 18.2042C22.6159 18.0676 22.68 17.8968 22.7099 17.8199C22.744 17.743 22.8209 17.5295 22.8807 17.3416C22.9405 17.1537 23.0771 16.7523 23.1839 16.4491C23.2907 16.1459 23.3803 15.8341 23.3803 15.7573C23.3803 15.3558 22.8551 15.0142 22.5134 15.1893C22.3682 15.2662 22.2231 15.4114 22.1761 15.5267C22.0821 15.753 21.7917 16.5772 21.7704 16.6669C21.7576 16.7181 21.7149 16.7736 21.6764 16.7865C21.5996 16.8078 20.5533 16.748 18.6786 16.6114C18.4522 16.5943 18.2174 16.5943 18.1576 16.6114C17.9611 16.6583 17.7903 16.8505 17.4828 17.3758C17.3163 17.6619 17.1327 17.9694 17.0771 18.0548C17.0216 18.1445 16.9747 18.2256 16.9747 18.2341C16.9747 18.2427 16.8722 18.422 16.7483 18.6313C16.6202 18.8363 16.3768 19.2462 16.206 19.5409C15.7149 20.3907 15.6166 20.5231 15.4586 20.5914C15.164 20.7153 14.8394 20.6341 14.6686 20.395C14.5191 20.1815 14.5362 19.8911 14.7198 19.5409C14.801 19.3872 15.0487 18.9174 15.2665 18.4946C15.4843 18.0719 15.7704 17.5124 15.907 17.2562C16.0437 16.9957 16.3213 16.4576 16.5263 16.0605C17.0088 15.1295 17.0942 15.0057 17.3334 14.8904C17.5213 14.805 17.5811 14.8007 19.3747 14.8007C21.2067 14.8007 21.2238 14.7964 21.3946 14.7025C21.5142 14.6384 21.5953 14.5445 21.6679 14.4035C21.7618 14.2156 21.7661 14.1815 21.7149 14.0192C21.6892 13.921 21.6209 13.7929 21.5739 13.7416C21.369 13.5153 21.3903 13.5195 19.3362 13.5238C18.2857 13.5238 17.406 13.5324 17.3803 13.5409ZM13.7718 21.2833C14.0579 21.5865 14.186 21.6761 14.5319 21.8085C14.6771 21.864 14.7967 21.9324 14.7967 21.958C14.7967 22.0178 14.6558 22.4534 14.5618 22.6925C14.4764 22.9018 14.4508 22.9018 14.1049 22.6968C13.9896 22.6284 13.8871 22.5729 13.8786 22.5729C13.87 22.5729 13.7675 22.5174 13.6565 22.4534C13.5455 22.385 13.2978 22.2484 13.1099 22.1459C12.6871 21.9195 12.5248 21.8085 12.5419 21.7573C12.559 21.706 13.4387 21.0398 13.4942 21.0356C13.5156 21.0356 13.6394 21.1466 13.7718 21.2833Z" fill="#20545F" stroke="#20545F" stroke-width="2" mask="url(#path-4-inside-1_1_6963)"/>
<path d="M19.243 33.4126C19.784 32.8115 20.3169 32.2193 20.4324 32.0956L20.0669 31.7545L20.4324 32.0956C20.525 31.9964 20.6981 31.8044 20.862 31.6226C20.9163 31.5624 20.9696 31.5034 21.0186 31.4492L21.0222 31.4452L21.0221 31.4452C21.2198 31.2217 21.4323 30.9944 21.4906 30.9393L21.4949 30.9352L21.4949 30.9352C21.5362 30.8953 21.6134 30.8868 21.6708 30.9534C21.6762 30.96 21.6805 30.9656 21.684 30.9702C21.6846 30.9824 21.685 30.9997 21.685 31.0242C21.685 31.0629 21.6827 31.081 21.6814 31.0886C21.6806 31.0931 21.6802 31.094 21.6795 31.0953L21.6794 31.0956C21.6744 31.1063 21.6535 31.144 21.5561 31.2495C21.4628 31.3471 21.0281 31.833 20.5971 32.3158C20.5638 32.3522 20.5229 32.3973 20.4784 32.4464C20.3871 32.5472 20.2806 32.6647 20.1935 32.7573L20.1879 32.7633L20.188 32.7633C20.1727 32.7802 20.1526 32.8022 20.1285 32.8286C19.9529 33.0216 19.5608 33.4523 19.1949 33.8635C18.6364 34.4823 18.3303 34.8042 18.0905 35.0011C17.8781 35.1755 17.7226 35.2484 17.4399 35.3401L17.4361 35.3413L17.4362 35.3413C17.2611 35.3997 17.1696 35.4182 16.8042 35.4182C16.5491 35.4182 16.3774 35.3995 16.2207 35.3586C16.0629 35.3174 15.8959 35.2471 15.6568 35.1168C15.4767 35.0176 14.0521 34.2991 12.5061 33.524C10.944 32.7386 10.1836 32.3547 9.76807 32.1019C9.56602 31.9789 9.47449 31.9037 9.41968 31.8472C9.36637 31.7921 9.32989 31.7375 9.25065 31.6069C9.07368 31.3129 9.01953 31.1166 9.01953 30.7509C9.01953 30.3638 9.09225 30.1227 9.31136 29.7941L9.31247 29.7924L9.31247 29.7924C9.54965 29.4335 9.94335 29.1797 10.4829 29.0921L10.485 29.0918C10.7697 29.0443 11.053 29.0833 11.6708 29.388C12.2297 29.6674 13.428 30.2495 15.0175 31.0208C15.0179 31.021 15.0183 31.0212 15.0187 31.0214L15.237 30.5715C15.7494 30.8235 16.1893 31.0157 16.2192 31.0028L19.243 33.4126ZM19.243 33.4126C18.6971 34.0198 18.3855 34.365 18.1774 34.5725C17.9507 34.7986 17.8154 34.8925 17.6241 34.9868C17.3842 35.1062 17.0619 35.1422 16.8104 35.1439C16.5638 35.1457 16.2347 35.1158 15.9952 34.99L15.9951 34.99L15.9883 34.9863C15.9887 34.9865 15.9871 34.9857 15.9824 34.9831L15.9648 34.974L15.9052 34.9433C15.8554 34.9178 15.7872 34.883 15.7025 34.8399C15.5331 34.7537 15.2989 34.635 15.0167 34.4923C14.4523 34.2069 13.6968 33.8259 12.8857 33.4183L12.8853 33.418C12.0748 33.0096 11.3223 32.6253 10.7635 32.3347C10.4845 32.1895 10.2519 32.0668 10.0841 31.9757C10.0006 31.9304 9.93015 31.8913 9.87693 31.8604C9.8507 31.8452 9.82484 31.8298 9.80215 31.8153C9.80183 31.8151 9.80135 31.8148 9.80073 31.8144C9.79103 31.8083 9.74656 31.7804 9.70387 31.7408L9.70386 31.7408C9.40342 31.4618 9.28786 31.1219 9.28786 30.721H9.28782L9.2879 30.715C9.29093 30.4627 9.34986 30.2179 9.48664 29.9991C9.62298 29.7809 9.8168 29.6204 10.0397 29.5044L10.0397 29.5044L10.0427 29.5029C10.1396 29.4533 10.2679 29.391 10.4204 29.3613C10.5856 29.3292 10.743 29.3412 10.9036 29.3812C11.1812 29.4502 11.5481 29.6284 12.092 29.8963C12.6338 30.1608 13.3713 30.5189 13.7332 30.6934L13.7332 30.6934L13.7375 30.6955C13.8803 30.7661 14.1072 30.8761 14.3562 30.9969C14.6762 31.1522 15.0329 31.3252 15.2944 31.4548C15.3804 31.4963 15.4654 31.5374 15.5478 31.5772C15.703 31.6522 15.8487 31.7226 15.9735 31.7826C16.0692 31.8286 16.1513 31.8678 16.2147 31.8977C16.2465 31.9126 16.2727 31.9248 16.2931 31.9341L16.3177 31.9452L16.325 31.9483C16.3265 31.949 16.3272 31.9493 16.3274 31.9493L16.3274 31.9493L16.3325 31.9515C16.364 31.9648 16.3851 31.9718 16.3982 31.9756C16.4209 31.9605 16.4631 31.927 16.5308 31.8559C16.6106 31.7721 16.7085 31.6548 16.8367 31.49L16.837 31.4897C17.2308 30.9845 17.7484 30.3258 18.5048 29.3729C18.7514 29.0608 18.8669 28.9051 18.9247 28.8072C18.9426 28.7769 18.9495 28.761 18.9517 28.7553C18.9518 28.7531 18.9519 28.7494 18.9519 28.7438C18.9519 28.718 18.9364 28.6742 18.8765 28.6416C18.8281 28.6153 18.7969 28.6204 18.7824 28.6263C18.7793 28.6292 18.7753 28.633 18.7705 28.6378C18.7489 28.6592 18.7198 28.6897 18.6849 28.7283C18.6158 28.8044 18.5339 28.901 18.4572 28.9972C18.356 29.1277 18.188 29.3412 18.0169 29.5587C17.9108 29.6935 17.8036 29.8299 17.7102 29.949L17.7102 29.949L17.7082 29.9516C17.5858 30.1056 17.4419 30.2897 17.3067 30.4629L17.276 30.5022C17.1551 30.657 17.0425 30.8013 16.964 30.8999L19.243 33.4126ZM16.2277 34.5473C16.1338 34.4961 14.7331 33.7872 13.1103 32.9715L18.8711 33.0783C17.7694 34.3039 17.6711 34.4064 17.4021 34.5388C17.1288 34.6754 16.4797 34.6797 16.2277 34.5473Z" fill="#20545F" stroke="#20545F"/>
</svg>
