<svg width="22" height="21" viewBox="0 0 22 21" fill="none" xmlns="http://www.w3.org/2000/svg">
<path fill-rule="evenodd" clip-rule="evenodd" d="M2.02586 8.15305V5.35105C2.02586 5.19783 2.02061 5.01583 2.01484 4.8158C2.00015 4.30609 1.98207 3.67938 2.03888 3.11396C2.12057 2.30095 2.36893 1.3589 3.15784 0.7146C3.64834 0.31402 4.22701 0.149528 4.87983 0.0732558C5.50709 -3.0756e-05 6.29375 -1.6562e-05 7.25483 7.77626e-07H7.33145C7.73139 -1.50723e-05 8.07967 -2.88729e-05 8.37063 0.0260482C8.68288 0.054033 8.9843 0.115502 9.27942 0.269487C9.71616 0.497368 10.0028 0.847369 10.2036 1.16316C10.3484 1.39082 10.4783 1.65332 10.5804 1.85962C10.6117 1.92297 10.6406 1.98128 10.6663 2.03138L11.2207 3.11111H14.5564C14.6822 3.11111 14.82 3.10881 14.9663 3.10636C15.501 3.09741 16.1496 3.08655 16.7426 3.1793C17.5366 3.30347 18.3845 3.62912 18.9641 4.47379C19.1459 4.7388 19.2472 5.06133 19.3119 5.35821C19.3792 5.66697 19.4204 6.01512 19.4469 6.37515C19.4871 6.91957 19.4965 7.5377 19.4988 8.15846C20.0196 8.27437 20.4878 8.48697 20.8611 8.89727C20.9155 8.95706 20.9673 9.01923 21.0162 9.08359C21.4351 9.63464 21.5253 10.2759 21.4945 10.9621C21.465 11.6186 21.3166 12.4369 21.137 13.4273L21.1188 13.5273C20.856 14.9768 20.647 16.1297 20.3718 17.0309C20.0881 17.9598 19.7113 18.7039 19.0621 19.2872C18.9795 19.3613 18.8945 19.4325 18.807 19.5007C18.1182 20.0371 17.3201 20.2759 16.3571 20.3897C15.4233 20.5 14.2545 20.5 12.7855 20.5H8.7145C7.24554 20.5 6.07665 20.5 5.14285 20.3897C4.17993 20.2759 3.38173 20.0371 2.69299 19.5007C2.60551 19.4325 2.52043 19.3613 2.43792 19.2872C1.78863 18.7039 1.41188 17.9598 1.12821 17.0309C0.853009 16.1297 0.643978 14.9769 0.381165 13.5274L0.363009 13.4273C0.183394 12.4368 0.0350023 11.6186 0.00551822 10.9621C-0.0253031 10.2759 0.0648431 9.63464 0.483783 9.08359C0.532711 9.01923 0.584453 8.95706 0.638858 8.89727C1.01807 8.4805 1.49516 8.26772 2.02586 8.15305ZM7.30088 1.5C7.74019 1.5 8.02068 1.5007 8.23673 1.52006C8.43889 1.53818 8.52721 1.56892 8.58553 1.59934C8.69672 1.65736 8.80943 1.76614 8.93791 1.96815C9.03606 2.12247 9.11234 2.27652 9.20377 2.46117C9.24277 2.53992 9.28452 2.62423 9.33189 2.71651L9.5345 3.11111H6.76926C6.35504 3.11111 6.01926 3.4469 6.01926 3.86111C6.01926 4.27533 6.35504 4.61111 6.76926 4.61111H10.7479C10.7581 4.61132 10.7684 4.61132 10.7786 4.61111H14.5564C14.736 4.61111 14.9097 4.60841 15.0787 4.60577C15.5905 4.59779 16.0582 4.5905 16.5108 4.66128C17.0742 4.74939 17.4664 4.94225 17.7272 5.32244C17.7473 5.3517 17.7974 5.45296 17.8463 5.67746C17.8926 5.89009 17.9271 6.1609 17.951 6.48545C17.9845 6.93926 17.9948 7.45829 17.998 8.01118C17.5824 7.99998 17.122 7.99999 16.6178 8H4.88216C4.38761 7.99999 3.93525 7.99997 3.52586 8.01054V5.35105C3.52586 5.112 3.51891 4.8796 3.51206 4.65062C3.49808 4.18329 3.48452 3.7302 3.53137 3.26392C3.59859 2.59489 3.77843 2.14445 4.10666 1.87638C4.2841 1.73148 4.5395 1.62322 5.0539 1.56312C5.58386 1.5012 6.28245 1.5 7.30088 1.5ZM1.74833 9.90676C1.87539 9.76712 2.08283 9.64518 2.6012 9.57466C3.1379 9.50165 3.86475 9.5 4.93649 9.5H16.5635C17.6352 9.5 18.3621 9.50165 18.8988 9.57466C19.4171 9.64518 19.6246 9.76712 19.7516 9.90676C19.7764 9.93392 19.7999 9.96216 19.8221 9.9914C19.9368 10.1423 20.0195 10.3698 19.996 10.8948C19.9716 11.4379 19.8431 12.1557 19.6514 13.2129C19.3781 14.7198 19.1836 15.7857 18.9372 16.5928C18.6962 17.3819 18.4287 17.8398 18.0596 18.1713C18.0032 18.222 17.9451 18.2707 17.8853 18.3173C17.4942 18.6219 16.9977 18.8036 16.1811 18.9001C15.3455 18.9988 14.2653 19 12.7376 19H8.76235C7.23469 19 6.15445 18.9988 5.31886 18.9001C4.50227 18.8036 4.00578 18.6219 3.61471 18.3173C3.5549 18.2707 3.49674 18.222 3.44033 18.1713C3.07124 17.8398 2.80378 17.3819 2.56281 16.5928C2.31634 15.7857 2.12185 14.7198 1.84859 13.2129C1.65691 12.1557 1.5284 11.4379 1.50401 10.8948C1.48043 10.3698 1.56319 10.1423 1.67788 9.9914C1.70012 9.96216 1.72362 9.93392 1.74833 9.90676Z" fill="#161616"/>
</svg>
