<svg width="24" height="24" viewBox="0 0 24 24" fill="none" xmlns="http://www.w3.org/2000/svg">
<path fill-rule="evenodd" clip-rule="evenodd" d="M6.14241 17.4435L5.29304 18.2929L3.58594 20H10.0002V13.5858L8.29304 15.2929L7.56479 16.0211C7.14941 15.5688 6.80703 15.0576 6.53765 14.4875C6.17932 13.7292 6.00015 12.9 6.00015 12C6.00015 10.7 6.37515 9.5375 7.12515 8.5125C7.87515 7.4875 8.83348 6.76667 10.0002 6.35V4.25C8.26682 4.7 6.83348 5.6375 5.70015 7.0625C4.56682 8.4875 4.00015 10.1333 4.00015 12C4.00015 13.2 4.24182 14.3167 4.72515 15.35C5.09197 16.1342 5.56439 16.8321 6.14241 17.4435Z" fill="#27AE61"/>
<path fill-rule="evenodd" clip-rule="evenodd" d="M19 11C19 10.15 18.8291 9.3542 18.4875 8.6125C18.2239 8.04033 17.8685 7.50041 17.4214 6.99272L16.7071 7.70711L15 9.4142V3H21.4142L19.7071 4.70711L18.853 5.56117C19.5362 6.28081 20.0393 7.03959 20.3625 7.8375C20.7708 8.84583 20.9833 9.9 21 11H19ZM17 21C16.7166 21 16.4791 20.9042 16.2875 20.7125C16.0958 20.5208 16 20.2833 16 20V17C16 16.7167 16.0958 16.4792 16.2875 16.2875C16.4791 16.0958 16.7166 16 17 16V15C17 14.45 17.1958 13.9792 17.5875 13.5875C17.9791 13.1958 18.45 13 19 13C19.55 13 20.0208 13.1958 20.4125 13.5875C20.8041 13.9792 21 14.45 21 15V16C21.2833 16 21.5208 16.0958 21.7125 16.2875C21.9041 16.4792 22 16.7167 22 17V20C22 20.2833 21.9041 20.5208 21.7125 20.7125C21.5208 20.9042 21.2833 21 21 21H17ZM20 16V15C20 14.7167 19.9041 14.4792 19.7125 14.2875C19.5208 14.0958 19.2833 14 19 14C18.7166 14 18.4791 14.0958 18.2875 14.2875C18.0958 14.4792 18 14.7167 18 15V16H20Z" fill="#FF0000"/>
</svg>
