<svg width="20" height="20" viewBox="0 0 20 20" fill="none" xmlns="http://www.w3.org/2000/svg">
<path fill-rule="evenodd" clip-rule="evenodd" d="M4.37496 7.75251V6.66667C4.37496 5.17483 4.96759 3.74409 6.02248 2.6892C7.07738 1.63431 8.50813 1.04167 9.99996 1.04167C11.4918 1.04167 12.9225 1.63431 13.9775 2.6892C15.0323 3.74409 15.625 5.17483 15.625 6.66667V7.75251C15.8139 7.76528 15.9922 7.78306 16.16 7.80584C16.91 7.90584 17.5416 8.1225 18.0433 8.62334C18.545 9.125 18.76 9.75667 18.8616 10.5067C18.9583 11.2292 18.9583 12.1483 18.9583 13.2875V13.3792C18.9583 14.5183 18.9583 15.4375 18.8616 16.16C18.76 16.91 18.545 17.5417 18.0433 18.0433C17.5416 18.545 16.91 18.76 16.16 18.8617C15.4375 18.9583 14.5183 18.9583 13.3791 18.9583H6.62079C5.48163 18.9583 4.56246 18.9583 3.83996 18.8617C3.08996 18.76 2.45829 18.545 1.95663 18.0433C1.45496 17.5417 1.23996 16.91 1.13913 16.16C1.04163 15.4375 1.04163 14.5183 1.04163 13.3792V13.2875C1.04163 12.1483 1.04163 11.2292 1.13913 10.5067C1.23913 9.75667 1.45579 9.125 1.95663 8.62334C2.45829 8.12167 3.08996 7.90667 3.83996 7.80584C4.00718 7.78306 4.18552 7.76528 4.37496 7.75251ZM5.62496 6.66667C5.62496 5.50635 6.08589 4.39356 6.90637 3.57308C7.72684 2.75261 8.83963 2.29167 9.99996 2.29167C11.1603 2.29167 12.273 2.75261 13.0935 3.57308C13.914 4.39356 14.375 5.50635 14.375 6.66667V7.71084C14.0639 7.70861 13.7319 7.70778 13.3791 7.70834H6.62079C6.26857 7.70834 5.93663 7.70917 5.62496 7.71084V6.66667ZM2.84079 9.50751C3.07163 9.27667 3.39496 9.12667 4.00746 9.04417C4.63579 8.96 5.47079 8.95834 6.66663 8.95834H13.3333C14.5291 8.95834 15.3633 8.96 15.9933 9.04417C16.605 9.12667 16.9283 9.2775 17.1591 9.50751C17.39 9.73834 17.54 10.0617 17.6225 10.6742C17.7066 11.3033 17.7083 12.1375 17.7083 13.3333C17.7083 14.5292 17.7066 15.3633 17.6225 15.9933C17.54 16.605 17.3891 16.9283 17.1591 17.1592C16.9283 17.39 16.605 17.54 15.9925 17.6225C15.3633 17.7067 14.5291 17.7083 13.3333 17.7083H6.66663C5.47079 17.7083 4.63579 17.7067 4.00663 17.6225C3.39496 17.54 3.07163 17.3892 2.84079 17.1592C2.60996 16.9283 2.45996 16.605 2.37746 15.9925C2.29329 15.3633 2.29163 14.5292 2.29163 13.3333C2.29163 12.1375 2.29329 11.3025 2.37746 10.6733C2.45996 10.0617 2.61079 9.73834 2.84079 9.50751Z" fill="#D32F2F"/>
</svg>
