<svg width="64" height="64" viewBox="0 0 64 64" fill="none" xmlns="http://www.w3.org/2000/svg">
<g filter="url(#filter0_d_2057_45846)">
<rect x="4" y="2" width="56" height="56" rx="8" fill="black" fill-opacity="0.3" shape-rendering="crispEdges"/>
<path d="M46.8604 34.4207C46.2743 34.0322 45.6322 33.7085 44.9902 33.4819C43.3433 32.8668 41.5848 32.7373 39.8542 33.061C39.1005 33.1905 38.3468 33.4171 37.6211 33.7085L37.3978 33.8056C37.007 33.9675 36.6162 34.1941 36.2254 34.4207C35.8904 34.6149 35.5555 34.8415 35.2205 35.0681C34.4389 35.6185 33.6853 36.2012 32.9874 36.8486C32.4013 32.2841 32.3454 27.6548 32.7641 23.0902C32.7641 23.0902 32.7641 23.0578 32.792 23.0578C34.5785 24.3527 34.0761 27.9461 33.6853 28.982C33.6853 29.0144 33.7132 29.0144 33.7132 29.0144C35.2205 27.0073 35.4717 24.1585 34.3831 21.8277C34.3831 21.7953 34.3831 21.7953 34.411 21.7953C34.7181 22.0867 34.9693 22.378 35.2205 22.7341C35.8067 23.6082 36.1696 24.6765 36.2254 25.7771C36.2533 26.2304 36.2533 26.6836 36.2254 27.1692C36.2254 27.2663 36.1975 27.3634 36.1975 27.4605C36.1975 27.4929 36.1975 27.4929 36.2254 27.4929C36.9791 25.8095 36.9791 23.8024 36.2254 22.119C35.9463 21.5363 35.6113 21.0183 35.2205 20.5328C35.1089 20.3709 34.9693 20.2414 34.8297 20.0795C34.8297 20.0795 34.8297 20.0795 34.8297 20.0472C34.8297 20.0148 34.8297 20.0472 34.8576 20.0472C34.9972 20.0795 35.1089 20.1119 35.2484 20.1767C35.6113 20.3062 35.9463 20.5328 36.2533 20.7917C36.8953 21.3421 37.3699 22.0866 37.649 22.9607C37.8723 23.6082 37.984 24.2556 37.984 24.9355C37.984 24.9355 37.9839 24.9678 38.0119 24.9678C38.0398 24.9678 38.0398 24.9678 38.0398 24.9355C38.4306 23.5758 38.291 22.119 37.6769 20.8889C37.314 20.2414 36.8395 19.7234 36.2812 19.335C35.9742 19.1084 35.6392 18.9465 35.2763 18.817C35.1089 18.7523 34.9693 18.7199 34.8018 18.6875C34.7739 18.6875 34.7739 18.6551 34.8018 18.6551C34.9693 18.6228 35.1368 18.6228 35.2763 18.6228C35.6113 18.6228 35.9463 18.6551 36.2812 18.7199C36.7837 18.817 37.2582 19.0436 37.6769 19.3673C38.0677 19.6587 38.3747 20.0472 38.626 20.5328C38.626 20.5651 38.6539 20.5328 38.6539 20.5328C38.598 19.6911 38.2352 18.9141 37.6769 18.3638C37.2582 17.9753 36.7837 17.684 36.2812 17.5221C35.9463 17.425 35.6113 17.3602 35.2763 17.3602C34.8576 17.3602 34.411 17.425 34.0202 17.6192C33.9923 17.6192 33.9923 17.6192 33.9923 17.5868C34.2994 17.0689 34.746 16.7128 35.2763 16.5509C35.6113 16.4214 35.9463 16.389 36.2812 16.4214C36.5604 16.4214 36.8395 16.5185 37.0907 16.648H37.1186V16.6157C36.8674 16.2919 36.5883 16.0329 36.2812 15.8387C35.9742 15.6445 35.6392 15.515 35.2763 15.4502C34.2994 15.3207 33.3782 15.8711 32.8758 16.8423H32.8479C32.7362 16.6157 32.6246 16.3243 32.5129 16.0653C32.2617 15.3855 32.0663 14.6733 31.9546 13.9611C31.9546 13.9611 31.9546 13.9287 31.9267 13.9287C31.9267 13.9287 31.8988 13.9287 31.8988 13.9611C31.7872 14.6733 31.5918 15.3855 31.3405 16.0653C31.2289 16.3243 31.1452 16.5833 31.0056 16.8423H30.9777C30.224 15.4502 28.605 15.0294 27.4047 15.9035C27.1535 16.0977 26.9023 16.3567 26.7348 16.6157V16.648H26.7627C27.8514 16.1301 29.1354 16.5185 29.8611 17.5868V17.6192H29.8332C28.4375 17.0365 26.8744 17.4897 25.8695 18.7523C25.5066 19.2702 25.2554 19.8853 25.1996 20.5328C25.1996 20.5651 25.2275 20.5651 25.2275 20.5328C25.395 20.209 25.5904 19.9177 25.8416 19.6587C26.7348 18.817 27.9072 18.4609 29.0516 18.6551C29.0796 18.6551 29.0796 18.6875 29.0516 18.6875C27.6281 18.9789 26.3999 20.0795 25.8416 21.6334C25.5345 22.7017 25.5066 23.8672 25.8137 24.9355C25.8137 24.9355 25.8137 24.9678 25.8416 24.9678C25.8695 24.9678 25.8695 24.9678 25.8695 24.9355C25.8695 24.9031 25.8695 24.8707 25.8695 24.8383C25.8416 22.6046 27.1256 20.5975 28.9958 20.0148C28.9958 20.0148 29.0237 20.0148 29.0237 20.0472C29.0237 20.0472 29.0237 20.0472 29.0237 20.0795C27.0977 21.8277 26.4836 24.9355 27.6001 27.4605C27.6001 27.4605 27.6001 27.4605 27.6281 27.4605C27.6281 27.4605 27.6281 27.4605 27.6281 27.4282C27.2931 25.2916 27.9909 23.1226 29.4145 21.7306C29.4424 21.7306 29.4424 21.7306 29.4424 21.7629C28.3538 24.0938 28.6329 26.9426 30.1124 28.9497C30.1124 28.982 30.1403 28.9497 30.1403 28.9173C29.7774 27.8814 29.2749 24.288 31.0335 22.9931H31.0614C31.4801 27.59 31.3964 32.187 30.8381 36.7515C29.4983 35.5213 28.0188 34.4854 26.4278 33.7409C26.2324 33.6761 26.0649 33.579 25.8974 33.5142C24.5576 32.9963 23.134 32.7697 21.7383 32.8344C20.231 32.8992 18.7795 33.32 17.4396 34.097C17.2722 34.1941 17.1326 34.2912 17.0209 34.3559C16.993 34.3883 16.993 34.3883 17.0209 34.4207C17.0209 34.4207 17.0488 34.453 17.0768 34.453C17.2163 34.4207 17.328 34.3559 17.4676 34.3236C18.8632 33.8703 20.3147 33.7085 21.7662 33.838C23.2177 33.9998 24.6134 34.4207 25.9253 35.1329C27.7118 36.1041 29.3866 37.3666 30.8939 38.8557C29.3308 40.6039 27.656 42.2225 25.9253 43.744C25.8695 43.7764 25.8137 43.8088 25.7579 43.8411C25.3671 43.2261 24.6413 43.0966 24.1389 43.5498C23.9156 43.744 23.7481 44.003 23.6923 44.3267C23.6085 44.7476 23.6923 45.1684 23.9156 45.4922C24.4459 46.1072 25.2554 46.2367 25.9253 45.8159C27.3768 45.1037 29.1912 42.9023 31.4243 40.5391C31.6197 40.3449 31.7872 40.1507 31.9826 39.9564C32.178 40.1507 32.3454 40.3449 32.5408 40.5391C33.5457 41.6074 34.4669 42.6434 35.3043 43.5174C35.6392 43.8735 35.9742 44.2296 36.3091 44.521C36.7558 44.9418 37.2024 45.3303 37.7048 45.654C38.3747 46.2367 39.2959 46.2044 39.9379 45.5893C39.9658 45.5569 39.9937 45.5245 40.0495 45.4922C40.2729 45.1684 40.3287 44.7476 40.2729 44.3267C40.217 44.0678 40.1054 43.8411 39.9379 43.6793C39.7983 43.5174 39.6029 43.3879 39.4075 43.3232C38.9609 43.1937 38.4864 43.4203 38.2073 43.8411C38.0398 43.744 37.8723 43.6145 37.7327 43.4851C37.2582 43.0966 36.7837 42.6434 36.3371 42.1901C36.03 41.8664 35.695 41.5103 35.3322 41.1542C34.6343 40.442 33.8807 39.6327 33.0991 38.8234C33.8248 38.1435 34.5785 37.4637 35.3322 36.881C35.6671 36.622 36.0021 36.3954 36.3371 36.1364C36.7837 35.8127 37.2582 35.5537 37.7327 35.2624C38.4585 34.8739 39.1842 34.5502 39.9658 34.2912C41.6406 33.7408 43.3713 33.6114 45.1019 33.9351C45.716 34.0646 46.3301 34.2264 46.9442 34.4207C46.9721 34.4207 47 34.4207 47 34.3883C46.8883 34.4531 46.8883 34.4207 46.8604 34.4207Z" fill="white"/>
</g>
<defs>
<filter id="filter0_d_2057_45846" x="0" y="0" width="64" height="64" filterUnits="userSpaceOnUse" color-interpolation-filters="sRGB">
<feFlood flood-opacity="0" result="BackgroundImageFix"/>
<feColorMatrix in="SourceAlpha" type="matrix" values="0 0 0 0 0 0 0 0 0 0 0 0 0 0 0 0 0 0 127 0" result="hardAlpha"/>
<feOffset dy="2"/>
<feGaussianBlur stdDeviation="2"/>
<feComposite in2="hardAlpha" operator="out"/>
<feColorMatrix type="matrix" values="0 0 0 0 0 0 0 0 0 0 0 0 0 0 0 0 0 0 0.15 0"/>
<feBlend mode="normal" in2="BackgroundImageFix" result="effect1_dropShadow_2057_45846"/>
<feBlend mode="normal" in="SourceGraphic" in2="effect1_dropShadow_2057_45846" result="shape"/>
</filter>
</defs>
</svg>
