<svg width="30" height="33" viewBox="0 0 30 33" fill="none" xmlns="http://www.w3.org/2000/svg">
<path d="M22.125 18C26.055 18 29.25 21.195 29.25 25.125C29.25 29.055 26.055 32.25 22.125 32.25C18.195 32.25 15 29.055 15 25.125C15 21.195 18.195 18 22.125 18ZM21.375 0C21.99 0 22.5 0.51 22.5 1.125V2.43457C24.5709 2.66343 26.0069 3.17682 27.165 4.33496C29.25 6.41996 29.25 9.40501 29.25 15.375V16.875C29.25 17.49 28.74 18 28.125 18C27.51 18 27 17.49 27 16.875V15.375C27 14.4173 26.9965 13.545 26.9883 12.75H2.26172C2.2535 13.545 2.25 14.4173 2.25 15.375V18.375C2.25 23.715 2.2498 26.4002 3.6748 27.8252C5.09981 29.2502 7.78505 29.25 13.125 29.25C13.74 29.25 14.25 29.76 14.25 30.375C14.25 30.99 13.74 31.5 13.125 31.5C7.155 31.5 4.16996 31.5 2.08496 29.415C-2.75972e-05 27.33 0 24.345 0 18.375V15.375C0 9.42001 -2.75969e-05 6.41996 2.08496 4.33496C3.24311 3.17682 4.67915 2.66343 6.75 2.43457V1.125C6.75 0.51 7.26 0 7.875 0C8.49 0 9 0.51 9 1.125V2.28809C10.1942 2.25028 11.5566 2.25 13.125 2.25H16.125C17.6934 2.25 19.0558 2.25028 20.25 2.28809V1.125C20.25 0.51 20.76 0 21.375 0ZM22.125 20.25C19.44 20.25 17.25 22.44 17.25 25.125C17.25 27.81 19.44 30 22.125 30C24.81 30 27 27.81 27 25.125C27 22.44 24.81 20.25 22.125 20.25ZM22.125 21C22.74 21 23.25 21.51 23.25 22.125V24.6602L24.4199 25.8301C24.8549 26.2651 24.8549 26.9849 24.4199 27.4199C24.1949 27.6449 23.91 27.75 23.625 27.75C23.34 27.75 23.0551 27.6449 22.8301 27.4199L21.3301 25.9199C21.1201 25.7099 21 25.425 21 25.125V22.125C21 21.51 21.51 21 22.125 21ZM13.125 4.5C11.5238 4.5 10.1614 4.50065 9 4.53906V6.375C9 6.99 8.49 7.5 7.875 7.5C7.26 7.5 6.75 6.99 6.75 6.375V4.70215C5.33239 4.88718 4.35843 5.2412 3.6748 5.9248C2.77272 6.82689 2.44274 8.23415 2.32129 10.5H26.9287C26.8073 8.23415 26.4773 6.82689 25.5752 5.9248C24.8916 5.2412 23.9176 4.88718 22.5 4.70215V6.375C22.5 6.99 21.99 7.5 21.375 7.5C20.76 7.5 20.25 6.99 20.25 6.375V4.53906C19.0886 4.50065 17.7262 4.5 16.125 4.5H13.125Z" fill="#A38A5F"/>
</svg>
