<svg width="16" height="17" viewBox="0 0 16 17" fill="none" xmlns="http://www.w3.org/2000/svg">
<path d="M3 14.5C2.73333 14.5 2.5 14.4 2.3 14.2C2.1 14 2 13.7667 2 13.5V3.5C2 3.23333 2.1 3 2.3 2.8C2.5 2.6 2.73333 2.5 3 2.5H7.15C7.29167 2.5 7.41042 2.54819 7.50625 2.64458C7.60208 2.74098 7.65 2.86043 7.65 3.00292C7.65 3.14542 7.60208 3.26389 7.50625 3.35833C7.41042 3.45278 7.29167 3.5 7.15 3.5H3V13.5H13V9.35C13 9.20833 13.0482 9.08958 13.1446 8.99375C13.241 8.89792 13.3604 8.85 13.5029 8.85C13.6454 8.85 13.7639 8.89792 13.8583 8.99375C13.9528 9.08958 14 9.20833 14 9.35V13.5C14 13.7667 13.9 14 13.7 14.2C13.5 14.4 13.2667 14.5 13 14.5H3ZM6.01883 10.4768C5.9285 10.3812 5.88056 10.2667 5.875 10.1333C5.86944 10 5.91667 9.88333 6.01667 9.78333L12.3 3.5H9.15C9.00833 3.5 8.88958 3.45181 8.79375 3.35542C8.69792 3.25902 8.65 3.13957 8.65 2.99708C8.65 2.85458 8.69792 2.73611 8.79375 2.64167C8.88958 2.54722 9.00833 2.5 9.15 2.5H13.5C13.6417 2.5 13.7604 2.54792 13.8563 2.64375C13.9521 2.73958 14 2.85833 14 3V7.35C14 7.49167 13.9518 7.61042 13.8554 7.70625C13.759 7.80208 13.6396 7.85 13.4971 7.85C13.3546 7.85 13.2361 7.80208 13.1417 7.70625C13.0472 7.61042 13 7.49167 13 7.35V4.21667L6.71667 10.5C6.62287 10.5889 6.50775 10.6333 6.37132 10.6333C6.23488 10.6333 6.11739 10.5812 6.01883 10.4768Z" fill="#3B82F6"/>
</svg>
