<svg width="21" height="20" viewBox="0 0 21 20" fill="none" xmlns="http://www.w3.org/2000/svg">
<path fill-rule="evenodd" clip-rule="evenodd" d="M13.6252 18.9582H14.8327C16.4302 18.9582 17.7294 17.8157 17.791 16.3524C17.8327 15.1824 17.3735 14.0815 16.5269 13.329C16.3309 13.1588 16.132 12.9923 15.9391 12.8308L15.8866 12.7868C15.7528 12.6748 15.6198 12.5634 15.4852 12.449L15.4831 12.4472C14.1461 11.3217 13.4052 10.6979 13.3394 10.1374C13.3335 10.0457 13.3335 9.95397 13.3394 9.8623C13.4052 9.30147 14.146 8.6773 15.486 7.5498L15.487 7.54897C16.546 6.65495 17.8627 5.54339 17.791 3.64315C17.7294 2.18398 16.4302 1.0415 14.8335 1.0415H6.16685C4.57019 1.0415 3.271 2.18484 3.20933 3.64567C3.136 5.529 4.56599 6.74487 5.51516 7.5507L5.51724 7.55245C6.85426 8.67801 7.5952 9.30176 7.661 9.8623C7.66683 9.95397 7.66683 10.0457 7.661 10.1374C7.59517 10.699 6.85459 11.3222 5.51414 12.4502L5.51253 12.4515C4.39944 13.3938 3.13852 14.4613 3.20933 16.3565C3.271 17.8157 4.57019 18.9582 6.16685 18.9582H13.6252ZM13.6213 17.709H14.8327C15.7727 17.709 16.5077 17.1049 16.5419 16.304C16.5702 15.5115 16.2635 14.7673 15.701 14.2673C15.5179 14.1078 15.3229 13.9445 15.1335 13.7859L15.0994 13.7573C14.9586 13.6398 14.8177 13.5215 14.6777 13.4032L14.6747 13.4006C13.0824 12.0606 12.2034 11.3208 12.0943 10.254L12.0927 10.2306C12.0827 10.0773 12.0827 9.92067 12.0927 9.76733L12.0943 9.74398C12.2035 8.67731 13.0835 7.93651 14.6802 6.59318C15.8335 5.61985 16.5869 4.89147 16.541 3.6923C16.5077 2.89397 15.7727 2.29069 14.8327 2.29069H6.16604L6.16685 2.2915C5.22685 2.2915 4.49187 2.8957 4.45771 3.69653C4.41187 4.87487 5.27432 5.70652 6.32099 6.59652C7.91599 7.93818 8.79516 8.67902 8.90432 9.74569L8.90603 9.76904C8.91603 9.92238 8.91603 10.079 8.90603 10.2323L8.90432 10.2557C8.79516 11.3224 7.91521 12.0632 6.31855 13.4065C5.13105 14.4115 4.41271 15.109 4.45771 16.3074C4.49104 17.1049 5.22604 17.709 6.16604 17.709H7.37822C7.38557 17.4702 7.41073 17.2773 7.49685 17.0815C7.50768 17.0532 7.51854 17.0298 7.52688 17.0132L7.53851 16.9782L7.57269 16.9214C7.72957 16.6608 7.94762 16.5036 8.27708 16.266L8.30772 16.2439C9.20189 15.6073 9.69355 15.2573 10.3494 15.2131C10.4444 15.2073 10.5543 15.2073 10.6468 15.2131C11.3055 15.2572 11.7978 15.6076 12.6899 16.2426L12.6918 16.2439L12.7119 16.2581L12.7128 16.2588C13.0506 16.5017 13.2695 16.6592 13.4269 16.9214L13.461 16.9782L13.4727 17.0132C13.4818 17.0315 13.4927 17.0548 13.5027 17.0815C13.5888 17.2773 13.614 17.4701 13.6213 17.709ZM12.3718 17.7081H8.62852L8.62933 17.7073C8.63183 17.6465 8.63601 17.6007 8.64268 17.5815L8.65855 17.5481C8.7075 17.4959 8.8605 17.3858 9.01151 17.2771L9.01353 17.2756L9.03355 17.2614C9.81438 16.7056 10.1427 16.4789 10.431 16.4598C10.4718 16.4573 10.5293 16.4573 10.5668 16.4598C10.8585 16.4789 11.1869 16.7056 11.9677 17.2614L11.9894 17.2773C11.9982 17.2837 12.007 17.2901 12.0158 17.2964C12.1572 17.3985 12.2973 17.4995 12.3435 17.549L12.3585 17.5806C12.3652 17.6006 12.3693 17.6473 12.3718 17.7081Z" fill="#F76B15"/>
</svg>
