<svg width="20" height="20" viewBox="0 0 20 20" fill="none" xmlns="http://www.w3.org/2000/svg">
<path fill-rule="evenodd" clip-rule="evenodd" d="M7.31788 2.52718C6.55632 1.41808 5.5036 0.899088 4.43174 1.07518C3.39129 1.24611 2.52202 2.04313 2.02319 3.15646C1.04393 5.34202 1.37782 8.8777 4.43948 12.8059C3.5196 14.7565 2.39008 16.5894 1.20112 17.9165C0.970793 18.1736 0.992497 18.5688 1.24959 18.7991C1.50669 19.0294 1.90182 19.0077 2.13215 18.7506C3.32912 17.4145 4.44634 15.639 5.37153 13.7519C5.59019 13.8844 5.83018 13.9638 6.09486 13.9608C6.64231 13.9548 7.04579 13.5944 7.31931 13.2916C7.55545 13.0302 7.79822 12.6897 8.03798 12.3534C8.08853 12.2825 8.13895 12.2118 8.18915 12.1421C8.49098 11.7227 8.81486 11.2928 9.19792 10.8991C9.33572 10.7574 9.42394 10.7341 9.45627 10.7296C9.48681 10.7253 9.54043 10.7272 9.63191 10.7823C9.76617 10.8632 9.91931 11.0225 10.068 11.2475C10.0526 11.2868 10.0376 11.3261 10.0231 11.3653C9.80569 11.9531 9.6765 12.5774 9.71311 13.0938C9.73122 13.3491 9.79421 13.6427 9.96973 13.8883C10.1678 14.1654 10.4737 14.329 10.8333 14.329C11.2481 14.329 11.5563 14.0987 11.7219 13.7897C11.865 13.5227 11.8984 13.2129 11.8944 12.9474C11.8864 12.4083 11.7181 11.765 11.4623 11.2001C11.6064 10.9262 11.775 10.6681 11.961 10.448C12.2846 10.0649 12.6134 9.85075 12.9081 9.79467C13.0206 9.77325 13.1714 9.80064 13.4777 10.1063C13.6225 10.2508 13.768 10.4229 13.94 10.6262L13.9498 10.6378C14.1189 10.8376 14.3115 11.0647 14.5223 11.2731C14.9417 11.688 15.5121 12.1099 16.2874 12.1314C17.054 12.1526 17.858 11.778 18.7457 10.9985C19.0051 10.7708 19.0307 10.3759 18.803 10.1165C18.5752 9.85713 18.1803 9.83148 17.9209 10.0592C17.142 10.7432 16.6363 10.8905 16.3219 10.8818C16.0162 10.8734 15.7341 10.7136 15.4013 10.3843C15.2358 10.2207 15.0773 10.0351 14.9042 9.83047L14.8795 9.80126C14.72 9.61265 14.5438 9.40427 14.3606 9.22145C13.9862 8.84789 13.4279 8.42332 12.6744 8.56671C11.9901 8.69694 11.4285 9.14137 11.0061 9.64131C10.8975 9.76984 10.795 9.90567 10.6988 10.0466C10.5695 9.91723 10.4289 9.8031 10.2769 9.71155C9.99726 9.54313 9.657 9.43907 9.28227 9.49175C8.90933 9.54417 8.58087 9.74076 8.30201 10.0274C7.85174 10.4902 7.48388 10.9821 7.17458 11.4119C7.11448 11.4954 7.05743 11.5753 7.00292 11.6516C6.7646 11.9853 6.57489 12.251 6.39173 12.4537C6.18997 12.6771 6.09616 12.7067 6.08149 12.7104C6.06739 12.7073 6.01062 12.6897 5.9071 12.5989C6.26614 11.7819 6.58625 10.9566 6.85877 10.1484C7.38088 8.60004 7.73784 7.08672 7.85386 5.78743C7.96667 4.52404 7.86543 3.32462 7.31788 2.52718ZM5.67429 9.74901C5.4793 10.3273 5.25953 10.9127 5.01881 11.4954C2.5328 8.04184 2.47236 5.21104 3.16392 3.66757C3.54299 2.82152 4.11927 2.39327 4.63438 2.30864C5.11808 2.22918 5.73096 2.42435 6.28741 3.23475C6.57405 3.65219 6.71665 4.46854 6.60881 5.67626C6.50418 6.84808 6.17598 8.26119 5.67429 9.74901Z" fill="#4CAF50"/>
<path d="M7.49996 16.8757C7.15478 16.8757 6.87496 17.1555 6.87496 17.5007C6.87496 17.8458 7.15478 18.1257 7.49996 18.1257H15.8333C16.1785 18.1257 16.4583 17.8458 16.4583 17.5007C16.4583 17.1555 16.1785 16.8757 15.8333 16.8757H7.49996Z" fill="#4CAF50"/>
</svg>
