<svg width="20" height="20" viewBox="0 0 20 20" fill="none" xmlns="http://www.w3.org/2000/svg">
<path d="M4.58301 1.875C4.92819 1.875 5.20801 2.15482 5.20801 2.5V16.2188C5.20969 16.2168 5.21121 16.2139 5.21289 16.2119C5.38845 16.0047 5.56093 15.7858 5.72168 15.5811C5.73405 15.5653 5.74655 15.5498 5.75879 15.5342C5.91897 15.3302 6.08787 15.1161 6.21875 14.9814C6.45934 14.7339 6.85502 14.7282 7.10254 14.9688C7.34975 15.2094 7.35474 15.6051 7.11426 15.8525C7.04035 15.9287 6.91938 16.0801 6.74219 16.3057C6.72934 16.322 6.71539 16.3386 6.70215 16.3555C6.54375 16.5573 6.35845 16.7946 6.16699 17.0205C5.96183 17.2626 5.73248 17.5145 5.50293 17.71C5.38789 17.8079 5.25766 17.9039 5.11816 17.9785C4.98363 18.0505 4.79823 18.125 4.58301 18.125C4.36786 18.125 4.18234 18.0505 4.04785 17.9785C3.9086 17.904 3.77894 17.8078 3.66406 17.71C3.4345 17.5144 3.20419 17.2626 2.99902 17.0205C2.80763 16.7946 2.62222 16.5572 2.46387 16.3555C2.45068 16.3387 2.4376 16.3219 2.4248 16.3057C2.24733 16.0797 2.12567 15.9286 2.05176 15.8525C1.81118 15.605 1.81697 15.2093 2.06445 14.9688C2.31197 14.7282 2.70766 14.7339 2.94824 14.9814C3.07908 15.1161 3.24716 15.3304 3.40723 15.5342C3.41958 15.5499 3.43283 15.5651 3.44531 15.5811C3.60601 15.7857 3.77763 16.0048 3.95312 16.2119C3.95481 16.2139 3.95633 16.2168 3.95801 16.2188V2.5C3.95801 2.15489 4.23793 1.87512 4.58301 1.875ZM11.667 12.708C12.0119 12.7082 12.2918 12.9881 12.292 13.333C12.292 13.678 12.012 13.9578 11.667 13.958H9.16699C8.82181 13.958 8.54199 13.6782 8.54199 13.333C8.54217 12.988 8.82192 12.708 9.16699 12.708H11.667ZM13.333 9.375C13.6782 9.375 13.958 9.65482 13.958 10C13.958 10.3452 13.6782 10.625 13.333 10.625H9.16699C8.82181 10.625 8.54199 10.3452 8.54199 10C8.54199 9.65482 8.82181 9.375 9.16699 9.375H13.333ZM15.833 6.04199C16.1782 6.04199 16.458 6.32181 16.458 6.66699C16.4579 7.01205 16.1781 7.29199 15.833 7.29199H9.16699C8.82192 7.29199 8.54217 7.01202 8.54199 6.66699C8.54199 6.32181 8.82181 6.04199 9.16699 6.04199H15.833ZM17.5 2.70801C17.845 2.70807 18.1248 2.98802 18.125 3.33301C18.125 3.67815 17.8451 3.95795 17.5 3.95801H9.16699C8.82181 3.95801 8.54199 3.67819 8.54199 3.33301C8.54217 2.98798 8.82192 2.70801 9.16699 2.70801H17.5Z" fill="#5E5E5E"/>
</svg>
