<svg width="20" height="20" viewBox="0 0 20 20" fill="none" xmlns="http://www.w3.org/2000/svg">
<path d="M15.417 18.125C15.0718 18.125 14.792 17.8452 14.792 17.5V3.78125C14.7903 3.78323 14.7888 3.7861 14.7871 3.78809C14.6115 3.99528 14.4391 4.21418 14.2783 4.41895C14.2659 4.43471 14.2534 4.45024 14.2412 4.46582C14.081 4.66975 13.9121 4.88389 13.7812 5.01855C13.5407 5.26608 13.145 5.27184 12.8975 5.03125C12.6503 4.79064 12.6453 4.39488 12.8857 4.14746C12.9596 4.07134 13.0806 3.91993 13.2578 3.69434C13.2707 3.67798 13.2846 3.6614 13.2979 3.64453C13.4562 3.44274 13.6416 3.20544 13.833 2.97949C14.0382 2.73737 14.2675 2.48555 14.4971 2.29004C14.6121 2.19206 14.7423 2.09613 14.8818 2.02148C15.0164 1.9495 15.2018 1.875 15.417 1.875C15.6321 1.87505 15.8177 1.94951 15.9521 2.02148C16.0914 2.09604 16.2211 2.19222 16.3359 2.29004C16.5655 2.48556 16.7958 2.73736 17.001 2.97949C17.1924 3.20538 17.3778 3.44279 17.5361 3.64453C17.5493 3.66133 17.5624 3.67805 17.5752 3.69434C17.7527 3.92029 17.8743 4.07138 17.9482 4.14746C18.1888 4.39497 18.183 4.79066 17.9355 5.03125C17.688 5.27184 17.2923 5.26608 17.0518 5.01855C16.9209 4.88389 16.7528 4.6696 16.5928 4.46582C16.5804 4.4501 16.5672 4.43485 16.5547 4.41895C16.394 4.21426 16.2224 3.99521 16.0469 3.78809C16.0452 3.7861 16.0437 3.78323 16.042 3.78125V17.5C16.042 17.8451 15.7621 18.1249 15.417 18.125ZM8.33301 7.29199C7.98814 7.29176 7.70818 7.01188 7.70801 6.66699C7.70801 6.32196 7.98803 6.04223 8.33301 6.04199H10.833C11.1782 6.04199 11.458 6.32181 11.458 6.66699C11.4578 7.01202 11.1781 7.29199 10.833 7.29199H8.33301ZM6.66699 10.625C6.32181 10.625 6.04199 10.3452 6.04199 10C6.04199 9.65482 6.32181 9.375 6.66699 9.375H10.833C11.1782 9.375 11.458 9.65482 11.458 10C11.458 10.3452 11.1782 10.625 10.833 10.625H6.66699ZM4.16699 13.958C3.82181 13.958 3.54199 13.6782 3.54199 13.333C3.54214 12.988 3.8219 12.708 4.16699 12.708H10.833C11.1781 12.708 11.4578 12.988 11.458 13.333C11.458 13.6782 11.1782 13.958 10.833 13.958H4.16699ZM2.5 17.292C2.15498 17.2919 1.87518 17.012 1.875 16.667C1.875 16.3219 2.15487 16.0421 2.5 16.042H10.833C11.1782 16.042 11.458 16.3218 11.458 16.667C11.4578 17.012 11.1781 17.292 10.833 17.292H2.5Z" fill="#C4C4C4"/>
</svg>
