<svg width="20" height="20" viewBox="0 0 20 20" fill="none" xmlns="http://www.w3.org/2000/svg">
<path d="M7.5 8.33332L10.215 10.37C10.3832 10.4962 10.5928 10.5541 10.802 10.5321C11.0111 10.5102 11.2042 10.41 11.3425 10.2517L16.6667 4.16666" stroke="#27AE61" stroke-linecap="round"/>
<path d="M17.5 9.99983C17.5 11.567 17.0092 13.0947 16.0964 14.3686C15.1836 15.6423 13.8947 16.5982 12.4108 17.102C10.9268 17.6057 9.32233 17.6319 7.82275 17.177C6.32313 16.7221 5.00368 15.8088 4.04972 14.5656C3.09577 13.3222 2.55522 11.8113 2.50401 10.2451C2.45279 8.67883 2.89348 7.13587 3.76418 5.83292C4.63489 4.52996 5.89186 3.53247 7.35856 2.98054C8.82525 2.42862 10.428 2.34999 11.9417 2.7557" stroke="#27AE61" stroke-linecap="round"/>
</svg>
