<svg width="20" height="20" viewBox="0 0 20 20" fill="none" xmlns="http://www.w3.org/2000/svg">
<path fill-rule="evenodd" clip-rule="evenodd" d="M13.1242 18.958H5.66617C4.06973 18.9578 2.7708 17.8155 2.70914 16.3564C2.63843 14.461 3.89968 13.3935 5.01285 12.4512C6.35351 11.323 7.09432 10.6993 7.16031 10.1377C7.16615 10.046 7.16615 9.95397 7.16031 9.8623C7.09432 9.30153 6.35297 8.6773 5.01481 7.55078C4.06564 6.74495 2.63581 5.52876 2.70914 3.64551C2.77098 2.18498 4.06985 1.04222 5.66617 1.04199H14.3332C15.9298 1.04199 17.2295 2.18439 17.2912 3.64355C17.3627 5.54423 16.0446 6.65568 14.9855 7.5498C13.6457 8.67715 12.905 9.30152 12.839 9.8623C12.8332 9.95397 12.8332 10.046 12.839 10.1377C12.905 10.6985 13.6465 11.3228 14.9845 12.4492C15.1235 12.5674 15.2614 12.6822 15.3996 12.7979C15.6045 12.9695 15.8174 13.1475 16.0265 13.3291C16.8732 14.0816 17.3328 15.1825 17.2912 16.3525C17.2295 17.8159 15.9297 18.958 14.3322 18.958H13.1252L13.1242 18.959V18.958ZM5.66617 2.29199C4.72656 2.2922 3.99157 2.89579 3.95719 3.69629C3.91136 4.87455 4.77389 5.70674 5.82047 6.59668C7.41547 7.93835 8.29529 8.67943 8.40445 9.74609L8.40543 9.76953C8.41541 9.92275 8.41542 10.0792 8.40543 10.2324L8.40445 10.2559C8.29529 11.3225 7.41499 12.0631 5.81852 13.4062C4.63102 14.4113 3.91219 15.1093 3.95719 16.3076C3.99056 17.1051 4.7262 17.709 5.66617 17.709H6.87906C6.88642 17.4705 6.91031 17.2777 6.99625 17.082C7.00701 17.0539 7.01821 17.0303 7.02653 17.0137L7.03824 16.9785L7.07242 16.9219C7.22986 16.6603 7.449 16.5027 7.78043 16.2637L7.80778 16.2441C8.70168 15.6077 9.19318 15.2572 9.84879 15.2129C9.94379 15.2071 10.0541 15.2071 10.1466 15.2129C10.8058 15.2571 11.2983 15.6083 12.1916 16.2441L12.2121 16.2578C12.5504 16.5011 12.7694 16.6594 12.9269 16.9219L12.9611 16.9785L12.9728 17.0137C12.9819 17.0319 12.9922 17.0556 13.0021 17.082C13.0881 17.2777 13.1119 17.4702 13.1193 17.709H14.3322C15.2722 17.709 16.007 17.1045 16.0412 16.3037C16.0694 15.5114 15.7627 14.7675 15.2004 14.2676C15.0063 14.0985 14.7987 13.9252 14.5988 13.7578C14.4581 13.6404 14.3178 13.5216 14.1779 13.4033C12.5837 12.0617 11.7031 11.3214 11.5939 10.2539L11.5929 10.2305C11.583 10.0772 11.5829 9.9208 11.5929 9.76758L11.5939 9.74414C11.7031 8.67754 12.5834 7.93693 14.1798 6.59375C15.3332 5.62042 16.087 4.89155 16.0412 3.69238C16.0078 2.89408 15.2722 2.29102 14.3322 2.29102H5.66617V2.29199ZM9.93082 16.46C9.64249 16.4791 9.31419 16.7059 8.53336 17.2617L8.51285 17.2754C8.36147 17.3844 8.20777 17.4953 8.15836 17.5479L8.14274 17.582C8.13613 17.6013 8.13156 17.6467 8.12906 17.707L8.12809 17.708H11.8713C11.8688 17.6477 11.8652 17.6012 11.8586 17.5811L11.8429 17.5488C11.7934 17.4962 11.639 17.3854 11.4894 17.2773L11.4679 17.2617C10.6871 16.7059 10.3582 16.4791 10.0666 16.46C10.0291 16.4575 9.97163 16.4575 9.93082 16.46Z" fill="#F76B15"/>
</svg>
