<svg width="14" height="16" viewBox="0 0 14 16" fill="none" xmlns="http://www.w3.org/2000/svg">
<path fill-rule="evenodd" clip-rule="evenodd" d="M5.80399 9.81425C6.06951 9.73841 6.22328 9.46168 6.14744 9.19616C6.0716 8.93063 5.79487 8.77686 5.52935 8.8527L5.50088 8.86083L5.50088 8.86083L5.50086 8.86084C4.44378 9.16276 3.61113 9.40058 2.96285 9.66482C2.2979 9.93585 1.78043 10.2521 1.37889 10.7372C1.30546 10.8259 1.23607 10.9179 1.17092 11.0128C0.563609 11.898 0.509091 13.003 0.500008 14.6641C0.498498 14.9402 0.721128 15.1653 0.997266 15.1668C1.2734 15.1683 1.49848 14.9457 1.49999 14.6695C1.50944 12.9421 1.59179 12.167 1.99549 11.5786C2.04365 11.5084 2.09494 11.4404 2.14922 11.3749C2.40666 11.0638 2.75929 10.8277 3.34029 10.5909C3.93215 10.3496 4.71219 10.1261 5.80399 9.81425ZM8.47065 8.8527C8.20513 8.77686 7.9284 8.93063 7.85256 9.19616C7.77672 9.46168 7.93049 9.73841 8.19601 9.81425C9.28781 10.1261 10.0678 10.3496 10.6597 10.5909C11.2407 10.8277 11.5933 11.0638 11.8508 11.3749C11.9051 11.4404 11.9564 11.5084 12.0045 11.5786C12.4082 12.167 12.4906 12.9421 12.5 14.6695C12.5015 14.9457 12.7266 15.1683 13.0027 15.1668C13.2789 15.1653 13.5015 14.9402 13.5 14.6641C13.4909 13.003 13.4364 11.898 12.8291 11.0128C12.7639 10.9179 12.6945 10.8259 12.6211 10.7372C12.2196 10.2521 11.7021 9.93585 11.0372 9.66482C10.3889 9.40058 9.55622 9.16276 8.49914 8.86084L8.49913 8.86083L8.49912 8.86083L8.47065 8.8527ZM4.90295 3.50018C5.14447 2.55151 5.98514 1.83351 6.99988 1.83351C8.01462 1.83351 8.85528 2.55151 9.0968 3.50018L4.90295 3.50018ZM3.83363 4.01756C3.83343 4.01179 3.83333 4.00599 3.83333 4.00018C3.83333 3.98676 3.83386 3.97346 3.8349 3.9603C3.88714 2.27166 5.24007 0.83351 6.99988 0.83351C8.75802 0.83351 10.11 2.26893 10.1647 3.95551C10.166 3.97023 10.1667 3.98512 10.1667 4.00018C10.1667 4.00762 10.1665 4.01502 10.1662 4.02238C10.1688 4.24438 10.149 4.47043 10.1046 4.69786L9.82427 6.13476C9.55762 7.50151 8.38198 8.50018 6.99988 8.50018C5.61777 8.50018 4.44213 7.50151 4.17548 6.13476L3.89513 4.69786C3.85044 4.46878 3.83062 4.2411 3.83363 4.01756ZM4.87543 4.50018C4.87583 4.50224 4.87623 4.5043 4.87663 4.50637L5.15697 5.94327C5.33528 6.85718 6.1131 7.50018 6.99988 7.50018C7.88665 7.50018 8.66447 6.85718 8.84278 5.94327L9.12312 4.50637C9.12352 4.5043 9.12393 4.50224 9.12432 4.50018L4.87543 4.50018ZM7 10.1668C7.27614 10.1668 7.5 10.3907 7.5 10.6668L7.5 13.3335C7.5 13.6097 7.27614 13.8335 7 13.8335C6.72386 13.8335 6.5 13.6097 6.5 13.3335L6.5 10.6668C6.5 10.3907 6.72386 10.1668 7 10.1668Z" fill="#161616"/>
</svg>
