<svg width="24" height="24" viewBox="0 0 24 24" fill="none" xmlns="http://www.w3.org/2000/svg">
<mask id="mask0_2053_43363" style="mask-type:luminance" maskUnits="userSpaceOnUse" x="0" y="0" width="24" height="24">
<path d="M23.5205 0H0.480469V24H23.5205V0Z" fill="white"/>
</mask>
<g mask="url(#mask0_2053_43363)">
<path d="M4.32031 8.75H19.6803" stroke="#20545F" stroke-width="1.5" stroke-miterlimit="10" stroke-linecap="round"/>
<path d="M8.16016 2.75V4.75" stroke="#20545F" stroke-width="1.5" stroke-linecap="round" stroke-linejoin="round"/>
<path d="M15.8398 2.75V4.75" stroke="#20545F" stroke-width="1.5" stroke-linecap="round" stroke-linejoin="round"/>
<path d="M18.9601 4.75H5.04008C4.50988 4.75 4.08008 5.19772 4.08008 5.75V19.25C4.08008 19.8023 4.50988 20.25 5.04008 20.25H18.9601C19.4903 20.25 19.9201 19.8023 19.9201 19.25V5.75C19.9201 5.19772 19.4903 4.75 18.9601 4.75Z" stroke="#20545F" stroke-width="1.5"/>
<path d="M8.1602 17.5C8.69039 17.5 9.1202 17.0523 9.1202 16.5C9.1202 15.9477 8.69039 15.5 8.1602 15.5C7.63 15.5 7.2002 15.9477 7.2002 16.5C7.2002 17.0523 7.63 17.5 8.1602 17.5Z" fill="#20545F"/>
<path d="M12 17.5C12.5302 17.5 12.96 17.0523 12.96 16.5C12.96 15.9477 12.5302 15.5 12 15.5C11.4698 15.5 11.04 15.9477 11.04 16.5C11.04 17.0523 11.4698 17.5 12 17.5Z" fill="#20545F"/>
<path d="M15.8399 17.5C16.3701 17.5 16.7999 17.0523 16.7999 16.5C16.7999 15.9477 16.3701 15.5 15.8399 15.5C15.3097 15.5 14.8799 15.9477 14.8799 16.5C14.8799 17.0523 15.3097 17.5 15.8399 17.5Z" fill="#20545F"/>
<path d="M15.8399 14C16.3701 14 16.7999 13.5523 16.7999 13C16.7999 12.4477 16.3701 12 15.8399 12C15.3097 12 14.8799 12.4477 14.8799 13C14.8799 13.5523 15.3097 14 15.8399 14Z" fill="#20545F"/>
<path d="M12 14C12.5302 14 12.96 13.5523 12.96 13C12.96 12.4477 12.5302 12 12 12C11.4698 12 11.04 12.4477 11.04 13C11.04 13.5523 11.4698 14 12 14Z" fill="#20545F"/>
<path d="M8.1602 14C8.69039 14 9.1202 13.5523 9.1202 13C9.1202 12.4477 8.69039 12 8.1602 12C7.63 12 7.2002 12.4477 7.2002 13C7.2002 13.5523 7.63 14 8.1602 14Z" fill="#20545F"/>
</g>
</svg>
