<svg width="25" height="24" viewBox="0 0 25 24" fill="none" xmlns="http://www.w3.org/2000/svg">
<g clip-path="url(#clip0_5714_2409)">
<mask id="mask0_5714_2409" style="mask-type:luminance" maskUnits="userSpaceOnUse" x="0" y="0" width="25" height="24">
<path d="M24.5 0H0.5V24H24.5V0Z" fill="white"/>
</mask>
<g mask="url(#mask0_5714_2409)">
<path fill-rule="evenodd" clip-rule="evenodd" d="M2.95507 9.01166L0.714844 8.41139L2.80561 7.20429L4.53766 6.20429L5.40369 5.70429L5.90369 6.57031L6.90369 8.30236L8.1108 10.3931L5.77885 9.76829L4.88951 9.52999C4.63725 10.3079 4.50093 11.138 4.50093 12C4.50093 15.3176 6.5204 18.1636 9.39713 19.3756L8.39063 21.1189C4.91784 19.5511 2.50093 16.0578 2.50093 12C2.50093 10.9591 2.65997 9.95531 2.95507 9.01166ZM12.5009 4C10.6851 4 9.01049 4.605 7.6678 5.62443L6.66136 3.88123C8.30436 2.6974 10.3212 2 12.5009 2C15.4114 2 18.0314 3.24335 19.8589 5.22786L21.5009 3.58579V9H16.0867L17.7938 7.29289L18.4431 6.64358C16.979 5.02032 14.8591 4 12.5009 4ZM15.2886 24.0015L14.688 21.7601C19.159 20.7626 22.5009 16.7716 22.5009 12C22.5009 11.6625 22.4842 11.3289 22.4516 11H20.439C20.4799 11.3276 20.5009 11.6613 20.5009 12C20.5009 15.846 17.787 19.0581 14.1697 19.8257L13.9317 18.9375L13.1978 16.9447L12.0997 18.6963L11.5 20.5L11 21.5L11.4658 21.7944L13.1978 22.7944L15.2886 24.0015Z" fill="#4CAF50"/>
<path fill-rule="evenodd" clip-rule="evenodd" d="M15.3955 24.0237L14.7556 21.7772C19.2695 20.71 22.5975 16.6471 22.5301 11.8465C22.5253 11.5069 22.5037 11.1715 22.466 10.8411L20.4277 10.8697C20.4738 11.1987 20.4998 11.5342 20.5046 11.8749C20.559 15.7443 17.8559 19.0146 14.2033 19.8384L13.9497 18.9482L13.284 16.6109L12.091 18.7316L11.1027 20.4884L10.6086 21.3668L11.4928 21.8576L13.261 22.839L15.3955 24.0237Z" fill="#4CAF50"/>
</g>
</g>
<defs>
<clipPath id="clip0_5714_2409">
<rect width="24" height="24" fill="white" transform="translate(0.5)"/>
</clipPath>
</defs>
</svg>
