<svg width="16" height="18" viewBox="0 0 16 18" fill="none" xmlns="http://www.w3.org/2000/svg">
<path d="M4.375 7.50004C4.02982 7.50004 3.75 7.77986 3.75 8.12504C3.75 8.47022 4.02982 8.75004 4.375 8.75004H6.875C7.22018 8.75004 7.5 8.47022 7.5 8.12504C7.5 7.77986 7.22018 7.50004 6.875 7.50004H4.375Z" fill="white"/>
<path d="M4.375 4.16671C4.02982 4.16671 3.75 4.44653 3.75 4.79171C3.75 5.13688 4.02982 5.41671 4.375 5.41671L10.2083 5.41671C10.5535 5.41671 10.8333 5.13688 10.8333 4.79171C10.8333 4.44653 10.5535 4.16671 10.2083 4.16671H4.375Z" fill="white"/>
<path fill-rule="evenodd" clip-rule="evenodd" d="M7.66357 2.0744e-07H8.3884C9.71662 -6.15039e-06 10.7626 -1.09213e-05 11.5924 0.0864762C12.4397 0.174785 13.1364 0.359012 13.7324 0.778939C14.0506 1.00311 14.3343 1.26985 14.5744 1.57169C15.0285 2.14258 15.2288 2.81388 15.3241 3.62402C15.4167 4.41104 15.4167 5.40061 15.4167 6.64552V8.82957C15.4167 10.0449 15.4167 10.9881 15.3665 11.7492C15.3156 12.5207 15.2112 13.1485 14.9819 13.7271C14.2835 15.4895 12.8128 16.8655 10.9667 17.5136C9.81766 17.917 8.40771 17.9169 5.93657 17.9167L5.63431 17.9167C4.27169 17.917 3.42253 17.9171 2.72197 17.6712C1.59775 17.2766 0.696453 16.4365 0.267266 15.3535C0.121715 14.9862 0.0592203 14.5963 0.0292686 14.1422C-6.01634e-06 13.6984 -2.83635e-06 13.1521 3.42566e-07 12.4651V7.24208C-1.5552e-05 5.71282 -2.82625e-05 4.49759 0.135948 3.54571C0.276542 2.5615 0.573345 1.76796 1.23398 1.14619C1.88926 0.529455 2.71658 0.256953 3.7437 0.126984C4.74737 -1.88624e-05 6.03196 -1.09188e-05 7.66357 2.0744e-07ZM3.90062 1.3671C2.99885 1.4812 2.47274 1.69686 2.09068 2.05644C1.71399 2.41097 1.49213 2.89126 1.37339 3.72248C1.2515 4.57576 1.25 5.70158 1.25 7.29167V12.4432C1.25 13.1569 1.25032 13.662 1.27656 14.0599C1.30243 14.4522 1.35159 14.6968 1.42934 14.893C1.71813 15.6217 2.33524 16.2107 3.136 16.4918C3.60878 16.6577 4.2244 16.6667 5.77652 16.6667C6.04362 16.6667 6.2958 16.6666 6.53429 16.6661C7.68776 16.6258 8.61047 15.678 8.61047 14.5147C8.61047 14.392 8.60507 14.2602 8.5982 14.1122L8.59564 14.0574C8.58957 13.9283 8.58297 13.7878 8.58006 13.6477C8.57348 13.3309 8.58348 12.9613 8.67909 12.6045C8.8653 11.9096 9.40814 11.3667 10.1031 11.1805C10.4599 11.0849 10.8295 11.0749 11.1463 11.0815C11.2864 11.0844 11.4268 11.091 11.5559 11.097L11.6108 11.0996C11.7588 11.1065 11.8906 11.1119 12.0132 11.1119C13.2022 11.1119 14.166 10.148 14.166 8.9591C14.166 8.94951 14.1662 8.93996 14.1667 8.93047C14.1667 8.88963 14.1667 8.84842 14.1667 8.80682V6.68561C14.1667 5.39157 14.1657 4.47558 14.0826 3.77009C14.0014 3.07929 13.8485 2.66706 13.5961 2.3498C13.4314 2.14269 13.2351 1.95761 13.0125 1.80079C12.6648 1.55585 12.2103 1.40765 11.4628 1.32974C10.7054 1.2508 9.72454 1.25 8.35227 1.25H7.70833C6.02212 1.25 4.81668 1.25118 3.90062 1.3671ZM14.1215 11.6302C13.5419 12.0884 12.8095 12.3619 12.0132 12.3619C11.8584 12.3619 11.7004 12.3551 11.5529 12.3483L11.4963 12.3456C11.3658 12.3395 11.2429 12.3337 11.1203 12.3312C10.8364 12.3253 10.6093 12.339 10.4266 12.3879C10.163 12.4585 9.95713 12.6644 9.88649 12.9281C9.83755 13.1107 9.82389 13.3379 9.82979 13.6217C9.83233 13.7443 9.83809 13.8671 9.84422 13.9977L9.84686 14.0543C9.85371 14.2019 9.86046 14.3599 9.86046 14.5147C9.86046 15.3001 9.59432 16.0235 9.14729 16.5994C9.72494 16.552 10.1618 16.4714 10.5527 16.3342C12.0753 15.7997 13.2618 14.6748 13.8198 13.2666C13.9813 12.8591 14.0724 12.3766 14.1192 11.6669C14.12 11.6547 14.1208 11.6425 14.1215 11.6302Z" fill="white"/>
</svg>
