<svg width="27" height="33" viewBox="0 0 27 33" fill="none" xmlns="http://www.w3.org/2000/svg">
<path d="M18.7524 32.25H5.32861C2.45474 32.25 0.116566 30.1937 0.00537109 27.5674C-0.122129 24.1549 2.14883 22.2326 4.15283 20.5361C6.56575 18.5056 7.89921 17.3839 8.01807 16.373C8.02856 16.2082 8.02854 16.0428 8.01807 15.8779C7.89957 14.8685 6.5646 13.7447 4.15576 11.7168C2.44726 10.2663 -0.126629 8.0775 0.00537109 4.6875C0.116379 2.05801 2.45462 0 5.32861 0L20.9282 0C23.8021 0 26.1413 2.05627 26.2524 4.68262C26.3814 8.10411 24.0095 10.1053 22.103 11.7148C19.691 13.7443 18.3573 14.8684 18.2388 15.8779C18.2283 16.0428 18.2283 16.2082 18.2388 16.373C18.3576 17.3824 19.6934 18.5055 22.1021 20.5332C22.3524 20.7461 22.5993 20.9537 22.8481 21.1621C23.2171 21.4711 23.6006 21.7902 23.9771 22.1172C25.501 23.4717 26.3274 25.4536 26.2524 27.5596C26.1414 30.1935 23.8027 32.2499 20.9272 32.25H18.7534L18.7524 32.251V32.25ZM5.32861 2.25C3.63661 2.25 2.31394 3.3378 2.25244 4.7793C2.17006 6.90016 3.72204 8.39709 5.60596 9.99902C8.47696 12.414 10.0598 13.748 10.2563 15.668L10.2593 15.71C10.2773 15.9858 10.2773 16.2681 10.2593 16.5439L10.2563 16.5859C10.0597 18.5057 8.47567 19.8392 5.60205 22.2568C3.46456 24.0658 2.17146 25.3215 2.25244 27.4785C2.31244 28.9139 3.63488 30.0018 5.32666 30.002H7.51025C7.52346 29.5721 7.56716 29.2246 7.72217 28.8721C7.74167 28.8211 7.76186 28.779 7.77686 28.749L7.79736 28.6855L7.85889 28.584C8.14237 28.113 8.53732 27.8299 9.13428 27.3994L9.18213 27.3643C10.7915 26.2183 11.6765 25.5883 12.8569 25.5088C13.0278 25.4983 13.2257 25.4983 13.3921 25.5088C14.5786 25.5883 15.4657 26.2198 17.0737 27.3643L17.1099 27.3896C17.7188 27.8276 18.1135 28.1115 18.397 28.584L18.4585 28.6855L18.479 28.749C18.4955 28.782 18.5147 28.8241 18.5327 28.8721C18.6877 29.2246 18.7324 29.5717 18.7456 30.002H20.9272C22.6191 30.0019 23.9419 28.9141 24.0034 27.4727C24.0544 26.0462 23.5022 24.7066 22.4897 23.8066C22.1403 23.5022 21.7667 23.1901 21.4067 22.8887C21.1533 22.6772 20.8999 22.4639 20.6479 22.251C17.7785 19.836 16.195 18.5035 15.9985 16.582L15.9956 16.54C15.9776 16.2642 15.9776 15.9819 15.9956 15.7061L15.9985 15.6641C16.1952 13.7443 17.779 12.411 20.6528 9.99316C22.7288 8.24121 24.0849 6.92993 24.0024 4.77148C23.9424 3.33452 22.6192 2.24908 20.9272 2.24902L5.32666 2.24902L5.32861 2.25ZM13.0044 27.7529C12.4854 27.7874 11.8943 28.1958 10.4888 29.1963L10.4526 29.2217C10.1799 29.418 9.90265 29.6173 9.81396 29.7119L9.78467 29.7725C9.77279 29.8072 9.76571 29.8893 9.76123 29.998L9.75928 30H16.4976C16.4931 29.8905 16.4851 29.8065 16.4731 29.7705L16.4468 29.7139C16.3583 29.6194 16.0791 29.4196 15.8091 29.2246L15.77 29.1963C14.3645 28.1958 13.7735 27.7874 13.2485 27.7529C13.1811 27.7484 13.0779 27.7484 13.0044 27.7529Z" fill="#F76B15"/>
</svg>
