<svg width="64" height="56" viewBox="0 0 64 56" fill="none" xmlns="http://www.w3.org/2000/svg">
<g filter="url(#filter0_d_1828_22397)">
<rect x="4" y="2" width="56" height="48" rx="8" fill="black" fill-opacity="0.3" shape-rendering="crispEdges"/>
<path d="M42.3176 32.786C41.7657 35.7773 39.1541 37.9485 36.1081 37.9485C32.6264 37.9485 29.7936 35.1157 29.7936 31.634C29.7936 28.1522 32.6264 25.3194 36.1081 25.3194C36.6855 25.3194 37.2581 25.3976 37.8098 25.5517C38.3074 25.6905 38.5981 26.2065 38.4591 26.7042C38.3203 27.2019 37.8041 27.4926 37.3066 27.3535C36.9164 27.245 36.5132 27.1901 36.1081 27.1904C33.658 27.1904 31.6646 29.1838 31.6646 31.634C31.6646 34.0842 33.658 36.0775 36.1081 36.0775C38.2517 36.0775 40.0894 34.5504 40.4777 32.4465C40.5716 31.9384 41.0595 31.6023 41.5674 31.6963C42.0755 31.79 42.4114 32.2779 42.3176 32.786ZM28.4839 36.0775H24.742C23.7103 36.0775 22.871 35.2382 22.871 34.2066V21.9049H25.6307C27.4361 21.9049 28.9049 20.4361 28.9049 18.6307C28.9049 18.114 28.4861 17.6952 27.9694 17.6952C27.4527 17.6952 27.0339 18.114 27.0339 18.6307C27.0339 19.4045 26.4045 20.0339 25.6307 20.0339H23.0314C23.1192 19.8418 23.2403 19.6667 23.3891 19.5168L26.4783 16.4003C26.8115 16.0639 27.2746 15.871 27.7482 15.871H36.2432C37.2749 15.871 38.1142 16.7103 38.1142 17.742V22.7C38.1142 23.2168 38.5331 23.6355 39.0497 23.6355C39.5664 23.6355 39.9851 23.2168 39.9851 22.7V17.742C39.9851 15.6786 38.3065 14 36.2432 14H27.7482C26.7788 14 25.8317 14.3948 25.1494 15.0831L22.0603 18.1997C21.3766 18.8896 21 19.8042 21 20.7755V34.2066C21 36.2699 22.6786 37.9485 24.742 37.9485H28.4839C29.0006 37.9485 29.4194 37.5297 29.4194 37.013C29.4194 36.4963 29.0006 36.0775 28.4839 36.0775ZM34.8986 30.5516C34.5332 30.1862 33.941 30.1862 33.5758 30.5516C33.2103 30.9168 33.2103 31.5092 33.5755 31.8744L34.9531 33.2519C35.2717 33.5705 35.6912 33.7299 36.1107 33.7299C36.5275 33.7299 36.9442 33.5725 37.2623 33.2577L41.3502 29.2118C41.7174 28.8483 41.7203 28.256 41.3569 27.8887C40.9935 27.5215 40.4012 27.5184 40.0339 27.882L36.1116 31.7644L34.8986 30.5516Z" fill="white"/>
</g>
<defs>
<filter id="filter0_d_1828_22397" x="0" y="0" width="64" height="56" filterUnits="userSpaceOnUse" color-interpolation-filters="sRGB">
<feFlood flood-opacity="0" result="BackgroundImageFix"/>
<feColorMatrix in="SourceAlpha" type="matrix" values="0 0 0 0 0 0 0 0 0 0 0 0 0 0 0 0 0 0 127 0" result="hardAlpha"/>
<feOffset dy="2"/>
<feGaussianBlur stdDeviation="2"/>
<feComposite in2="hardAlpha" operator="out"/>
<feColorMatrix type="matrix" values="0 0 0 0 0 0 0 0 0 0 0 0 0 0 0 0 0 0 0.15 0"/>
<feBlend mode="normal" in2="BackgroundImageFix" result="effect1_dropShadow_1828_22397"/>
<feBlend mode="normal" in="SourceGraphic" in2="effect1_dropShadow_1828_22397" result="shape"/>
</filter>
</defs>
</svg>
