<svg width="24" height="25" viewBox="0 0 24 25" fill="none" xmlns="http://www.w3.org/2000/svg">
<path d="M21.9199 7.12C21.8185 6.87565 21.6243 6.68147 21.3799 6.58C21.2597 6.52876 21.1306 6.50158 20.9999 6.5H15.9999C15.7347 6.5 15.4804 6.60536 15.2928 6.79289C15.1053 6.98043 14.9999 7.23478 14.9999 7.5C14.9999 7.76522 15.1053 8.01957 15.2928 8.20711C15.4804 8.39464 15.7347 8.5 15.9999 8.5H18.5899L12.9999 14.09L9.70994 10.79C9.61698 10.6963 9.50637 10.6219 9.38452 10.5711C9.26266 10.5203 9.13195 10.4942 8.99994 10.4942C8.86793 10.4942 8.73722 10.5203 8.61536 10.5711C8.4935 10.6219 8.3829 10.6963 8.28994 10.79L2.28994 16.79C2.19621 16.883 2.12182 16.9936 2.07105 17.1154C2.02028 17.2373 1.99414 17.368 1.99414 17.5C1.99414 17.632 2.02028 17.7627 2.07105 17.8846C2.12182 18.0064 2.19621 18.117 2.28994 18.21C2.3829 18.3037 2.4935 18.3781 2.61536 18.4289C2.73722 18.4797 2.86793 18.5058 2.99994 18.5058C3.13195 18.5058 3.26266 18.4797 3.38452 18.4289C3.50637 18.3781 3.61698 18.3037 3.70994 18.21L8.99994 12.91L12.2899 16.21C12.3829 16.3037 12.4935 16.3781 12.6154 16.4289C12.7372 16.4797 12.8679 16.5058 12.9999 16.5058C13.132 16.5058 13.2627 16.4797 13.3845 16.4289C13.5064 16.3781 13.617 16.3037 13.7099 16.21L19.9999 9.91V12.5C19.9999 12.7652 20.1053 13.0196 20.2928 13.2071C20.4804 13.3946 20.7347 13.5 20.9999 13.5C21.2652 13.5 21.5195 13.3946 21.707 13.2071C21.8946 13.0196 21.9999 12.7652 21.9999 12.5V7.5C21.9984 7.36932 21.9712 7.24022 21.9199 7.12Z" fill="black"/>
</svg>
