<svg width="24" height="24" viewBox="0 0 24 24" fill="none" xmlns="http://www.w3.org/2000/svg">
<path d="M17.201 2H6.8C5.342 2 4.063 2.985 4.005 4.404C3.931 6.189 5.187 7.374 6.505 8.487C8.33 10.027 9.242 10.797 9.337 11.771C9.35234 11.9237 9.35234 12.0763 9.337 12.229C9.242 13.204 8.33 13.973 6.505 15.513C5.15 16.656 3.927 17.72 4.005 19.596C4.062 21.016 5.34 22 6.799 22H17.2C18.658 22 19.937 21.015 19.996 19.596C20.042 18.466 19.623 17.342 18.734 16.56C18.329 16.203 17.908 15.862 17.494 15.513C15.67 13.973 14.758 13.203 14.663 12.229C14.6478 12.0767 14.6478 11.9233 14.663 11.771C14.758 10.796 15.671 10.027 17.495 8.487C18.835 7.356 20.072 6.258 19.995 4.404C19.939 2.984 18.659 2 17.201 2Z" stroke="#27AE61" stroke-width="1.5" stroke-linecap="round" stroke-linejoin="round"/>
<path d="M9 21.6385C9 21.1965 9 20.9755 9.088 20.7825C9.10181 20.7517 9.11716 20.7217 9.134 20.6925C9.241 20.5095 9.422 20.3805 9.784 20.1215C10.79 19.4025 11.294 19.0435 11.865 19.0055C11.955 18.9995 12.045 18.9995 12.135 19.0055C12.707 19.0435 13.21 19.4025 14.215 20.1215C14.578 20.3805 14.759 20.5095 14.866 20.6925C14.8833 20.7225 14.8987 20.7525 14.912 20.7825C15 20.9755 15 21.1965 15 21.6385V22.0005H9V21.6385Z" stroke="#27AE61" stroke-width="1.5" stroke-linecap="round" stroke-linejoin="round"/>
</svg>
