<svg width="132" height="164" xmlns="http://www.w3.org/2000/svg" xmlns:xlink="http://www.w3.org/1999/xlink" xml:space="preserve" overflow="hidden"><defs><clipPath id="clip0"><rect x="624" y="340" width="132" height="164"/></clipPath></defs><g clip-path="url(#clip0)" transform="translate(-624 -340)"><path d="M122.56 63.755C106.681 32.297 68.3078 19.6672 36.8498 35.5455 24.6731 41.6917 14.7865 51.5783 8.64034 63.755 8.05458 64.9153 8.05458 66.2847 8.64034 67.445 24.5186 98.9029 62.8922 111.533 94.3502 95.6545 106.527 89.5083 116.413 79.6217 122.56 67.445 123.145 66.2847 123.145 64.9153 122.56 63.755ZM65.6 90.2C52.0138 90.2 41 79.1862 41 65.6 41 52.0138 52.0138 41 65.6 41 79.1862 41 90.2 52.0138 90.2 65.6 90.1851 79.18 79.18 90.1851 65.6 90.2ZM16.9367 65.6C22.8544 54.8272 32.1919 46.3325 43.4748 41.4571 30.141 53.5875 29.1655 74.2303 41.2959 87.564 41.9875 88.3242 42.7146 89.0513 43.4748 89.7429 32.1919 84.8675 22.8544 76.3728 16.9367 65.6ZM87.7252 89.7429C101.059 77.6124 102.034 56.9697 89.9041 43.636 89.2125 42.8758 88.4854 42.1487 87.7252 41.4571 99.0081 46.3325 108.346 54.8272 114.263 65.6 108.346 76.3728 99.0081 84.8675 87.7252 89.7429Z" fill="#FFFFFF" transform="matrix(1.0061 0 0 1 624 340)"/><path d="M65.6 53.3C58.8069 53.3 53.3 58.8069 53.3 65.6 53.3 72.3931 58.8069 77.9 65.6 77.9 72.3931 77.9 77.9 72.3931 77.9 65.6 77.8925 58.81 72.39 53.3075 65.6 53.3ZM65.6 69.7C63.3356 69.7 61.5 67.8644 61.5 65.6 61.5 63.3356 63.3356 61.5 65.6 61.5 67.8644 61.5 69.7 63.3356 69.7 65.6 69.698 67.8635 67.8635 69.698 65.6 69.7Z" fill="#FFFFFF" transform="matrix(1.0061 0 0 1 624 340)"/><text fill="#FFFFFF" font-family="Arial,Arial_MSFontService,sans-serif" font-weight="700" font-size="5" transform="matrix(4.125 0 0 4.1 624 533)">Created by ghufronagustian</text><text fill="#FFFFFF" font-family="Arial,Arial_MSFontService,sans-serif" font-weight="700" font-size="5" transform="matrix(4.125 0 0 4.1 624 553)">from the Noun Project</text></g></svg>