<svg width="42" height="42" viewBox="0 0 42 42" fill="none" xmlns="http://www.w3.org/2000/svg">
<path d="M19.1978 1.44145L19.1971 1.4415C15.8874 1.70431 13.0874 2.64982 10.4306 4.38954C8.46727 5.68218 6.65218 7.48108 5.34793 9.43543C3.70302 11.9029 2.70366 14.6857 2.37969 17.7285L2.37958 17.7296C2.34095 18.0849 2.32255 18.8402 2.32676 19.6214C2.33098 20.4028 2.35752 21.1555 2.39992 21.5063L2.39995 21.5066C2.56059 22.8411 2.8235 24.0669 3.18689 25.1939C3.39718 25.8431 3.7092 26.6397 3.99996 27.2998C4.14532 27.6297 4.2825 27.919 4.39624 28.1349C4.45338 28.2433 4.50138 28.3271 4.53895 28.3859C4.55605 28.4126 4.56766 28.4288 4.57393 28.4373C4.61753 28.4671 4.65161 28.4658 4.67219 28.4603C4.69595 28.454 4.73734 28.4323 4.76581 28.3604L4.7658 28.3604L4.76644 28.3588C4.76957 28.351 4.77208 28.3445 4.77409 28.3391C4.74994 28.2521 4.68024 28.0931 4.49328 27.6996C2.69597 23.9409 2.15716 20.0605 2.89694 16.1321C3.32611 13.8433 4.24412 11.6061 5.56729 9.61704L5.56738 9.61691C8.41073 5.34539 13.0145 2.48045 18.0845 1.83099C21.4237 1.40277 24.8163 1.91721 27.8429 3.31579L27.8435 3.31606C29.0963 3.89695 30.4172 4.71737 31.5199 5.59518L31.5203 5.59549C32.2771 6.1992 33.6621 7.58418 34.2573 8.32816L34.258 8.3291C37.5662 12.4849 38.8568 17.71 37.8574 22.9017L37.8573 22.902C37.5622 24.4297 37.0293 25.9754 36.294 27.4244C36.2127 27.5849 36.1549 27.7037 36.1142 27.7965C36.0745 27.8871 36.0584 27.937 36.052 27.9636C36.0547 27.9697 36.0585 27.9779 36.0638 27.9886L35.6166 28.2122L36.0638 27.9886C36.078 28.0168 36.0903 28.0256 36.098 28.0301C36.1076 28.0357 36.1358 28.0487 36.1971 28.0487C36.2172 28.0487 36.2306 28.0479 36.2389 28.0471C36.2417 28.0443 36.2452 28.0407 36.2495 28.036C36.3208 27.9576 36.4268 27.7812 36.6402 27.3477L36.6404 27.3474C37.3893 25.8291 37.925 24.1886 38.2027 22.5551C38.3987 21.3992 38.4269 21.0496 38.4269 19.4635C38.4227 18.1188 38.414 17.8703 38.3346 17.2794L38.3344 17.278C37.7402 12.7534 35.6616 8.84704 32.2664 5.86132C29.3548 3.30146 25.6806 1.76572 21.731 1.4542C21.26 1.418 19.5837 1.41027 19.1978 1.44145Z" fill="#20545F" stroke="#20545F"/>
<path d="M20.3325 3.32691L20.3274 3.32951C20.3274 3.32954 20.3273 3.32956 20.3273 3.32959C20.3223 3.33313 20.3146 3.33903 20.3059 3.34682C20.2972 3.35458 20.2901 3.36181 20.2853 3.36713C20.2846 3.36796 20.284 3.36866 20.2835 3.36923L20.2803 3.37399C20.2791 3.37591 20.2779 3.37763 20.2769 3.37916C20.2749 3.39423 20.2723 3.42168 20.2705 3.47038C20.2684 3.52674 20.2676 3.60042 20.2676 3.70234C20.2676 3.82477 20.2714 3.91284 20.2784 3.97827C20.2834 4.02494 20.2893 4.05274 20.2934 4.06784C20.2962 4.06949 20.2994 4.07138 20.3032 4.07349C20.3064 4.07476 20.316 4.07821 20.3327 4.08151C20.3548 4.08588 20.3809 4.08829 20.4071 4.08784C20.4258 4.08751 20.4407 4.08579 20.4511 4.08399C20.4764 4.06424 20.4901 4.0517 20.4969 4.04483C20.4992 4.03647 20.5032 4.01879 20.5072 3.98687C20.5137 3.93541 20.5182 3.86382 20.5212 3.75563L20.5212 3.75563L20.5214 3.75201C20.5279 3.56689 20.5265 3.49581 20.5216 3.45565C20.52 3.44256 20.5185 3.43805 20.5177 3.4356L20.5177 3.43558C20.5162 3.43111 20.5121 3.41966 20.4981 3.39176L20.4981 3.39179L20.4946 3.38452C20.463 3.31882 20.3896 3.29759 20.3325 3.32691ZM20.4655 4.08061C20.4655 4.08059 20.465 4.08076 20.4639 4.08115L20.4655 4.08061ZM20.5028 4.03819C20.5026 4.03826 20.5014 4.03951 20.4999 4.04175C20.5022 4.03924 20.503 4.03812 20.5028 4.03819Z" fill="#20545F" stroke="#20545F"/>
<path d="M20.7233 7.98446L20.7234 7.98451L20.7166 7.98898C20.7099 7.99341 20.7034 7.99764 20.697 8.00165C20.6851 8.06813 20.6723 8.17013 20.6591 8.32799C20.6122 8.89388 20.574 10.0016 20.4965 12.2496C20.4843 12.6058 20.471 12.9907 20.4566 13.4067L20.4566 13.4068C20.3511 16.4226 20.2676 19.0246 20.2676 19.2108C20.2676 19.394 20.2855 19.455 20.2918 19.4708C20.2953 19.474 20.3046 19.4822 20.3249 19.4952C20.3271 19.4959 20.3302 19.4968 20.3344 19.4979C20.3517 19.5023 20.3758 19.5061 20.4029 19.5073C20.4156 19.5079 20.427 19.5078 20.437 19.5074C20.4753 19.4734 20.5277 19.426 20.5933 19.3658C20.7341 19.2366 20.9287 19.0553 21.1599 18.8381C21.6218 18.4042 22.2256 17.8314 22.8278 17.2565C23.43 16.6816 24.0298 16.1055 24.4839 15.6648C24.7111 15.4442 24.9007 15.2587 25.0356 15.1246C25.1033 15.0572 25.1554 15.0046 25.191 14.9678C25.1937 14.965 25.1962 14.9624 25.1986 14.9599C25.2009 14.9471 25.2009 14.9296 25.1942 14.9074C25.1833 14.8709 25.16 14.8424 25.1331 14.8267C25.0997 14.8107 25.0786 14.8027 25.067 14.7988C25.0641 14.7998 25.0606 14.8012 25.0566 14.8028L25.0545 14.8044C25.0282 14.8254 24.9891 14.8582 24.9368 14.9036C24.8328 14.9937 24.6895 15.1224 24.516 15.2813C24.1698 15.5984 23.712 16.0279 23.2259 16.4931L23.2243 16.4946C22.734 16.9596 22.2877 17.3817 21.9632 17.6873C21.8011 17.8399 21.6688 17.964 21.5765 18.0499C21.5306 18.0926 21.4934 18.127 21.467 18.151C21.4543 18.1626 21.4417 18.174 21.4312 18.1832C21.4268 18.187 21.4178 18.1948 21.4075 18.2031L21.4073 18.2032C21.4036 18.2062 21.3898 18.2172 21.3716 18.2294L21.3713 18.2296C21.3645 18.2341 21.3381 18.2518 21.3016 18.2686C21.286 18.2757 21.239 18.2969 21.1745 18.3076C21.1358 18.314 20.9183 18.3472 20.739 18.1679L20.739 18.1679C20.6464 18.0752 20.617 17.9701 20.6142 17.9601C20.6141 17.9598 20.6141 17.9596 20.614 17.9594C20.6051 17.9301 20.6009 17.9063 20.5992 17.8963C20.5955 17.8742 20.5941 17.8566 20.5937 17.8507C20.5926 17.8361 20.5922 17.8239 20.5921 17.8191C20.5918 17.8072 20.5918 17.7947 20.5919 17.7848C20.592 17.7636 20.5924 17.7349 20.5931 17.701C20.5945 17.6322 20.597 17.5328 20.6006 17.4068C20.6076 17.1545 20.6188 16.7912 20.6333 16.3443C20.6622 15.4504 20.7043 14.2196 20.7527 12.867C20.8369 10.4329 20.8787 9.2088 20.8897 8.5735C20.8952 8.25542 20.8923 8.10621 20.8863 8.0317C20.866 8.0062 20.8369 7.98686 20.8035 7.97778C20.7617 7.96639 20.7355 7.97615 20.7233 7.98446ZM20.7739 17.4295L20.774 17.4294L20.7739 17.4295ZM20.3857 19.5518C20.3822 19.5545 20.3802 19.5561 20.3801 19.5562C20.38 19.5564 20.3818 19.555 20.3857 19.5518ZM25.2333 14.9224C25.2331 14.9225 25.2311 14.9248 25.2278 14.9287C25.2319 14.9242 25.2335 14.9222 25.2333 14.9224Z" fill="#20545F" stroke="#20545F"/>
<path d="M9.06415 8.02939C9.06318 8.02965 9.06229 8.0299 9.06148 8.03013C9.03201 8.04987 9.01938 8.06908 9.01321 8.08303C9.00801 8.09478 9.00275 8.11339 9.00411 8.1413C9.01108 8.15281 9.02127 8.16847 9.0354 8.1882C9.07905 8.24915 9.14267 8.32446 9.21654 8.40057C9.29028 8.47654 9.36504 8.54384 9.42744 8.59177C9.45583 8.61357 9.47736 8.62805 9.49158 8.63662C9.50919 8.63884 9.52687 8.63587 9.54665 8.62615C9.57123 8.61406 9.60596 8.58726 9.6368 8.53492C9.63676 8.53143 9.63651 8.52665 9.63577 8.52049C9.6324 8.49223 9.62019 8.45205 9.59437 8.41035C9.56186 8.35948 9.47781 8.26149 9.36928 8.16041C9.31813 8.11278 9.27017 8.07255 9.23165 8.04378C9.21729 8.03306 9.20673 8.0258 9.19974 8.02118C9.19795 8.02094 9.19594 8.02069 9.1937 8.02044C9.17556 8.01845 9.15177 8.01786 9.12576 8.01977C9.09961 8.02169 9.07814 8.02564 9.06415 8.02939ZM8.99274 8.1206C8.9927 8.12058 8.99311 8.12155 8.99411 8.12355C8.99329 8.12161 8.99279 8.12061 8.99274 8.1206Z" fill="#20545F" stroke="#20545F"/>
<path d="M31.5636 8.02628C31.5508 8.02897 31.541 8.0316 31.5348 8.03349C31.4718 8.06738 31.367 8.15664 31.2725 8.28228C31.2272 8.34247 31.1946 8.39763 31.1752 8.43979C31.1738 8.44278 31.1726 8.44559 31.1714 8.44823C31.1775 8.46116 31.1855 8.47623 31.1955 8.49237C31.212 8.51896 31.2289 8.54049 31.2421 8.55448C31.2432 8.55559 31.2441 8.55659 31.245 8.55748C31.2492 8.559 31.2546 8.56073 31.2613 8.56241C31.2762 8.56614 31.2935 8.56867 31.3113 8.5693C31.3254 8.5698 31.3375 8.56904 31.3468 8.56781C31.3625 8.55524 31.3828 8.53831 31.4068 8.51727C31.4638 8.46733 31.5311 8.40383 31.5927 8.34046C31.6619 8.26746 31.7047 8.21605 31.7315 8.1783C31.7404 8.16576 31.7465 8.15608 31.7507 8.14901C31.7472 8.13713 31.7413 8.12005 31.7315 8.09626C31.709 8.04256 31.6893 8.02878 31.6871 8.02727C31.6871 8.02725 31.6871 8.02723 31.687 8.0272C31.6857 8.02623 31.6737 8.01741 31.6338 8.01741C31.6298 8.01741 31.6204 8.01775 31.6063 8.01936C31.5926 8.02093 31.5778 8.02331 31.5636 8.02628Z" fill="#20545F" stroke="#20545F"/>
<path d="M4.52364 19.2147C4.45203 19.2237 4.42232 19.2331 4.42082 19.2328C4.3914 19.2496 4.36889 19.2812 4.36727 19.3328C4.36557 19.3867 4.38857 19.4298 4.42887 19.4555C4.43162 19.456 4.43527 19.4565 4.43997 19.4572C4.49126 19.4641 4.58405 19.468 4.79342 19.468C4.92495 19.468 5.01785 19.4648 5.08689 19.4583C5.13865 19.4535 5.16733 19.4475 5.18148 19.4437C5.18696 19.4366 5.1957 19.4243 5.208 19.4044C5.21812 19.3873 5.22722 19.3535 5.2156 19.3075C5.20664 19.272 5.18951 19.2462 5.17238 19.23C5.15724 19.2265 5.1355 19.2223 5.10662 19.2181C5.02942 19.2069 4.92839 19.1999 4.81972 19.1992C4.71136 19.1986 4.607 19.2042 4.52364 19.2147ZM5.19359 19.2358C5.19362 19.2358 5.1928 19.2355 5.19101 19.2349C5.19266 19.2355 5.19355 19.2358 5.19359 19.2358Z" fill="#20545F" stroke="#20545F"/>
<path d="M35.7402 19.391C35.7549 19.4151 35.7699 19.435 35.7823 19.449C35.7941 19.4518 35.8121 19.4554 35.8372 19.4592C35.9007 19.4686 35.9814 19.4742 36.0674 19.4742C36.1533 19.4742 36.234 19.4686 36.2975 19.4592C36.3226 19.4554 36.3406 19.4518 36.3524 19.449C36.3648 19.435 36.3798 19.4151 36.3945 19.391C36.4066 19.3711 36.416 19.3526 36.4225 19.3374C36.4176 19.3261 36.4108 19.3126 36.4018 19.298C36.3883 19.2759 36.3737 19.2573 36.361 19.2441C36.3564 19.2392 36.3528 19.236 36.3505 19.234C36.3439 19.2317 36.3209 19.2237 36.2764 19.2158C36.217 19.2053 36.1425 19.199 36.0628 19.1992C35.9832 19.1994 35.9085 19.2061 35.8487 19.2168C35.8121 19.2234 35.7899 19.2299 35.7791 19.2334C35.7777 19.2349 35.776 19.2366 35.7741 19.2386C35.7619 19.2518 35.7474 19.2708 35.7339 19.2936C35.7243 19.3096 35.7171 19.3245 35.712 19.3369C35.7185 19.3522 35.728 19.3709 35.7402 19.391Z" fill="#20545F" stroke="#20545F"/>
<path d="M17.2835 27.0621L17.2835 27.0621C17.3784 26.7173 17.6831 26.1214 17.9204 25.823L17.2835 27.0621ZM17.2835 27.0621L17.2828 27.0643M17.2835 27.0621L17.2828 27.0643M17.2828 27.0643C17.2519 27.1747 17.22 27.4465 17.208 27.7726C17.1962 28.0941 17.2067 28.3833 17.2307 28.5204C17.4754 29.892 18.577 30.9907 19.9806 31.2405L19.9806 31.2405M17.2828 27.0643L19.9806 31.2405M19.9806 31.2405L19.9825 31.2408M19.9806 31.2405L19.9825 31.2408M19.9825 31.2408C20.4146 31.3194 21.0331 31.2856 21.449 31.1612L21.449 31.1612M19.9825 31.2408L21.449 31.1612M21.449 31.1612L21.4522 31.1603M21.449 31.1612L21.4522 31.1603M21.4522 31.1603C22.7239 30.7891 23.6528 29.741 23.862 28.4494C23.888 28.2807 23.8955 28.017 23.8802 27.7368C23.8648 27.4542 23.8287 27.2017 23.7866 27.0533L23.7864 27.0528M21.4522 31.1603L23.7864 27.0528M23.7864 27.0528C23.3855 25.6366 22.1772 24.6645 20.725 24.5765L20.725 24.5765M23.7864 27.0528L20.725 24.5765M20.725 24.5765L20.7213 24.5763M20.725 24.5765L20.7213 24.5763M20.7213 24.5763C20.5692 24.5659 20.318 24.573 20.1776 24.5872M20.7213 24.5763L20.1776 24.5872M20.1776 24.5872C19.2941 24.6868 18.4622 25.1433 17.9205 25.8229L20.1776 24.5872ZM21.2589 24.9278L21.2589 24.9278L21.2625 24.9287C22.1556 25.1418 22.9408 25.7925 23.3398 26.6354L23.34 26.6358C24.0273 28.0914 23.4145 29.8941 21.9929 30.6402L21.9924 30.6405C21.7474 30.7687 21.5259 30.8636 21.2831 30.923C21.0405 30.9823 20.8002 31.0004 20.524 31.0004L20.5212 31.0003C19.6239 30.9954 18.8961 30.6711 18.2823 30.0127L18.648 29.6717L18.283 30.0135C16.8714 28.5061 17.3368 26.0711 19.1923 25.1559L19.1923 25.1559L19.1954 25.1544C19.3637 25.0728 19.6274 24.9765 19.797 24.9341L19.797 24.9341L19.7999 24.9334C20.0169 24.8805 20.2853 24.8593 20.5312 24.8587C20.7776 24.8582 21.0441 24.8782 21.2589 24.9278Z" fill="#20545F" stroke="#20545F"/>
<path d="M32.9822 30.8013L32.9823 30.8013L32.9829 30.8096C32.987 30.8678 32.9977 30.8846 32.9983 30.8855C32.9983 30.8855 32.9983 30.8855 32.9983 30.8855C32.9983 30.8855 32.9983 30.8855 32.9983 30.8855C32.9985 30.8858 33.0012 30.8909 33.0117 30.9004C33.0819 30.9076 33.2121 30.9142 33.4637 30.919C33.985 30.9289 34.9545 30.9299 36.8124 30.9299C38.7598 30.9299 39.7266 30.9299 40.2232 30.919C40.4109 30.9149 40.5154 30.9094 40.5736 30.9042C40.5938 30.884 40.6094 30.8634 40.6202 30.8446C40.6327 30.8228 40.6356 30.8095 40.6362 30.8062C40.6359 30.8032 40.6349 30.7959 40.6317 30.7845C40.6271 30.7683 40.6194 30.7491 40.6088 30.7297C40.6019 30.7171 40.5947 30.7061 40.5879 30.697C40.5195 30.6901 40.396 30.6833 40.1651 30.6779C39.6547 30.666 38.6983 30.6618 36.8446 30.6554C36.8445 30.6554 36.8444 30.6554 36.8443 30.6554L33.1148 30.6473L33.0376 30.6859C33.0033 30.7035 32.9895 30.7162 32.9852 30.7211C32.983 30.7276 32.9777 30.7506 32.9822 30.8013ZM40.5261 30.944C40.5261 30.944 40.5266 30.9436 40.5277 30.9428C40.5267 30.9435 40.5261 30.9439 40.5261 30.944ZM32.9835 30.7233C32.9836 30.7233 32.9841 30.7227 32.9848 30.7216C32.9838 30.7227 32.9835 30.7233 32.9835 30.7233ZM32.9854 30.7203C32.9859 30.7195 32.986 30.719 32.986 30.719L32.9854 30.7203Z" fill="#20545F" stroke="#20545F"/>
<path d="M0.509141 40.5132C0.508225 40.5104 0.507055 40.5063 0.505832 40.5009C0.501547 40.4819 0.499012 40.4566 0.500364 40.429C0.501566 40.4045 0.505471 40.3855 0.508987 40.3739C0.511998 40.3707 0.514806 40.3677 0.517418 40.3649C0.547807 40.3598 0.60522 40.3521 0.704578 40.3456C1.07556 40.3213 1.79506 40.3213 3.30524 40.3214C3.40522 40.3214 3.50867 40.3214 3.61571 40.3214C4.93904 40.3214 5.73293 40.3193 6.19597 40.3108C6.42454 40.3066 6.58627 40.3007 6.69439 40.2911C6.74355 40.2867 6.80952 40.2794 6.87236 40.2627C6.89986 40.2553 6.9668 40.2363 7.03731 40.1903C7.10692 40.1448 7.2704 40.0089 7.2704 39.7625C7.2704 39.7276 7.26662 39.7004 7.26552 39.6925C7.26386 39.6806 7.2621 39.671 7.26101 39.6654C7.25883 39.6541 7.25663 39.6447 7.2554 39.6395C7.25277 39.6284 7.24989 39.6175 7.24761 39.6091C7.24279 39.5913 7.23641 39.5688 7.22909 39.5435C7.21424 39.4923 7.19283 39.4202 7.16587 39.3306C7.11182 39.1509 7.03394 38.8955 6.93814 38.5836C6.7465 37.9597 6.48235 37.1073 6.19198 36.1773C5.61469 34.3249 5.3291 33.4033 5.20296 32.8866C5.13998 32.6286 5.12675 32.5093 5.12685 32.4442C5.12692 32.398 5.13204 32.3715 5.16355 32.2751L4.6883 32.1198M0.509141 40.5132L25.0423 37.0495M0.509141 40.5132C0.510196 40.5144 0.511398 40.5158 0.512754 40.5173C0.518409 40.5236 0.525177 40.5306 0.532665 40.5379C0.60138 40.5425 0.713486 40.5471 0.896937 40.5513C1.31485 40.5609 2.06501 40.5675 3.42587 40.5717C6.14513 40.5801 11.285 40.5791 21.0377 40.5749C21.0377 40.5749 21.0377 40.5749 21.0378 40.5749L41.4224 40.5624C41.4782 40.5167 41.4939 40.4773 41.498 40.4592C41.5013 40.4447 41.5028 40.4226 41.4839 40.3884C41.4216 40.3806 41.3317 40.3731 41.2021 40.3665C40.661 40.339 39.602 40.3348 37.4623 40.3264C37.0869 40.3249 36.6782 40.3233 36.2332 40.3214C36.2332 40.3214 36.2332 40.3214 36.2332 40.3214C36.2331 40.3214 36.2331 40.3214 36.233 40.3214L30.8492 40.3004L30.3783 40.2985L30.352 39.8283L30.3225 39.3026L30.3224 39.2999C30.2762 38.3882 30.0121 37.5596 29.5337 36.8094L29.5334 36.809C29.448 36.6748 28.982 36.0693 28.4702 35.4229C27.9622 34.7814 27.462 34.1663 27.3196 34.0144C26.8753 33.544 26.185 33.0762 25.548 32.8202C25.3652 32.749 24.6045 32.5299 23.8382 32.3352L23.8381 32.3352C23.0823 32.1429 22.7394 32.0598 22.55 32.0389C22.524 32.0361 22.5059 32.035 22.4939 32.0348C22.4921 32.0361 22.4901 32.0375 22.488 32.0391C22.4855 32.0423 22.4825 32.0463 22.4792 32.0512C22.4712 32.0626 22.4634 32.0752 22.4566 32.0875C22.4496 32.1001 22.4458 32.1087 22.4444 32.112L22.4445 32.112L22.4421 32.1178C22.4365 32.1311 22.432 32.1423 22.4282 32.1518L0.509141 40.5132ZM4.6883 32.1198L5.16264 32.2779C5.17817 32.2313 5.23884 32.1281 5.34957 32.0136C5.44979 31.9099 5.53947 31.8502 5.58427 31.829C5.5979 31.8269 5.63238 31.8223 5.70068 31.8178C5.8231 31.8096 6.02002 31.8032 6.34803 31.7985C7.00134 31.7891 8.13806 31.7869 10.1564 31.7869H10.1568C10.4615 31.7867 10.7464 31.7864 11.0129 31.7861C12.9889 31.784 13.9549 31.7829 14.4665 31.8134C14.764 31.8311 14.8368 31.8575 14.8488 31.8627C14.8491 31.8629 14.8494 31.863 14.8496 31.863C14.8528 31.8671 14.8726 31.8873 14.9666 31.9698L14.9693 31.9721L14.9693 31.9721C15.0384 32.0319 15.0776 32.0788 15.1196 32.1557C15.1703 32.2484 15.227 32.3885 15.3144 32.6486C15.3145 32.6488 15.3146 32.649 15.3146 32.6492L15.4446 33.0392L15.6303 33.596L16.1505 33.3243L17.2759 32.7364C17.2762 32.7362 17.2765 32.7361 17.2768 32.7359C17.5832 32.5775 17.8752 32.4305 18.099 32.3222C18.2115 32.2678 18.3035 32.2247 18.37 32.1952C18.3826 32.1897 18.3937 32.1849 18.4034 32.1807C18.4151 32.184 18.4293 32.1889 18.4448 32.196C18.4684 32.2068 18.4873 32.2189 18.4996 32.2287C18.5001 32.2291 18.5006 32.2296 18.5011 32.23C18.5017 32.2319 18.5023 32.2342 18.503 32.237C18.5068 32.2531 18.5106 32.2785 18.5106 32.3133C18.5106 32.3345 18.5103 32.3509 18.5099 32.3632C18.5073 32.3653 18.5045 32.3677 18.5014 32.3701C18.364 32.4796 18.0626 32.6421 17.3378 33.0176L17.3358 33.0186L16.0992 33.6664L15.7271 33.8613L15.8549 34.2614L16.0778 34.9596L16.0788 34.9626C16.2051 35.3501 16.5294 36.3397 16.8033 37.1613L16.8035 37.1621L17.3041 38.6554L17.4184 38.9964H17.7782H18.8465H19.9149H20.4077L20.4149 38.5037L20.4359 37.0525L20.4359 37.052C20.4467 36.2479 20.4526 35.9051 20.478 35.7317C20.4782 35.7304 20.4784 35.7291 20.4786 35.7279C20.5003 35.7131 20.5405 35.7017 20.5905 35.7133C20.6416 35.7251 20.6624 35.7508 20.6677 35.7612L20.6715 35.7687L20.6715 35.7686C20.6723 35.7701 20.673 35.7714 20.6735 35.7725C20.6762 35.7856 20.6818 35.8221 20.6864 35.9097C20.6966 36.1022 20.6978 36.4406 20.6978 37.1084V38.5175V39.0175H21.1978H21.7194H22.2368H22.4113L22.5479 38.9089L22.7119 38.7785L22.7141 38.7768C22.8619 38.658 23.1807 38.5105 23.3935 38.4704L23.399 38.4694L23.399 38.4694C23.5004 38.4491 24.0082 38.3797 24.5348 38.3203L24.5388 38.3198L24.5388 38.3198C24.8001 38.2882 25.0476 38.2574 25.2358 38.2323C25.3295 38.2198 25.4112 38.2083 25.4736 38.1986C25.5044 38.1938 25.534 38.1889 25.5596 38.184L25.5612 38.1838C25.5725 38.1817 25.6312 38.171 25.6865 38.1489L25.6978 38.1443L25.6978 38.1442C25.7843 38.1071 25.9089 38.0253 25.9766 37.8656C26.0391 37.718 26.0175 37.5853 25.9995 37.5173C25.9679 37.3976 25.8984 37.2997 25.8655 37.2538C25.7813 37.1364 25.6341 36.9644 25.4181 36.7197M4.6883 32.1198C4.78505 31.8295 5.15099 31.4552 5.4244 31.3542L5.71463 36.326C4.56632 32.6413 4.54529 32.5572 4.6883 32.1198ZM25.4181 36.7197C25.4178 36.7193 25.4176 36.719 25.4173 36.7187L25.0423 37.0495M25.4181 36.7197C25.4184 36.72 25.4187 36.7203 25.4189 36.7206L25.0423 37.0495M25.4181 36.7197C25.277 36.5581 25.1452 36.4008 25.0473 36.2789C24.9991 36.219 24.9615 36.1705 24.9359 36.1358M25.0423 37.0495C24.7521 36.7172 24.4955 36.3975 24.4745 36.3428M24.9359 36.1358C24.9368 36.1469 24.9391 36.1577 24.9429 36.1681L24.4745 36.3428M24.9359 36.1358C24.9352 36.1349 24.9346 36.134 24.9339 36.1332C24.9219 36.1168 24.9149 36.1068 24.9118 36.1021M24.9359 36.1358C24.9314 36.0828 24.9584 36.0251 24.9988 36.0006M24.4745 36.3428L24.9412 36.1633C24.9299 36.1342 24.9177 36.1119 24.9118 36.1021M24.4745 36.3428L24.9118 36.1021M24.9118 36.1021L27.4007 37.9494C27.38 37.9574 27.3597 37.9637 27.3398 37.9687C27.1718 38.0109 27.0349 37.9557 26.9902 37.9359C26.9246 37.9068 26.8727 37.8695 26.8411 37.8451C26.7748 37.794 26.7034 37.7255 26.6314 37.6521C26.4827 37.5006 26.2651 37.2596 25.9553 36.91L25.9535 36.9081C25.7313 36.6547 25.5161 36.4168 25.3494 36.2383C25.2657 36.1487 25.1964 36.0763 25.1454 36.0251C25.1336 36.0133 25.1233 36.0031 25.1145 35.9946C25.1017 35.9922 25.0855 35.9905 25.0672 35.9905C25.0448 35.9906 25.0253 35.9934 25.011 35.9969C25.0046 35.9985 25.0006 35.9999 24.9988 36.0006M24.9988 36.0006C24.9981 36.0009 24.9978 36.001 24.9978 36.001C24.9978 36.001 24.9981 36.0008 24.9987 36.0005C24.9994 36.0002 25.0003 35.9997 25.0016 35.9989L24.9988 36.0006M24.9988 36.0006L24.9988 36.0006M24.9988 36.0006L24.9988 36.0006M27.7388 38.1733C27.7223 38.1768 27.7019 38.1808 27.6771 38.1854C27.5827 38.2028 27.4446 38.2248 27.2572 38.2518C26.8835 38.3057 26.3318 38.3766 25.58 38.4669L25.5789 38.467C24.586 38.5885 24.0263 38.6592 23.695 38.7119C23.3711 38.7635 23.1974 38.8065 23.0283 38.9056C22.8785 38.9923 22.7455 39.1196 22.651 39.2352C22.6016 39.2956 22.5522 39.3656 22.5125 39.4408C22.4799 39.5024 22.4224 39.6249 22.4224 39.7751C22.4224 40.0648 22.6467 40.1949 22.6729 40.21L22.6736 40.2105C22.7309 40.2438 22.7822 40.2583 22.7999 40.2632C22.8432 40.2751 22.8832 40.2805 22.9036 40.283C22.9516 40.2889 23.0107 40.2929 23.0736 40.296C23.2036 40.3023 23.3975 40.3072 23.6615 40.3108C24.1917 40.3183 25.0277 40.3214 26.2537 40.3214H29.5809H30.1081L30.0802 39.7949L30.0549 39.3196L30.0549 39.3182C30.0081 38.4817 29.7085 37.5601 29.2627 36.9033L29.2617 36.9019C29.0796 36.6354 28.5551 35.9704 28.0618 35.3618C27.8118 35.0534 27.5642 34.7526 27.3635 34.5143C27.1747 34.2901 27.0006 34.0887 26.9136 34.0079L26.9089 34.0035L26.9089 34.0036C26.3222 33.4728 25.6522 33.1021 24.8869 32.8917C24.6693 32.8297 24.0222 32.6607 23.4429 32.5179M27.7388 38.1733L22.431 32.1616C22.4302 32.1588 22.4295 32.1562 22.4288 32.1537C22.4295 32.1555 22.431 32.159 22.4335 32.1644C22.4386 32.175 22.4457 32.1882 22.4543 32.2023C22.4629 32.2163 22.4713 32.2284 22.4783 32.2374C22.4821 32.2423 22.4845 32.2451 22.4854 32.2462M27.7388 38.1733C27.7507 38.1571 27.7643 38.1272 27.7643 38.0758C27.7643 38.031 27.7569 38.0066 27.7528 37.9965C27.7493 37.9877 27.7467 37.9857 27.7457 37.9848C27.7449 37.9841 27.7049 37.9493 27.572 37.9531L27.5577 37.4533L27.5724 37.9531C27.5094 37.9549 27.4452 37.9586 27.3945 37.963L27.7388 38.1733ZM23.4429 32.5179C23.4424 32.5178 23.442 32.5177 23.4416 32.5176L23.322 33.0031L23.4443 32.5183C23.4438 32.5181 23.4433 32.518 23.4429 32.5179ZM23.4429 32.5179C22.9608 32.3963 22.7169 32.3321 22.5773 32.2855C22.5267 32.2685 22.5024 32.2579 22.4927 32.2532M22.4927 32.2532L22.4936 32.2541C22.4987 32.2592 22.4984 32.2585 22.4949 32.2557L22.4932 32.2545L22.4898 32.252C22.4892 32.2517 22.4888 32.2514 22.4884 32.2511C22.4877 32.2507 22.4873 32.2505 22.4874 32.2505C22.4879 32.2508 22.4896 32.2517 22.4927 32.2532ZM22.4927 32.2532L22.4885 32.2491L22.4854 32.2462M22.4854 32.2462C22.4857 32.2465 22.4858 32.2466 22.4858 32.2466C22.4858 32.2466 22.485 32.2458 22.4833 32.2442L22.4854 32.2462ZM16.074 35.8281L16.0739 35.8281L14.9341 32.3874L14.8205 32.0446H14.4594H10.169C8.14003 32.0446 7.06284 32.0456 6.49644 32.0552C6.22075 32.0598 6.04159 32.0667 5.92998 32.0802L5.92715 32.0805C5.88772 32.0853 5.77839 32.0984 5.67506 32.1548C5.61016 32.1902 5.49834 32.2692 5.43854 32.4208C5.37932 32.5711 5.4072 32.7018 5.42584 32.7626M16.074 35.8281L5.90391 32.6161M16.074 35.8281C16.3995 36.8111 16.6932 37.6818 16.9116 38.3137C17.0209 38.63 17.1106 38.8846 17.1757 39.063C17.2024 39.1361 17.2241 39.1942 17.241 39.2376M16.074 35.8281L17.241 39.2376M5.42584 32.7626C5.42612 32.7635 5.42639 32.7644 5.42667 32.7652L5.90391 32.6161M5.42584 32.7626C5.42547 32.7613 5.42518 32.7604 5.42499 32.7598L5.90391 32.6161M5.42584 32.7626C5.45261 32.8502 5.95304 34.4598 6.54949 36.3734M5.90391 32.6161C5.90782 32.6291 5.95901 32.7941 6.04583 33.0735C6.03868 33.0744 6.03558 33.0751 6.03583 33.0752C6.03608 33.0753 6.03965 33.0748 6.04585 33.0735C6.23915 33.6955 6.60903 34.8842 7.02698 36.2251L6.54933 36.3729C6.54938 36.3731 6.54944 36.3732 6.54949 36.3734M6.54949 36.3734C6.85036 37.3455 7.12705 38.2323 7.32961 38.8784C7.4309 39.2015 7.51372 39.4646 7.5718 39.6481C7.60082 39.7398 7.6238 39.8121 7.63986 39.8622L7.65921 39.9221L7.66606 39.9427L7.67052 39.9554L7.67532 39.9682L7.67537 39.9684C7.67607 39.9702 7.68333 39.9892 7.69442 40.0114L7.70301 40.0285L7.71289 40.045C7.77047 40.141 7.84463 40.1917 7.87537 40.211C7.9121 40.2342 7.94418 40.2477 7.96175 40.2545C7.99706 40.2682 8.02625 40.2748 8.03765 40.2773C8.06361 40.2829 8.08519 40.2855 8.09326 40.2864C8.11311 40.2887 8.13243 40.29 8.14544 40.2907C8.1741 40.2924 8.21092 40.2937 8.25221 40.2949C8.33633 40.2972 8.45682 40.2993 8.608 40.3011C8.91118 40.3048 9.34673 40.3077 9.88158 40.3098C10.9517 40.3141 12.4238 40.3151 14.0394 40.313C15.6551 40.3109 16.9666 40.3056 17.7778 40.2993C18.1818 40.2962 18.4662 40.2927 18.6018 40.2892C18.6342 40.2883 18.6657 40.2873 18.6894 40.2858C18.6957 40.2854 18.705 40.2847 18.7153 40.2837L18.7159 40.2837C18.7211 40.2832 18.7501 40.2804 18.7841 40.2725C18.7948 40.27 18.8144 40.2651 18.8381 40.2567C18.8544 40.2509 18.9095 40.2311 18.969 40.1871C19.0128 40.1547 19.2032 39.9989 19.1676 39.7214C19.1373 39.4851 18.9625 39.3769 18.9356 39.3603L18.9348 39.3598C18.8843 39.3285 18.8399 39.3138 18.8243 39.3088C18.8036 39.3021 18.7865 39.2981 18.7766 39.2959C18.7568 39.2917 18.7408 39.2894 18.7336 39.2885C18.6857 39.2822 18.5956 39.2807 18.5207 39.2795L18.514 39.2794L18.5129 39.2794C17.7471 39.2686 17.4127 39.2618 17.241 39.2376M6.54949 36.3734L17.241 39.2376M6.40896 32.5569L6.40851 32.5555L6.38963 32.4945L6.3844 32.4776C6.38355 32.4748 6.38309 32.4733 6.38289 32.4726L6.40896 32.5569ZM6.40896 32.5569C6.94029 32.5458 8.01506 32.5446 10.169 32.5446H14.4594L6.40896 32.5569ZM21.3156 39.8088L21.2524 40.2195C21.2768 40.2354 21.2956 40.2446 21.3038 40.2486L21.3046 40.249C21.3477 40.27 21.3867 40.2808 21.4081 40.2857C21.4082 40.2857 21.4083 40.2857 21.4083 40.2857C21.4158 40.2841 21.425 40.2818 21.4354 40.2788C21.45 40.2746 21.4886 40.2629 21.5341 40.2379L21.5351 40.2373C21.5408 40.2342 21.5525 40.2278 21.5678 40.2177C21.5693 40.2167 21.5709 40.2156 21.5725 40.2145C21.6267 40.1779 21.7203 40.0982 21.7666 39.9574C21.8522 39.6971 21.706 39.5052 21.6342 39.4378C21.5687 39.3764 21.5032 39.3492 21.4863 39.3422C21.4613 39.3319 21.4409 39.3259 21.4302 39.323L21.5028 39.7955C21.5322 39.7988 21.5349 39.8038 21.5049 39.8088C21.4774 39.813 21.4425 39.8151 21.4081 39.8151C21.3741 39.8151 21.3407 39.813 21.3156 39.8088ZM21.3156 39.8088L21.2477 40.2164C21.2034 40.1867 21.1429 40.1358 21.0955 40.0555C21.0496 39.9777 21.0169 39.8731 21.0285 39.7536C21.0396 39.6388 21.0875 39.5526 21.129 39.4984C21.2008 39.4048 21.2859 39.3637 21.3059 39.3541L21.3063 39.3539C21.3383 39.3384 21.3647 39.3301 21.3768 39.3265C21.3816 39.325 21.3862 39.3238 21.3904 39.3227C21.3927 39.3221 21.3948 39.3215 21.3969 39.321C21.4011 39.32 21.4049 39.3191 21.4081 39.3184C21.4087 39.3183 21.4093 39.3182 21.4098 39.318C21.4139 39.3189 21.4185 39.32 21.4236 39.3213L21.5027 39.7955C21.4827 39.7933 21.4506 39.792 21.4081 39.792C21.3685 39.792 21.3378 39.7932 21.3179 39.7951C21.3178 39.7951 21.3178 39.7951 21.3177 39.7951C21.285 39.7983 21.2816 39.8036 21.3156 39.8088ZM0.460918 40.531C0.460852 40.531 0.46215 40.5312 0.465013 40.5316C0.462415 40.5311 0.460984 40.5309 0.460918 40.531ZM25.375 37.2012C25.3809 37.2001 25.3833 37.1995 25.3829 37.1995C25.3826 37.1995 25.3798 37.2001 25.375 37.2012ZM27.7887 38.1616C27.7886 38.1616 27.7869 38.1621 27.7838 38.163C27.7872 38.1621 27.7887 38.1617 27.7887 38.1616ZM18.4464 32.1632C18.4502 32.162 18.4523 32.1612 18.4522 32.1612C18.4521 32.1612 18.4502 32.1618 18.4464 32.1632ZM6.39987 32.5571C6.39595 32.5214 6.38879 32.4924 6.38282 32.4724L6.38118 32.467L6.38115 32.467L6.39987 32.5571ZM21.5871 40.302L21.5871 40.302L21.5809 40.303C21.4791 40.3187 21.3431 40.3198 21.2366 40.3025C21.2214 40.3001 21.1975 40.2959 21.1706 40.2887C21.1565 40.285 21.1321 40.2779 21.1034 40.266C21.084 40.258 21.0168 40.2298 20.9502 40.1674C20.8773 40.099 20.7308 39.9062 20.8167 39.6449C20.8785 39.457 21.0244 39.3769 21.0513 39.3622L21.0522 39.3617C21.1267 39.3206 21.1969 39.3081 21.2086 39.306L21.2098 39.3058C21.2781 39.293 21.3584 39.292 21.4081 39.292C21.4593 39.292 21.5374 39.2931 21.6043 39.3053L21.6056 39.3055C21.6188 39.3079 21.6782 39.3185 21.7438 39.3506L21.7444 39.3509C21.7688 39.3628 21.8798 39.417 21.9564 39.5468C22.0027 39.6251 22.0355 39.7302 22.0238 39.8501C22.0127 39.9655 21.9646 40.0521 21.9227 40.1068C21.8498 40.2019 21.7628 40.2439 21.7413 40.2543L21.7411 40.2544C21.707 40.2709 21.6778 40.2802 21.6623 40.2848C21.6301 40.2944 21.6021 40.2995 21.5871 40.302ZM25.0837 35.9655C25.0811 35.9631 25.0799 35.9622 25.0801 35.9624C25.0803 35.9626 25.0815 35.9637 25.0837 35.9655Z" fill="#20545F" stroke="#20545F"/>
<path d="M33.0233 32.8007L33.0233 32.8007C32.9952 32.7834 32.9829 32.7654 32.9762 32.7499C32.9684 32.732 32.9643 32.7076 32.9684 32.6793C32.975 32.6353 32.9982 32.5961 33.04 32.5715C33.0416 32.5715 33.0434 32.5714 33.0452 32.5713C33.0993 32.5695 33.1785 32.5677 33.2814 32.566C33.4866 32.5626 33.7781 32.5595 34.1349 32.5572C34.8482 32.5525 35.8184 32.5504 36.873 32.5525L33.0233 32.8007ZM33.0233 32.8007L33.0296 32.8047M33.0233 32.8007L33.0296 32.8047M33.0296 32.8047L33.0579 32.8228H36.811C38.7584 32.8228 39.7252 32.8227 40.2218 32.8118C40.4102 32.8077 40.5148 32.8021 40.5729 32.797M33.0296 32.8047L40.5729 32.797M40.5729 32.797C40.6319 32.7403 40.634 32.6997 40.634 32.6918C40.634 32.6839 40.6319 32.6431 40.5725 32.5862C40.5153 32.581 40.4123 32.5752 40.2269 32.5707C39.7378 32.5588 38.7869 32.5567 36.8731 32.5525L40.5729 32.797ZM40.6232 32.7909C40.6237 32.7908 40.6239 32.7908 40.6239 32.7908L40.6232 32.7909ZM40.5248 32.8368C40.5247 32.8368 40.5253 32.8364 40.5264 32.8356C40.5253 32.8363 40.5248 32.8367 40.5248 32.8368Z" fill="#20545F" stroke="#20545F"/>
<path d="M20.5006 33.5656L20.5006 33.5656C20.5177 33.5568 20.5561 33.5488 20.6053 33.565C20.6514 33.5801 20.6713 33.6042 20.677 33.6142C20.6778 33.617 20.6826 33.6322 20.6874 33.6632C20.6937 33.7042 20.6975 33.7558 20.6969 33.8115C20.6964 33.8672 20.6916 33.9184 20.6845 33.9586C20.6792 33.9885 20.6743 34.0028 20.6737 34.0051L20.6736 34.0052L20.6736 34.0052L20.5006 33.5656ZM20.5006 33.5656L20.4987 33.5665C20.4733 33.5795 20.4624 33.5881 20.4594 33.5908C20.4548 33.6007 20.4355 33.6515 20.4355 33.8023C20.4355 33.915 20.4409 33.967 20.4456 33.9925C20.4465 33.9975 20.4473 34.0007 20.4477 34.0023L20.5006 33.5656ZM20.4482 34.0038C20.4482 34.0038 20.4481 34.0037 20.4481 34.0037L20.4481 34.0037C20.4481 34.0037 20.4482 34.0038 20.4482 34.0038Z" fill="#20545F" stroke="#20545F"/>
<path d="M33.0237 34.4697C33.025 34.4696 33.0264 34.4696 33.0277 34.4695C33.0778 34.4671 33.1516 34.4646 33.2494 34.4623C33.4442 34.4577 33.7221 34.454 34.0707 34.4511C34.767 34.4453 35.7378 34.4432 36.8726 34.4453L33.0237 34.4697ZM33.0237 34.4697C33.0095 34.4808 32.9926 34.5013 32.9813 34.5382C32.9635 34.596 32.9744 34.6503 33.0005 34.6862L33.0005 34.6862L33.0014 34.6874C33.0432 34.694 33.1188 34.7032 33.2469 34.7107C33.714 34.7378 34.6253 34.735 36.5051 34.7293C36.6209 34.7289 36.7403 34.7286 36.8635 34.7282L33.0237 34.4697ZM40.5714 34.479C40.5918 34.4993 40.6075 34.5201 40.6184 34.5391C40.6309 34.5609 40.6338 34.5742 40.6345 34.5775C40.6341 34.5805 40.6331 34.5878 40.6299 34.5992C40.6253 34.6154 40.6177 34.6345 40.607 34.6539C40.6001 34.6666 40.5929 34.6776 40.586 34.6867C40.518 34.6936 40.3953 34.7003 40.1659 34.7057C39.6581 34.7177 38.707 34.7219 36.8638 34.7282L40.5714 34.479ZM40.5714 34.479C40.5141 34.4738 40.4112 34.4681 40.2265 34.4636C39.7373 34.4516 38.7864 34.4495 36.8727 34.4453L40.5714 34.479ZM32.9799 34.4724C32.9798 34.4724 32.9797 34.4724 32.9796 34.4725L32.9799 34.4724Z" fill="#20545F" stroke="#20545F"/>
<path d="M33.0343 36.5031L33.0343 36.5031C33.0029 36.4871 32.9901 36.4713 32.9843 36.4619C32.9785 36.4526 32.9707 36.435 32.9707 36.4017C32.9707 36.3454 32.9852 36.3196 32.9935 36.3084C32.9994 36.3004 33.0118 36.2868 33.038 36.2731C33.0405 36.273 33.0431 36.2729 33.0457 36.2728C33.0998 36.271 33.179 36.2692 33.282 36.2675C33.4872 36.2641 33.7786 36.2611 34.1355 36.2587C34.8488 36.254 35.8189 36.2519 36.8735 36.254L33.0343 36.5031ZM33.0343 36.5031L33.0388 36.5054M33.0343 36.5031L33.0388 36.5054M33.0388 36.5054L33.1151 36.5453H36.7989C38.6682 36.5453 39.6124 36.5453 40.112 36.5349C40.3661 36.5296 40.4824 36.5219 40.5406 36.5142C40.546 36.5134 40.5504 36.5128 40.5537 36.5122M33.0388 36.5054L40.5537 36.5122M40.5537 36.5122C40.5939 36.4925 40.61 36.4789 40.6149 36.4741C40.6176 36.468 40.6246 36.4478 40.6286 36.4019C40.6311 36.3612 40.6242 36.3476 40.6216 36.3424L40.6215 36.3423C40.6181 36.3356 40.6072 36.3169 40.5749 36.2879C40.5182 36.2826 40.415 36.2768 40.2275 36.2722C39.7383 36.2603 38.7874 36.2582 36.8736 36.254L40.5537 36.5122ZM40.6166 36.4721C40.6166 36.4721 40.6161 36.4726 40.6154 36.4736C40.6163 36.4726 40.6167 36.4722 40.6166 36.4721ZM40.6146 36.4748C40.614 36.4757 40.6138 36.4762 40.6138 36.4763L40.6146 36.4748Z" fill="#20545F" stroke="#20545F"/>
<path d="M33.0639 38.1686C33.0615 38.1687 33.0592 38.1688 33.0569 38.1689C33.0452 38.1763 33.0334 38.1846 33.0227 38.1928C33.0108 38.202 33.0039 38.2084 33.0017 38.2107C32.9943 38.2181 32.9883 38.2243 32.9835 38.2293C32.9819 38.2415 32.9801 38.2585 32.9781 38.2823L32.9781 38.2826C32.975 38.3184 32.9772 38.3418 32.9796 38.3553C32.9819 38.3679 32.9846 38.3727 32.9848 38.3731L32.9848 38.3731C32.9849 38.3732 32.9855 38.3747 32.9898 38.3785C32.9943 38.3824 33.0053 38.3908 33.027 38.4008C33.0331 38.4019 33.0444 38.4037 33.0626 38.4058C33.1353 38.414 33.2676 38.4214 33.5284 38.4266C34.0441 38.437 34.9922 38.4381 36.8081 38.4381H40.4937L40.564 38.4005L40.5661 38.3994C40.6019 38.3804 40.6176 38.3615 40.6246 38.3502C40.632 38.3385 40.6361 38.3255 40.6365 38.3097C40.6371 38.2862 40.6281 38.2358 40.5728 38.1804C40.5158 38.1752 40.4137 38.1695 40.2308 38.165C39.7444 38.1531 38.7989 38.151 36.8959 38.1468C35.8471 38.1468 34.879 38.1489 34.1636 38.1536C33.8056 38.156 33.5123 38.159 33.3043 38.1627C33.1999 38.1645 33.1194 38.1665 33.0639 38.1686ZM32.9954 38.1723C32.9956 38.1723 32.9986 38.1721 33.0037 38.1715C32.9977 38.1719 32.9952 38.1722 32.9954 38.1723Z" fill="#20545F" stroke="#20545F"/>
</svg>
