<svg xmlns="http://www.w3.org/2000/svg" version="1.1" xmlns:xlink="http://www.w3.org/1999/xlink" width="1000" height="1000"><style>
    #light-icon {
      display: inline;
    }
    #dark-icon {
      display: none;
    }

    @media (prefers-color-scheme: dark) {
      #light-icon {
        display: none;
      }
      #dark-icon {
        display: inline;
      }
    }
  </style><g id="light-icon"><svg xmlns="http://www.w3.org/2000/svg" version="1.1" xmlns:xlink="http://www.w3.org/1999/xlink" width="1000" height="1000"><g><g transform="matrix(15.151515151515152,0,0,15.151515151515152,60.606060606060566,0)"><svg xmlns="http://www.w3.org/2000/svg" version="1.1" xmlns:xlink="http://www.w3.org/1999/xlink" width="58" height="66"><svg width="58" height="66" viewBox="0 0 58 66" fill="none" xmlns="http://www.w3.org/2000/svg">
<path d="M13.3401 42.6786C24.8145 44.8414 32.6073 51.6105 37.9565 56.8442C37.7088 57.323 37.4942 57.8513 37.2631 58.4292C37.131 58.7759 36.9989 59.0896 36.8668 59.3702C31.6332 54.2521 16.8897 43.2565 0 45.766C0 45.7825 5.18414 41.1432 13.3401 42.6786Z" fill="#01794C"></path>
<path d="M48.7379 64.092C48.7379 64.9009 47.9619 65.7925 46.5586 65.7925C45.2378 65.7925 42.3981 64.9505 38.5017 61.0871C38.7163 60.6579 38.9145 60.1956 39.0961 59.7333C39.2777 59.2875 39.4593 58.8913 39.6244 58.5446C42.4971 61.4008 44.5444 63.4811 46.0468 63.4811C46.0468 63.4811 46.0963 62.441 47.1364 62.441C48.1766 62.441 48.7379 63.2665 48.7379 64.092Z" fill="#01794C"></path>
<path d="M41.9687 53.9217C40.2351 53.9217 38.8978 55.6057 37.7256 58.6105C36.1406 62.6885 34.7208 62.4739 34.3906 62.4243C33.9448 62.3418 33.5981 61.7639 33.7797 61.6649C33.9943 61.5658 33.8458 62.1272 34.5557 62.2758C34.8694 62.3418 35.9921 62.0116 35.5958 60.9549C35.4472 60.5587 34.7703 60.179 33.9448 60.179C33.1193 60.179 32.0957 60.6248 32.0957 61.8795C32.0957 63.1343 32.8552 63.9928 34.5887 63.9928C36.3223 63.9928 37.4614 62.4243 38.6502 59.5351C40.4498 55.1929 41.7541 55.4076 42.1668 55.5066C42.6126 55.6057 42.9593 56.167 42.7777 56.2661C42.563 56.3652 42.7116 55.8038 42.0017 55.6552C41.688 55.5892 40.5653 55.9194 40.9616 56.976C41.1102 57.3723 41.7871 57.752 42.6126 57.752C43.4381 57.752 44.4617 57.3062 44.4617 56.0515C44.4617 54.7802 43.7022 53.9217 41.9687 53.9217Z" fill="#01794C"></path>
<path d="M44.6599 42.6786C33.1854 44.8414 25.3927 51.6105 20.0435 56.8442C20.2911 57.323 20.5057 57.8513 20.7369 58.4292C20.8689 58.7759 21.001 59.0896 21.1331 59.3702C26.3668 54.2521 41.1102 43.2565 58 45.766C58 45.7825 52.8158 41.1432 44.6599 42.6786Z" fill="#01794C"></path>
<path d="M9.26196 64.092C9.26196 64.9009 10.0379 65.7925 11.4413 65.7925C12.7621 65.7925 15.6018 64.9505 19.4982 61.0871C19.2835 60.6579 19.0854 60.1956 18.9038 59.7333C18.7222 59.2875 18.5406 58.8913 18.3755 58.5446C15.5027 61.4008 13.4555 63.4811 11.9531 63.4811C11.9531 63.4811 11.9036 62.441 10.8634 62.441C9.80679 62.4244 9.26196 63.2665 9.26196 64.092Z" fill="#01794C"></path>
<path d="M16.0313 53.9217C17.7649 53.9217 19.1022 55.6057 20.2744 58.6105C21.8594 62.6885 23.2792 62.4739 23.6094 62.4243C24.0552 62.3418 24.4019 61.7639 24.2203 61.6649C24.0057 61.5658 24.1543 62.1272 23.4443 62.2758C23.1306 62.3418 22.008 62.0116 22.4042 60.9549C22.5528 60.5587 23.2297 60.179 24.0552 60.179C24.8807 60.179 25.9043 60.6248 25.9043 61.8795C25.9043 63.1343 25.1449 63.9928 23.4113 63.9928C21.6778 63.9928 20.5386 62.4243 19.3499 59.5351C17.5503 55.1929 16.246 55.4076 15.8332 55.5066C15.3875 55.6057 15.0407 56.167 15.2224 56.2661C15.437 56.3652 15.2884 55.8038 15.9983 55.6552C16.312 55.5892 17.4347 55.9194 17.0385 56.976C16.8899 57.3723 16.213 57.752 15.3875 57.752C14.562 57.752 13.5383 57.3062 13.5383 56.0515C13.5383 54.7802 14.2978 53.9217 16.0313 53.9217Z" fill="#01794C"></path>
<path d="M35.8598 14.2647C41.952 15.635 45.221 21.7602 42.5463 28.9751C41.9025 21.2154 38.8151 19.3828 35.1499 18.4252C39.7397 22.1069 39.9213 26.5316 37.3787 30.9398C37.2466 25.1448 35.1994 21.9748 31.7983 20.6871C31.7983 20.6871 32.2936 21.4961 32.0295 22.3546C31.6497 23.5598 30.6592 23.4773 30.5766 25.1778H31.9304L30.5766 28.8265H31.9304L30.5766 32.4752H31.9304L30.5766 36.1239H31.9304L30.5766 39.7727H31.8809C31.8809 39.7727 30.4115 42.3482 30.4115 43.0416C30.4115 43.7351 30.9233 43.6855 30.9233 43.6855L32.7559 42.1006L31.9965 44.2799L33.6144 43.4379L33.2182 44.5606L35.5956 44.1148C33.2182 45.1549 31.0389 46.3767 29.0247 47.714C27.0435 46.3932 24.8972 45.2045 22.5527 44.1643L24.6495 44.5606L24.2533 43.4379L25.8713 44.2799L25.1118 42.1006L26.9444 43.6855C26.9444 43.6855 27.4562 43.7351 27.4562 43.0416C27.4562 42.3647 25.9868 39.7727 25.9868 39.7727H27.2746L25.9208 36.1239H27.2746L25.9208 32.4752H27.2746L25.9208 28.8265H27.2746L25.9208 25.1778H27.2746C27.1921 23.4773 26.2015 23.5598 25.8217 22.3546C25.5576 21.4961 26.0529 20.6871 26.0529 20.6871C22.6518 21.9748 20.6211 25.1283 20.4725 30.9398C17.9299 26.5316 18.1115 22.1069 22.7013 18.4252C19.0361 19.3828 15.9487 21.2154 15.3049 28.9751C12.6302 21.7602 15.8992 15.635 21.9914 14.2647C16.5926 14.6609 12.8944 17.7813 11.392 24.5174C10.2198 18.7224 11.9698 11.7221 21.4466 10.2362C17.5832 9.50978 14.1326 10.1206 11.4085 13.0759C13.5548 9.13004 16.4771 6.14173 22.4372 7.00025C21.8428 5.84455 19.8121 4.98603 16.2459 4.49073C19.3333 3.51663 22.3546 3.20294 25.0788 5.39878C24.7321 3.86335 23.5598 2.55905 21.8098 1.40335C24.1212 1.60147 26.4656 2.44348 27.7534 4.87046C27.7864 3.86335 27.8524 2.95529 28.0341 2.1463C28.1992 1.33731 28.4798 0.627381 28.9256 0C29.8171 1.25476 30.0318 2.83972 30.0978 4.87046C31.3856 2.44348 33.73 1.60147 36.0414 1.40335C34.2914 2.55905 33.1026 3.87986 32.7724 5.39878C35.4966 3.18643 38.5179 3.51663 41.6053 4.49073C38.0226 5.00254 35.9919 5.84455 35.414 7.00025C41.3741 6.14173 44.2964 9.13004 46.4427 13.0759C43.7186 10.1206 40.268 9.50978 36.4046 10.2362C45.8979 11.7221 47.6479 18.7224 46.4592 24.5174C44.9568 17.7813 41.2586 14.6609 35.8598 14.2647Z" fill="#01794C"></path>
</svg></svg></g></g></svg></g><g id="dark-icon"><svg xmlns="http://www.w3.org/2000/svg" version="1.1" xmlns:xlink="http://www.w3.org/1999/xlink" width="1000" height="1000"><g><g transform="matrix(20.833333333333332,0,0,20.833333333333332,62.5,0)"><svg xmlns="http://www.w3.org/2000/svg" version="1.1" xmlns:xlink="http://www.w3.org/1999/xlink" width="42" height="48"><svg width="42" height="48" viewBox="0 0 42 48" fill="none" xmlns="http://www.w3.org/2000/svg">
<path d="M9.56081 30.5876C17.7845 32.1377 23.3696 36.9891 27.2034 40.7401C27.0259 41.0832 26.872 41.4619 26.7064 41.876C26.6117 42.1245 26.5171 42.3493 26.4224 42.5505C22.6714 38.8824 12.1048 31.0018 0 32.8004C0 32.8122 3.71546 29.4872 9.56081 30.5876Z" fill="white"></path>
<path d="M34.9301 45.9345C34.9301 46.5143 34.374 47.1533 33.3682 47.1533C32.4216 47.1533 30.3864 46.5498 27.5939 43.781C27.7477 43.4733 27.8897 43.142 28.0199 42.8107C28.15 42.4912 28.2802 42.2072 28.3985 41.9588C30.4574 44.0058 31.9246 45.4967 33.0014 45.4967C33.0014 45.4967 33.0369 44.7513 33.7824 44.7513C34.5278 44.7513 34.9301 45.3429 34.9301 45.9345Z" fill="white"></path>
<path d="M30.0789 38.6455C28.8364 38.6455 27.878 39.8525 27.0379 42.006C25.9019 44.9287 24.8843 44.7749 24.6477 44.7394C24.3282 44.6802 24.0797 44.2661 24.2099 44.1951C24.3637 44.1241 24.2572 44.5264 24.766 44.6329C24.9908 44.6802 25.7954 44.4435 25.5115 43.6863C25.405 43.4023 24.9198 43.1301 24.3282 43.1301C23.7366 43.1301 23.0029 43.4496 23.0029 44.3489C23.0029 45.2482 23.5472 45.8635 24.7897 45.8635C26.0321 45.8635 26.8485 44.7394 27.7005 42.6686C28.9903 39.5566 29.9251 39.7105 30.2209 39.7815C30.5404 39.8525 30.7888 40.2548 30.6587 40.3258C30.5048 40.3968 30.6113 39.9945 30.1025 39.888C29.8777 39.8406 29.0731 40.0773 29.3571 40.8346C29.4636 41.1186 29.9487 41.3907 30.5403 41.3907C31.132 41.3907 31.8656 41.0712 31.8656 40.1719C31.8656 39.2608 31.3213 38.6455 30.0789 38.6455Z" fill="white"></path>
<path d="M32.0075 30.5876C23.7838 32.1377 18.1988 36.9891 14.365 40.7401C14.5425 41.0832 14.6963 41.4619 14.862 41.876C14.9566 42.1245 15.0513 42.3493 15.1459 42.5505C18.8969 38.8824 29.4635 31.0018 41.5683 32.8004C41.5683 32.8122 37.8529 29.4872 32.0075 30.5876Z" fill="white"></path>
<path d="M6.63806 45.9345C6.63806 46.5143 7.1942 47.1533 8.19998 47.1533C9.14659 47.1533 11.1818 46.5498 13.9743 43.781C13.8205 43.4733 13.6785 43.142 13.5484 42.8107C13.4182 42.4912 13.288 42.2072 13.1697 41.9588C11.1108 44.0058 9.64357 45.4967 8.5668 45.4967C8.5668 45.4967 8.53129 44.7513 7.78583 44.7513C7.02854 44.7394 6.63806 45.3429 6.63806 45.9345Z" fill="white"></path>
<path d="M11.4897 38.6455C12.7322 38.6455 13.6906 39.8525 14.5307 42.006C15.6667 44.9287 16.6843 44.7749 16.9209 44.7394C17.2404 44.6802 17.4889 44.2661 17.3588 44.1951C17.2049 44.1241 17.3114 44.5264 16.8026 44.6329C16.5778 44.6802 15.7732 44.4435 16.0572 43.6863C16.1637 43.4023 16.6488 43.1301 17.2404 43.1301C17.8321 43.1301 18.5657 43.4496 18.5657 44.3489C18.5657 45.2482 18.0214 45.8635 16.779 45.8635C15.5365 45.8635 14.7201 44.7394 13.8681 42.6686C12.5783 39.5566 11.6436 39.7105 11.3477 39.7815C11.0283 39.8525 10.7798 40.2548 10.9099 40.3258C11.0638 40.3968 10.9573 39.9945 11.4661 39.888C11.6909 39.8406 12.4955 40.0773 12.2115 40.8346C12.105 41.1186 11.6199 41.3907 11.0283 41.3907C10.4366 41.3907 9.703 41.0712 9.703 40.1719C9.703 39.2608 10.2473 38.6455 11.4897 38.6455Z" fill="white"></path>
<path d="M25.7006 10.2234C30.0668 11.2056 32.4097 15.5955 30.4928 20.7664C30.0313 15.205 27.8186 13.8916 25.1918 13.2053C28.4812 15.844 28.6114 19.0151 26.7892 22.1745C26.6945 18.0212 25.2273 15.7493 22.7897 14.8264C22.7897 14.8264 23.1447 15.4062 22.9554 16.0215C22.6832 16.8853 21.9733 16.8261 21.9141 18.0449H22.8844L21.9141 20.6599H22.8844L21.9141 23.2749H22.8844L21.9141 25.8899H22.8844L21.9141 28.505H22.8489C22.8489 28.505 21.7958 30.3509 21.7958 30.8478C21.7958 31.3448 22.1626 31.3093 22.1626 31.3093L23.476 30.1734L22.9317 31.7353L24.0913 31.1318L23.8073 31.9364L25.5112 31.617C23.8073 32.3624 22.2454 33.238 20.8018 34.1965C19.3819 33.2499 17.8437 32.3979 16.1634 31.6525L17.6662 31.9364L17.3822 31.1318L18.5418 31.7353L17.9975 30.1734L19.3109 31.3093C19.3109 31.3093 19.6777 31.3448 19.6777 30.8478C19.6777 30.3627 18.6246 28.505 18.6246 28.505H19.5476L18.5773 25.8899H19.5476L18.5773 23.2749H19.5476L18.5773 20.6599H19.5476L18.5773 18.0449H19.5476C19.4884 16.8261 18.7784 16.8853 18.5063 16.0215C18.317 15.4062 18.6719 14.8264 18.6719 14.8264C16.2344 15.7493 14.779 18.0094 14.6725 22.1745C12.8503 19.0151 12.9804 15.844 16.2699 13.2053C13.6431 13.8916 11.4303 15.205 10.9689 20.7664C9.05197 15.5955 11.3948 11.2056 15.7611 10.2234C11.8918 10.5074 9.24129 12.7438 8.16451 17.5716C7.32439 13.4183 8.57866 8.40121 15.3706 7.33627C12.6018 6.81563 10.1287 7.25344 8.17634 9.37149C9.71459 6.54348 11.809 4.40176 16.0806 5.01706C15.6546 4.18877 14.1992 3.57347 11.6433 3.21849C13.856 2.52036 16.0214 2.29554 17.9738 3.86929C17.7253 2.76885 16.8852 1.83407 15.6309 1.00578C17.2875 1.14777 18.9678 1.75124 19.8907 3.49064C19.9144 2.76885 19.9617 2.11805 20.0919 1.53825C20.2102 0.958448 20.4114 0.449642 20.7308 0C21.3698 0.899285 21.5236 2.03522 21.571 3.49064C22.4939 1.75124 24.1742 1.14777 25.8307 1.00578C24.5765 1.83407 23.7245 2.78068 23.4878 3.86929C25.4402 2.28371 27.6056 2.52036 29.8183 3.21849C27.2506 3.58531 25.7952 4.18877 25.3811 5.01706C29.6527 4.40176 31.7471 6.54348 33.2853 9.37149C31.3329 7.25344 28.8599 6.81563 26.091 7.33627C32.8948 8.40121 34.1491 13.4183 33.2972 17.5716C32.2204 12.7438 29.5698 10.5074 25.7006 10.2234Z" fill="white"></path>
</svg></svg></g></g></svg></g></svg>