<svg width="38" height="34" viewBox="0 0 38 34" fill="none" xmlns="http://www.w3.org/2000/svg">
<path d="M13.8899 0.876839C17.3077 0.790974 20.692 0.790971 24.1097 0.876839L24.2122 0.879768C26.8804 0.946769 29.0276 1.00002 30.7483 1.29969C32.5499 1.61345 34.0143 2.21529 35.2513 3.45692C36.483 4.69333 37.0812 6.13685 37.389 7.90907C37.682 9.59672 37.7272 11.692 37.7825 14.287L37.7845 14.3895C37.8217 16.1331 37.8217 17.8667 37.7845 19.6102L37.7825 19.7128C37.7272 22.3078 37.682 24.403 37.389 26.0907C37.0812 27.863 36.483 29.3064 35.2513 30.5429C34.0143 31.7845 32.5499 32.3863 30.7483 32.7001C29.0276 32.9998 26.8805 33.054 24.2122 33.121L24.1097 33.1229C20.692 33.2088 17.3077 33.2088 13.8899 33.1229L13.7884 33.121C11.12 33.054 8.97207 32.9998 7.25128 32.7001C5.44981 32.3863 3.98528 31.7845 2.74835 30.5429C1.51664 29.3064 0.918444 27.863 0.61065 26.0907C0.317578 24.4031 0.272391 22.3078 0.217096 19.7128L0.215143 19.6102C0.17796 17.8666 0.177961 16.1331 0.215143 14.3895L0.217096 14.287C0.272389 11.692 0.317579 9.59672 0.61065 7.90907C0.617755 7.86816 0.625692 7.82755 0.633111 7.78699L0.333307 7.61707L0.919244 6.58192C1.27621 5.39507 1.83932 4.36941 2.74835 3.45692C3.98529 2.21527 5.4498 1.61347 7.25128 1.29969C8.97209 1 11.1199 0.946768 13.7884 0.879768L13.8899 0.876839ZM24.5296 14.4716C22.2665 15.7538 20.4275 16.5379 18.4808 16.538C16.5339 16.538 14.6942 15.7539 12.431 14.4716L3.08233 9.17469C2.92747 10.5194 2.88799 12.2015 2.84014 14.4452C2.80376 16.1515 2.80375 17.8483 2.84014 19.5546C2.89819 22.2766 2.94146 24.1723 3.19659 25.6415C3.44087 27.0481 3.86106 27.9398 4.6087 28.6903C5.35111 29.4354 6.25444 29.862 7.70245 30.1141C9.20947 30.3765 11.1617 30.4287 13.9554 30.4989C17.3292 30.5837 20.6704 30.5837 24.0442 30.4989C26.8383 30.4287 28.791 30.3766 30.2982 30.1141C31.7462 29.8619 32.6495 29.4356 33.3919 28.6903C34.1395 27.9399 34.5588 27.0481 34.803 25.6415C35.0582 24.1723 35.1024 22.2766 35.1605 19.5546C35.1968 17.8483 35.1968 16.1515 35.1605 14.4452C35.1059 11.8857 35.06 10.0575 34.8431 8.62684L24.5296 14.4716ZM24.0442 3.50086C20.6704 3.41609 17.3293 3.4161 13.9554 3.50086C11.1618 3.57105 9.20946 3.62324 7.70245 3.88563C6.2545 4.13779 5.35109 4.56439 4.6087 5.30946C4.24946 5.67006 3.96624 6.06393 3.74151 6.53114L13.7249 12.1884C15.9217 13.4331 17.2554 13.913 18.4808 13.913C19.706 13.9129 21.0392 13.4329 23.2357 12.1884L34.0101 6.08192C33.8336 5.80238 33.6299 5.54835 33.3919 5.30946C32.6495 4.56424 31.7461 4.13882 30.2982 3.8866C28.791 3.62413 26.8383 3.57106 24.0442 3.50086Z" fill="#A38A5F"/>
</svg>
