<svg width="38" height="38" viewBox="0 0 38 38" fill="none" xmlns="http://www.w3.org/2000/svg">
<path fill-rule="evenodd" clip-rule="evenodd" d="M18.5973 0.213026L10.6758 0.189617C8.56396 0.183341 6.85253 0.178255 5.50485 0.346795C4.10686 0.521628 2.90075 0.903148 1.93436 1.82278C0.958705 2.75124 0.545245 3.92506 0.357117 5.28586C0.178052 6.5811 0.183117 8.22091 0.189295 10.221L0.221501 20.7306C0.227583 22.731 0.232569 24.3707 0.41953 25.6667C0.616012 27.0287 1.03611 28.2 2.01203 29.129C2.97895 30.0495 4.18277 30.4378 5.5822 30.621C6.9307 30.7974 8.64209 30.8025 10.7543 30.8087L11.1676 30.8099C11.5606 32.2441 11.9119 33.4487 12.3193 34.4039C12.833 35.6078 13.5068 36.5929 14.6362 37.218C15.7576 37.8386 16.9632 37.9019 18.2845 37.7292C19.5529 37.5633 21.1061 37.1521 23.0114 36.6476L27.474 35.4662C28.0347 35.3182 28.5049 35.194 28.9361 34.9679C29.3687 34.7411 29.736 34.4255 30.1719 34.051L35.0952 29.8265C35.7101 29.2989 36.2445 28.8404 36.6486 28.4153C37.0825 27.9589 37.4481 27.4595 37.651 26.8193C37.8549 26.176 37.8409 25.5598 37.7425 24.9416C37.6516 24.3709 37.4709 23.7049 37.2653 22.9469L34.6547 13.3205C34.1593 11.4934 33.7517 9.99034 33.2633 8.84572C32.7497 7.64172 32.0759 6.65662 30.9464 6.03157C30.3089 5.67872 29.6441 5.50604 28.9463 5.45445C28.7556 4.04705 28.3369 2.84217 27.3395 1.89268C26.3726 0.972191 25.1688 0.58388 23.7693 0.400736C22.4209 0.224261 20.7095 0.219232 18.5973 0.213026ZM26.3265 5.68174C26.1744 4.66789 25.9128 4.15877 25.5296 3.79392C25.1323 3.41577 24.5595 3.15153 23.4287 3.00354C22.2662 2.8514 20.7234 2.84432 18.499 2.83775L10.759 2.81487C8.53442 2.8083 6.99186 2.80628 5.8306 2.95151C4.70035 3.09285 4.13377 3.3534 3.74394 3.72437C3.36338 4.08652 3.10193 4.59983 2.95739 5.64534C2.8067 6.73527 2.80808 8.18847 2.81458 10.3111L2.84619 20.6247C2.85269 22.7473 2.86021 24.2007 3.01764 25.2919C3.16858 26.3383 3.43375 26.8582 3.82197 27.2278C4.2192 27.6059 4.79205 27.8702 5.92284 28.0182C7.01467 28.1611 8.44194 28.176 10.4544 28.1827L8.31897 20.3086C7.82351 18.4818 7.41585 16.9788 7.25947 15.7459C7.09505 14.4496 7.17922 13.2586 7.84487 12.153C8.50564 11.0555 9.52214 10.4036 10.7535 9.90056C11.9361 9.41744 13.4894 9.00624 15.3945 8.50192L22.5712 6.60195C24.0155 6.21955 25.2575 5.89071 26.3265 5.68174ZM23.1552 9.16278C25.1698 8.62943 26.5584 8.26447 27.6385 8.12327C28.6852 7.98643 29.2454 8.09034 29.6754 8.32832C30.0974 8.56185 30.4578 8.95907 30.8489 9.8758C31.2571 10.8326 31.6194 12.1572 32.1464 14.1003L34.7151 23.5724C34.7676 23.7659 34.8155 23.943 34.859 24.106L34.8571 24.1052C33.5815 23.5918 31.6376 23.0986 29.8258 23.9325C28.7877 24.4102 28.1248 25.5107 27.6922 26.4395C27.2221 27.4487 26.8538 28.6422 26.5724 29.7476C26.2886 30.8626 26.0813 31.9364 25.9451 32.7279C25.9174 32.8889 25.8926 33.0387 25.8706 33.1753L22.4275 34.0868C20.4129 34.6201 19.0242 34.9851 17.9442 35.1263C16.8975 35.2631 16.3373 35.1592 15.9073 34.9212C15.4853 34.6877 15.1249 34.2905 14.7338 33.3738C14.3256 32.417 13.9633 31.0924 13.4363 29.1493L10.8777 19.7147C10.3507 17.7714 9.99423 16.4455 9.86361 15.4156C9.73839 14.4284 9.8503 13.9113 10.0937 13.507C10.3421 13.0945 10.7701 12.7293 11.7462 12.3306C12.7526 11.9195 14.1398 11.5495 16.1545 11.0162L23.1552 9.16278ZM33.877 26.5404C34.1066 26.6328 34.3231 26.7323 34.521 26.8314C34.2381 27.1018 33.8617 27.426 33.339 27.8745L28.799 31.7701C28.8907 31.3317 28.9964 30.8661 29.1163 30.3952C29.3801 29.3586 29.701 28.3438 30.0718 27.5478C30.48 26.6712 30.8095 26.3694 30.9233 26.3171C31.7245 25.9483 32.7933 26.1041 33.877 26.5404Z" fill="#A38A5F"/>
</svg>
